<?xml version="1.0" standalone="no"?>
<!DOCTYPE svg PUBLIC "-//W3C//DTD SVG 1.1//EN" "http://www.w3.org/Graphics/SVG/1.1/DTD/svg11.dtd" >
<svg xmlns="http://www.w3.org/2000/svg" xmlns:xlink="http://www.w3.org/1999/xlink" version="1.1">
<metadata>
Created by FontForge 20170731 at Wed Dec 13 13:37:35 2023
 By Aleksey,,,
Copyright (c) 2019 by BumBumType. All rights reserved.
</metadata>
<defs>
<font id="AlbraTRIAL-RegularItalic" horiz-adv-x="1157" >
  <font-face 
    font-family="Albra TRIAL"
    font-weight="400"
    font-style="italic"
    font-stretch="normal"
    units-per-em="2048"
    panose-1="0 0 0 0 0 0 0 0 0 0"
    ascent="1610"
    descent="-438"
    x-height="981"
    cap-height="1464"
    bbox="-338 -469 2380 2214"
    underline-thickness="102"
    underline-position="-358"
    slope="-12"
    unicode-range="U+0020-201E"
  />
<missing-glyph horiz-adv-x="1017" 
d="M-61 0l311 1464h936l-312 -1464h-935zM14 66h815l283 1333h-815z" />
    <glyph glyph-name=".notdef" horiz-adv-x="1017" 
d="M-61 0l311 1464h936l-312 -1464h-935zM14 66h815l283 1333h-815z" />
    <glyph glyph-name=".null" horiz-adv-x="0" 
 />
    <glyph glyph-name="nonmarkingreturn" horiz-adv-x="682" 
 />
    <glyph glyph-name="space" unicode=" " horiz-adv-x="462" 
 />
    <glyph glyph-name="space" unicode="&#xa0;" horiz-adv-x="462" 
 />
    <glyph glyph-name="exclam" unicode="!" horiz-adv-x="448" 
d="M168 408q10 70 36.5 251t40 277.5t31.5 243.5t29 268l4 16h213l-6 -16q-49 -151 -100 -325t-115.5 -405t-87.5 -310h-45zM147 -12q-52 0 -90.5 36.5t-38.5 86.5q0 52 38 89.5t91 37.5q51 0 89 -37.5t38 -89.5q0 -49 -38 -86t-89 -37z" />
    <glyph glyph-name="parenleft" unicode="(" horiz-adv-x="722" 
d="M485 -399q-170 127 -263 308t-93 439q0 254 86.5 488t262.5 435.5t427 340.5l10 -23q-312 -240 -476.5 -581.5t-164.5 -720.5q0 -127 18 -232t53 -185t69.5 -135t83.5 -116z" />
    <glyph glyph-name="parenright" unicode=")" horiz-adv-x="720" 
d="M-131 -399l-10 20q305 232 473 576t168 731q0 125 -18 230t-52 185t-68.5 135.5t-82.5 114.5l10 19q170 -129 263 -309.5t93 -438.5q0 -254 -86.5 -487.5t-262.5 -435t-427 -340.5z" />
    <glyph glyph-name="asterisk" unicode="*" horiz-adv-x="958" 
d="M688 705l-6 12l-80 342l-221 -342l-10 -10l-144 114l15 13l336 235l-369 29l-16 4l104 190l14 -6l283 -186l-10 348l4 16h203l-5 -16l-161 -350l366 188l17 6l22 -188l-16 -6l-383 -27l237 -237l9 -13z" />
    <glyph glyph-name="comma" unicode="," horiz-adv-x="485" 
d="M47 -276l-8 16q112 125 145 262q-6 -2 -18 -2q-55 0 -92 34.5t-37 84.5q0 51 37 87t88 36q50 0 86.5 -39t36.5 -115q0 -94 -60 -197t-178 -167z" />
    <glyph glyph-name="hyphen" unicode="-" horiz-adv-x="745" 
d="M88 506l12 63h582l-12 -63h-582z" />
    <glyph glyph-name="period" unicode="." horiz-adv-x="481" 
d="M162 -12q-51 0 -89 37.5t-38 89.5q0 51 38 89t89 38q52 0 90.5 -38t38.5 -89q0 -52 -38 -89.5t-91 -37.5z" />
    <glyph glyph-name="slash" unicode="/" horiz-adv-x="651" 
d="M-164 -240l979 1821h49l-981 -1821h-47z" />
    <glyph glyph-name="zero" unicode="0" horiz-adv-x="1134" 
d="M461 -25q-166 0 -267.5 135.5t-101.5 374.5q0 178 58.5 357.5t151.5 315.5t217.5 221t248.5 85q165 0 267 -141t102 -383q0 -177 -57 -353.5t-149.5 -310.5t-217.5 -217.5t-252 -83.5zM469 20q87 0 177 99t156.5 248.5t109 332t42.5 342.5q0 183 -52.5 280t-139.5 97
q-114 0 -229.5 -163.5t-187 -403.5t-71.5 -457q0 -181 54 -278t141 -97z" />
    <glyph glyph-name="one" unicode="1" horiz-adv-x="700" 
d="M6 0l2 12q72 23 109 40t63.5 47t37 62.5t24.5 98.5l192 899q15 74 -19.5 108t-156.5 58l2 10l420 140l-258 -1215q-8 -36 -11.5 -55t-6 -43t-0.5 -35.5t8.5 -27.5t16.5 -24t28 -20t39.5 -21t54.5 -22l-2 -12h-543z" />
    <glyph glyph-name="two" unicode="2" horiz-adv-x="1003" 
d="M-84 0l8 41q205 167 358.5 309.5t273.5 280.5t181.5 259t61.5 222q0 100 -55.5 155.5t-153.5 55.5q-99 0 -198.5 -56t-180.5 -151l-23 12q87 141 229 238.5t283 97.5q129 0 215 -81.5t86 -213.5q0 -61 -21.5 -126t-56.5 -126t-96.5 -133t-124.5 -135.5t-159 -146.5
t-181 -153t-208 -167h426q117 0 179.5 32.5t162.5 145.5l10 -4l-187 -356h-829z" />
    <glyph glyph-name="three" unicode="3" horiz-adv-x="1052" 
d="M408 -25q-183 0 -426 91l118 196l9 -4q65 -106 150 -170.5t177 -64.5q135 0 236.5 122t101.5 289q0 115 -50.5 190t-144.5 94.5t-227 -32.5l-6 33q498 217 498 459q0 80 -51 121.5t-138 41.5q-183 0 -399 -174l-16 17q107 127 235.5 203.5t267.5 76.5q132 0 211.5 -69.5
t79.5 -180.5q0 -63 -27.5 -120t-69.5 -98.5t-98.5 -77t-107.5 -57.5t-104 -38l-2 -2q60 9 120.5 -8t112 -56t83.5 -108t32 -157q0 -139 -75 -258t-205.5 -189t-284.5 -70z" />
    <glyph glyph-name="four" unicode="4" horiz-adv-x="1144" 
d="M393 0l4 12q43 13 72.5 25.5t53 23.5t39 27t26 29t19 38.5t13.5 45.5t13 59l35 168h-627l8 41l967 991h53l-197 -925h232l-43 -107h-211l-35 -168q-8 -37 -11 -54t-6 -42.5t-1 -36t7.5 -27.5t16 -25t28 -20.5t40 -21.5t55.5 -21l-4 -12h-547zM176 535h514l146 684z" />
    <glyph glyph-name="five" unicode="5" horiz-adv-x="1064" 
d="M391 -25q-188 0 -411 97l122 221h13q48 -130 125.5 -203.5t169.5 -73.5q90 0 172 62t133 168.5t51 226.5q0 147 -76.5 227t-202.5 80q-141 0 -317 -88l336 748h416q60 0 101 7.5t76 28.5t57 42t63 65l10 -4l-187 -324h-563l-184 -419q131 55 268 55q181 0 289.5 -107.5
t108.5 -277.5q0 -104 -43.5 -201t-118.5 -170t-182 -116.5t-226 -43.5z" />
    <glyph glyph-name="six" unicode="6" horiz-adv-x="1128" 
d="M502 -25q-80 0 -153.5 22.5t-139.5 70t-106 134t-40 201.5q0 119 42.5 243t129.5 246t208 229t289.5 196.5t363.5 144.5l2 -28q-285 -122 -481.5 -310.5t-290.5 -404.5q162 137 333 137q163 0 275.5 -110.5t112.5 -276.5q0 -134 -76.5 -248.5t-202 -180t-266.5 -65.5z
M512 14q140 0 240 125.5t100 302.5q0 144 -71 237t-197 93q-143 0 -287 -125q-47 -139 -47 -268q0 -159 69 -262t193 -103z" />
    <glyph glyph-name="seven" unicode="7" horiz-adv-x="1021" 
d="M170 0q124 332 318 636t491 603h-475q-119 0 -181.5 -32t-152.5 -146l-14 4l186 375h852l-6 -33q-327 -346 -506.5 -657.5t-312.5 -749.5h-199z" />
    <glyph glyph-name="eight" unicode="8" horiz-adv-x="1075" 
d="M469 -25q-117 0 -214.5 41t-156.5 120t-59 181q0 142 111.5 258.5t304.5 176.5q-203 132 -203 321q0 108 64 198.5t168 141.5t221 51q157 0 268.5 -86t111.5 -209q0 -55 -26.5 -107t-66.5 -90.5t-92.5 -72.5t-98.5 -55t-90 -35q38 -23 67.5 -43.5t70.5 -58.5t68 -76.5
t46.5 -93.5t19.5 -115q0 -88 -39.5 -170t-106.5 -143t-163.5 -97.5t-204.5 -36.5zM473 18q132 0 228 95.5t96 228.5q0 121 -84.5 216t-227.5 175q-128 -62 -207 -179t-79 -247t78 -209.5t196 -79.5zM680 825q123 71 190.5 162.5t67.5 190.5q0 103 -68 173t-172 70
q-111 0 -189.5 -80t-78.5 -188q0 -91 62.5 -169t187.5 -159z" />
    <glyph glyph-name="nine" unicode="9" horiz-adv-x="1128" 
d="M131 -23l-2 29q285 122 481.5 310.5t290.5 404.5q-162 -137 -334 -137q-163 0 -275 110.5t-112 276.5q0 134 76.5 248t202 179.5t266.5 65.5q63 0 122.5 -13t117.5 -45t101.5 -79.5t70 -122.5t26.5 -168q0 -119 -42.5 -243t-129 -246t-208 -229t-289.5 -196.5
t-363 -144.5zM643 668q143 0 287 125q47 139 47 268q0 159 -68.5 261.5t-193.5 102.5q-140 0 -240 -125.5t-100 -302.5q0 -143 71 -236t197 -93z" />
    <glyph glyph-name="question" unicode="?" horiz-adv-x="897" 
d="M299 410q24 87 65.5 162.5t87.5 129t96 103t95.5 94.5t82 92t58 107t21.5 129q0 95 -38.5 158t-113.5 63q-81 0 -166.5 -79t-160.5 -218h-4l-78 192q99 68 211 107t215 39q142 0 230.5 -74.5t88.5 -214.5q0 -75 -27.5 -139t-73.5 -113t-103 -93.5t-119.5 -90.5
t-118.5 -94.5t-105 -115.5t-75 -144h-68zM307 -12q-52 0 -90.5 36.5t-38.5 86.5q0 52 38 89.5t91 37.5q51 0 89 -37.5t38 -89.5q0 -49 -38 -86t-89 -37z" />
    <glyph glyph-name="A" unicode="A" horiz-adv-x="1433" 
d="M-94 0l2 12q124 65 198.5 142t198.5 270l557 854l-24 119q94 36 219 110l127 -1319q4 -43 9 -64t19.5 -43t40 -36.5t72.5 -32.5l-2 -12h-580l5 12q43 14 73 25t54.5 24t39.5 21.5t25.5 23t15 24.5t6 30t0.5 34.5t-4 43.5l-26 270h-508l-45 -72q-53 -84 -75.5 -122
t-48.5 -90t-26.5 -75t8 -52.5t37 -47.5t76.5 -37l-2 -12h-442zM475 588h451l-52 618z" />
    <glyph glyph-name="B" unicode="B" horiz-adv-x="1345" 
d="M-61 0l2 12q51 16 84 29t58 31t38 30.5t24.5 41.5t16 49t14.5 67l201 944q20 74 18.5 119t-32 71t-115.5 58l2 12h635q195 0 305 -84t110 -215q0 -130 -109.5 -217.5t-289.5 -122.5l-2 -4q144 -30 236 -117t92 -225q0 -136 -88 -246.5t-236 -171.5t-323 -61h-641zM563 55
q104 0 187 36t135.5 97t80 139.5t27.5 166.5q0 149 -74 213t-194 59l-219 -8l-133 -617q-7 -33 44.5 -59.5t145.5 -26.5zM518 817h184q153 0 263 106t110 253q0 106 -64 171.5t-173 65.5h-195z" />
    <glyph glyph-name="C" unicode="C" horiz-adv-x="1382" 
d="M664 -25q-264 0 -415 149t-151 413q0 140 42.5 279.5t122.5 259.5t187 213t245 146.5t286 53.5q188 0 426 -78l-29 -326h-12q-65 158 -170 256.5t-233 98.5q-93 0 -187 -52t-172 -143t-139 -206t-95 -249.5t-34 -265.5q0 -119 28.5 -215.5t76.5 -157t109 -92.5t128 -32
q122 0 264 96t275 256h12l-111 -326q-244 -78 -454 -78z" />
    <glyph glyph-name="D" unicode="D" horiz-adv-x="1464" 
d="M-61 0l2 12q132 44 172 84q32 33 51 109q3 13 12 55l201 944q20 74 18.5 119t-32 71t-115.5 58l2 12h526q174 0 306.5 -42.5t214.5 -120t123.5 -181.5t41.5 -233q0 -175 -73.5 -338.5t-196 -283.5t-288.5 -192.5t-343 -72.5h-622zM555 55q109 0 212 46t186 128
t145.5 189.5t96.5 237.5t34 264q0 493 -471 493h-115l-270 -1272q-6 -34 44.5 -60t137.5 -26z" />
    <glyph glyph-name="E" unicode="E" horiz-adv-x="1263" 
d="M-61 0l2 12q132 44 172 84q32 33 51 109q3 13 12 55l201 944q20 74 18.5 119t-32 71t-115.5 58l2 12h1010l-35 -340h-13q-20 130 -97 209.5t-206 79.5h-264l-129 -604h264q72 0 139 37.5t117 99.5h11l-74 -340h-10q-18 62 -67 108.5t-128 45.5l-264 -4l-131 -615
q-5 -24 19.5 -43.5t85 -32t149.5 -12.5h100q100 0 207 80.5t201 222.5h12l-125 -356h-1083z" />
    <glyph glyph-name="F" unicode="F" horiz-adv-x="1187" 
d="M-61 0l2 12q132 44 172 84q32 33 51 109q3 13 12 55l201 944q20 74 18.5 119t-32 71t-115.5 58l2 12h1018l-35 -340h-12q-20 130 -97 209.5t-206 79.5h-273l-129 -604h258q72 0 139 37.5t117 99.5h10l-73 -340h-11q-22 71 -73 113t-121 41l-258 -4l-105 -496
q-32 -115 -6.5 -159.5t172.5 -88.5l-4 -12h-622z" />
    <glyph glyph-name="G" unicode="G" horiz-adv-x="1536" 
d="M639 -25q-250 0 -395.5 152.5t-145.5 415.5q0 137 40.5 274t119.5 257.5t186 213.5t249 147t298 54q215 0 447 -84l-31 -332h-14q-69 170 -180 268.5t-246 98.5q-122 0 -239 -81t-202.5 -210t-137.5 -297t-52 -336q0 -239 100.5 -363t261.5 -124q44 0 91.5 9t100.5 29.5
t92.5 62.5t51.5 99l62 281q14 54 12 96.5t-21.5 72t-71.5 45t-138 15.5l6 23h596l-4 -12q-60 -31 -84.5 -53t-41.5 -62.5t-36 -132.5l-96 -457h-13q-45 49 -104 49q-31 0 -79 -18.5t-95 -41t-125 -41t-162 -18.5z" />
    <glyph glyph-name="H" unicode="H" horiz-adv-x="1568" 
d="M-61 0l2 12q132 44 172 84q32 33 51 109q3 13 12 55l201 944q20 74 18.5 119t-32 71t-115.5 58l2 12h586l-2 -12q-68 -23 -105 -40.5t-64 -46.5t-39.5 -63.5t-25.5 -97.5l-78 -362h676l78 362q10 46 14.5 69t4.5 50.5t-7.5 41t-25.5 30.5t-45 29t-70 28l2 12h588l-2 -12
q-50 -17 -83.5 -30.5t-58.5 -32t-38 -31.5t-24.5 -41.5t-16.5 -48t-15 -64.5l-201 -944q-10 -47 -14 -76t-1 -54.5t10 -39t27.5 -28.5t42.5 -24.5t64 -25.5l-2 -12h-587l2 12q74 24 112.5 41.5t64 48.5t35 60.5t23.5 97.5l107 504h-678l-105 -504q-8 -37 -11 -54.5t-6 -42.5
t-1 -36t8 -27.5t16.5 -24.5t28 -20.5t39.5 -21.5t55 -21l-4 -12h-585z" />
    <glyph glyph-name="I" unicode="I" horiz-adv-x="669" 
d="M-61 0l2 12q132 44 172 84q32 33 51 109q3 13 12 55l201 944q20 74 18.5 119t-32 71t-115.5 58l2 12h586l-2 -12q-138 -46 -173 -86.5t-59 -152.5q-1 -2 -1 -3t-0.5 -3t-0.5 -3l-201 -944q-10 -47 -14 -76t-1 -54.5t10 -39t27.5 -28.5t42.5 -24.5t64 -25.5l-4 -12h-585z
" />
    <glyph glyph-name="J" unicode="J" horiz-adv-x="653" 
d="M-113 -270v22q96 50 155 121.5t83 181.5l246 1149q20 73 18.5 118t-32 71.5t-115.5 58.5l2 12h585l-2 -12q-38 -12 -65.5 -22t-50 -23t-36.5 -21t-27 -26t-19 -27.5t-14 -36t-11.5 -40.5t-11.5 -52l-215 -1014q-18 -86 -57 -157t-85.5 -117.5t-109.5 -85t-117 -60
t-121 -40.5z" />
    <glyph glyph-name="K" unicode="K" horiz-adv-x="1443" 
d="M942 0l-416 727l545 442q135 110 135 189q0 58 -86 94l2 12h471l-2 -12q-116 -57 -216.5 -121.5t-225.5 -163.5l-420 -331l377 -660q37 -65 94.5 -107t116.5 -57l-4 -12h-371zM-61 0l2 12q51 16 84 29t58 31t38 30.5t24.5 41.5t16 49t14.5 67l201 944q20 73 19 118
t-31.5 71.5t-116.5 58.5l2 12h586l-2 -12q-50 -16 -82.5 -28.5t-57.5 -31t-37.5 -30.5t-24.5 -42t-16.5 -49t-15.5 -67l-201 -944q-8 -36 -11 -53.5t-6 -42t-1 -35.5t8 -27.5t16.5 -25t28 -20.5t40 -22t54.5 -22l-4 -12h-585z" />
    <glyph glyph-name="L" unicode="L" horiz-adv-x="1275" 
d="M-61 0l2 12q132 44 172 84q32 33 51 109q3 13 12 55l201 944q20 74 18.5 119t-32 71t-115.5 58l2 12h586l-2 -12q-138 -46 -173 -86.5t-59 -152.5q-1 -2 -1 -3t-0.5 -3t-0.5 -3l-227 -1063q-5 -24 21.5 -43.5t86.5 -32t144 -12.5h114q100 0 207 80.5t201 222.5h12
l-125 -356h-1095z" />
    <glyph glyph-name="M" unicode="M" horiz-adv-x="1847" 
d="M-61 0l2 12q54 15 89.5 29t64.5 36.5t46 44.5t33.5 64.5t27 84.5t25.5 116l195 920q-17 41 -68.5 82.5t-101.5 62.5l2 12h387q197 -541 307 -934l694 934h373l-2 -12q-50 -16 -82 -28.5t-57.5 -30t-38 -30.5t-24.5 -41t-17.5 -49.5t-15.5 -68.5l-201 -944
q-10 -47 -14 -76t-1 -54.5t10 -39t27.5 -28.5t42.5 -24.5t64 -25.5l-2 -12h-588l4 12q50 16 80.5 28t56 28.5t38 29.5t25 40.5t18.5 51t16 70.5l213 1004h-4q-243 -324 -329.5 -440t-202.5 -278.5t-191 -279.5h-29q-229 685 -346 979l-182 -858q-11 -51 -16 -78t-11 -63.5
t-6 -54.5t1.5 -43t9.5 -38t19 -29t30 -26.5t42.5 -21.5t55.5 -21l-2 -12h-467z" />
    <glyph glyph-name="N" unicode="N" horiz-adv-x="1509" 
d="M-61 0l2 12q41 12 71.5 22.5t56.5 26.5t43 29t33 38t25 44.5t20 58t18 69.5t19 87l191 905q-27 90 -164 160l2 12h346q292 -649 551 -1253l184 866q15 76 22.5 118.5t9 85.5t-6 64t-27 43.5t-48 35.5t-75.5 28l2 12h472l-5 -12q-42 -12 -73 -23t-57 -28t-43 -30
t-33 -39.5t-25 -44.5t-20 -58.5t-17 -67.5t-18 -84l-230 -1077h-161q-227 554 -539 1235l-180 -848q-11 -51 -16 -78t-11 -63.5t-6 -54.5t1.5 -43t9.5 -38t19 -29t30 -26.5t42.5 -21.5t55.5 -21l-2 -12h-469z" />
    <glyph glyph-name="O" unicode="O" horiz-adv-x="1542" 
d="M655 -25q-258 0 -407.5 150t-149.5 414q0 139 42.5 277.5t123 259t187.5 213.5t247 146.5t291 53.5q257 0 408 -150t151 -413q0 -138 -42.5 -277t-123.5 -259t-189 -213.5t-247.5 -147.5t-290.5 -54zM705 29q98 0 190 49t164 135.5t126.5 199t83.5 244t29 265.5
q0 238 -94 376t-262 138q-122 0 -234.5 -76t-191 -200t-125.5 -286t-47 -329q0 -242 97.5 -379t263.5 -137z" />
    <glyph glyph-name="P" unicode="P" horiz-adv-x="1245" 
d="M-61 0l2 12q132 44 172 84q32 33 51 109q3 13 12 55l201 944q20 74 18.5 119t-32 71t-115.5 58l2 12h549q86 0 158 -10t138 -34t112 -61.5t73 -96t27 -134.5q0 -209 -190.5 -328.5t-545.5 -119.5h-82l-90 -420q-20 -73 -17.5 -118t36.5 -71.5t127 -58.5l-2 -12h-604z
M500 731h73q251 0 388 107t137 288q0 148 -91.5 218.5t-248.5 70.5h-113z" />
    <glyph glyph-name="Q" unicode="Q" horiz-adv-x="1542" 
d="M1153 -416q-204 44 -344.5 146.5t-179.5 244.5q-246 8 -388.5 157t-142.5 407q0 139 42.5 277.5t123 259t187.5 213.5t247 146.5t291 53.5q257 0 408 -150t151 -413q0 -135 -41 -271t-118.5 -254.5t-181 -211.5t-238 -150t-279.5 -64q52 -96 223 -151t406 -64v-6zM705 29
q98 0 190 49t164 135.5t126.5 199t83.5 244t29 265.5q0 238 -94 376t-262 138q-122 0 -234.5 -76t-191 -200t-125.5 -286t-47 -329q0 -242 97.5 -379t263.5 -137z" />
    <glyph glyph-name="R" unicode="R" horiz-adv-x="1388" 
d="M-61 0l2 12q139 46 173.5 84t58.5 151q1 4 1.5 7t1.5 6l201 944q20 74 18.5 119t-32 71t-115.5 58l2 12h600q225 0 345 -86t120 -229q0 -147 -126.5 -256.5t-344.5 -153.5q86 -189 133.5 -284t150.5 -281q46 -82 132 -162l-3 -12h-303q-132 274 -329 721l-129 -2
l-97 -459q-30 -117 -10.5 -160t139.5 -88l-4 -12h-585zM506 770h184q172 0 287 109.5t115 273.5q0 130 -75 195t-202 65h-172z" />
    <glyph glyph-name="S" unicode="S" 
d="M541 -25q-124 0 -249.5 42.5t-230.5 115.5l54 336h12q42 -197 146.5 -318.5t261.5 -121.5q121 0 195.5 68t74.5 175q0 92 -59 186t-179 208q-5 5 -45 43t-51.5 49.5t-47 49.5t-49 58t-38.5 58t-35.5 67t-19.5 67t-9 75q0 155 123 255.5t312 100.5t411 -107l-33 -321h-12
q-48 173 -141.5 276t-220.5 103q-102 0 -172 -62.5t-70 -165.5q0 -52 18.5 -101t57 -97t72.5 -82t88 -82q49 -44 79.5 -72.5t80 -84.5t78 -103t51 -111t22.5 -127q0 -170 -135.5 -273.5t-339.5 -103.5z" />
    <glyph glyph-name="T" unicode="T" horiz-adv-x="1325" 
d="M272 0l2 12q51 16 82.5 27.5t57 29t38 29.5t24.5 40.5t17.5 51t16.5 70.5l246 1151h-131q-124 0 -233 -77t-185 -210h-12l106 340h1143l-35 -340h-12q-7 52 -25.5 98t-51.5 89.5t-89 70t-129 27.5l-125 2l-244 -1151q-10 -46 -14.5 -75.5t-1.5 -55t10 -39t28 -28.5
t43 -24.5t64 -25.5l-2 -12h-588z" />
    <glyph glyph-name="U" unicode="U" horiz-adv-x="1488" 
d="M668 -25q-67 0 -127.5 11.5t-119 36.5t-100.5 66.5t-72 100.5t-33.5 138.5t15.5 181.5l146 694q7 36 10.5 54.5t6 43t0.5 36t-8 27.5t-16.5 24.5t-28 20.5t-39.5 21t-54 21l4 12h586l-4 -12q-38 -13 -64.5 -23.5t-49.5 -23.5t-37 -21t-27 -25t-19 -27t-14 -35t-11.5 -41
t-11.5 -52l-145 -684q-48 -226 33 -349.5t255 -123.5q104 0 193.5 44t158 138.5t97.5 229.5l133 618q48 183 29 256.5t-156 118.5l4 12h469l-4 -12q-41 -12 -72 -23t-57 -28t-43 -30t-32.5 -39.5t-25 -45t-20.5 -58.5t-17 -67.5t-18 -83.5l-131 -616q-50 -231 -202.5 -358.5
t-380.5 -127.5z" />
    <glyph glyph-name="V" unicode="V" horiz-adv-x="1458" 
d="M504 -4l-139 1313q-4 29 -8.5 44.5t-18.5 34t-41.5 33t-73.5 31.5l2 12h570l-2 -12q-85 -28 -126.5 -49.5t-62 -47t-19 -58.5t4.5 -85l90 -931l584 905q25 39 36 57t23 46.5t12 49.5q0 33 -30 60t-99 53l2 12h443l-2 -12q-120 -48 -179.5 -96t-138.5 -170l-774 -1190h-53
z" />
    <glyph glyph-name="W" unicode="W" horiz-adv-x="2187" 
d="M465 -4l-105 1309q-2 27 -5.5 41.5t-16.5 33.5t-41 36t-74 36l2 12h576l-4 -12q-79 -24 -124 -43.5t-64 -41t-22 -37t-1 -46.5l69 -969l519 832l-15 166q-3 46 -28 71.5t-117 67.5l2 12h579l-4 -12q-80 -25 -122 -46.5t-60.5 -48t-19.5 -61t2 -84.5l61 -895l537 865
q40 64 57.5 99t17.5 60q0 32 -31.5 58.5t-103.5 52.5l2 12h449l-4 -12q-131 -57 -182.5 -104t-125.5 -166l-757 -1186h-51l-78 1051l-668 -1051h-49z" />
    <glyph glyph-name="X" unicode="X" horiz-adv-x="1452" 
d="M-74 0l2 12q164 49 328 234l416 469l-240 557q-15 36 -25 54t-31 45t-52.5 46.5t-77.5 34.5l2 12h598l-2 -12q-99 -28 -140.5 -57t-41.5 -70q0 -25 18 -68l174 -413l336 385q61 69 61 119q0 61 -98 104l2 12h438l-2 -12q-90 -27 -169 -84.5t-162 -148.5l-386 -424
l261 -602q32 -74 67.5 -112t120.5 -69l-2 -12h-598l2 12q92 27 135 58t43 73q0 26 -16 66l-193 457l-358 -422q-78 -94 -78 -144q0 -61 98 -88l-2 -12h-428z" />
    <glyph glyph-name="Y" unicode="Y" horiz-adv-x="1423" 
d="M326 0l4 12q138 46 172 84.5t59 155.5q1 5 2 8l82 389l-264 662q-21 51 -48.5 77.5t-109.5 63.5l2 12h580l-2 -12q-39 -16 -57.5 -24t-44 -21t-35 -20t-22 -20t-14 -23.5t-2 -27t5 -34.5t15.5 -43l205 -514l397 500q62 77 62 127q0 59 -103 100l2 12h404l-2 -12
q-94 -33 -157 -86.5t-134 -140.5l-451 -557l-88 -408q-16 -75 -16 -115q0 -52 30.5 -76.5t116.5 -56.5l-4 -12h-585z" />
    <glyph glyph-name="Z" unicode="Z" horiz-adv-x="1234" 
d="M-25 0l7 31l1046 1382h-313q-130 0 -241.5 -80t-184.5 -209h-13l107 340h934l-8 -30l-1047 -1381h449q100 0 206.5 80.5t200.5 222.5h12l-122 -356h-1033z" />
    <glyph glyph-name="a" unicode="a" horiz-adv-x="1120" 
d="M324 -20q-120 0 -202.5 91t-82.5 253q0 115 44 237t117 220t176 161.5t212 63.5q64 0 117 -23t81.5 -50t59 -50t53.5 -23q59 0 150 146h22l-174 -809q-8 -35 -2 -56.5t23 -21.5q39 0 145 151l12 -6q-78 -151 -137.5 -217.5t-126.5 -66.5q-55 0 -85 38t-30 88q0 69 97 383
l-7 3q-67 -153 -130.5 -257.5t-121.5 -158t-107.5 -75t-102.5 -21.5zM391 72q39 0 82.5 27.5t95.5 89.5t113.5 178t124.5 278l14 80q-84 236 -237 236q-65 0 -122 -44.5t-95.5 -114.5t-66.5 -156t-41 -168.5t-13 -151.5q0 -121 39.5 -187.5t105.5 -66.5z" />
    <glyph glyph-name="b" unicode="b" horiz-adv-x="1085" 
d="M16 -20l279 1308q30 139 -115 174l4 13q196 23 357 63l-148 -688q-32 -152 -96 -379h10q92 203 171.5 322t148.5 166t147 47q121 0 195.5 -96.5t74.5 -262.5q0 -129 -48 -253t-125 -214t-176.5 -145t-198.5 -55q-51 0 -93 15t-68.5 37t-48.5 43.5t-45 36.5t-46 15
q-20 0 -40 -11t-41 -34.5t-36.5 -44.5t-38.5 -57h-23zM498 27q95 0 175 95t122.5 234t42.5 279q0 123 -36.5 194.5t-105.5 71.5q-85 0 -178.5 -129t-232.5 -440l-13 -56q24 -110 83.5 -179.5t142.5 -69.5z" />
    <glyph glyph-name="c" unicode="c" horiz-adv-x="942" 
d="M408 -20q-163 0 -263 103t-100 282q0 120 47.5 237.5t124.5 205.5t180 143t209 55q112 0 196 -58t130 -149l-195 -131l-6 4q4 57 -2.5 107t-23 91.5t-49 66t-76.5 24.5q-82 0 -162 -77.5t-129 -197t-49 -237.5q0 -151 80.5 -234.5t209.5 -83.5q101 0 185 56t139 145
l14 -6q-68 -157 -186.5 -251.5t-273.5 -94.5z" />
    <glyph glyph-name="d" unicode="d" horiz-adv-x="1122" 
d="M328 -20q-119 0 -204 86.5t-85 255.5q0 115 43 237t114 221t173 162.5t211 63.5q158 0 272 -123l80 387q17 82 -9.5 128.5t-97.5 63.5l2 13q196 26 355 63l-283 -1335q-8 -25 -7 -54.5t26 -29.5q20 0 45 26.5t102 124.5l12 -6q-26 -48 -37.5 -69t-34 -59t-35.5 -54.5
t-34 -41t-38.5 -34.5t-39.5 -18t-45 -8q-57 0 -87 38t-30 93q0 64 97 378h-9q-68 -156 -132.5 -261.5t-122 -157t-104 -71t-97.5 -19.5zM395 72q188 0 412 571l12 66q-86 252 -231 252q-97 0 -178 -101.5t-122.5 -244t-41.5 -281.5q0 -132 40.5 -197t108.5 -65z" />
    <glyph glyph-name="e" unicode="e" horiz-adv-x="962" 
d="M406 -20q-162 0 -262.5 104t-100.5 276q0 120 51.5 237.5t136 207.5t201.5 145.5t240 55.5q51 0 97.5 -9.5t86 -28.5t63 -52t23.5 -76q0 -72 -64 -133.5t-168 -102.5t-220 -67.5t-236 -38.5q-6 -30 -6 -80q0 -79 22 -137t60.5 -90t83.5 -47t98 -15q93 0 183.5 47.5
t160.5 153.5l12 -4q-63 -154 -183.5 -250t-278.5 -96zM260 541q224 26 357 109t133 192q0 52 -29.5 86.5t-89.5 34.5q-108 0 -217 -114t-154 -308z" />
    <glyph glyph-name="f" unicode="f" horiz-adv-x="724" 
d="M-84 -410q-113 0 -254 82l92 160l8 -4q79 -197 175 -197q19 0 35 8t38.5 39t42 84t41 151t39.5 232l168 785h-203l11 51h200l27 109q52 223 140 336.5t220 113.5q120 0 281 -84l-148 -156l-10 5q-40 97 -79.5 144.5t-88.5 47.5q-20 0 -35.5 -9t-33.5 -40.5t-31.5 -86
t-26 -151t-20.5 -229.5h289l-25 -51h-274l-146 -690q-67 -315 -176.5 -482.5t-255.5 -167.5z" />
    <glyph glyph-name="g" unicode="g" horiz-adv-x="1013" 
d="M324 -422q-79 0 -156 12.5t-143 36.5t-107 65t-41 93q0 82 94.5 146t245.5 100v2q-178 41 -178 139q0 68 75.5 125t202.5 88q-101 28 -159 96t-58 162q0 147 127.5 255t325.5 108h29q146 0 228.5 43t98.5 112l170 -63l-2 -6q-36 -56 -112 -87.5t-179 -31.5q-53 0 -94 8
l-2 -6q97 -27 164.5 -97t67.5 -167q0 -93 -62 -172.5t-168.5 -125.5t-232.5 -46q-47 0 -90 6q-58 -11 -97 -37.5t-39 -61.5q0 -19 11.5 -35t31.5 -20q365 -81 392 -88q204 -50 204 -207q0 -96 -71 -175.5t-197 -125t-280 -45.5zM348 -379q150 0 245 58.5t95 146.5
q0 102 -133 137q-140 33 -287 60q-18 -6 -40.5 -16.5t-55 -32t-58.5 -45.5t-44.5 -60t-18.5 -74q0 -81 83 -127.5t214 -46.5zM492 403q100 0 166.5 92t66.5 224q0 110 -50.5 179t-133.5 69q-97 0 -164.5 -95t-67.5 -227q0 -108 48.5 -175t134.5 -67z" />
    <glyph glyph-name="h" unicode="h" horiz-adv-x="1148" 
d="M838 -20q-57 0 -87 38t-30 84q0 58 76 381q53 221 53 318q0 47 -14.5 68.5t-47.5 21.5q-31 0 -61 -21t-84.5 -90t-141.5 -213.5t-216 -376.5l-43 -190h-191l266 1239q12 54 12.5 88t-13 59t-37.5 41t-68 33l4 13q191 22 354 65l-207 -952l-59 -267h6q54 96 88.5 155.5
t77 131t70 113.5t61.5 90.5t58.5 75t53 53.5t53.5 39.5t52 20.5t56 8q80 0 122.5 -51.5t42.5 -137.5q0 -90 -61 -346q-63 -271 -63 -317q0 -35 24 -35q18 0 48 29.5t100 121.5l12 -6q-44 -79 -71.5 -123t-61 -85.5t-65 -58.5t-68.5 -17z" />
    <glyph glyph-name="i" unicode="i" horiz-adv-x="512" 
d="M203 -20q-57 0 -89 35.5t-32 95.5q0 19 10 69l111 522q23 109 -1.5 159t-101.5 71l4 14q199 17 357 64l-172 -811q-16 -80 16 -80q22 0 55 31t95 120l12 -6q-86 -161 -139.5 -222.5t-124.5 -61.5zM379 1169q-50 0 -87.5 36t-37.5 85q0 46 38 82.5t87 36.5q47 0 85 -36.5
t38 -82.5q0 -49 -37.5 -85t-85.5 -36z" />
    <glyph glyph-name="j" unicode="j" horiz-adv-x="483" 
d="M-238 -426l-6 14q123 58 183 144t92 235l149 707q11 51 16 86t1 61.5t-9 41.5t-23.5 29t-32.5 21.5t-46 20.5l2 12q193 17 356 64l-198 -940q-42 -198 -162 -320t-322 -176zM346 1169q-50 0 -87.5 36t-37.5 85q0 46 38 82.5t87 36.5q47 0 85 -36.5t38 -82.5
q0 -49 -37.5 -85t-85.5 -36z" />
    <glyph glyph-name="k" unicode="k" horiz-adv-x="1083" 
d="M764 -20q-91 0 -160 120l-215 320l-55 -2l-88 -418h-193l256 1202q21 83 16.5 134.5t-29 78t-83.5 47.5l4 13q192 16 356 63l-202 -948q79 116 163.5 201.5t160 131t138 66.5t115.5 21q60 0 93.5 -24t33.5 -68q0 -73 -81 -158.5t-191 -153.5t-232 -121l220 -323
q26 -39 53 -39q21 0 48.5 21.5t47 46t37.5 49.5l18 24l13 -6q-65 -141 -119 -209.5t-125 -68.5zM338 442l51 19q210 73 336.5 170.5t126.5 185.5q0 33 -18 50.5t-43 17.5q-68 0 -189.5 -96.5t-249.5 -276.5z" />
    <glyph glyph-name="l" unicode="l" horiz-adv-x="512" 
d="M201 -20q-54 0 -86.5 36.5t-32.5 96.5q0 32 6 47l229 1077q9 46 10 79.5t-4.5 56.5t-22 40t-36 28t-51.5 23l2 13q158 13 356 61l-286 -1358q-6 -28 1 -44.5t21 -16.5q43 0 148 151l12 -6q-83 -152 -139.5 -218t-126.5 -66z" />
    <glyph glyph-name="m" unicode="m" horiz-adv-x="1738" 
d="M1425 -20q-59 0 -86.5 37.5t-27.5 101.5q0 43 75 368q52 229 52 304q0 100 -60 100q-39 0 -87.5 -54.5t-136 -197t-255.5 -442.5l-41 -197h-190l139 641q22 108 22 147q0 103 -63 103q-20 0 -39 -9.5t-47 -41t-58.5 -76t-81.5 -129.5t-108 -184.5t-145 -257.5l-41 -193
h-191l156 729q37 168 -111 205l4 12q167 14 355 64l-90 -424q-29 -135 -62 -254h6q53 99 91 167.5t83 144.5t80 126t74.5 98.5t74 76.5t72 44.5t74.5 16.5q72 0 115 -57t43 -140q0 -47 -35 -205q-50 -205 -70 -278h7q176 320 229 404q121 193 217 248q50 28 102 28
q77 0 119.5 -55.5t42.5 -143.5q0 -50 -48 -272q-7 -35 -11 -54q-64 -297 -64 -323q0 -39 25 -39q19 0 47 27.5t100 123.5l13 -6q-33 -60 -55.5 -97.5t-50.5 -77t-51.5 -60.5t-52 -35t-59.5 -14z" />
    <glyph glyph-name="n" unicode="n" horiz-adv-x="1153" 
d="M844 -20q-58 0 -88.5 37.5t-30.5 93.5q0 20 3.5 47t16.5 84t22.5 97.5t35.5 147.5q51 211 51 310q0 47 -12.5 70.5t-48.5 23.5q-44 0 -94 -49.5t-147 -202t-265 -453.5l-41 -186h-191l156 727q20 95 -9 137.5t-102 67.5l2 14q179 18 357 64l-84 -398q-4 -16 -14.5 -68.5
t-24 -110t-29.5 -116.5h6q49 87 75.5 134t67 116.5t63.5 106t56.5 88t55 77t50 59t51 49t49 32t52 22t52.5 5.5q80 0 122 -52t42 -143q0 -78 -62 -342q-63 -273 -63 -313q0 -37 24 -37q21 0 50 29.5t98 121.5l12 -6q-92 -165 -144.5 -224.5t-119.5 -59.5z" />
    <glyph glyph-name="o" unicode="o" horiz-adv-x="1079" 
d="M422 -20q-180 0 -278.5 108t-98.5 279q0 118 47.5 233.5t127.5 205t194.5 145t240.5 55.5q179 0 279 -106t100 -284q0 -161 -80 -307t-222.5 -237.5t-309.5 -91.5zM475 23q89 0 168.5 75t129.5 209t50 291q0 165 -57 265t-160 100q-87 0 -166.5 -74t-130.5 -207.5
t-51 -292.5q0 -163 56 -264.5t161 -101.5z" />
    <glyph glyph-name="p" unicode="p" horiz-adv-x="1101" 
d="M-193 -410l3 13q98 41 132 75.5t52 118.5l213 1002q13 66 -12 93t-113 44l2 12q176 9 360 62l-45 -205q-28 -132 -88 -342h8q133 293 241 418t233 125q117 0 192.5 -96.5t75.5 -262.5q0 -127 -48 -251t-124 -214.5t-175 -146t-196 -55.5q-151 0 -266 124l-66 -294
q-21 -90 13 -134.5t159 -72.5l-2 -13h-549zM512 27q95 0 175 90t123.5 228.5t43.5 285.5q0 127 -36 198.5t-107 71.5q-54 0 -108.5 -49t-128 -174t-171.5 -342l-14 -60q27 -116 84 -182.5t139 -66.5z" />
    <glyph glyph-name="q" unicode="q" horiz-adv-x="1097" 
d="M403 -410l7 33q81 2 117.5 11t50.5 27t24 63l78 354q34 154 115 409h-9q-68 -153 -132.5 -257t-123 -156.5t-107 -73t-101.5 -20.5q-120 0 -201.5 89t-81.5 255q0 163 76.5 321t205.5 259.5t269 101.5q63 0 115.5 -23t80.5 -50t58 -50t53 -23q63 0 154 146h20l-276 -1282
q-13 -57 12 -78.5t123 -24.5l-6 -31h-521zM389 72q191 0 418 573l16 74q-38 110 -99 176t-140 66q-95 0 -174.5 -96t-121.5 -236.5t-42 -284.5q0 -125 35.5 -198.5t107.5 -73.5z" />
    <glyph glyph-name="r" unicode="r" horiz-adv-x="774" 
d="M53 0l144 674q9 44 13 66t6.5 52t-3.5 46.5t-18.5 35.5t-35.5 33t-57 27l2 12q194 17 353 64l-78 -367q-28 -139 -57 -233h4q24 64 39.5 103.5t39 97t41 94t41 82.5t43.5 74.5t45 59t48.5 47t51.5 27.5t56 11q46 0 88 -31l-69 -223h-13q-25 31 -59 56.5t-62 25.5
q-66 0 -140.5 -156t-192.5 -496l-39 -182h-191z" />
    <glyph glyph-name="s" unicode="s" horiz-adv-x="788" 
d="M346 -20q-173 0 -344 112l29 240l12 2q67 -138 149.5 -226t165.5 -88q57 0 103.5 40t46.5 116q0 68 -41 122.5t-135 139.5q-101 89 -132 126q-73 88 -67 188q7 117 98 185.5t215 68.5q143 0 312 -91l-33 -225l-12 -2q-56 122 -127 198.5t-144 76.5q-55 0 -93 -38.5
t-44 -97.5q-4 -50 18 -95t45.5 -69t81.5 -75q4 -4 6.5 -6t6 -5t6.5 -6q122 -105 167.5 -171t45.5 -142q0 -129 -98 -203.5t-238 -74.5z" />
    <glyph glyph-name="t" unicode="t" horiz-adv-x="624" 
d="M201 -20q-65 0 -99.5 52t-17.5 130l164 768h-105l4 24q252 162 334 279h21l-56 -252h287l-14 -51h-279l-159 -750q-13 -61 18 -61q24 0 58.5 36t93.5 115l12 -6q-9 -16 -29 -51t-28.5 -50t-25.5 -43t-27 -41t-26 -33t-28.5 -29t-29 -19t-33 -14t-35.5 -4z" />
    <glyph glyph-name="u" unicode="u" 
d="M279 -20q-83 0 -128 53t-45 143q0 55 39 238l64 297q12 45 9.5 80t-10 58.5t-25.5 40.5t-37 26.5t-46 17.5l4 14q162 8 359 62l-133 -615q-29 -139 -29 -205q0 -54 14 -74t47 -20q46 0 97.5 52t143.5 197t263 448l39 170l201 47l-166 -777q-12 -46 -12 -79t26 -33
q18 0 45 27t101 122l12 -6q-40 -72 -61 -107t-49.5 -76.5t-49 -59t-46.5 -29.5t-56 -12q-54 0 -86.5 32.5t-32.5 93.5q0 21 19 111q47 207 98 449h-6q-119 -217 -202.5 -352t-148.5 -209t-112 -99.5t-100 -25.5z" />
    <glyph glyph-name="v" unicode="v" horiz-adv-x="923" 
d="M311 -4l-71 696q-10 93 -49.5 138.5t-122.5 64.5l4 12q165 40 309 103q75 -511 94 -811q311 359 311 583q0 103 -75 170v13l190 45q21 -40 21 -88q0 -148 -157 -399t-413 -527h-41z" />
    <glyph glyph-name="w" unicode="w" horiz-adv-x="1538" 
d="M285 -4l-68 690q-5 42 -12 68t-22 55.5t-43.5 50t-71.5 33.5l2 12q139 29 295 105l79 -817q146 164 237 332t91 290q0 75 -37 131h2l-2 4l232 60l82 -820q350 399 350 601q0 92 -72 161v13l193 45q18 -40 18 -90q0 -138 -162.5 -379.5t-451.5 -544.5h-41l-68 719
q-3 -25 -15.5 -61.5t-46.5 -102t-85.5 -141.5t-141 -185.5t-202.5 -228.5h-39z" />
    <glyph glyph-name="x" unicode="x" horiz-adv-x="1034" 
d="M4 -20q-39 0 -84 10l82 203q86 -58 131 -58q57 0 112.5 59.5t188.5 251.5l-110 322q-44 128 -181 131l2 12q120 23 310 99l137 -430q184 259 259.5 339t156.5 80q48 0 90 -18l-107 -195q-57 33 -88 33q-58 0 -112.5 -55.5t-182.5 -228.5l129 -375q15 -45 43 -45
q21 0 52.5 31t101.5 124l12 -6q-88 -161 -123 -206q-67 -75 -139 -78q-61 0 -93 36t-54 105l-86 278q-66 -96 -101.5 -146.5t-79.5 -106.5t-70 -80.5t-60.5 -48t-65.5 -30.5t-70 -7z" />
    <glyph glyph-name="y" unicode="y" horiz-adv-x="1013" 
d="M-133 -430l-41 194l6 13q3 -5 23 -11.5t56.5 -12t76.5 -5.5q185 0 329 160q0 162 -28 433t-51 378q-18 79 -56 120t-112 56l2 14q115 21 317 101q37 -218 67 -488.5t38 -435.5q344 400 344 621q0 130 -121 245v13l194 45q41 -64 41 -150q0 -155 -132 -391.5t-343 -464.5
q-171 -185 -332 -298.5t-278 -135.5z" />
    <glyph glyph-name="z" unicode="z" horiz-adv-x="886" 
d="M483 -20q-62 0 -154.5 36.5t-158.5 36.5q-100 0 -203 -63l-26 26l774 795h-410q-94 0 -164 -115h-14l94 285h723v-10l-825 -846h6q125 86 211 86q47 0 112 -32t125 -32q61 0 108.5 34t115.5 136l12 -4q-73 -176 -145 -254.5t-181 -78.5z" />
    <glyph glyph-name="Agrave" unicode="&#xc0;" horiz-adv-x="1433" 
d="M-94 0l2 12q124 65 198.5 142t198.5 270l557 854l-24 119q94 36 219 110l127 -1319q4 -43 9 -64t19.5 -43t40 -36.5t72.5 -32.5l-2 -12h-580l5 12q43 14 73 25t54.5 24t39.5 21.5t25.5 23t15 24.5t6 30t0.5 34.5t-4 43.5l-26 270h-508l-45 -72q-53 -84 -75.5 -122
t-48.5 -90t-26.5 -75t8 -52.5t37 -47.5t76.5 -37l-2 -12h-442zM475 588h451l-52 618zM1006 1569q-272 216 -398 323h223q126 -218 195 -323h-20z" />
    <glyph glyph-name="Aacute" unicode="&#xc1;" horiz-adv-x="1433" 
d="M-94 0l2 12q124 65 198.5 142t198.5 270l557 854l-24 119q94 36 219 110l127 -1319q4 -43 9 -64t19.5 -43t40 -36.5t72.5 -32.5l-2 -12h-580l5 12q43 14 73 25t54.5 24t39.5 21.5t25.5 23t15 24.5t6 30t0.5 34.5t-4 43.5l-26 270h-508l-45 -72q-53 -84 -75.5 -122
t-48.5 -90t-26.5 -75t8 -52.5t37 -47.5t76.5 -37l-2 -12h-442zM475 588h451l-52 618zM856 1571q78 121 195 327h223q-164 -139 -397 -327h-21z" />
    <glyph glyph-name="Acircumflex" unicode="&#xc2;" horiz-adv-x="1433" 
d="M-94 0l2 12q124 65 198.5 142t198.5 270l557 854l-24 119q94 36 219 110l127 -1319q4 -43 9 -64t19.5 -43t40 -36.5t72.5 -32.5l-2 -12h-580l5 12q43 14 73 25t54.5 24t39.5 21.5t25.5 23t15 24.5t6 30t0.5 34.5t-4 43.5l-26 270h-508l-45 -72q-53 -84 -75.5 -122
t-48.5 -90t-26.5 -75t8 -52.5t37 -47.5t76.5 -37l-2 -12h-442zM475 588h451l-52 618zM717 1530l-10 12q243 269 323 363h10q81 -194 170 -363l-16 -12l-201 174z" />
    <glyph glyph-name="Atilde" unicode="&#xc3;" horiz-adv-x="1433" 
d="M-94 0l2 12q124 65 198.5 142t198.5 270l557 854l-24 119q94 36 219 110l127 -1319q4 -43 9 -64t19.5 -43t40 -36.5t72.5 -32.5l-2 -12h-580l5 12q43 14 73 25t54.5 24t39.5 21.5t25.5 23t15 24.5t6 30t0.5 34.5t-4 43.5l-26 270h-508l-45 -72q-53 -84 -75.5 -122
t-48.5 -90t-26.5 -75t8 -52.5t37 -47.5t76.5 -37l-2 -12h-442zM475 588h451l-52 618zM1083 1587q-49 0 -141 31q-104 35 -123 35q-55 0 -82.5 -11.5t-72.5 -48.5l-15 4q35 91 95.5 137t138.5 46q52 0 139 -33q85 -33 145 -33q38 0 67 14.5t64 45.5l17 -5q-67 -182 -232 -182
z" />
    <glyph glyph-name="Adieresis" unicode="&#xc4;" horiz-adv-x="1433" 
d="M-94 0l2 12q124 65 198.5 142t198.5 270l557 854l-24 119q94 36 219 110l127 -1319q4 -43 9 -64t19.5 -43t40 -36.5t72.5 -32.5l-2 -12h-580l5 12q43 14 73 25t54.5 24t39.5 21.5t25.5 23t15 24.5t6 30t0.5 34.5t-4 43.5l-26 270h-508l-45 -72q-53 -84 -75.5 -122
t-48.5 -90t-26.5 -75t8 -52.5t37 -47.5t76.5 -37l-2 -12h-442zM475 588h451l-52 618zM752 1561q-50 0 -83.5 33.5t-33.5 82.5q0 48 34 82.5t83 34.5q47 0 81.5 -35t34.5 -82q0 -49 -34 -82.5t-82 -33.5zM1135 1561q-48 0 -82.5 33.5t-34.5 82.5q0 47 35 82t82 35
q49 0 83.5 -34.5t34.5 -82.5q0 -49 -34 -82.5t-84 -33.5z" />
    <glyph glyph-name="Aring" unicode="&#xc5;" horiz-adv-x="1433" 
d="M-94 0l2 12q124 65 198.5 142t198.5 270l557 854l-24 119q94 36 219 110l127 -1319q4 -43 9 -64t19.5 -43t40 -36.5t72.5 -32.5l-2 -12h-580l5 12q43 14 73 25t54.5 24t39.5 21.5t25.5 23t15 24.5t6 30t0.5 34.5t-4 43.5l-26 270h-508l-45 -72q-53 -84 -75.5 -122
t-48.5 -90t-26.5 -75t8 -52.5t37 -47.5t76.5 -37l-2 -12h-442zM475 588h451l-52 618zM956 1534q-66 0 -109.5 43.5t-43.5 108.5q0 85 69.5 155t155.5 70q67 0 108.5 -42t41.5 -106q0 -88 -67.5 -158.5t-154.5 -70.5zM967 1581q60 0 107.5 55t47.5 119q0 49 -28.5 80
t-73.5 31q-64 0 -112 -54t-48 -116q0 -50 30 -82.5t77 -32.5z" />
    <glyph glyph-name="AE" unicode="&#xc6;" horiz-adv-x="1935" 
d="M-111 0l2 12q85 48 152 103.5t150 158.5l827 1033q27 29 2 58.5t-131 86.5l2 12h1040l-35 -340h-12q-20 130 -97 209.5t-206 79.5h-254l-129 -604h252q72 0 139 37.5t117 99.5h10l-73 -340h-11q-22 71 -73 113t-121 41l-252 -4l-131 -615q-8 -36 62.5 -62t191.5 -26h86
q100 0 206.5 80.5t200.5 222.5h13l-125 -356h-1069l2 12q41 14 58 19.5t44.5 17t36.5 18.5t26 21.5t23 27.5t16.5 35.5t16.5 47.5t14 61l53 246h-473l-182 -227q-90 -113 -77.5 -167.5t136.5 -99.5l-4 -12h-424zM500 582h428l162 727h-3z" />
    <glyph glyph-name="Ccedilla" unicode="&#xc7;" horiz-adv-x="1382" 
d="M455 -420l16 35q113 7 181.5 44.5t68.5 90.5q0 39 -52.5 68t-138.5 32l97 125q-247 11 -388 159t-141 403q0 140 42.5 279.5t122.5 259.5t187 213t245 146.5t286 53.5q188 0 426 -78l-29 -326h-12q-65 158 -170 256.5t-233 98.5q-93 0 -187 -52t-172 -143t-139 -206
t-95 -249.5t-34 -265.5q0 -119 28.5 -215.5t76.5 -157t109 -92.5t128 -32q122 0 264 96t275 256h12l-111 -326q-245 -78 -452 -78l-31 -43q225 -16 225 -149q0 -97 -105.5 -150.5t-299.5 -52.5z" />
    <glyph glyph-name="Egrave" unicode="&#xc8;" horiz-adv-x="1263" 
d="M-61 0l2 12q132 44 172 84q32 33 51 109q3 13 12 55l201 944q20 74 18.5 119t-32 71t-115.5 58l2 12h1010l-35 -340h-13q-20 130 -97 209.5t-206 79.5h-264l-129 -604h264q72 0 139 37.5t117 99.5h11l-74 -340h-10q-18 62 -67 108.5t-128 45.5l-264 -4l-131 -615
q-5 -24 19.5 -43.5t85 -32t149.5 -12.5h100q100 0 207 80.5t201 222.5h12l-125 -356h-1083zM934 1571q-233 188 -397 327h223q124 -219 194 -327h-20z" />
    <glyph glyph-name="Eacute" unicode="&#xc9;" horiz-adv-x="1263" 
d="M-61 0l2 12q132 44 172 84q32 33 51 109q3 13 12 55l201 944q20 74 18.5 119t-32 71t-115.5 58l2 12h1010l-35 -340h-13q-20 130 -97 209.5t-206 79.5h-264l-129 -604h264q72 0 139 37.5t117 99.5h11l-74 -340h-10q-18 62 -67 108.5t-128 45.5l-264 -4l-131 -615
q-5 -24 19.5 -43.5t85 -32t149.5 -12.5h100q100 0 207 80.5t201 222.5h12l-125 -356h-1083zM784 1571q78 121 195 327h223q-164 -139 -397 -327h-21z" />
    <glyph glyph-name="Ecircumflex" unicode="&#xca;" horiz-adv-x="1263" 
d="M-61 0l2 12q132 44 172 84q32 33 51 109q3 13 12 55l201 944q20 74 18.5 119t-32 71t-115.5 58l2 12h1010l-35 -340h-13q-20 130 -97 209.5t-206 79.5h-264l-129 -604h264q72 0 139 37.5t117 99.5h11l-74 -340h-10q-18 62 -67 108.5t-128 45.5l-264 -4l-131 -615
q-5 -24 19.5 -43.5t85 -32t149.5 -12.5h100q100 0 207 80.5t201 222.5h12l-125 -356h-1083zM645 1530l-10 12q243 269 323 363h11q81 -194 170 -363l-17 -12l-200 174z" />
    <glyph glyph-name="Edieresis" unicode="&#xcb;" horiz-adv-x="1263" 
d="M-61 0l2 12q132 44 172 84q32 33 51 109q3 13 12 55l201 944q20 74 18.5 119t-32 71t-115.5 58l2 12h1010l-35 -340h-13q-20 130 -97 209.5t-206 79.5h-264l-129 -604h264q72 0 139 37.5t117 99.5h11l-74 -340h-10q-18 62 -67 108.5t-128 45.5l-264 -4l-131 -615
q-5 -24 19.5 -43.5t85 -32t149.5 -12.5h100q100 0 207 80.5t201 222.5h12l-125 -356h-1083zM680 1561q-50 0 -83.5 33.5t-33.5 82.5q0 48 34 82.5t83 34.5q47 0 82 -35t35 -82q0 -49 -34.5 -82.5t-82.5 -33.5zM1063 1561q-48 0 -82.5 33.5t-34.5 82.5q0 47 35 82t82 35
q49 0 84 -34.5t35 -82.5q0 -49 -34.5 -82.5t-84.5 -33.5z" />
    <glyph glyph-name="Igrave" unicode="&#xcc;" horiz-adv-x="669" 
d="M-61 0l2 12q132 44 172 84q32 33 51 109q3 13 12 55l201 944q20 74 18.5 119t-32 71t-115.5 58l2 12h586l-2 -12q-138 -46 -173 -86.5t-59 -152.5q-1 -2 -1 -3t-0.5 -3t-0.5 -3l-201 -944q-10 -47 -14 -76t-1 -54.5t10 -39t27.5 -28.5t42.5 -24.5t64 -25.5l-4 -12h-585z
M614 1571q-233 188 -397 327h223q117 -206 195 -327h-21z" />
    <glyph glyph-name="Iacute" unicode="&#xcd;" horiz-adv-x="669" 
d="M-61 0l2 12q132 44 172 84q32 33 51 109q3 13 12 55l201 944q20 74 18.5 119t-32 71t-115.5 58l2 12h586l-2 -12q-138 -46 -173 -86.5t-59 -152.5q-1 -2 -1 -3t-0.5 -3t-0.5 -3l-201 -944q-10 -47 -14 -76t-1 -54.5t10 -39t27.5 -28.5t42.5 -24.5t64 -25.5l-4 -12h-585z
M465 1571q70 108 194 327h224q-145 -123 -398 -327h-20z" />
    <glyph glyph-name="Icircumflex" unicode="&#xce;" horiz-adv-x="669" 
d="M-61 0l2 12q132 44 172 84q32 33 51 109q3 13 12 55l201 944q20 74 18.5 119t-32 71t-115.5 58l2 12h586l-2 -12q-138 -46 -173 -86.5t-59 -152.5q-1 -2 -1 -3t-0.5 -3t-0.5 -3l-201 -944q-10 -47 -14 -76t-1 -54.5t10 -39t27.5 -28.5t42.5 -24.5t64 -25.5l-4 -12h-585z
M326 1530l-11 12q22 25 88.5 97t118.5 130.5t117 135.5h10q81 -194 170 -363l-16 -12l-201 174z" />
    <glyph glyph-name="Idieresis" unicode="&#xcf;" horiz-adv-x="669" 
d="M-61 0l2 12q132 44 172 84q32 33 51 109q3 13 12 55l201 944q20 74 18.5 119t-32 71t-115.5 58l2 12h586l-2 -12q-138 -46 -173 -86.5t-59 -152.5q-1 -2 -1 -3t-0.5 -3t-0.5 -3l-201 -944q-10 -47 -14 -76t-1 -54.5t10 -39t27.5 -28.5t42.5 -24.5t64 -25.5l-4 -12h-585z
M360 1561q-50 0 -83 33.5t-33 82.5q0 48 33.5 82.5t82.5 34.5q47 0 82 -35t35 -82q0 -49 -34.5 -82.5t-82.5 -33.5zM743 1561q-48 0 -82 33.5t-34 82.5q0 47 34.5 82t81.5 35q49 0 84 -34.5t35 -82.5q0 -49 -34.5 -82.5t-84.5 -33.5z" />
    <glyph glyph-name="Eth" unicode="&#xd0;" horiz-adv-x="1464" 
d="M-61 0l2 12q50 16 82 28.5t57.5 30t38 30.5t24.5 41t17.5 49.5t15.5 68.5l103 479h-103l8 49h105l88 416q8 36 11.5 55t6 43t0.5 35.5t-8.5 27.5t-16.5 24t-28 20t-39.5 21t-54.5 22l2 12h526q174 0 306.5 -42.5t214.5 -120t123.5 -181.5t41.5 -233q0 -175 -73.5 -338.5
t-196 -283.5t-288.5 -192.5t-343 -72.5h-622zM555 55q109 0 212 46t186 128t145.5 189.5t96.5 237.5t34 264q0 493 -471 493h-115l-133 -625h235l-8 -49h-237l-127 -598q-6 -34 44.5 -60t137.5 -26z" />
    <glyph glyph-name="Ntilde" unicode="&#xd1;" horiz-adv-x="1509" 
d="M-61 0l2 12q41 12 71.5 22.5t56.5 26.5t43 29t33 38t25 44.5t20 58t18 69.5t19 87l191 905q-27 90 -164 160l2 12h346q292 -649 551 -1253l184 866q15 76 22.5 118.5t9 85.5t-6 64t-27 43.5t-48 35.5t-75.5 28l2 12h472l-5 -12q-42 -12 -73 -23t-57 -28t-43 -30
t-33 -39.5t-25 -44.5t-20 -58.5t-17 -67.5t-18 -84l-230 -1077h-161q-227 554 -539 1235l-180 -848q-11 -51 -16 -78t-11 -63.5t-6 -54.5t1.5 -43t9.5 -38t19 -29t30 -26.5t42.5 -21.5t55.5 -21l-2 -12h-469zM1128 1587q-49 0 -141 31q-104 35 -123 35q-55 0 -82.5 -11.5
t-72.5 -48.5l-15 4q35 91 95.5 137t138.5 46q52 0 139 -33q85 -33 145 -33q38 0 67 14.5t64 45.5l17 -5q-67 -182 -232 -182z" />
    <glyph glyph-name="Ograve" unicode="&#xd2;" horiz-adv-x="1542" 
d="M655 -25q-258 0 -407.5 150t-149.5 414q0 139 42.5 277.5t123 259t187.5 213.5t247 146.5t291 53.5q257 0 408 -150t151 -413q0 -138 -42.5 -277t-123.5 -259t-189 -213.5t-247.5 -147.5t-290.5 -54zM705 29q98 0 190 49t164 135.5t126.5 199t83.5 244t29 265.5
q0 238 -94 376t-262 138q-122 0 -234.5 -76t-191 -200t-125.5 -286t-47 -329q0 -242 97.5 -379t263.5 -137zM1051 1571q-253 204 -398 327h224q124 -219 194 -327h-20z" />
    <glyph glyph-name="Oacute" unicode="&#xd3;" horiz-adv-x="1542" 
d="M655 -25q-258 0 -407.5 150t-149.5 414q0 139 42.5 277.5t123 259t187.5 213.5t247 146.5t291 53.5q257 0 408 -150t151 -413q0 -138 -42.5 -277t-123.5 -259t-189 -213.5t-247.5 -147.5t-290.5 -54zM705 29q98 0 190 49t164 135.5t126.5 199t83.5 244t29 265.5
q0 238 -94 376t-262 138q-122 0 -234.5 -76t-191 -200t-125.5 -286t-47 -329q0 -242 97.5 -379t263.5 -137zM899 1571q78 121 195 327h223q-164 -139 -397 -327h-21z" />
    <glyph glyph-name="Ocircumflex" unicode="&#xd4;" horiz-adv-x="1542" 
d="M655 -25q-258 0 -407.5 150t-149.5 414q0 139 42.5 277.5t123 259t187.5 213.5t247 146.5t291 53.5q257 0 408 -150t151 -413q0 -138 -42.5 -277t-123.5 -259t-189 -213.5t-247.5 -147.5t-290.5 -54zM705 29q98 0 190 49t164 135.5t126.5 199t83.5 244t29 265.5
q0 238 -94 376t-262 138q-122 0 -234.5 -76t-191 -200t-125.5 -286t-47 -329q0 -242 97.5 -379t263.5 -137zM762 1530l-10 12q243 269 323 363h10q81 -194 170 -363l-16 -12l-201 174z" />
    <glyph glyph-name="Otilde" unicode="&#xd5;" horiz-adv-x="1542" 
d="M655 -25q-258 0 -407.5 150t-149.5 414q0 139 42.5 277.5t123 259t187.5 213.5t247 146.5t291 53.5q257 0 408 -150t151 -413q0 -138 -42.5 -277t-123.5 -259t-189 -213.5t-247.5 -147.5t-290.5 -54zM705 29q98 0 190 49t164 135.5t126.5 199t83.5 244t29 265.5
q0 238 -94 376t-262 138q-122 0 -234.5 -76t-191 -200t-125.5 -286t-47 -329q0 -242 97.5 -379t263.5 -137zM1126 1587q-49 0 -141 31q-104 35 -123 35q-55 0 -82.5 -11.5t-72.5 -48.5l-15 4q35 91 95.5 137t138.5 46q52 0 139 -33q85 -33 145 -33q38 0 67 14.5t64 45.5
l17 -5q-67 -182 -232 -182z" />
    <glyph glyph-name="Odieresis" unicode="&#xd6;" horiz-adv-x="1542" 
d="M655 -25q-258 0 -407.5 150t-149.5 414q0 139 42.5 277.5t123 259t187.5 213.5t247 146.5t291 53.5q257 0 408 -150t151 -413q0 -138 -42.5 -277t-123.5 -259t-189 -213.5t-247.5 -147.5t-290.5 -54zM705 29q98 0 190 49t164 135.5t126.5 199t83.5 244t29 265.5
q0 238 -94 376t-262 138q-122 0 -234.5 -76t-191 -200t-125.5 -286t-47 -329q0 -242 97.5 -379t263.5 -137zM797 1561q-50 0 -83.5 33.5t-33.5 82.5q0 48 34 82.5t83 34.5q47 0 81.5 -35t34.5 -82q0 -49 -34 -82.5t-82 -33.5zM1180 1561q-48 0 -82.5 33.5t-34.5 82.5
q0 47 35 82t82 35q49 0 83.5 -34.5t34.5 -82.5q0 -49 -34 -82.5t-84 -33.5z" />
    <glyph glyph-name="Oslash" unicode="&#xd8;" horiz-adv-x="1542" 
d="M57 -63l183 196q-142 151 -142 406q0 139 42.5 277.5t123 259t187.5 213.5t247 146.5t291 53.5q244 0 387 -131l146 155h55l-170 -184q141 -150 141 -403q0 -138 -42.5 -277t-123.5 -259t-189 -213.5t-247.5 -147.5t-290.5 -54q-240 0 -387 129l-155 -167h-56zM705 29
q98 0 190 49t164 135.5t126.5 199t83.5 244t29 265.5q0 148 -34 254l-867 -932q46 -104 125 -159.5t183 -55.5zM381 287l866 932q-43 104 -121 160.5t-184 56.5q-122 0 -234.5 -76t-191 -200t-125.5 -286t-47 -329q0 -151 37 -258z" />
    <glyph glyph-name="Ugrave" unicode="&#xd9;" horiz-adv-x="1488" 
d="M668 -25q-67 0 -127.5 11.5t-119 36.5t-100.5 66.5t-72 100.5t-33.5 138.5t15.5 181.5l146 694q7 36 10.5 54.5t6 43t0.5 36t-8 27.5t-16.5 24.5t-28 20.5t-39.5 21t-54 21l4 12h586l-4 -12q-38 -13 -64.5 -23.5t-49.5 -23.5t-37 -21t-27 -25t-19 -27t-14 -35t-11.5 -41
t-11.5 -52l-145 -684q-48 -226 33 -349.5t255 -123.5q104 0 193.5 44t158 138.5t97.5 229.5l133 618q48 183 29 256.5t-156 118.5l4 12h469l-4 -12q-41 -12 -72 -23t-57 -28t-43 -30t-32.5 -39.5t-25 -45t-20.5 -58.5t-17 -67.5t-18 -83.5l-131 -616q-50 -231 -202.5 -358.5
t-380.5 -127.5zM1053 1571q-253 204 -398 327h224q124 -219 194 -327h-20z" />
    <glyph glyph-name="Uacute" unicode="&#xda;" horiz-adv-x="1488" 
d="M668 -25q-67 0 -127.5 11.5t-119 36.5t-100.5 66.5t-72 100.5t-33.5 138.5t15.5 181.5l146 694q7 36 10.5 54.5t6 43t0.5 36t-8 27.5t-16.5 24.5t-28 20.5t-39.5 21t-54 21l4 12h586l-4 -12q-38 -13 -64.5 -23.5t-49.5 -23.5t-37 -21t-27 -25t-19 -27t-14 -35t-11.5 -41
t-11.5 -52l-145 -684q-48 -226 33 -349.5t255 -123.5q104 0 193.5 44t158 138.5t97.5 229.5l133 618q48 183 29 256.5t-156 118.5l4 12h469l-4 -12q-41 -12 -72 -23t-57 -28t-43 -30t-32.5 -39.5t-25 -45t-20.5 -58.5t-17 -67.5t-18 -83.5l-131 -616q-50 -231 -202.5 -358.5
t-380.5 -127.5zM901 1571q78 121 195 327h223q-164 -139 -397 -327h-21z" />
    <glyph glyph-name="Ucircumflex" unicode="&#xdb;" horiz-adv-x="1488" 
d="M668 -25q-67 0 -127.5 11.5t-119 36.5t-100.5 66.5t-72 100.5t-33.5 138.5t15.5 181.5l146 694q7 36 10.5 54.5t6 43t0.5 36t-8 27.5t-16.5 24.5t-28 20.5t-39.5 21t-54 21l4 12h586l-4 -12q-38 -13 -64.5 -23.5t-49.5 -23.5t-37 -21t-27 -25t-19 -27t-14 -35t-11.5 -41
t-11.5 -52l-145 -684q-48 -226 33 -349.5t255 -123.5q104 0 193.5 44t158 138.5t97.5 229.5l133 618q48 183 29 256.5t-156 118.5l4 12h469l-4 -12q-41 -12 -72 -23t-57 -28t-43 -30t-32.5 -39.5t-25 -45t-20.5 -58.5t-17 -67.5t-18 -83.5l-131 -616q-50 -231 -202.5 -358.5
t-380.5 -127.5zM762 1530l-10 12q243 269 323 363h10q81 -194 170 -363l-16 -12l-201 174z" />
    <glyph glyph-name="Udieresis" unicode="&#xdc;" horiz-adv-x="1488" 
d="M668 -25q-67 0 -127.5 11.5t-119 36.5t-100.5 66.5t-72 100.5t-33.5 138.5t15.5 181.5l146 694q7 36 10.5 54.5t6 43t0.5 36t-8 27.5t-16.5 24.5t-28 20.5t-39.5 21t-54 21l4 12h586l-4 -12q-38 -13 -64.5 -23.5t-49.5 -23.5t-37 -21t-27 -25t-19 -27t-14 -35t-11.5 -41
t-11.5 -52l-145 -684q-48 -226 33 -349.5t255 -123.5q104 0 193.5 44t158 138.5t97.5 229.5l133 618q48 183 29 256.5t-156 118.5l4 12h469l-4 -12q-41 -12 -72 -23t-57 -28t-43 -30t-32.5 -39.5t-25 -45t-20.5 -58.5t-17 -67.5t-18 -83.5l-131 -616q-50 -231 -202.5 -358.5
t-380.5 -127.5zM799 1561q-50 0 -83.5 33.5t-33.5 82.5q0 48 34 82.5t83 34.5q47 0 81.5 -35t34.5 -82q0 -49 -34 -82.5t-82 -33.5zM1182 1561q-48 0 -82.5 33.5t-34.5 82.5q0 47 35 82t82 35q49 0 83.5 -34.5t34.5 -82.5q0 -49 -34 -82.5t-84 -33.5z" />
    <glyph glyph-name="Yacute" unicode="&#xdd;" horiz-adv-x="1423" 
d="M326 0l4 12q138 46 172 84.5t59 155.5q1 5 2 8l82 389l-264 662q-21 51 -48.5 77.5t-109.5 63.5l2 12h580l-2 -12q-39 -16 -57.5 -24t-44 -21t-35 -20t-22 -20t-14 -23.5t-2 -27t5 -34.5t15.5 -43l205 -514l397 500q62 77 62 127q0 59 -103 100l2 12h404l-2 -12
q-94 -33 -157 -86.5t-134 -140.5l-451 -557l-88 -408q-16 -75 -16 -115q0 -52 30.5 -76.5t116.5 -56.5l-4 -12h-585zM899 1571q78 121 195 327h223q-164 -139 -397 -327h-21z" />
    <glyph glyph-name="Thorn" unicode="&#xde;" horiz-adv-x="1216" 
d="M-61 0l2 12q132 44 172 84q32 33 51 109q3 13 12 55l201 944q20 74 18.5 119t-32 71t-115.5 58l2 12h586l-2 -12q-72 -24 -108.5 -40t-63 -45t-38 -62.5t-24.5 -100.5l-6 -30h141q86 0 158 -10t138 -34t112 -61.5t73 -96t27 -134.5q0 -209 -190 -329t-545 -120h-82
l-27 -129q-7 -35 -10.5 -53t-6 -42t0 -35.5t9 -28t18.5 -25t31 -20.5t43.5 -22t60.5 -22l-2 -12h-604zM438 440h72q251 0 387.5 107.5t136.5 288.5q0 148 -91.5 218t-248.5 70h-110z" />
    <glyph glyph-name="germandbls" unicode="&#xdf;" horiz-adv-x="1177" 
d="M717 -20q-156 0 -340 94l100 278l10 -2q32 -151 93.5 -241.5t144.5 -90.5q72 0 118 63t46 157q0 76 -34 141.5t-82.5 112t-97 90t-82.5 95t-34 107.5q0 43 19.5 78t50.5 59.5t68.5 47t75 47.5t68.5 54.5t50.5 73.5t19.5 99q0 93 -50 150t-124 57q-41 0 -81 -20t-80 -62.5
t-74 -119t-56 -179.5l-227 -1069h-192l198 930h-125l11 53h127l12 61q46 214 172.5 329.5t316.5 115.5q144 0 234 -64t90 -176q0 -69 -36 -117.5t-87.5 -75t-103 -48t-87.5 -50.5t-36 -69q0 -30 20 -62t51.5 -61.5t70 -62.5t77 -72t70 -82.5t51.5 -102t20 -122.5
q0 -154 -101.5 -249t-254.5 -95z" />
    <glyph glyph-name="agrave" unicode="&#xe0;" horiz-adv-x="1120" 
d="M324 -20q-120 0 -202.5 91t-82.5 253q0 115 44 237t117 220t176 161.5t212 63.5q64 0 117 -23t81.5 -50t59 -50t53.5 -23q59 0 150 146h22l-174 -809q-8 -35 -2 -56.5t23 -21.5q39 0 145 151l12 -6q-78 -151 -137.5 -217.5t-126.5 -66.5q-55 0 -85 38t-30 88q0 69 97 383
l-7 3q-67 -153 -130.5 -257.5t-121.5 -158t-107.5 -75t-102.5 -21.5zM391 72q39 0 82.5 27.5t95.5 89.5t113.5 178t124.5 278l14 80q-84 236 -237 236q-65 0 -122 -44.5t-95.5 -114.5t-66.5 -156t-41 -168.5t-13 -151.5q0 -121 39.5 -187.5t105.5 -66.5zM745 1133
q-224 178 -399 327h223q117 -206 195 -327h-19z" />
    <glyph glyph-name="aacute" unicode="&#xe1;" horiz-adv-x="1120" 
d="M324 -20q-120 0 -202.5 91t-82.5 253q0 115 44 237t117 220t176 161.5t212 63.5q64 0 117 -23t81.5 -50t59 -50t53.5 -23q59 0 150 146h22l-174 -809q-8 -35 -2 -56.5t23 -21.5q39 0 145 151l12 -6q-78 -151 -137.5 -217.5t-126.5 -66.5q-55 0 -85 38t-30 88q0 69 97 383
l-7 3q-67 -153 -130.5 -257.5t-121.5 -158t-107.5 -75t-102.5 -21.5zM391 72q39 0 82.5 27.5t95.5 89.5t113.5 178t124.5 278l14 80q-84 236 -237 236q-65 0 -122 -44.5t-95.5 -114.5t-66.5 -156t-41 -168.5t-13 -151.5q0 -121 39.5 -187.5t105.5 -66.5zM655 1133
q78 121 195 327h223q-164 -139 -397 -327h-21z" />
    <glyph glyph-name="acircumflex" unicode="&#xe2;" horiz-adv-x="1120" 
d="M324 -20q-120 0 -202.5 91t-82.5 253q0 115 44 237t117 220t176 161.5t212 63.5q64 0 117 -23t81.5 -50t59 -50t53.5 -23q59 0 150 146h22l-174 -809q-8 -35 -2 -56.5t23 -21.5q39 0 145 151l12 -6q-78 -151 -137.5 -217.5t-126.5 -66.5q-55 0 -85 38t-30 88q0 69 97 383
l-7 3q-67 -153 -130.5 -257.5t-121.5 -158t-107.5 -75t-102.5 -21.5zM391 72q39 0 82.5 27.5t95.5 89.5t113.5 178t124.5 278l14 80q-84 236 -237 236q-65 0 -122 -44.5t-95.5 -114.5t-66.5 -156t-41 -168.5t-13 -151.5q0 -121 39.5 -187.5t105.5 -66.5zM471 1108l-10 12
q144 154 319 357h11q99 -224 167 -357l-16 -12l-199 172z" />
    <glyph glyph-name="atilde" unicode="&#xe3;" horiz-adv-x="1120" 
d="M324 -20q-120 0 -202.5 91t-82.5 253q0 115 44 237t117 220t176 161.5t212 63.5q64 0 117 -23t81.5 -50t59 -50t53.5 -23q59 0 150 146h22l-174 -809q-8 -35 -2 -56.5t23 -21.5q39 0 145 151l12 -6q-78 -151 -137.5 -217.5t-126.5 -66.5q-55 0 -85 38t-30 88q0 69 97 383
l-7 3q-67 -153 -130.5 -257.5t-121.5 -158t-107.5 -75t-102.5 -21.5zM391 72q39 0 82.5 27.5t95.5 89.5t113.5 178t124.5 278l14 80q-84 236 -237 236q-65 0 -122 -44.5t-95.5 -114.5t-66.5 -156t-41 -168.5t-13 -151.5q0 -121 39.5 -187.5t105.5 -66.5zM842 1198
q-43 0 -131 31q-93 35 -125 35q-63 0 -129 -60l-15 4q39 95 89.5 136.5t121.5 41.5q59 0 138 -30q90 -35 133 -35q31 0 55.5 12t62.5 47l19 -4q-69 -178 -219 -178z" />
    <glyph glyph-name="adieresis" unicode="&#xe4;" horiz-adv-x="1120" 
d="M324 -20q-120 0 -202.5 91t-82.5 253q0 115 44 237t117 220t176 161.5t212 63.5q64 0 117 -23t81.5 -50t59 -50t53.5 -23q59 0 150 146h22l-174 -809q-8 -35 -2 -56.5t23 -21.5q39 0 145 151l12 -6q-78 -151 -137.5 -217.5t-126.5 -66.5q-55 0 -85 38t-30 88q0 69 97 383
l-7 3q-67 -153 -130.5 -257.5t-121.5 -158t-107.5 -75t-102.5 -21.5zM391 72q39 0 82.5 27.5t95.5 89.5t113.5 178t124.5 278l14 80q-84 236 -237 236q-65 0 -122 -44.5t-95.5 -114.5t-66.5 -156t-41 -168.5t-13 -151.5q0 -121 39.5 -187.5t105.5 -66.5zM541 1171
q-46 0 -78.5 32.5t-32.5 78.5t32.5 79.5t78.5 33.5q44 0 77 -33.5t33 -79.5t-32.5 -78.5t-77.5 -32.5zM877 1171q-44 0 -76.5 32.5t-32.5 78.5t32.5 79.5t76.5 33.5q46 0 79 -33.5t33 -79.5t-33 -78.5t-79 -32.5z" />
    <glyph glyph-name="aring" unicode="&#xe5;" horiz-adv-x="1120" 
d="M324 -20q-120 0 -202.5 91t-82.5 253q0 115 44 237t117 220t176 161.5t212 63.5q64 0 117 -23t81.5 -50t59 -50t53.5 -23q59 0 150 146h22l-174 -809q-8 -35 -2 -56.5t23 -21.5q39 0 145 151l12 -6q-78 -151 -137.5 -217.5t-126.5 -66.5q-55 0 -85 38t-30 88q0 69 97 383
l-7 3q-67 -153 -130.5 -257.5t-121.5 -158t-107.5 -75t-102.5 -21.5zM391 72q39 0 82.5 27.5t95.5 89.5t113.5 178t124.5 278l14 80q-84 236 -237 236q-65 0 -122 -44.5t-95.5 -114.5t-66.5 -156t-41 -168.5t-13 -151.5q0 -121 39.5 -187.5t105.5 -66.5zM705 1079
q-66 0 -108 43t-42 109q0 85 70 155t157 70q65 0 106.5 -41.5t41.5 -105.5q0 -87 -69.5 -158.5t-155.5 -71.5zM727 1126q57 6 102 59.5t45 114.5q0 51 -32 83t-82 28q-57 -5 -102.5 -56t-45.5 -114q0 -51 33 -86t82 -29z" />
    <glyph glyph-name="ae" unicode="&#xe6;" horiz-adv-x="1593" 
d="M227 -20q-99 0 -165 49t-66 141q0 148 184.5 264.5t550.5 216.5l29 123q21 90 -12.5 142.5t-116.5 52.5q-101 0 -175.5 -81t-111.5 -216l-10 -4l-129 114q78 102 194 163t250 61q212 0 256 -166q73 73 180 119.5t228 46.5q126 0 193 -49.5t67 -116.5q0 -39 -22 -78.5
t-73.5 -81t-128.5 -76t-196.5 -63t-267.5 -43.5q-8 -44 -8 -84q0 -138 75.5 -211.5t196.5 -73.5q202 0 338 201l12 -4q-56 -142 -175 -244t-267 -102q-49 0 -97 11.5t-96.5 39.5t-85 69t-59.5 106t-23 144q0 48 15 129h-9q-54 -126 -103.5 -213.5t-107 -154.5t-123 -99
t-141.5 -32zM326 92q91 0 184 120t211 400q-113 -36 -198.5 -73t-159.5 -84.5t-113 -106.5t-39 -127q0 -63 32.5 -96t82.5 -33zM893 539q135 17 244 56.5t177 103.5t68 141q0 50 -29 86.5t-89 36.5q-107 0 -219.5 -116t-151.5 -308z" />
    <glyph glyph-name="ccedilla" unicode="&#xe7;" horiz-adv-x="942" 
d="M74 -434l22 33q126 11 201.5 51.5t75.5 101.5q0 40 -44 64.5t-122 29.5l127 140q-133 24 -211 123.5t-78 255.5q0 161 79.5 310t210 240t271.5 91q112 0 196 -58t130 -149l-195 -131l-6 4q4 57 -2.5 107t-23 91.5t-49 66t-76.5 24.5q-82 0 -162 -77.5t-129 -197
t-49 -237.5q0 -151 80.5 -234.5t209.5 -83.5q101 0 185 56t139 145l14 -6q-68 -157 -186.5 -251.5t-273.5 -94.5q-27 0 -39 2l-41 -52q101 -7 147.5 -40t46.5 -93q0 -107 -126.5 -170.5t-321.5 -60.5z" />
    <glyph glyph-name="egrave" unicode="&#xe8;" horiz-adv-x="962" 
d="M406 -20q-162 0 -262.5 104t-100.5 276q0 120 51.5 237.5t136 207.5t201.5 145.5t240 55.5q51 0 97.5 -9.5t86 -28.5t63 -52t23.5 -76q0 -72 -64 -133.5t-168 -102.5t-220 -67.5t-236 -38.5q-6 -30 -6 -80q0 -79 22 -137t60.5 -90t83.5 -47t98 -15q93 0 183.5 47.5
t160.5 153.5l12 -4q-63 -154 -183.5 -250t-278.5 -96zM260 541q224 26 357 109t133 192q0 52 -29.5 86.5t-89.5 34.5q-108 0 -217 -114t-154 -308zM682 1133q-224 178 -399 327h223q124 -219 194 -327h-18z" />
    <glyph glyph-name="eacute" unicode="&#xe9;" horiz-adv-x="962" 
d="M406 -20q-162 0 -262.5 104t-100.5 276q0 120 51.5 237.5t136 207.5t201.5 145.5t240 55.5q51 0 97.5 -9.5t86 -28.5t63 -52t23.5 -76q0 -72 -64 -133.5t-168 -102.5t-220 -67.5t-236 -38.5q-6 -30 -6 -80q0 -79 22 -137t60.5 -90t83.5 -47t98 -15q93 0 183.5 47.5
t160.5 153.5l12 -4q-63 -154 -183.5 -250t-278.5 -96zM260 541q224 26 357 109t133 192q0 52 -29.5 86.5t-89.5 34.5q-108 0 -217 -114t-154 -308zM592 1133q70 108 194 327h224q-145 -123 -398 -327h-20z" />
    <glyph glyph-name="ecircumflex" unicode="&#xea;" horiz-adv-x="962" 
d="M406 -20q-162 0 -262.5 104t-100.5 276q0 120 51.5 237.5t136 207.5t201.5 145.5t240 55.5q51 0 97.5 -9.5t86 -28.5t63 -52t23.5 -76q0 -72 -64 -133.5t-168 -102.5t-220 -67.5t-236 -38.5q-6 -30 -6 -80q0 -79 22 -137t60.5 -90t83.5 -47t98 -15q93 0 183.5 47.5
t160.5 153.5l12 -4q-63 -154 -183.5 -250t-278.5 -96zM260 541q224 26 357 109t133 192q0 52 -29.5 86.5t-89.5 34.5q-108 0 -217 -114t-154 -308zM408 1108l-11 12q157 168 320 357h10q93 -210 168 -357l-16 -12l-199 172z" />
    <glyph glyph-name="edieresis" unicode="&#xeb;" horiz-adv-x="962" 
d="M406 -20q-162 0 -262.5 104t-100.5 276q0 120 51.5 237.5t136 207.5t201.5 145.5t240 55.5q51 0 97.5 -9.5t86 -28.5t63 -52t23.5 -76q0 -72 -64 -133.5t-168 -102.5t-220 -67.5t-236 -38.5q-6 -30 -6 -80q0 -79 22 -137t60.5 -90t83.5 -47t98 -15q93 0 183.5 47.5
t160.5 153.5l12 -4q-63 -154 -183.5 -250t-278.5 -96zM260 541q224 26 357 109t133 192q0 52 -29.5 86.5t-89.5 34.5q-108 0 -217 -114t-154 -308zM477 1171q-46 0 -78 32.5t-32 78.5t32.5 79.5t77.5 33.5q44 0 77.5 -33.5t33.5 -79.5q0 -45 -33 -78t-78 -33zM813 1171
q-44 0 -76 32.5t-32 78.5t32 79.5t76 33.5q46 0 79.5 -33.5t33.5 -79.5t-33.5 -78.5t-79.5 -32.5z" />
    <glyph glyph-name="igrave" unicode="&#xec;" horiz-adv-x="512" 
d="M203 -20q-57 0 -89 35.5t-32 95.5q0 19 10 69l111 522q23 109 -1.5 159t-101.5 71l4 14q199 17 357 64l-172 -811q-16 -80 16 -80q22 0 55 31t95 120l12 -6q-86 -161 -139.5 -222.5t-124.5 -61.5zM414 1137q-240 191 -400 327h224q124 -219 194 -327h-18z" />
    <glyph glyph-name="iacute" unicode="&#xed;" horiz-adv-x="512" 
d="M203 -20q-57 0 -89 35.5t-32 95.5q0 19 10 69l111 522q23 109 -1.5 159t-101.5 71l4 14q199 17 357 64l-172 -811q-16 -80 16 -80q22 0 55 31t95 120l12 -6q-86 -161 -139.5 -222.5t-124.5 -61.5zM324 1137q70 108 194 327h223q-164 -139 -397 -327h-20z" />
    <glyph glyph-name="icircumflex" unicode="&#xee;" horiz-adv-x="512" 
d="M203 -20q-57 0 -89 35.5t-32 95.5q0 19 10 69l111 522q23 109 -1.5 159t-101.5 71l4 14q199 17 357 64l-172 -811q-16 -80 16 -80q22 0 55 31t95 120l12 -6q-86 -161 -139.5 -222.5t-124.5 -61.5zM139 1112l-10 12q157 168 320 357h10q93 -210 168 -357l-17 -12l-198 172
z" />
    <glyph glyph-name="idieresis" unicode="&#xef;" horiz-adv-x="512" 
d="M203 -20q-57 0 -89 35.5t-32 95.5q0 19 10 69l111 522q23 109 -1.5 159t-101.5 71l4 14q199 17 357 64l-172 -811q-16 -80 16 -80q22 0 55 31t95 120l12 -6q-86 -161 -139.5 -222.5t-124.5 -61.5zM209 1176q-46 0 -78.5 32t-32.5 78t32.5 79.5t78.5 33.5q44 0 77 -33.5
t33 -79.5q0 -45 -32.5 -77.5t-77.5 -32.5zM545 1176q-45 0 -77 32t-32 78t32.5 79.5t76.5 33.5q46 0 79 -33.5t33 -79.5t-33 -78t-79 -32z" />
    <glyph glyph-name="eth" unicode="&#xf0;" horiz-adv-x="1091" 
d="M461 -20q-193 0 -301.5 116t-108.5 293q0 113 44.5 224t120 198t184.5 141t229 54q132 0 200 -50q-32 165 -129 308l-256 -131l-18 28l254 133q-110 151 -279 238l11 16q208 -65 360 -205l199 105l18 -29l-186 -102q117 -117 183.5 -279.5t66.5 -349.5q0 -201 -75 -362.5
t-211 -253.5t-306 -92zM496 27q92 0 169.5 80.5t120.5 209t43 271.5q0 165 -59.5 270t-171.5 105q-95 0 -173.5 -79t-120.5 -203t-42 -263q0 -106 25 -192.5t79 -142.5t130 -56z" />
    <glyph glyph-name="ntilde" unicode="&#xf1;" horiz-adv-x="1153" 
d="M844 -20q-58 0 -88.5 37.5t-30.5 93.5q0 20 3.5 47t16.5 84t22.5 97.5t35.5 147.5q51 211 51 310q0 47 -12.5 70.5t-48.5 23.5q-44 0 -94 -49.5t-147 -202t-265 -453.5l-41 -186h-191l156 727q20 95 -9 137.5t-102 67.5l2 14q179 18 357 64l-84 -398q-4 -16 -14.5 -68.5
t-24 -110t-29.5 -116.5h6q49 87 75.5 134t67 116.5t63.5 106t56.5 88t55 77t50 59t51 49t49 32t52 22t52.5 5.5q80 0 122 -52t42 -143q0 -78 -62 -342q-63 -273 -63 -313q0 -37 24 -37q21 0 50 29.5t98 121.5l12 -6q-92 -165 -144.5 -224.5t-119.5 -59.5zM844 1202
q-43 0 -131 31q-93 35 -125 35q-63 0 -129 -60l-15 4q39 95 90 137t121 42q56 0 138 -31q90 -35 133 -35q31 0 55.5 12t62.5 47l19 -4q-69 -178 -219 -178z" />
    <glyph glyph-name="ograve" unicode="&#xf2;" horiz-adv-x="1079" 
d="M422 -20q-180 0 -278.5 108t-98.5 279q0 118 47.5 233.5t127.5 205t194.5 145t240.5 55.5q179 0 279 -106t100 -284q0 -161 -80 -307t-222.5 -237.5t-309.5 -91.5zM475 23q89 0 168.5 75t129.5 209t50 291q0 165 -57 265t-160 100q-87 0 -166.5 -74t-130.5 -207.5
t-51 -292.5q0 -163 56 -264.5t161 -101.5zM709 1135q-240 191 -400 327h223q117 -206 195 -327h-18z" />
    <glyph glyph-name="oacute" unicode="&#xf3;" horiz-adv-x="1079" 
d="M422 -20q-180 0 -278.5 108t-98.5 279q0 118 47.5 233.5t127.5 205t194.5 145t240.5 55.5q179 0 279 -106t100 -284q0 -161 -80 -307t-222.5 -237.5t-309.5 -91.5zM475 23q89 0 168.5 75t129.5 209t50 291q0 165 -57 265t-160 100q-87 0 -166.5 -74t-130.5 -207.5
t-51 -292.5q0 -163 56 -264.5t161 -101.5zM618 1135q78 121 195 327h223q-164 -139 -397 -327h-21z" />
    <glyph glyph-name="ocircumflex" unicode="&#xf4;" horiz-adv-x="1079" 
d="M422 -20q-180 0 -278.5 108t-98.5 279q0 118 47.5 233.5t127.5 205t194.5 145t240.5 55.5q179 0 279 -106t100 -284q0 -161 -80 -307t-222.5 -237.5t-309.5 -91.5zM475 23q89 0 168.5 75t129.5 209t50 291q0 165 -57 265t-160 100q-87 0 -166.5 -74t-130.5 -207.5
t-51 -292.5q0 -163 56 -264.5t161 -101.5zM434 1110l-10 12q144 154 319 357h11q93 -210 168 -357l-17 -12l-198 172z" />
    <glyph glyph-name="otilde" unicode="&#xf5;" horiz-adv-x="1079" 
d="M422 -20q-180 0 -278.5 108t-98.5 279q0 118 47.5 233.5t127.5 205t194.5 145t240.5 55.5q179 0 279 -106t100 -284q0 -161 -80 -307t-222.5 -237.5t-309.5 -91.5zM475 23q89 0 168.5 75t129.5 209t50 291q0 165 -57 265t-160 100q-87 0 -166.5 -74t-130.5 -207.5
t-51 -292.5q0 -163 56 -264.5t161 -101.5zM805 1200q-43 0 -131 31q-93 35 -125 35q-63 0 -129 -60l-14 4q39 95 89.5 137t120.5 42q56 0 138 -31q90 -35 133 -35q31 0 56 12t63 47l18 -4q-69 -178 -219 -178z" />
    <glyph glyph-name="odieresis" unicode="&#xf6;" horiz-adv-x="1079" 
d="M422 -20q-180 0 -278.5 108t-98.5 279q0 118 47.5 233.5t127.5 205t194.5 145t240.5 55.5q179 0 279 -106t100 -284q0 -161 -80 -307t-222.5 -237.5t-309.5 -91.5zM475 23q89 0 168.5 75t129.5 209t50 291q0 165 -57 265t-160 100q-87 0 -166.5 -74t-130.5 -207.5
t-51 -292.5q0 -163 56 -264.5t161 -101.5zM504 1174q-46 0 -78.5 32t-32.5 78t32.5 79.5t78.5 33.5q44 0 77 -33.5t33 -79.5q0 -45 -32.5 -77.5t-77.5 -32.5zM840 1174q-44 0 -76.5 32t-32.5 78t32.5 79.5t76.5 33.5q46 0 79 -33.5t33 -79.5t-33 -78t-79 -32z" />
    <glyph glyph-name="oslash" unicode="&#xf8;" horiz-adv-x="1079" 
d="M109 -84l88 125q-74 52 -113 136.5t-39 189.5q0 118 47.5 233.5t127.5 205t194.5 145t240.5 55.5q116 0 195 -43l61 86h47l-75 -107q151 -102 151 -326q0 -161 -80 -307t-222.5 -237.5t-309.5 -91.5q-111 0 -195 43l-75 -107h-43zM475 23q89 0 168.5 75t129.5 209t50 291
q0 133 -32 215l-484 -678q59 -112 168 -112zM291 174l481 678q-59 111 -166 111q-87 0 -166.5 -74t-130.5 -207.5t-51 -292.5q0 -130 33 -215z" />
    <glyph glyph-name="ugrave" unicode="&#xf9;" 
d="M279 -20q-83 0 -128 53t-45 143q0 55 39 238l64 297q12 45 9.5 80t-10 58.5t-25.5 40.5t-37 26.5t-46 17.5l4 14q162 8 359 62l-133 -615q-29 -139 -29 -205q0 -54 14 -74t47 -20q46 0 97.5 52t143.5 197t263 448l39 170l201 47l-166 -777q-12 -46 -12 -79t26 -33
q18 0 45 27t101 122l12 -6q-40 -72 -61 -107t-49.5 -76.5t-49 -59t-46.5 -29.5t-56 -12q-54 0 -86.5 32.5t-32.5 93.5q0 21 19 111q47 207 98 449h-6q-119 -217 -202.5 -352t-148.5 -209t-112 -99.5t-100 -25.5zM741 1135q-224 178 -399 327h223q117 -206 195 -327h-19z" />
    <glyph glyph-name="uacute" unicode="&#xfa;" 
d="M279 -20q-83 0 -128 53t-45 143q0 55 39 238l64 297q12 45 9.5 80t-10 58.5t-25.5 40.5t-37 26.5t-46 17.5l4 14q162 8 359 62l-133 -615q-29 -139 -29 -205q0 -54 14 -74t47 -20q46 0 97.5 52t143.5 197t263 448l39 170l201 47l-166 -777q-12 -46 -12 -79t26 -33
q18 0 45 27t101 122l12 -6q-40 -72 -61 -107t-49.5 -76.5t-49 -59t-46.5 -29.5t-56 -12q-54 0 -86.5 32.5t-32.5 93.5q0 21 19 111q47 207 98 449h-6q-119 -217 -202.5 -352t-148.5 -209t-112 -99.5t-100 -25.5zM651 1135q78 121 195 327h223q-164 -139 -397 -327h-21z" />
    <glyph glyph-name="ucircumflex" unicode="&#xfb;" 
d="M279 -20q-83 0 -128 53t-45 143q0 55 39 238l64 297q12 45 9.5 80t-10 58.5t-25.5 40.5t-37 26.5t-46 17.5l4 14q162 8 359 62l-133 -615q-29 -139 -29 -205q0 -54 14 -74t47 -20q46 0 97.5 52t143.5 197t263 448l39 170l201 47l-166 -777q-12 -46 -12 -79t26 -33
q18 0 45 27t101 122l12 -6q-40 -72 -61 -107t-49.5 -76.5t-49 -59t-46.5 -29.5t-56 -12q-54 0 -86.5 32.5t-32.5 93.5q0 21 19 111q47 207 98 449h-6q-119 -217 -202.5 -352t-148.5 -209t-112 -99.5t-100 -25.5zM469 1110l-10 12q144 154 319 357h10q93 -210 168 -357
l-16 -12l-199 172z" />
    <glyph glyph-name="udieresis" unicode="&#xfc;" 
d="M279 -20q-83 0 -128 53t-45 143q0 55 39 238l64 297q12 45 9.5 80t-10 58.5t-25.5 40.5t-37 26.5t-46 17.5l4 14q162 8 359 62l-133 -615q-29 -139 -29 -205q0 -54 14 -74t47 -20q46 0 97.5 52t143.5 197t263 448l39 170l201 47l-166 -777q-12 -46 -12 -79t26 -33
q18 0 45 27t101 122l12 -6q-40 -72 -61 -107t-49.5 -76.5t-49 -59t-46.5 -29.5t-56 -12q-54 0 -86.5 32.5t-32.5 93.5q0 21 19 111q47 207 98 449h-6q-119 -217 -202.5 -352t-148.5 -209t-112 -99.5t-100 -25.5zM537 1174q-46 0 -78.5 32t-32.5 78t32.5 79.5t78.5 33.5
q44 0 77 -33.5t33 -79.5q0 -45 -32.5 -77.5t-77.5 -32.5zM872 1174q-44 0 -76 32t-32 78t32 79.5t76 33.5q46 0 79.5 -33.5t33.5 -79.5q0 -45 -33.5 -77.5t-79.5 -32.5z" />
    <glyph glyph-name="yacute" unicode="&#xfd;" horiz-adv-x="1013" 
d="M-133 -430l-41 194l6 13q3 -5 23 -11.5t56.5 -12t76.5 -5.5q185 0 329 160q0 162 -28 433t-51 378q-18 79 -56 120t-112 56l2 14q115 21 317 101q37 -218 67 -488.5t38 -435.5q344 400 344 621q0 130 -121 245v13l194 45q41 -64 41 -150q0 -155 -132 -391.5t-343 -464.5
q-171 -185 -332 -298.5t-278 -135.5zM590 1135q70 108 194 327h224q-145 -123 -398 -327h-20z" />
    <glyph glyph-name="thorn" unicode="&#xfe;" horiz-adv-x="1122" 
d="M-172 -410l2 13q100 42 133.5 77.5t50.5 116.5l324 1530q14 65 -11 92.5t-114 44.5l2 13q177 9 360 61l-155 -733q-28 -132 -88 -342h8q133 294 240.5 418.5t232.5 124.5q117 0 192.5 -96.5t75.5 -262.5q0 -127 -47.5 -250.5t-123.5 -214t-174.5 -146.5t-196.5 -56
q-83 0 -152 37t-115 87l-65 -294q-20 -91 13 -135t161 -72l-2 -13h-551zM535 31q93 0 172.5 88.5t123 226t43.5 285.5q0 127 -36 198.5t-107 71.5q-54 0 -108 -49t-127.5 -173.5t-171.5 -342.5l-15 -60q27 -109 84 -177t142 -68z" />
    <glyph glyph-name="ydieresis" unicode="&#xff;" horiz-adv-x="1013" 
d="M-133 -430l-41 194l6 13q3 -5 23 -11.5t56.5 -12t76.5 -5.5q185 0 329 160q0 162 -28 433t-51 378q-18 79 -56 120t-112 56l2 14q115 21 317 101q37 -218 67 -488.5t38 -435.5q344 400 344 621q0 130 -121 245v13l194 45q41 -64 41 -150q0 -155 -132 -391.5t-343 -464.5
q-171 -185 -332 -298.5t-278 -135.5zM475 1174q-46 0 -78 32t-32 78t32.5 79.5t77.5 33.5q44 0 77.5 -33.5t33.5 -79.5q0 -45 -33 -77.5t-78 -32.5zM811 1174q-45 0 -77 32t-32 78t32.5 79.5t76.5 33.5q46 0 79.5 -33.5t33.5 -79.5q0 -45 -33.5 -77.5t-79.5 -32.5z" />
    <glyph glyph-name="Amacron" unicode="&#x100;" horiz-adv-x="1433" 
d="M-94 0l2 12q124 65 198.5 142t198.5 270l557 854l-24 119q94 36 219 110l127 -1319q4 -43 9 -64t19.5 -43t40 -36.5t72.5 -32.5l-2 -12h-580l5 12q43 14 73 25t54.5 24t39.5 21.5t25.5 23t15 24.5t6 30t0.5 34.5t-4 43.5l-26 270h-508l-45 -72q-53 -84 -75.5 -122
t-48.5 -90t-26.5 -75t8 -52.5t37 -47.5t76.5 -37l-2 -12h-442zM475 588h451l-52 618zM698 1591l23 123h528l-24 -123h-527z" />
    <glyph glyph-name="amacron" unicode="&#x101;" horiz-adv-x="1120" 
d="M324 -20q-120 0 -202.5 91t-82.5 253q0 115 44 237t117 220t176 161.5t212 63.5q64 0 117 -23t81.5 -50t59 -50t53.5 -23q59 0 150 146h22l-174 -809q-8 -35 -2 -56.5t23 -21.5q39 0 145 151l12 -6q-78 -151 -137.5 -217.5t-126.5 -66.5q-55 0 -85 38t-30 88q0 69 97 383
l-7 3q-67 -153 -130.5 -257.5t-121.5 -158t-107.5 -75t-102.5 -21.5zM391 72q39 0 82.5 27.5t95.5 89.5t113.5 178t124.5 278l14 80q-84 236 -237 236q-65 0 -122 -44.5t-95.5 -114.5t-66.5 -156t-41 -168.5t-13 -151.5q0 -121 39.5 -187.5t105.5 -66.5zM485 1212l25 119
h502l-25 -119h-502z" />
    <glyph glyph-name="Abreve" unicode="&#x102;" horiz-adv-x="1433" 
d="M-94 0l2 12q124 65 198.5 142t198.5 270l557 854l-24 119q94 36 219 110l127 -1319q4 -43 9 -64t19.5 -43t40 -36.5t72.5 -32.5l-2 -12h-580l5 12q43 14 73 25t54.5 24t39.5 21.5t25.5 23t15 24.5t6 30t0.5 34.5t-4 43.5l-26 270h-508l-45 -72q-53 -84 -75.5 -122
t-48.5 -90t-26.5 -75t8 -52.5t37 -47.5t76.5 -37l-2 -12h-442zM475 588h451l-52 618zM963 1550q-112 0 -157.5 86t-27.5 236h19q6 -84 61.5 -134t126.5 -50t145 50t117 134h19q-98 -322 -303 -322z" />
    <glyph glyph-name="abreve" unicode="&#x103;" horiz-adv-x="1120" 
d="M324 -20q-120 0 -202.5 91t-82.5 253q0 115 44 237t117 220t176 161.5t212 63.5q64 0 117 -23t81.5 -50t59 -50t53.5 -23q59 0 150 146h22l-174 -809q-8 -35 -2 -56.5t23 -21.5q39 0 145 151l12 -6q-78 -151 -137.5 -217.5t-126.5 -66.5q-55 0 -85 38t-30 88q0 69 97 383
l-7 3q-67 -153 -130.5 -257.5t-121.5 -158t-107.5 -75t-102.5 -21.5zM391 72q39 0 82.5 27.5t95.5 89.5t113.5 178t124.5 278l14 80q-84 236 -237 236q-65 0 -122 -44.5t-95.5 -114.5t-66.5 -156t-41 -168.5t-13 -151.5q0 -121 39.5 -187.5t105.5 -66.5zM721 1124
q-112 0 -157 86.5t-27 239.5h18q6 -86 61 -136t127 -50t146.5 49.5t116.5 136.5h18q-98 -326 -303 -326z" />
    <glyph glyph-name="Aogonek" unicode="&#x104;" horiz-adv-x="1433" 
d="M928 -385q-61 0 -97 26.5t-36 71.5q0 70 84.5 146.5t218.5 140.5h-355l5 12q43 14 73 25t54.5 24t39.5 21.5t25.5 23t15 24.5t6 30t0.5 34.5t-4 43.5l-26 270h-508l-45 -72q-53 -84 -75.5 -122t-48.5 -90t-26.5 -75t8 -52.5t37 -47.5t76.5 -37l-2 -12h-442l2 12
q124 65 198.5 142t198.5 270l557 854l-24 119q94 36 219 110l127 -1319q4 -43 9 -64t19.5 -43t40 -36.5t72.5 -32.5l-2 -12h-172q-75 -50 -132.5 -115.5t-57.5 -120.5q0 -30 20.5 -45.5t52.5 -15.5q83 0 166 64l10 -11q-53 -63 -130 -102t-152 -39zM475 588h451l-52 618z
" />
    <glyph glyph-name="aogonek" unicode="&#x105;" horiz-adv-x="1120" 
d="M629 -379q-61 0 -97 26.5t-36 71.5q0 65 74.5 137.5t193.5 133.5q-32 14 -50 46.5t-18 69.5q0 69 97 383l-7 3q-67 -153 -130.5 -257.5t-121.5 -158t-107.5 -75t-102.5 -21.5q-120 0 -202.5 91t-82.5 253q0 115 44 237t117 220t176 161.5t212 63.5q64 0 117 -23t81.5 -50
t59 -50t53.5 -23q59 0 150 146h22l-174 -809q-8 -35 -2 -56.5t23 -21.5q39 0 145 151l12 -6q-77 -149 -136 -216t-124 -68q-64 -48 -108.5 -104t-44.5 -105q0 -30 20.5 -46t52.5 -16q83 0 166 64l10 -11q-53 -63 -130 -102t-152 -39zM391 72q39 0 82.5 27.5t95.5 89.5
t113.5 178t124.5 278l14 80q-84 236 -237 236q-65 0 -122 -44.5t-95.5 -114.5t-66.5 -156t-41 -168.5t-13 -151.5q0 -121 39.5 -187.5t105.5 -66.5z" />
    <glyph glyph-name="Cacute" unicode="&#x106;" horiz-adv-x="1382" 
d="M664 -25q-264 0 -415 149t-151 413q0 140 42.5 279.5t122.5 259.5t187 213t245 146.5t286 53.5q188 0 426 -78l-29 -326h-12q-65 158 -170 256.5t-233 98.5q-93 0 -187 -52t-172 -143t-139 -206t-95 -249.5t-34 -265.5q0 -119 28.5 -215.5t76.5 -157t109 -92.5t128 -32
q122 0 264 96t275 256h12l-111 -326q-244 -78 -454 -78zM905 1571q78 121 195 327h223q-164 -139 -397 -327h-21z" />
    <glyph glyph-name="cacute" unicode="&#x107;" horiz-adv-x="942" 
d="M408 -20q-163 0 -263 103t-100 282q0 120 47.5 237.5t124.5 205.5t180 143t209 55q112 0 196 -58t130 -149l-195 -131l-6 4q4 57 -2.5 107t-23 91.5t-49 66t-76.5 24.5q-82 0 -162 -77.5t-129 -197t-49 -237.5q0 -151 80.5 -234.5t209.5 -83.5q101 0 185 56t139 145
l14 -6q-68 -157 -186.5 -251.5t-273.5 -94.5zM567 1135q78 121 195 327h223q-164 -139 -397 -327h-21z" />
    <glyph glyph-name="Ccircumflex" unicode="&#x108;" horiz-adv-x="1382" 
d="M664 -25q-264 0 -415 149t-151 413q0 140 42.5 279.5t122.5 259.5t187 213t245 146.5t286 53.5q188 0 426 -78l-29 -326h-12q-65 158 -170 256.5t-233 98.5q-93 0 -187 -52t-172 -143t-139 -206t-95 -249.5t-34 -265.5q0 -119 28.5 -215.5t76.5 -157t109 -92.5t128 -32
q122 0 264 96t275 256h12l-111 -326q-244 -78 -454 -78zM766 1530l-10 12q243 269 323 363h11q81 -194 170 -363l-17 -12l-201 174z" />
    <glyph glyph-name="ccircumflex" unicode="&#x109;" horiz-adv-x="942" 
d="M408 -20q-163 0 -263 103t-100 282q0 120 47.5 237.5t124.5 205.5t180 143t209 55q112 0 196 -58t130 -149l-195 -131l-6 4q4 57 -2.5 107t-23 91.5t-49 66t-76.5 24.5q-82 0 -162 -77.5t-129 -197t-49 -237.5q0 -151 80.5 -234.5t209.5 -83.5q101 0 185 56t139 145
l14 -6q-68 -157 -186.5 -251.5t-273.5 -94.5zM383 1110l-10 12q144 154 319 357h10q93 -210 168 -357l-16 -12l-199 172z" />
    <glyph glyph-name="Cdotaccent" unicode="&#x10a;" horiz-adv-x="1382" 
d="M664 -25q-264 0 -415 149t-151 413q0 140 42.5 279.5t122.5 259.5t187 213t245 146.5t286 53.5q188 0 426 -78l-29 -326h-12q-65 158 -170 256.5t-233 98.5q-93 0 -187 -52t-172 -143t-139 -206t-95 -249.5t-34 -265.5q0 -119 28.5 -215.5t76.5 -157t109 -92.5t128 -32
q122 0 264 96t275 256h12l-111 -326q-244 -78 -454 -78zM1001 1561q-49 0 -82.5 34t-33.5 82t33.5 82.5t82.5 34.5q47 0 82 -35t35 -82t-35 -81.5t-82 -34.5z" />
    <glyph glyph-name="cdotaccent" unicode="&#x10b;" horiz-adv-x="942" 
d="M408 -20q-163 0 -263 103t-100 282q0 120 47.5 237.5t124.5 205.5t180 143t209 55q112 0 196 -58t130 -149l-195 -131l-6 4q4 57 -2.5 107t-23 91.5t-49 66t-76.5 24.5q-82 0 -162 -77.5t-129 -197t-49 -237.5q0 -151 80.5 -234.5t209.5 -83.5q101 0 185 56t139 145
l14 -6q-68 -157 -186.5 -251.5t-273.5 -94.5zM623 1167q-50 0 -87.5 36t-37.5 85q0 46 38 82.5t87 36.5q47 0 84.5 -36.5t37.5 -82.5q0 -49 -37 -85t-85 -36z" />
    <glyph glyph-name="Ccaron" unicode="&#x10c;" horiz-adv-x="1382" 
d="M664 -25q-264 0 -415 149t-151 413q0 140 42.5 279.5t122.5 259.5t187 213t245 146.5t286 53.5q188 0 426 -78l-29 -326h-12q-65 158 -170 256.5t-233 98.5q-93 0 -187 -52t-172 -143t-139 -206t-95 -249.5t-34 -265.5q0 -119 28.5 -215.5t76.5 -157t109 -92.5t128 -32
q122 0 264 96t275 256h12l-111 -326q-244 -78 -454 -78zM999 1536q-83 195 -170 362l15 13l205 -174l272 174l12 -13q-137 -149 -323 -362h-11z" />
    <glyph glyph-name="ccaron" unicode="&#x10d;" horiz-adv-x="942" 
d="M408 -20q-163 0 -263 103t-100 282q0 120 47.5 237.5t124.5 205.5t180 143t209 55q112 0 196 -58t130 -149l-195 -131l-6 4q4 57 -2.5 107t-23 91.5t-49 66t-76.5 24.5q-82 0 -162 -77.5t-129 -197t-49 -237.5q0 -151 80.5 -234.5t209.5 -83.5q101 0 185 56t139 145
l14 -6q-68 -157 -186.5 -251.5t-273.5 -94.5zM602 1110q-90 203 -168 356l17 13l198 -170l273 170l10 -13q-188 -201 -320 -356h-10z" />
    <glyph glyph-name="Dcaron" unicode="&#x10e;" horiz-adv-x="1464" 
d="M-61 0l2 12q132 44 172 84q32 33 51 109q3 13 12 55l201 944q20 74 18.5 119t-32 71t-115.5 58l2 12h526q174 0 306.5 -42.5t214.5 -120t123.5 -181.5t41.5 -233q0 -175 -73.5 -338.5t-196 -283.5t-288.5 -192.5t-343 -72.5h-622zM555 55q109 0 212 46t186 128
t145.5 189.5t96.5 237.5t34 264q0 493 -471 493h-115l-270 -1272q-6 -34 44.5 -60t137.5 -26zM926 1536q-83 195 -170 362l14 13l205 -174l272 174l13 -13q-156 -169 -324 -362h-10z" />
    <glyph glyph-name="dcaron" unicode="&#x10f;" horiz-adv-x="1122" 
d="M328 -20q-119 0 -204 86.5t-85 255.5q0 115 43 237t114 221t173 162.5t211 63.5q158 0 272 -123l80 387q17 82 -9.5 128.5t-97.5 63.5l2 13q196 26 355 63l-283 -1335q-8 -25 -7 -54.5t26 -29.5q20 0 45 26.5t102 124.5l12 -6q-26 -48 -37.5 -69t-34 -59t-35.5 -54.5
t-34 -41t-38.5 -34.5t-39.5 -18t-45 -8q-57 0 -87 38t-30 93q0 64 97 378h-9q-68 -156 -132.5 -261.5t-122 -157t-104 -71t-97.5 -19.5zM395 72q188 0 412 571l12 66q-86 252 -231 252q-97 0 -178 -101.5t-122.5 -244t-41.5 -281.5q0 -132 40.5 -197t108.5 -65zM1196 1063
l121 426h196l-303 -426h-14z" />
    <glyph glyph-name="Dcroat" unicode="&#x110;" horiz-adv-x="1464" 
d="M-61 0l2 12q50 16 82 28.5t57.5 30t38 30.5t24.5 41t17.5 49.5t15.5 68.5l103 479h-103l8 49h105l88 416q8 36 11.5 55t6 43t0.5 35.5t-8.5 27.5t-16.5 24t-28 20t-39.5 21t-54.5 22l2 12h526q174 0 306.5 -42.5t214.5 -120t123.5 -181.5t41.5 -233q0 -175 -73.5 -338.5
t-196 -283.5t-288.5 -192.5t-343 -72.5h-622zM555 55q109 0 212 46t186 128t145.5 189.5t96.5 237.5t34 264q0 493 -471 493h-115l-133 -625h235l-8 -49h-237l-127 -598q-6 -34 44.5 -60t137.5 -26z" />
    <glyph glyph-name="dcroat" unicode="&#x111;" horiz-adv-x="1122" 
d="M328 -20q-119 0 -204 86.5t-85 255.5q0 115 43 237t114 221t173 162.5t211 63.5q158 0 272 -123l70 340h-258l10 49h258q17 81 -9.5 127t-97.5 63l2 13q196 26 355 63l-58 -266h136l-9 -49h-137l-215 -1020q-10 -37 -7.5 -60.5t23.5 -23.5t47.5 27t102.5 124l12 -6
q-26 -48 -37.5 -69t-34 -59t-35.5 -54.5t-34 -41t-38.5 -34.5t-39.5 -18t-45 -8q-57 0 -87 38t-30 93q0 64 97 378h-9q-68 -156 -132.5 -261.5t-122 -157t-104 -71t-97.5 -19.5zM395 72q188 0 412 571l12 66q-86 252 -231 252q-97 0 -178 -101.5t-122.5 -244t-41.5 -281.5
q0 -132 40.5 -197t108.5 -65z" />
    <glyph glyph-name="Emacron" unicode="&#x112;" horiz-adv-x="1263" 
d="M-61 0l2 12q132 44 172 84q32 33 51 109q3 13 12 55l201 944q20 74 18.5 119t-32 71t-115.5 58l2 12h1010l-35 -340h-13q-20 130 -97 209.5t-206 79.5h-264l-129 -604h264q72 0 139 37.5t117 99.5h11l-74 -340h-10q-18 62 -67 108.5t-128 45.5l-264 -4l-131 -615
q-5 -24 19.5 -43.5t85 -32t149.5 -12.5h100q100 0 207 80.5t201 222.5h12l-125 -356h-1083zM596 1591l27 123h585l-26 -123h-586z" />
    <glyph glyph-name="emacron" unicode="&#x113;" horiz-adv-x="962" 
d="M406 -20q-162 0 -262.5 104t-100.5 276q0 120 51.5 237.5t136 207.5t201.5 145.5t240 55.5q51 0 97.5 -9.5t86 -28.5t63 -52t23.5 -76q0 -72 -64 -133.5t-168 -102.5t-220 -67.5t-236 -38.5q-6 -30 -6 -80q0 -79 22 -137t60.5 -90t83.5 -47t98 -15q93 0 183.5 47.5
t160.5 153.5l12 -4q-63 -154 -183.5 -250t-278.5 -96zM260 541q224 26 357 109t133 192q0 52 -29.5 86.5t-89.5 34.5q-108 0 -217 -114t-154 -308zM422 1212l24 119h502l-24 -119h-502z" />
    <glyph glyph-name="Ebreve" unicode="&#x114;" horiz-adv-x="1263" 
d="M-61 0l2 12q132 44 172 84q32 33 51 109q3 13 12 55l201 944q20 74 18.5 119t-32 71t-115.5 58l2 12h1010l-35 -340h-13q-20 130 -97 209.5t-206 79.5h-264l-129 -604h264q72 0 139 37.5t117 99.5h11l-74 -340h-10q-18 62 -67 108.5t-128 45.5l-264 -4l-131 -615
q-5 -24 19.5 -43.5t85 -32t149.5 -12.5h100q100 0 207 80.5t201 222.5h12l-125 -356h-1083zM889 1550q-112 0 -157 87t-27 239h18q6 -85 61 -135.5t127 -50.5q71 0 146 50t117 136h18q-99 -326 -303 -326z" />
    <glyph glyph-name="ebreve" unicode="&#x115;" horiz-adv-x="962" 
d="M406 -20q-162 0 -262.5 104t-100.5 276q0 120 51.5 237.5t136 207.5t201.5 145.5t240 55.5q51 0 97.5 -9.5t86 -28.5t63 -52t23.5 -76q0 -72 -64 -133.5t-168 -102.5t-220 -67.5t-236 -38.5q-6 -30 -6 -80q0 -79 22 -137t60.5 -90t83.5 -47t98 -15q93 0 183.5 47.5
t160.5 153.5l12 -4q-63 -154 -183.5 -250t-278.5 -96zM260 541q224 26 357 109t133 192q0 52 -29.5 86.5t-89.5 34.5q-108 0 -217 -114t-154 -308zM657 1124q-112 0 -157 86.5t-27 239.5h19q6 -86 61 -136t127 -50q71 0 145.5 49.5t116.5 136.5h19q-98 -326 -304 -326z" />
    <glyph glyph-name="Edotaccent" unicode="&#x116;" horiz-adv-x="1263" 
d="M-61 0l2 12q132 44 172 84q32 33 51 109q3 13 12 55l201 944q20 74 18.5 119t-32 71t-115.5 58l2 12h1010l-35 -340h-13q-20 130 -97 209.5t-206 79.5h-264l-129 -604h264q72 0 139 37.5t117 99.5h11l-74 -340h-10q-18 62 -67 108.5t-128 45.5l-264 -4l-131 -615
q-5 -24 19.5 -43.5t85 -32t149.5 -12.5h100q100 0 207 80.5t201 222.5h12l-125 -356h-1083zM881 1561q-49 0 -83 34t-34 82t34 82.5t83 34.5q47 0 81.5 -35t34.5 -82t-34.5 -81.5t-81.5 -34.5z" />
    <glyph glyph-name="edotaccent" unicode="&#x117;" horiz-adv-x="962" 
d="M406 -20q-162 0 -262.5 104t-100.5 276q0 120 51.5 237.5t136 207.5t201.5 145.5t240 55.5q51 0 97.5 -9.5t86 -28.5t63 -52t23.5 -76q0 -72 -64 -133.5t-168 -102.5t-220 -67.5t-236 -38.5q-6 -30 -6 -80q0 -79 22 -137t60.5 -90t83.5 -47t98 -15q93 0 183.5 47.5
t160.5 153.5l12 -4q-63 -154 -183.5 -250t-278.5 -96zM260 541q224 26 357 109t133 192q0 52 -29.5 86.5t-89.5 34.5q-108 0 -217 -114t-154 -308zM647 1165q-50 0 -87.5 36t-37.5 85q0 46 38 82.5t87 36.5q47 0 85 -36.5t38 -82.5q0 -49 -37.5 -85t-85.5 -36z" />
    <glyph glyph-name="Eogonek" unicode="&#x118;" horiz-adv-x="1263" 
d="M647 -371q-60 0 -97.5 26.5t-37.5 70.5q0 65 82 139t217 135h-872l2 12q132 44 172 84q32 33 51 109q3 13 12 55l201 944q20 74 18.5 119t-32 71t-115.5 58l2 12h1010l-35 -340h-13q-20 130 -97 209.5t-206 79.5h-264l-129 -604h264q72 0 139 37.5t117 99.5h11l-74 -340
h-10q-18 62 -67 108.5t-128 45.5l-264 -4l-131 -615q-5 -24 19.5 -43.5t85 -32t149.5 -12.5h100q100 0 207 80.5t201 222.5h12l-125 -356h-158q-73 -47 -129.5 -108.5t-56.5 -114.5q0 -30 20 -46t52 -16q81 0 165 62l11 -13q-52 -61 -130 -98t-149 -37z" />
    <glyph glyph-name="eogonek" unicode="&#x119;" horiz-adv-x="962" 
d="M344 -381q-61 0 -97 26.5t-36 71.5q0 65 73 136.5t191 132.5q-35 -6 -69 -6q-162 0 -262.5 104t-100.5 276q0 120 51.5 237.5t136 207.5t201.5 145.5t240 55.5q51 0 97.5 -9.5t86 -28.5t63 -52t23.5 -76q0 -72 -64 -133.5t-168 -102.5t-220 -67.5t-236 -38.5
q-6 -30 -6 -80q0 -79 22 -137t60.5 -90t83.5 -47t98 -15q93 0 183.5 47.5t160.5 153.5l12 -4q-43 -105 -114 -185.5t-164 -122.5q-79 -48 -146 -118.5t-67 -130.5q0 -30 21 -46t53 -16q82 0 165 64l11 -11q-53 -63 -130.5 -102t-152.5 -39zM260 541q224 26 357 109t133 192
q0 52 -29.5 86.5t-89.5 34.5q-108 0 -217 -114t-154 -308z" />
    <glyph glyph-name="Ecaron" unicode="&#x11a;" horiz-adv-x="1263" 
d="M-61 0l2 12q132 44 172 84q32 33 51 109q3 13 12 55l201 944q20 74 18.5 119t-32 71t-115.5 58l2 12h1010l-35 -340h-13q-20 130 -97 209.5t-206 79.5h-264l-129 -604h264q72 0 139 37.5t117 99.5h11l-74 -340h-10q-18 62 -67 108.5t-128 45.5l-264 -4l-131 -615
q-5 -24 19.5 -43.5t85 -32t149.5 -12.5h100q100 0 207 80.5t201 222.5h12l-125 -356h-1083zM877 1536q-83 195 -170 362l14 13l205 -174l272 174l12 -13q-137 -149 -323 -362h-10z" />
    <glyph glyph-name="ecaron" unicode="&#x11b;" horiz-adv-x="962" 
d="M406 -20q-162 0 -262.5 104t-100.5 276q0 120 51.5 237.5t136 207.5t201.5 145.5t240 55.5q51 0 97.5 -9.5t86 -28.5t63 -52t23.5 -76q0 -72 -64 -133.5t-168 -102.5t-220 -67.5t-236 -38.5q-6 -30 -6 -80q0 -79 22 -137t60.5 -90t83.5 -47t98 -15q93 0 183.5 47.5
t160.5 153.5l12 -4q-63 -154 -183.5 -250t-278.5 -96zM260 541q224 26 357 109t133 192q0 52 -29.5 86.5t-89.5 34.5q-108 0 -217 -114t-154 -308zM627 1108q-90 203 -168 356l16 13l199 -170l272 170l10 -13q-177 -189 -319 -356h-10z" />
    <glyph glyph-name="Gcircumflex" unicode="&#x11c;" horiz-adv-x="1536" 
d="M639 -25q-250 0 -395.5 152.5t-145.5 415.5q0 137 40.5 274t119.5 257.5t186 213.5t249 147t298 54q215 0 447 -84l-31 -332h-14q-69 170 -180 268.5t-246 98.5q-122 0 -239 -81t-202.5 -210t-137.5 -297t-52 -336q0 -239 100.5 -363t261.5 -124q44 0 91.5 9t100.5 29.5
t92.5 62.5t51.5 99l62 281q14 54 12 96.5t-21.5 72t-71.5 45t-138 15.5l6 23h596l-4 -12q-60 -31 -84.5 -53t-41.5 -62.5t-36 -132.5l-96 -457h-13q-45 49 -104 49q-31 0 -79 -18.5t-95 -41t-125 -41t-162 -18.5zM786 1530l-10 12q22 25 88.5 97t118.5 130.5t117 135.5h10
q81 -194 170 -363l-16 -12l-201 174z" />
    <glyph glyph-name="gcircumflex" unicode="&#x11d;" horiz-adv-x="1013" 
d="M324 -422q-79 0 -156 12.5t-143 36.5t-107 65t-41 93q0 82 94.5 146t245.5 100v2q-178 41 -178 139q0 68 75.5 125t202.5 88q-101 28 -159 96t-58 162q0 147 127.5 255t325.5 108h29q146 0 228.5 43t98.5 112l170 -63l-2 -6q-36 -56 -112 -87.5t-179 -31.5q-53 0 -94 8
l-2 -6q97 -27 164.5 -97t67.5 -167q0 -93 -62 -172.5t-168.5 -125.5t-232.5 -46q-47 0 -90 6q-58 -11 -97 -37.5t-39 -61.5q0 -19 11.5 -35t31.5 -20q365 -81 392 -88q204 -50 204 -207q0 -96 -71 -175.5t-197 -125t-280 -45.5zM348 -379q150 0 245 58.5t95 146.5
q0 102 -133 137q-140 33 -287 60q-18 -6 -40.5 -16.5t-55 -32t-58.5 -45.5t-44.5 -60t-18.5 -74q0 -81 83 -127.5t214 -46.5zM492 403q100 0 166.5 92t66.5 224q0 110 -50.5 179t-133.5 69q-97 0 -164.5 -95t-67.5 -227q0 -108 48.5 -175t134.5 -67zM373 1106l-11 12
q157 168 320 357h10q93 -210 168 -357l-16 -12l-199 172z" />
    <glyph glyph-name="Gbreve" unicode="&#x11e;" horiz-adv-x="1536" 
d="M639 -25q-250 0 -395.5 152.5t-145.5 415.5q0 137 40.5 274t119.5 257.5t186 213.5t249 147t298 54q215 0 447 -84l-31 -332h-14q-69 170 -180 268.5t-246 98.5q-122 0 -239 -81t-202.5 -210t-137.5 -297t-52 -336q0 -239 100.5 -363t261.5 -124q44 0 91.5 9t100.5 29.5
t92.5 62.5t51.5 99l62 281q14 54 12 96.5t-21.5 72t-71.5 45t-138 15.5l6 23h596l-4 -12q-60 -31 -84.5 -53t-41.5 -62.5t-36 -132.5l-96 -457h-13q-45 49 -104 49q-31 0 -79 -18.5t-95 -41t-125 -41t-162 -18.5zM1030 1550q-112 0 -157 87t-27 239h18q6 -85 61.5 -135.5
t127.5 -50.5q71 0 145 50t117 136h18q-99 -326 -303 -326z" />
    <glyph glyph-name="gbreve" unicode="&#x11f;" horiz-adv-x="1013" 
d="M324 -422q-79 0 -156 12.5t-143 36.5t-107 65t-41 93q0 82 94.5 146t245.5 100v2q-178 41 -178 139q0 68 75.5 125t202.5 88q-101 28 -159 96t-58 162q0 147 127.5 255t325.5 108h29q146 0 228.5 43t98.5 112l170 -63l-2 -6q-36 -56 -112 -87.5t-179 -31.5q-53 0 -94 8
l-2 -6q97 -27 164.5 -97t67.5 -167q0 -93 -62 -172.5t-168.5 -125.5t-232.5 -46q-47 0 -90 6q-58 -11 -97 -37.5t-39 -61.5q0 -19 11.5 -35t31.5 -20q365 -81 392 -88q204 -50 204 -207q0 -96 -71 -175.5t-197 -125t-280 -45.5zM348 -379q150 0 245 58.5t95 146.5
q0 102 -133 137q-140 33 -287 60q-18 -6 -40.5 -16.5t-55 -32t-58.5 -45.5t-44.5 -60t-18.5 -74q0 -81 83 -127.5t214 -46.5zM492 403q100 0 166.5 92t66.5 224q0 110 -50.5 179t-133.5 69q-97 0 -164.5 -95t-67.5 -227q0 -108 48.5 -175t134.5 -67zM623 1122
q-112 0 -157.5 86.5t-27.5 239.5h19q6 -86 61 -136t127 -50q71 0 145.5 49.5t116.5 136.5h19q-98 -326 -303 -326z" />
    <glyph glyph-name="Gdotaccent" unicode="&#x120;" horiz-adv-x="1536" 
d="M639 -25q-250 0 -395.5 152.5t-145.5 415.5q0 137 40.5 274t119.5 257.5t186 213.5t249 147t298 54q215 0 447 -84l-31 -332h-14q-69 170 -180 268.5t-246 98.5q-122 0 -239 -81t-202.5 -210t-137.5 -297t-52 -336q0 -239 100.5 -363t261.5 -124q44 0 91.5 9t100.5 29.5
t92.5 62.5t51.5 99l62 281q14 54 12 96.5t-21.5 72t-71.5 45t-138 15.5l6 23h596l-4 -12q-60 -31 -84.5 -53t-41.5 -62.5t-36 -132.5l-96 -457h-13q-45 49 -104 49q-31 0 -79 -18.5t-95 -41t-125 -41t-162 -18.5zM1022 1561q-49 0 -83 34t-34 82t34 82.5t83 34.5
q47 0 82 -35t35 -82t-35 -81.5t-82 -34.5z" />
    <glyph glyph-name="gdotaccent" unicode="&#x121;" horiz-adv-x="1013" 
d="M324 -422q-79 0 -156 12.5t-143 36.5t-107 65t-41 93q0 82 94.5 146t245.5 100v2q-178 41 -178 139q0 68 75.5 125t202.5 88q-101 28 -159 96t-58 162q0 147 127.5 255t325.5 108h29q146 0 228.5 43t98.5 112l170 -63l-2 -6q-36 -56 -112 -87.5t-179 -31.5q-53 0 -94 8
l-2 -6q97 -27 164.5 -97t67.5 -167q0 -93 -62 -172.5t-168.5 -125.5t-232.5 -46q-47 0 -90 6q-58 -11 -97 -37.5t-39 -61.5q0 -19 11.5 -35t31.5 -20q365 -81 392 -88q204 -50 204 -207q0 -96 -71 -175.5t-197 -125t-280 -45.5zM348 -379q150 0 245 58.5t95 146.5
q0 102 -133 137q-140 33 -287 60q-18 -6 -40.5 -16.5t-55 -32t-58.5 -45.5t-44.5 -60t-18.5 -74q0 -81 83 -127.5t214 -46.5zM492 403q100 0 166.5 92t66.5 224q0 110 -50.5 179t-133.5 69q-97 0 -164.5 -95t-67.5 -227q0 -108 48.5 -175t134.5 -67zM621 1169
q-49 0 -83 34.5t-34 82.5t34 82.5t83 34.5q47 0 81.5 -35t34.5 -82t-34.5 -82t-81.5 -35z" />
    <glyph glyph-name="uni0122" unicode="&#x122;" horiz-adv-x="1536" 
d="M639 -25q-250 0 -395.5 152.5t-145.5 415.5q0 137 40.5 274t119.5 257.5t186 213.5t249 147t298 54q215 0 447 -84l-31 -332h-14q-69 170 -180 268.5t-246 98.5q-122 0 -239 -81t-202.5 -210t-137.5 -297t-52 -336q0 -239 100.5 -363t261.5 -124q44 0 91.5 9t100.5 29.5
t92.5 62.5t51.5 99l62 281q14 54 12 96.5t-21.5 72t-71.5 45t-138 15.5l6 23h596l-4 -12q-60 -31 -84.5 -53t-41.5 -62.5t-36 -132.5l-96 -457h-13q-45 49 -104 49q-31 0 -79 -18.5t-95 -41t-125 -41t-162 -18.5zM504 -469l-4 14q119 89 168 191q-6 -2 -19 -2
q-45 0 -75.5 27t-30.5 63q0 43 39 74.5t90 31.5q47 0 77.5 -28.5t30.5 -75.5q0 -74 -75.5 -160.5t-200.5 -134.5z" />
    <glyph glyph-name="uni0123" unicode="&#x123;" horiz-adv-x="1013" 
d="M324 -422q-79 0 -156 12.5t-143 36.5t-107 65t-41 93q0 82 94.5 146t245.5 100v2q-178 41 -178 139q0 68 75.5 125t202.5 88q-101 28 -159 96t-58 162q0 147 127.5 255t325.5 108h29q146 0 228.5 43t98.5 112l170 -63l-2 -6q-36 -56 -112 -87.5t-179 -31.5q-53 0 -94 8
l-2 -6q97 -27 164.5 -97t67.5 -167q0 -93 -62 -172.5t-168.5 -125.5t-232.5 -46q-47 0 -90 6q-58 -11 -97 -37.5t-39 -61.5q0 -19 11.5 -35t31.5 -20q365 -81 392 -88q204 -50 204 -207q0 -96 -71 -175.5t-197 -125t-280 -45.5zM348 -379q150 0 245 58.5t95 146.5
q0 102 -133 137q-140 33 -287 60q-18 -6 -40.5 -16.5t-55 -32t-58.5 -45.5t-44.5 -60t-18.5 -74q0 -81 83 -127.5t214 -46.5zM492 403q100 0 166.5 92t66.5 224q0 110 -50.5 179t-133.5 69q-97 0 -164.5 -95t-67.5 -227q0 -108 48.5 -175t134.5 -67zM602 1141
q-47 0 -77.5 28.5t-30.5 75.5q0 74 75.5 160.5t200.5 134.5l4 -14q-117 -85 -168 -191q6 2 19 2q45 0 75.5 -27t30.5 -63q0 -43 -39 -74.5t-90 -31.5z" />
    <glyph glyph-name="Hcircumflex" unicode="&#x124;" horiz-adv-x="1568" 
d="M-61 0l2 12q132 44 172 84q32 33 51 109q3 13 12 55l201 944q20 74 18.5 119t-32 71t-115.5 58l2 12h586l-2 -12q-68 -23 -105 -40.5t-64 -46.5t-39.5 -63.5t-25.5 -97.5l-78 -362h676l78 362q10 46 14.5 69t4.5 50.5t-7.5 41t-25.5 30.5t-45 29t-70 28l2 12h588l-2 -12
q-50 -17 -83.5 -30.5t-58.5 -32t-38 -31.5t-24.5 -41.5t-16.5 -48t-15 -64.5l-201 -944q-10 -47 -14 -76t-1 -54.5t10 -39t27.5 -28.5t42.5 -24.5t64 -25.5l-2 -12h-587l2 12q74 24 112.5 41.5t64 48.5t35 60.5t23.5 97.5l107 504h-678l-105 -504q-8 -37 -11 -54.5t-6 -42.5
t-1 -36t8 -27.5t16.5 -24.5t28 -20.5t39.5 -21.5t55 -21l-4 -12h-585zM772 1530l-10 12q243 269 323 363h11q81 -194 170 -363l-17 -12l-200 174z" />
    <glyph glyph-name="hcircumflex" unicode="&#x125;" horiz-adv-x="1148" 
d="M838 -20q-57 0 -87 38t-30 84q0 58 76 381q53 221 53 318q0 47 -14.5 68.5t-47.5 21.5q-31 0 -61 -21t-84.5 -90t-141.5 -213.5t-216 -376.5l-43 -190h-191l266 1239q12 54 12.5 88t-13 59t-37.5 41t-68 33l4 13q191 22 354 65l-207 -952l-59 -267h6q54 96 88.5 155.5
t77 131t70 113.5t61.5 90.5t58.5 75t53 53.5t53.5 39.5t52 20.5t56 8q80 0 122.5 -51.5t42.5 -137.5q0 -90 -61 -346q-63 -271 -63 -317q0 -35 24 -35q18 0 48 29.5t100 121.5l12 -6q-44 -79 -71.5 -123t-61 -85.5t-65 -58.5t-68.5 -17zM563 1575l-10 10q23 26 80.5 88.5
t105.5 116.5t107 123h8q76 -185 154 -328l-15 -10l-182 158z" />
    <glyph glyph-name="Hbar" unicode="&#x126;" horiz-adv-x="1568" 
d="M-61 0l2 12q139 46 173.5 84.5t59.5 155.5q1 5 2 8l168 793h-156l9 43h157l23 108q10 47 14 71t3.5 51t-8 40.5t-26 30t-44 28t-68.5 27.5l2 12h586l-2 -12q-128 -43 -169 -85.5t-65 -162.5l-22 -108h675l23 108q10 46 14.5 69t4.5 50.5t-7.5 41t-25.5 30.5t-45 29
t-70 28l2 12h588l-2 -12q-50 -17 -83.5 -30.5t-58.5 -32t-38 -31.5t-24.5 -41.5t-16.5 -48t-15 -64.5l-22 -108h151l-10 -43h-152l-168 -793q-10 -46 -14.5 -75.5t-1.5 -55t10 -39t28 -28.5t43 -24.5t64 -25.5l-2 -12h-587l2 12q74 24 112.5 41.5t64 48.5t35 60.5t23.5 97.5
l107 504h-678l-105 -504q-8 -37 -11 -54.5t-6 -42.5t-1 -36t8 -27.5t16.5 -24.5t28 -20.5t39.5 -21.5t55 -21l-4 -12h-585zM522 842h676l45 211h-676z" />
    <glyph glyph-name="hbar" unicode="&#x127;" horiz-adv-x="1148" 
d="M838 -20q-57 0 -87 38t-30 84q0 58 76 381q53 221 53 318q0 47 -14.5 68.5t-47.5 21.5q-31 0 -61 -21t-84.5 -90t-141.5 -213.5t-216 -376.5l-43 -190h-191l262 1223h-139l8 49h142q14 80 -8.5 118t-104.5 70l4 13q191 22 354 65l-57 -266h236l-9 -49h-237l-140 -637
l-59 -267h6q54 96 88.5 155.5t77 131t70 113.5t61.5 90.5t58.5 75t53 53.5t53.5 39.5t52 20.5t56 8q80 0 122.5 -51.5t42.5 -137.5q0 -90 -61 -346q-63 -271 -63 -317q0 -35 24 -35q18 0 48 29.5t100 121.5l12 -6q-44 -79 -71.5 -123t-61 -85.5t-65 -58.5t-68.5 -17z" />
    <glyph glyph-name="Itilde" unicode="&#x128;" horiz-adv-x="669" 
d="M-61 0l2 12q132 44 172 84q32 33 51 109q3 13 12 55l201 944q20 74 18.5 119t-32 71t-115.5 58l2 12h586l-2 -12q-138 -46 -173 -86.5t-59 -152.5q-1 -2 -1 -3t-0.5 -3t-0.5 -3l-201 -944q-10 -47 -14 -76t-1 -54.5t10 -39t27.5 -28.5t42.5 -24.5t64 -25.5l-4 -12h-585z
M692 1587q-49 0 -141 31q-104 35 -123 35q-55 0 -83 -11.5t-73 -48.5l-14 4q35 91 95.5 137t138.5 46q52 0 139 -33q85 -33 145 -33q38 0 67 14.5t64 45.5l17 -5q-67 -182 -232 -182z" />
    <glyph glyph-name="itilde" unicode="&#x129;" horiz-adv-x="512" 
d="M203 -20q-57 0 -89 35.5t-32 95.5q0 19 10 69l111 522q23 109 -1.5 159t-101.5 71l4 14q199 17 357 64l-172 -811q-16 -80 16 -80q22 0 55 31t95 120l12 -6q-86 -161 -139.5 -222.5t-124.5 -61.5zM508 1202q-43 0 -131 31q-93 35 -125 35q-63 0 -129 -60l-14 4
q39 95 89.5 137t120.5 42q56 0 138 -31q90 -35 133 -35q31 0 56 12t63 47l18 -4q-69 -178 -219 -178z" />
    <glyph glyph-name="Imacron" unicode="&#x12a;" horiz-adv-x="669" 
d="M-61 0l2 12q132 44 172 84q32 33 51 109q3 13 12 55l201 944q20 74 18.5 119t-32 71t-115.5 58l2 12h586l-2 -12q-138 -46 -173 -86.5t-59 -152.5q-1 -2 -1 -3t-0.5 -3t-0.5 -3l-201 -944q-10 -47 -14 -76t-1 -54.5t10 -39t27.5 -28.5t42.5 -24.5t64 -25.5l-4 -12h-585z
M279 1591l26 123h586l-27 -123h-585z" />
    <glyph glyph-name="imacron" unicode="&#x12b;" horiz-adv-x="512" 
d="M203 -20q-57 0 -89 35.5t-32 95.5q0 19 10 69l111 522q23 109 -1.5 159t-101.5 71l4 14q199 17 357 64l-172 -811q-16 -80 16 -80q22 0 55 31t95 120l12 -6q-86 -161 -139.5 -222.5t-124.5 -61.5zM154 1217l24 118h502l-25 -118h-501z" />
    <glyph glyph-name="Ibreve" unicode="&#x12c;" horiz-adv-x="669" 
d="M-61 0l2 12q132 44 172 84q32 33 51 109q3 13 12 55l201 944q20 74 18.5 119t-32 71t-115.5 58l2 12h586l-2 -12q-138 -46 -173 -86.5t-59 -152.5q-1 -2 -1 -3t-0.5 -3t-0.5 -3l-201 -944q-10 -47 -14 -76t-1 -54.5t10 -39t27.5 -28.5t42.5 -24.5t64 -25.5l-4 -12h-585z
M571 1550q-112 0 -157 87t-27 239h19q6 -85 61 -135.5t127 -50.5q71 0 145 50t117 136h18q-99 -326 -303 -326z" />
    <glyph glyph-name="ibreve" unicode="&#x12d;" horiz-adv-x="512" 
d="M203 -20q-57 0 -89 35.5t-32 95.5q0 19 10 69l111 522q23 109 -1.5 159t-101.5 71l4 14q199 17 357 64l-172 -811q-16 -80 16 -80q22 0 55 31t95 120l12 -6q-86 -161 -139.5 -222.5t-124.5 -61.5zM389 1128q-112 0 -157 86.5t-27 239.5h18q6 -86 61.5 -136t127.5 -50
q71 0 145.5 49.5t116.5 136.5h18q-98 -326 -303 -326z" />
    <glyph glyph-name="Iogonek" unicode="&#x12e;" horiz-adv-x="669" 
d="M90 -371q-60 0 -97.5 26.5t-37.5 70.5q0 65 82 139t217 135h-315l2 12q132 44 172 84q32 33 51 109q3 13 12 55l201 944q20 74 18.5 119t-32 71t-115.5 58l2 12h586l-2 -12q-138 -46 -173 -86.5t-59 -152.5q-1 -2 -1 -3t-0.5 -3t-0.5 -3l-201 -944q-10 -47 -14 -76
t-1 -54.5t10 -39t27.5 -28.5t42.5 -24.5t64 -25.5l-4 -12h-217q-73 -47 -129.5 -108.5t-56.5 -114.5q0 -30 20 -46t52 -16q81 0 165 62l11 -13q-52 -61 -130 -98t-149 -37z" />
    <glyph glyph-name="iogonek" unicode="&#x12f;" horiz-adv-x="512" 
d="M12 -385q-61 0 -97 26.5t-36 71.5q0 66 77.5 139.5t199.5 135.5q-74 27 -74 123q0 19 10 69l111 522q23 109 -1.5 159t-101.5 71l4 14q199 17 357 64l-172 -811q-16 -80 16 -80q22 0 55 31t95 120l12 -6q-86 -161 -139 -222.5t-121 -61.5q-67 -48 -114.5 -107t-47.5 -109
q0 -30 21 -45.5t53 -15.5q83 0 166 64l10 -11q-53 -63 -130.5 -102t-152.5 -39zM379 1169q-50 0 -87.5 36t-37.5 85q0 46 38 82.5t87 36.5q47 0 85 -36.5t38 -82.5q0 -49 -37.5 -85t-85.5 -36z" />
    <glyph glyph-name="Idotaccent" unicode="&#x130;" horiz-adv-x="669" 
d="M-61 0l2 12q132 44 172 84q32 33 51 109q3 13 12 55l201 944q20 74 18.5 119t-32 71t-115.5 58l2 12h586l-2 -12q-138 -46 -173 -86.5t-59 -152.5q-1 -2 -1 -3t-0.5 -3t-0.5 -3l-201 -944q-10 -47 -14 -76t-1 -54.5t10 -39t27.5 -28.5t42.5 -24.5t64 -25.5l-4 -12h-585z
M561 1561q-49 0 -83 34t-34 82t34 82.5t83 34.5q47 0 82 -35t35 -82t-35 -81.5t-82 -34.5z" />
    <glyph glyph-name="dotlessi" unicode="&#x131;" horiz-adv-x="512" 
d="M203 -20q-57 0 -89 35.5t-32 95.5q0 19 10 69l111 522q23 109 -1.5 159t-101.5 71l4 14q199 17 357 64l-172 -811q-16 -80 16 -80q22 0 55 31t95 120l12 -6q-86 -161 -139.5 -222.5t-124.5 -61.5z" />
    <glyph glyph-name="Jcircumflex" unicode="&#x134;" horiz-adv-x="653" 
d="M-113 -270v22q96 50 155 121.5t83 181.5l246 1149q20 73 18.5 118t-32 71.5t-115.5 58.5l2 12h585l-2 -12q-38 -12 -65.5 -22t-50 -23t-36.5 -21t-27 -26t-19 -27.5t-14 -36t-11.5 -40.5t-11.5 -52l-215 -1014q-18 -86 -57 -157t-85.5 -117.5t-109.5 -85t-117 -60
t-121 -40.5zM313 1530l-10 12q22 25 88.5 97t118.5 130.5t117 135.5h10q81 -194 170 -363l-16 -12l-201 174z" />
    <glyph glyph-name="jcircumflex" unicode="&#x135;" horiz-adv-x="483" 
d="M-238 -426l-6 14q123 58 183 144t92 235l149 707q11 51 16 86t1 61.5t-9 41.5t-23.5 29t-32.5 21.5t-46 20.5l2 12q193 17 356 64l-198 -940q-42 -198 -162 -320t-322 -176zM106 1112l-10 12q157 168 320 357h10q93 -210 168 -357l-16 -12l-199 172z" />
    <glyph glyph-name="uni0136" unicode="&#x136;" horiz-adv-x="1443" 
d="M942 0l-416 727l545 442q135 110 135 189q0 58 -86 94l2 12h471l-2 -12q-116 -57 -216.5 -121.5t-225.5 -163.5l-420 -331l377 -660q37 -65 94.5 -107t116.5 -57l-4 -12h-371zM485 -469l-4 14q119 89 168 191q-6 -2 -18 -2q-45 0 -76 27t-31 63q0 43 39 74.5t90 31.5
q47 0 78 -29t31 -75q0 -74 -76 -160.5t-201 -134.5zM-61 0l2 12q51 16 84 29t58 31t38 30.5t24.5 41.5t16 49t14.5 67l201 944q20 73 19 118t-31.5 71.5t-116.5 58.5l2 12h586l-2 -12q-50 -16 -82.5 -28.5t-57.5 -31t-37.5 -30.5t-24.5 -42t-16.5 -49t-15.5 -67l-201 -944
q-8 -36 -11 -53.5t-6 -42t-1 -35.5t8 -27.5t16.5 -25t28 -20.5t40 -22t54.5 -22l-4 -12h-585z" />
    <glyph glyph-name="uni0137" unicode="&#x137;" horiz-adv-x="1083" 
d="M764 -20q-91 0 -160 120l-215 320l-55 -2l-88 -418h-193l256 1202q21 83 16.5 134.5t-29 78t-83.5 47.5l4 13q192 16 356 63l-202 -948q79 116 163.5 201.5t160 131t138 66.5t115.5 21q60 0 93.5 -24t33.5 -68q0 -73 -81 -158.5t-191 -153.5t-232 -121l220 -323
q26 -39 53 -39q21 0 48.5 21.5t47 46t37.5 49.5l18 24l13 -6q-65 -141 -119 -209.5t-125 -68.5zM279 -469l-5 14q119 89 168 191q-6 -2 -18 -2q-45 0 -76 27t-31 63q0 43 39 74.5t90 31.5q47 0 78 -29t31 -75q0 -74 -75.5 -160.5t-200.5 -134.5zM338 442l51 19
q210 73 336.5 170.5t126.5 185.5q0 33 -18 50.5t-43 17.5q-68 0 -189.5 -96.5t-249.5 -276.5z" />
    <glyph glyph-name="Lacute" unicode="&#x139;" horiz-adv-x="1275" 
d="M-61 0l2 12q132 44 172 84q32 33 51 109q3 13 12 55l201 944q20 74 18.5 119t-32 71t-115.5 58l2 12h586l-2 -12q-138 -46 -173 -86.5t-59 -152.5q-1 -2 -1 -3t-0.5 -3t-0.5 -3l-227 -1063q-5 -24 21.5 -43.5t86.5 -32t144 -12.5h114q100 0 207 80.5t201 222.5h12
l-125 -356h-1095zM475 1571q78 121 195 327h223q-164 -139 -397 -327h-21z" />
    <glyph glyph-name="lacute" unicode="&#x13a;" horiz-adv-x="512" 
d="M201 -20q-54 0 -86.5 36.5t-32.5 96.5q0 32 6 47l229 1077q9 46 10 79.5t-4.5 56.5t-22 40t-36 28t-51.5 23l2 13q158 13 356 61l-286 -1358q-6 -28 1 -44.5t21 -16.5q43 0 148 151l12 -6q-83 -152 -139.5 -218t-126.5 -66zM504 1589l-21 6q96 91 265 273l217 -51
q-299 -151 -461 -228z" />
    <glyph glyph-name="uni013B" unicode="&#x13b;" horiz-adv-x="1275" 
d="M-61 0l2 12q132 44 172 84q32 33 51 109q3 13 12 55l201 944q20 74 18.5 119t-32 71t-115.5 58l2 12h586l-2 -12q-138 -46 -173 -86.5t-59 -152.5q-1 -2 -1 -3t-0.5 -3t-0.5 -3l-227 -1063q-5 -24 21.5 -43.5t86.5 -32t144 -12.5h114q100 0 207 80.5t201 222.5h12
l-125 -356h-1095zM387 -469l-4 14q119 89 168 191q-6 -2 -19 -2q-45 0 -75.5 27t-30.5 63q0 43 39 74.5t90 31.5q47 0 78 -29t31 -75q0 -74 -76 -160.5t-201 -134.5z" />
    <glyph glyph-name="uni013C" unicode="&#x13c;" horiz-adv-x="512" 
d="M201 -20q-54 0 -86.5 36.5t-32.5 96.5q0 32 6 47l229 1077q9 46 10 79.5t-4.5 56.5t-22 40t-36 28t-51.5 23l2 13q158 13 356 61l-286 -1358q-6 -28 1 -44.5t21 -16.5q43 0 148 151l12 -6q-83 -152 -139.5 -218t-126.5 -66zM-12 -469l-4 14q119 89 168 191q-6 -2 -19 -2
q-45 0 -75.5 27t-30.5 63q0 43 39 74.5t90 31.5q47 0 77.5 -28.5t30.5 -75.5q0 -74 -75.5 -160.5t-200.5 -134.5z" />
    <glyph glyph-name="Lcaron" unicode="&#x13d;" horiz-adv-x="1275" 
d="M-61 0l2 12q132 44 172 84q32 33 51 109q3 13 12 55l201 944q20 74 18.5 119t-32 71t-115.5 58l2 12h586l-2 -12q-138 -46 -173 -86.5t-59 -152.5q-1 -2 -1 -3t-0.5 -3t-0.5 -3l-227 -1063q-5 -24 21.5 -43.5t86.5 -32t144 -12.5h114q100 0 207 80.5t201 222.5h12
l-125 -356h-1095zM823 1135q78 121 195 327h223q-164 -139 -397 -327h-21z" />
    <glyph glyph-name="lcaron" unicode="&#x13e;" horiz-adv-x="591" 
d="M201 -20q-54 0 -86.5 36.5t-32.5 96.5q0 32 6 47l229 1077q9 46 10 79.5t-4.5 56.5t-22 40t-36 28t-51.5 23l2 13q158 13 356 61l-286 -1358q-6 -28 1 -44.5t21 -16.5q43 0 148 151l12 -6q-83 -152 -139.5 -218t-126.5 -66zM627 1063l121 426h196l-303 -426h-14z" />
    <glyph glyph-name="Ldot" unicode="&#x13f;" horiz-adv-x="1275" 
d="M-61 0l2 12q132 44 172 84q32 33 51 109q3 13 12 55l201 944q20 74 18.5 119t-32 71t-115.5 58l2 12h586l-2 -12q-138 -46 -173 -86.5t-59 -152.5q-1 -2 -1 -3t-0.5 -3t-0.5 -3l-227 -1063q-5 -24 21.5 -43.5t86.5 -32t144 -12.5h114q100 0 207 80.5t201 222.5h12
l-125 -356h-1095zM893 598q-57 0 -99 41.5t-42 97.5q0 57 42 99.5t99 42.5q56 0 97.5 -42.5t41.5 -99.5q0 -55 -42 -97t-97 -42z" />
    <glyph glyph-name="ldot" unicode="&#x140;" horiz-adv-x="946" 
d="M201 -20q-54 0 -86.5 36.5t-32.5 96.5q0 32 6 47l229 1077q9 46 10 79.5t-4.5 56.5t-22 40t-36 28t-51.5 23l2 13q158 13 356 61l-286 -1358q-6 -28 1 -44.5t21 -16.5q43 0 148 151l12 -6q-83 -152 -139.5 -218t-126.5 -66zM772 528q-57 0 -99 42t-42 98q0 57 42 99
t99 42q56 0 97.5 -42t41.5 -99q0 -56 -42 -98t-97 -42z" />
    <glyph glyph-name="Lslash" unicode="&#x141;" horiz-adv-x="1275" 
d="M-61 0l2 12q139 46 173.5 84.5t59.5 155.5q1 5 2 8l60 281l-175 -92l11 53l176 92l129 610q10 47 14 71t3.5 51t-8 40.5t-26 30t-44 28t-68.5 27.5l2 12h586l-2 -12q-37 -12 -64.5 -22t-50 -23t-37 -22t-27 -26t-19 -28t-14 -35.5t-11.5 -40.5t-11 -51l-102 -479l368 195
l-12 -54l-369 -194l-112 -531q-5 -24 21.5 -43.5t86.5 -32t144 -12.5h114q100 0 207 80.5t201 222.5h12l-125 -356h-1095z" />
    <glyph glyph-name="lslash" unicode="&#x142;" horiz-adv-x="516" 
d="M201 -20q-54 0 -86.5 36.5t-32.5 96.5q0 32 6 47l107 497l-125 -79l10 53l125 80l112 526q9 46 10 79.5t-4.5 56.5t-22 40t-36 28t-51.5 23l2 13q158 13 356 61l-145 -684l186 119l-12 -58l-184 -118l-131 -617q-6 -27 0.5 -44t21.5 -17q43 0 148 151l12 -6
q-83 -152 -139.5 -218t-126.5 -66z" />
    <glyph glyph-name="Nacute" unicode="&#x143;" horiz-adv-x="1509" 
d="M-61 0l2 12q41 12 71.5 22.5t56.5 26.5t43 29t33 38t25 44.5t20 58t18 69.5t19 87l191 905q-27 90 -164 160l2 12h346q292 -649 551 -1253l184 866q15 76 22.5 118.5t9 85.5t-6 64t-27 43.5t-48 35.5t-75.5 28l2 12h472l-5 -12q-42 -12 -73 -23t-57 -28t-43 -30
t-33 -39.5t-25 -44.5t-20 -58.5t-17 -67.5t-18 -84l-230 -1077h-161q-227 554 -539 1235l-180 -848q-11 -51 -16 -78t-11 -63.5t-6 -54.5t1.5 -43t9.5 -38t19 -29t30 -26.5t42.5 -21.5t55.5 -21l-2 -12h-469zM901 1571q78 121 195 327h223q-164 -139 -397 -327h-21z" />
    <glyph glyph-name="nacute" unicode="&#x144;" horiz-adv-x="1153" 
d="M844 -20q-58 0 -88.5 37.5t-30.5 93.5q0 20 3.5 47t16.5 84t22.5 97.5t35.5 147.5q51 211 51 310q0 47 -12.5 70.5t-48.5 23.5q-44 0 -94 -49.5t-147 -202t-265 -453.5l-41 -186h-191l156 727q20 95 -9 137.5t-102 67.5l2 14q179 18 357 64l-84 -398q-4 -16 -14.5 -68.5
t-24 -110t-29.5 -116.5h6q49 87 75.5 134t67 116.5t63.5 106t56.5 88t55 77t50 59t51 49t49 32t52 22t52.5 5.5q80 0 122 -52t42 -143q0 -78 -62 -342q-63 -273 -63 -313q0 -37 24 -37q21 0 50 29.5t98 121.5l12 -6q-92 -165 -144.5 -224.5t-119.5 -59.5zM659 1137
q78 121 195 327h223q-164 -139 -397 -327h-21z" />
    <glyph glyph-name="uni0145" unicode="&#x145;" horiz-adv-x="1509" 
d="M-61 0l2 12q41 12 71.5 22.5t56.5 26.5t43 29t33 38t25 44.5t20 58t18 69.5t19 87l191 905q-27 90 -164 160l2 12h346q292 -649 551 -1253l184 866q15 76 22.5 118.5t9 85.5t-6 64t-27 43.5t-48 35.5t-75.5 28l2 12h472l-5 -12q-42 -12 -73 -23t-57 -28t-43 -30
t-33 -39.5t-25 -44.5t-20 -58.5t-17 -67.5t-18 -84l-230 -1077h-161q-227 554 -539 1235l-180 -848q-11 -51 -16 -78t-11 -63.5t-6 -54.5t1.5 -43t9.5 -38t19 -29t30 -26.5t42.5 -21.5t55.5 -21l-2 -12h-469zM469 -469l-4 14q119 89 168 191q-6 -2 -19 -2q-45 0 -75.5 27
t-30.5 63q0 43 39 74.5t90 31.5q47 0 77.5 -28.5t30.5 -75.5q0 -74 -75.5 -160.5t-200.5 -134.5z" />
    <glyph glyph-name="uni0146" unicode="&#x146;" horiz-adv-x="1153" 
d="M844 -20q-58 0 -88.5 37.5t-30.5 93.5q0 20 3.5 47t16.5 84t22.5 97.5t35.5 147.5q51 211 51 310q0 47 -12.5 70.5t-48.5 23.5q-44 0 -94 -49.5t-147 -202t-265 -453.5l-41 -186h-191l156 727q20 95 -9 137.5t-102 67.5l2 14q179 18 357 64l-84 -398q-4 -16 -14.5 -68.5
t-24 -110t-29.5 -116.5h6q49 87 75.5 134t67 116.5t63.5 106t56.5 88t55 77t50 59t51 49t49 32t52 22t52.5 5.5q80 0 122 -52t42 -143q0 -78 -62 -342q-63 -273 -63 -313q0 -37 24 -37q21 0 50 29.5t98 121.5l12 -6q-92 -165 -144.5 -224.5t-119.5 -59.5zM295 -469l-4 14
q119 89 168 191q-6 -2 -19 -2q-45 0 -75.5 27t-30.5 63q0 43 39 74.5t90 31.5q47 0 77.5 -28.5t30.5 -75.5q0 -74 -75.5 -160.5t-200.5 -134.5z" />
    <glyph glyph-name="Ncaron" unicode="&#x147;" horiz-adv-x="1509" 
d="M-61 0l2 12q41 12 71.5 22.5t56.5 26.5t43 29t33 38t25 44.5t20 58t18 69.5t19 87l191 905q-27 90 -164 160l2 12h346q292 -649 551 -1253l184 866q15 76 22.5 118.5t9 85.5t-6 64t-27 43.5t-48 35.5t-75.5 28l2 12h472l-5 -12q-42 -12 -73 -23t-57 -28t-43 -30
t-33 -39.5t-25 -44.5t-20 -58.5t-17 -67.5t-18 -84l-230 -1077h-161q-227 554 -539 1235l-180 -848q-11 -51 -16 -78t-11 -63.5t-6 -54.5t1.5 -43t9.5 -38t19 -29t30 -26.5t42.5 -21.5t55.5 -21l-2 -12h-469zM995 1536q-83 195 -170 362l15 13l204 -174l273 174l12 -13
q-137 -149 -323 -362h-11z" />
    <glyph glyph-name="ncaron" unicode="&#x148;" horiz-adv-x="1153" 
d="M844 -20q-58 0 -88.5 37.5t-30.5 93.5q0 20 3.5 47t16.5 84t22.5 97.5t35.5 147.5q51 211 51 310q0 47 -12.5 70.5t-48.5 23.5q-44 0 -94 -49.5t-147 -202t-265 -453.5l-41 -186h-191l156 727q20 95 -9 137.5t-102 67.5l2 14q179 18 357 64l-84 -398q-4 -16 -14.5 -68.5
t-24 -110t-29.5 -116.5h6q49 87 75.5 134t67 116.5t63.5 106t56.5 88t55 77t50 59t51 49t49 32t52 22t52.5 5.5q80 0 122 -52t42 -143q0 -78 -62 -342q-63 -273 -63 -313q0 -37 24 -37q21 0 50 29.5t98 121.5l12 -6q-92 -165 -144.5 -224.5t-119.5 -59.5zM694 1112
q-90 203 -168 356l17 13l198 -170l273 170l10 -13q-177 -189 -319 -356h-11z" />
    <glyph glyph-name="Eng" unicode="&#x14a;" horiz-adv-x="1509" 
d="M868 -422q-66 0 -116.5 23t-79.5 63l145 217h12q3 -93 34.5 -146.5t88.5 -53.5q46 0 78.5 33.5t44.5 90.5l41 195h-112q-227 554 -539 1235l-180 -848q-11 -51 -16 -78t-11 -63.5t-6 -54.5t1.5 -43t9.5 -38t19 -29t30 -26.5t42.5 -21.5t55.5 -21l-2 -12h-469l2 12
q41 12 71.5 22.5t56.5 26.5t43 29t33 38t25 44.5t20 58t18 69.5t19 87l191 905q-27 90 -164 160l2 12h346q292 -649 551 -1253l184 866q15 76 22.5 118.5t9 85.5t-6 64t-27 43.5t-48 35.5t-75.5 28l2 12h472l-5 -12q-54 -16 -86.5 -29t-62.5 -34.5t-46.5 -43t-34 -62.5
t-29 -86t-27.5 -120l-209 -985l-58 -268q-26 -121 -94.5 -183.5t-165.5 -62.5z" />
    <glyph glyph-name="eng" unicode="&#x14b;" horiz-adv-x="1142" 
d="M416 -422l-2 14q44 19 78.5 42.5t60 47t47 59t35 64t28.5 79t24 86.5t24 102q141 611 141 712q0 41 -26 74t-74 33q-52 0 -105 -57.5t-134.5 -203.5t-225.5 -444l-41 -186h-191l156 727q11 41 7.5 73t-11 53.5t-25.5 37t-36 24.5t-44 17v14q179 18 357 64l-84 -398
q-32 -151 -68 -280h6q79 162 132 263.5t107 188t98.5 131t92.5 68t103 23.5q53 0 94.5 -19t64 -48.5t33.5 -59.5t11 -58q0 -20 -5.5 -60t-16.5 -98.5t-22.5 -114.5t-28.5 -134t-28 -129t-28 -127t-23 -103q-13 -56 -30.5 -103.5t-54 -106t-86 -105t-129.5 -90.5t-181 -72z
" />
    <glyph glyph-name="Omacron" unicode="&#x14c;" horiz-adv-x="1542" 
d="M655 -25q-258 0 -407.5 150t-149.5 414q0 139 42.5 277.5t123 259t187.5 213.5t247 146.5t291 53.5q257 0 408 -150t151 -413q0 -138 -42.5 -277t-123.5 -259t-189 -213.5t-247.5 -147.5t-290.5 -54zM705 29q98 0 190 49t164 135.5t126.5 199t83.5 244t29 265.5
q0 238 -94 376t-262 138q-122 0 -234.5 -76t-191 -200t-125.5 -286t-47 -329q0 -242 97.5 -379t263.5 -137zM713 1591l26 123h586l-27 -123h-585z" />
    <glyph glyph-name="omacron" unicode="&#x14d;" horiz-adv-x="1079" 
d="M422 -20q-180 0 -278.5 108t-98.5 279q0 118 47.5 233.5t127.5 205t194.5 145t240.5 55.5q179 0 279 -106t100 -284q0 -161 -80 -307t-222.5 -237.5t-309.5 -91.5zM475 23q89 0 168.5 75t129.5 209t50 291q0 165 -57 265t-160 100q-87 0 -166.5 -74t-130.5 -207.5
t-51 -292.5q0 -163 56 -264.5t161 -101.5zM449 1214l24 119h502l-25 -119h-501z" />
    <glyph glyph-name="Obreve" unicode="&#x14e;" horiz-adv-x="1542" 
d="M655 -25q-258 0 -407.5 150t-149.5 414q0 139 42.5 277.5t123 259t187.5 213.5t247 146.5t291 53.5q257 0 408 -150t151 -413q0 -138 -42.5 -277t-123.5 -259t-189 -213.5t-247.5 -147.5t-290.5 -54zM705 29q98 0 190 49t164 135.5t126.5 199t83.5 244t29 265.5
q0 238 -94 376t-262 138q-122 0 -234.5 -76t-191 -200t-125.5 -286t-47 -329q0 -242 97.5 -379t263.5 -137zM1006 1550q-112 0 -157.5 87t-27.5 239h19q6 -85 61 -135.5t127 -50.5q71 0 145 50t117 136h19q-99 -326 -303 -326z" />
    <glyph glyph-name="obreve" unicode="&#x14f;" horiz-adv-x="1079" 
d="M422 -20q-180 0 -278.5 108t-98.5 279q0 118 47.5 233.5t127.5 205t194.5 145t240.5 55.5q179 0 279 -106t100 -284q0 -161 -80 -307t-222.5 -237.5t-309.5 -91.5zM475 23q89 0 168.5 75t129.5 209t50 291q0 165 -57 265t-160 100q-87 0 -166.5 -74t-130.5 -207.5
t-51 -292.5q0 -163 56 -264.5t161 -101.5zM684 1126q-112 0 -157 86.5t-27 239.5h18q6 -86 61.5 -136t127.5 -50q71 0 145.5 49.5t116.5 136.5h18q-98 -326 -303 -326z" />
    <glyph glyph-name="Ohungarumlaut" unicode="&#x150;" horiz-adv-x="1542" 
d="M655 -25q-258 0 -407.5 150t-149.5 414q0 139 42.5 277.5t123 259t187.5 213.5t247 146.5t291 53.5q257 0 408 -150t151 -413q0 -138 -42.5 -277t-123.5 -259t-189 -213.5t-247.5 -147.5t-290.5 -54zM705 29q98 0 190 49t164 135.5t126.5 199t83.5 244t29 265.5
q0 238 -94 376t-262 138q-122 0 -234.5 -76t-191 -200t-125.5 -286t-47 -329q0 -242 97.5 -379t263.5 -137zM715 1569q29 45 58 93t45 76t47 83.5t42 74.5h219q-163 -141 -391 -327h-20zM1067 1571q75 120 193 327h219q-147 -127 -392 -327h-20z" />
    <glyph glyph-name="ohungarumlaut" unicode="&#x151;" horiz-adv-x="1079" 
d="M422 -20q-180 0 -278.5 108t-98.5 279q0 118 47.5 233.5t127.5 205t194.5 145t240.5 55.5q179 0 279 -106t100 -284q0 -161 -80 -307t-222.5 -237.5t-309.5 -91.5zM475 23q89 0 168.5 75t129.5 209t50 291q0 165 -57 265t-160 100q-87 0 -166.5 -74t-130.5 -207.5
t-51 -292.5q0 -163 56 -264.5t161 -101.5zM362 1135q75 120 193 327h219q-163 -141 -391 -327h-21zM715 1135q83 132 190 327h221q-181 -154 -391 -327h-20z" />
    <glyph glyph-name="OE" unicode="&#x152;" horiz-adv-x="2179" 
d="M647 -25q-250 0 -399.5 151t-149.5 419q0 180 71.5 353t189.5 302.5t279.5 209t332.5 79.5q238 0 356 -160l27 135h821l-35 -340h-12q-20 130 -97 209.5t-206 79.5h-269l-126 -602h266q72 0 139 37.5t117 99.5h10l-74 -340h-10q-18 62 -67 108.5t-128 45.5l-266 -4
l-129 -617q-8 -38 47 -62t158 -24h147q100 -1 207 79t201 222h12l-125 -356h-893l29 133q-185 -158 -424 -158zM711 35q116 0 218.5 61.5t174.5 179.5l162 764q-19 189 -104.5 292.5t-225.5 103.5q-157 0 -294 -125t-216.5 -329t-79.5 -431q0 -151 37 -264.5t120.5 -182.5
t207.5 -69z" />
    <glyph glyph-name="oe" unicode="&#x153;" horiz-adv-x="1742" 
d="M422 -20q-180 0 -278.5 108t-98.5 279q0 118 47.5 233.5t127.5 205t193.5 145t237.5 55.5q128 0 217.5 -58.5t130.5 -161.5q89 102 207 161t248 59q69 0 127.5 -16t99.5 -55t41 -95q0 -72 -64 -133.5t-168 -102.5t-219.5 -67.5t-234.5 -38.5q-8 -40 -8 -80
q0 -79 22.5 -137t61.5 -90t84 -47t98 -15q93 0 182.5 47.5t159.5 153.5l13 -4q-63 -154 -183.5 -250t-279.5 -96q-115 0 -200 54.5t-126 153.5q-84 -97 -197.5 -152.5t-240.5 -55.5zM475 23q89 0 168.5 75t129.5 209t50 291q0 165 -57 265t-160 100q-87 0 -166.5 -74
t-130.5 -207.5t-51 -292.5q0 -163 56 -264.5t161 -101.5zM1042 541q224 26 357 109t133 192q0 52 -30 86.5t-91 34.5q-108 0 -216 -114t-153 -308z" />
    <glyph glyph-name="Racute" unicode="&#x154;" horiz-adv-x="1388" 
d="M-61 0l2 12q139 46 173.5 84t58.5 151q1 4 1.5 7t1.5 6l201 944q20 74 18.5 119t-32 71t-115.5 58l2 12h600q225 0 345 -86t120 -229q0 -147 -126.5 -256.5t-344.5 -153.5q86 -189 133.5 -284t150.5 -281q46 -82 132 -162l-3 -12h-303q-132 274 -329 721l-129 -2
l-97 -459q-30 -117 -10.5 -160t139.5 -88l-4 -12h-585zM506 770h184q172 0 287 109.5t115 273.5q0 130 -75 195t-202 65h-172zM756 1571q70 108 194 327h224q-145 -123 -398 -327h-20z" />
    <glyph glyph-name="racute" unicode="&#x155;" horiz-adv-x="774" 
d="M53 0l144 674q9 44 13 66t6.5 52t-3.5 46.5t-18.5 35.5t-35.5 33t-57 27l2 12q194 17 353 64l-78 -367q-28 -139 -57 -233h4q24 64 39.5 103.5t39 97t41 94t41 82.5t43.5 74.5t45 59t48.5 47t51.5 27.5t56 11q46 0 88 -31l-69 -223h-13q-25 31 -59 56.5t-62 25.5
q-66 0 -140.5 -156t-192.5 -496l-39 -182h-191zM475 1135q78 121 195 327h223q-164 -139 -397 -327h-21z" />
    <glyph glyph-name="uni0156" unicode="&#x156;" horiz-adv-x="1388" 
d="M-61 0l2 12q139 46 173.5 84t58.5 151q1 4 1.5 7t1.5 6l201 944q20 74 18.5 119t-32 71t-115.5 58l2 12h600q225 0 345 -86t120 -229q0 -147 -126.5 -256.5t-344.5 -153.5q86 -189 133.5 -284t150.5 -281q46 -82 132 -162l-3 -12h-303q-132 274 -329 721l-129 -2
l-97 -459q-30 -117 -10.5 -160t139.5 -88l-4 -12h-585zM416 -469l-4 14q119 89 168 191q-6 -2 -19 -2q-45 0 -75.5 27t-30.5 63q0 43 39 74.5t90 31.5q47 0 77.5 -28.5t30.5 -75.5q0 -74 -75.5 -160.5t-200.5 -134.5zM506 770h184q172 0 287 109.5t115 273.5q0 130 -75 195
t-202 65h-172z" />
    <glyph glyph-name="uni0157" unicode="&#x157;" horiz-adv-x="774" 
d="M53 0l144 674q9 44 13 66t6.5 52t-3.5 46.5t-18.5 35.5t-35.5 33t-57 27l2 12q194 17 353 64l-78 -367q-28 -139 -57 -233h4q24 64 39.5 103.5t39 97t41 94t41 82.5t43.5 74.5t45 59t48.5 47t51.5 27.5t56 11q46 0 88 -31l-69 -223h-13q-25 31 -59 56.5t-62 25.5
q-66 0 -140.5 -156t-192.5 -496l-39 -182h-191zM-41 -469l-4 14q119 89 168 191q-6 -2 -19 -2q-45 0 -75.5 27t-30.5 63q0 43 39 74.5t90 31.5q47 0 78 -29t31 -75q0 -74 -76 -160.5t-201 -134.5z" />
    <glyph glyph-name="Rcaron" unicode="&#x158;" horiz-adv-x="1388" 
d="M-61 0l2 12q139 46 173.5 84t58.5 151q1 4 1.5 7t1.5 6l201 944q20 74 18.5 119t-32 71t-115.5 58l2 12h600q225 0 345 -86t120 -229q0 -147 -126.5 -256.5t-344.5 -153.5q86 -189 133.5 -284t150.5 -281q46 -82 132 -162l-3 -12h-303q-132 274 -329 721l-129 -2
l-97 -459q-30 -117 -10.5 -160t139.5 -88l-4 -12h-585zM506 770h184q172 0 287 109.5t115 273.5q0 130 -75 195t-202 65h-172zM848 1536q-83 195 -170 362l14 13l205 -174l272 174l13 -13q-156 -169 -324 -362h-10z" />
    <glyph glyph-name="rcaron" unicode="&#x159;" horiz-adv-x="774" 
d="M53 0l144 674q9 44 13 66t6.5 52t-3.5 46.5t-18.5 35.5t-35.5 33t-57 27l2 12q194 17 353 64l-78 -367q-28 -139 -57 -233h4q24 64 39.5 103.5t39 97t41 94t41 82.5t43.5 74.5t45 59t48.5 47t51.5 27.5t56 11q46 0 88 -31l-69 -223h-13q-25 31 -59 56.5t-62 25.5
q-66 0 -140.5 -156t-192.5 -496l-39 -182h-191zM510 1110q-90 203 -168 356l16 13l199 -170l272 170l11 -13q-188 -201 -320 -356h-10z" />
    <glyph glyph-name="Sacute" unicode="&#x15a;" 
d="M541 -25q-124 0 -249.5 42.5t-230.5 115.5l54 336h12q42 -197 146.5 -318.5t261.5 -121.5q121 0 195.5 68t74.5 175q0 92 -59 186t-179 208q-5 5 -45 43t-51.5 49.5t-47 49.5t-49 58t-38.5 58t-35.5 67t-19.5 67t-9 75q0 155 123 255.5t312 100.5t411 -107l-33 -321h-12
q-48 173 -141.5 276t-220.5 103q-102 0 -172 -62.5t-70 -165.5q0 -52 18.5 -101t57 -97t72.5 -82t88 -82q49 -44 79.5 -72.5t80 -84.5t78 -103t51 -111t22.5 -127q0 -170 -135.5 -273.5t-339.5 -103.5zM702 1571q78 121 195 327h223q-164 -139 -397 -327h-21z" />
    <glyph glyph-name="sacute" unicode="&#x15b;" horiz-adv-x="788" 
d="M346 -20q-173 0 -344 112l29 240l12 2q67 -138 149.5 -226t165.5 -88q57 0 103.5 40t46.5 116q0 68 -41 122.5t-135 139.5q-101 89 -132 126q-73 88 -67 188q7 117 98 185.5t215 68.5q143 0 312 -91l-33 -225l-12 -2q-56 122 -127 198.5t-144 76.5q-55 0 -93 -38.5
t-44 -97.5q-4 -50 18 -95t45.5 -69t81.5 -75q4 -4 6.5 -6t6 -5t6.5 -6q122 -105 167.5 -171t45.5 -142q0 -129 -98 -203.5t-238 -74.5zM465 1135q70 108 194 327h224q-145 -123 -398 -327h-20z" />
    <glyph glyph-name="Scircumflex" unicode="&#x15c;" 
d="M541 -25q-124 0 -249.5 42.5t-230.5 115.5l54 336h12q42 -197 146.5 -318.5t261.5 -121.5q121 0 195.5 68t74.5 175q0 92 -59 186t-179 208q-5 5 -45 43t-51.5 49.5t-47 49.5t-49 58t-38.5 58t-35.5 67t-19.5 67t-9 75q0 155 123 255.5t312 100.5t411 -107l-33 -321h-12
q-48 173 -141.5 276t-220.5 103q-102 0 -172 -62.5t-70 -165.5q0 -52 18.5 -101t57 -97t72.5 -82t88 -82q49 -44 79.5 -72.5t80 -84.5t78 -103t51 -111t22.5 -127q0 -170 -135.5 -273.5t-339.5 -103.5zM565 1530l-10 12q22 25 88.5 97t118.5 130.5t117 135.5h10
q81 -194 170 -363l-17 -12l-200 174z" />
    <glyph glyph-name="scircumflex" unicode="&#x15d;" horiz-adv-x="788" 
d="M346 -20q-173 0 -344 112l29 240l12 2q67 -138 149.5 -226t165.5 -88q57 0 103.5 40t46.5 116q0 68 -41 122.5t-135 139.5q-101 89 -132 126q-73 88 -67 188q7 117 98 185.5t215 68.5q143 0 312 -91l-33 -225l-12 -2q-56 122 -127 198.5t-144 76.5q-55 0 -93 -38.5
t-44 -97.5q-4 -50 18 -95t45.5 -69t81.5 -75q4 -4 6.5 -6t6 -5t6.5 -6q122 -105 167.5 -171t45.5 -142q0 -129 -98 -203.5t-238 -74.5zM281 1110l-11 12q157 168 320 357h10q93 -210 168 -357l-16 -12l-199 172z" />
    <glyph glyph-name="Scedilla" unicode="&#x15e;" 
d="M283 -420l16 35q113 7 181.5 44.5t68.5 90.5q0 39 -52.5 68t-138.5 32l101 130q-213 24 -398 153l54 336h12q42 -197 146.5 -318.5t261.5 -121.5q121 0 195.5 68t74.5 175q0 92 -59 186t-179 208q-5 5 -45 43t-51.5 49.5t-47 49.5t-49 58t-38.5 58t-35.5 67t-19.5 67
t-9 75q0 155 123 255.5t312 100.5t411 -107l-33 -321h-12q-48 173 -141.5 276t-220.5 103q-102 0 -172 -62.5t-70 -165.5q0 -52 18.5 -101t57 -97t72.5 -82t88 -82q49 -44 79.5 -72.5t80 -84.5t78 -103.5t51 -112t22.5 -127.5q0 -169 -136.5 -272t-347.5 -103q-22 0 -38 2
l-31 -45q225 -16 225 -149q0 -97 -105.5 -150.5t-299.5 -52.5z" />
    <glyph glyph-name="scedilla" unicode="&#x15f;" horiz-adv-x="788" 
d="M23 -434l22 33q126 11 201.5 51.5t75.5 101.5q0 40 -44 64.5t-122 29.5l125 138q-147 21 -279 108l29 240l12 2q67 -138 149.5 -226t165.5 -88q57 0 103.5 40t46.5 116q0 68 -41 122.5t-135 139.5q-101 89 -132 126q-73 88 -67 188q7 117 98 185.5t215 68.5
q143 0 312 -91l-33 -225l-12 -2q-56 122 -127 198.5t-144 76.5q-55 0 -93 -38.5t-44 -97.5q-4 -50 18 -95t45.5 -69t81.5 -75q4 -4 6.5 -6t6 -5t6.5 -6q122 -105 167.5 -171t45.5 -142q0 -129 -98 -203.5t-238 -74.5h-31l-39 -50q195 -14 195 -133q0 -107 -126.5 -170.5
t-321.5 -60.5z" />
    <glyph glyph-name="Scaron" unicode="&#x160;" 
d="M541 -25q-124 0 -249.5 42.5t-230.5 115.5l54 336h12q42 -197 146.5 -318.5t261.5 -121.5q121 0 195.5 68t74.5 175q0 92 -59 186t-179 208q-5 5 -45 43t-51.5 49.5t-47 49.5t-49 58t-38.5 58t-35.5 67t-19.5 67t-9 75q0 155 123 255.5t312 100.5t411 -107l-33 -321h-12
q-48 173 -141.5 276t-220.5 103q-102 0 -172 -62.5t-70 -165.5q0 -52 18.5 -101t57 -97t72.5 -82t88 -82q49 -44 79.5 -72.5t80 -84.5t78 -103t51 -111t22.5 -127q0 -170 -135.5 -273.5t-339.5 -103.5zM797 1536q-83 195 -170 362l14 13l205 -174l272 174l12 -13
q-137 -149 -323 -362h-10z" />
    <glyph glyph-name="scaron" unicode="&#x161;" horiz-adv-x="788" 
d="M346 -20q-173 0 -344 112l29 240l12 2q67 -138 149.5 -226t165.5 -88q57 0 103.5 40t46.5 116q0 68 -41 122.5t-135 139.5q-101 89 -132 126q-73 88 -67 188q7 117 98 185.5t215 68.5q143 0 312 -91l-33 -225l-12 -2q-56 122 -127 198.5t-144 76.5q-55 0 -93 -38.5
t-44 -97.5q-4 -50 18 -95t45.5 -69t81.5 -75q4 -4 6.5 -6t6 -5t6.5 -6q122 -105 167.5 -171t45.5 -142q0 -129 -98 -203.5t-238 -74.5zM500 1110q-90 203 -168 356l16 13l199 -170l272 170l10 -13q-177 -189 -319 -356h-10z" />
    <glyph glyph-name="uni0162" unicode="&#x162;" horiz-adv-x="1325" 
d="M373 -414l16 35q113 7 181.5 44.5t68.5 90.5q0 40 -52.5 69t-137.5 32l110 143h-287l2 12q51 16 82.5 27.5t57 29t38 29.5t24.5 40.5t17.5 51t16.5 70.5l246 1151h-131q-124 0 -233 -77t-185 -210h-12l106 340h1143l-35 -340h-12q-7 52 -25.5 98t-51.5 89.5t-89 70
t-129 27.5l-125 2l-244 -1151q-10 -46 -14.5 -75.5t-1.5 -55t10 -39t28 -28.5t43 -24.5t64 -25.5l-2 -12h-264l-43 -61q107 -8 166 -45.5t59 -104.5q0 -97 -105.5 -150.5t-299.5 -52.5z" />
    <glyph glyph-name="uni0163" unicode="&#x163;" horiz-adv-x="624" 
d="M-98 -438l22 32q126 11 201.5 52t75.5 102q0 40 -44 64.5t-122 29.5l129 144q-52 17 -72 64.5t-8 111.5l164 768h-105l4 24q252 162 334 279h21l-56 -252h287l-14 -51h-279l-159 -750q-13 -61 18 -61q24 0 58.5 36t93.5 115l12 -6q-86 -150 -109 -182q-67 -96 -136 -102
h-11h-8l-43 -54q101 -7 147.5 -40t46.5 -93q0 -107 -126.5 -170.5t-321.5 -60.5z" />
    <glyph glyph-name="Tcaron" unicode="&#x164;" horiz-adv-x="1325" 
d="M272 0l2 12q51 16 82.5 27.5t57 29t38 29.5t24.5 40.5t17.5 51t16.5 70.5l246 1151h-131q-124 0 -233 -77t-185 -210h-12l106 340h1143l-35 -340h-12q-7 52 -25.5 98t-51.5 89.5t-89 70t-129 27.5l-125 2l-244 -1151q-10 -46 -14.5 -75.5t-1.5 -55t10 -39t28 -28.5
t43 -24.5t64 -25.5l-2 -12h-588zM893 1536q-83 195 -170 362l14 13l205 -174l272 174l13 -13q-156 -169 -324 -362h-10z" />
    <glyph glyph-name="tcaron" unicode="&#x165;" horiz-adv-x="624" 
d="M201 -20q-65 0 -99.5 52t-17.5 130l164 768h-105l4 24q252 162 334 279h21l-56 -252h287l-14 -51h-279l-159 -750q-13 -61 18 -61q24 0 58.5 36t93.5 115l12 -6q-9 -16 -29 -51t-28.5 -50t-25.5 -43t-27 -41t-26 -33t-28.5 -29t-29 -19t-33 -14t-35.5 -4zM594 1065
l121 422h196l-303 -422h-14z" />
    <glyph glyph-name="Tbar" unicode="&#x166;" horiz-adv-x="1325" 
d="M272 0l2 12q50 16 81.5 28t57 29t38.5 30.5t25 40.5t18 50.5t16 69.5l125 588h-236l11 49h235l111 514h-131q-124 0 -233 -77t-185 -210h-12l106 340h1143l-35 -340h-12q-7 52 -25.5 98t-51.5 89.5t-89 70t-129 27.5l-125 2l-109 -514h242l-10 -49h-242l-125 -588
q-10 -46 -14.5 -75.5t-1.5 -55t10 -39t28 -28.5t43 -24.5t64 -25.5l-2 -12h-588z" />
    <glyph glyph-name="tbar" unicode="&#x167;" horiz-adv-x="624" 
d="M201 -20q-65 0 -99.5 52t-17.5 130l111 520h-101l8 49h103l43 199h-105l4 24q252 162 334 279h21l-56 -252h287l-14 -51h-279l-43 -199h226l-7 -49h-229l-106 -502q-13 -61 18 -61q24 0 58.5 36t93.5 115l12 -6q-9 -16 -29 -51t-28.5 -50t-25.5 -43t-27 -41t-26 -33
t-28.5 -29t-29 -19t-33 -14t-35.5 -4z" />
    <glyph glyph-name="Utilde" unicode="&#x168;" horiz-adv-x="1488" 
d="M668 -25q-67 0 -127.5 11.5t-119 36.5t-100.5 66.5t-72 100.5t-33.5 138.5t15.5 181.5l146 694q7 36 10.5 54.5t6 43t0.5 36t-8 27.5t-16.5 24.5t-28 20.5t-39.5 21t-54 21l4 12h586l-4 -12q-38 -13 -64.5 -23.5t-49.5 -23.5t-37 -21t-27 -25t-19 -27t-14 -35t-11.5 -41
t-11.5 -52l-145 -684q-48 -226 33 -349.5t255 -123.5q104 0 193.5 44t158 138.5t97.5 229.5l133 618q48 183 29 256.5t-156 118.5l4 12h469l-4 -12q-41 -12 -72 -23t-57 -28t-43 -30t-32.5 -39.5t-25 -45t-20.5 -58.5t-17 -67.5t-18 -83.5l-131 -616q-50 -231 -202.5 -358.5
t-380.5 -127.5zM1128 1587q-49 0 -141 31q-104 35 -123 35q-55 0 -82.5 -11.5t-72.5 -48.5l-15 4q35 91 95.5 137t138.5 46q52 0 139 -33q85 -33 145 -33q38 0 67 14.5t64 45.5l17 -5q-67 -182 -232 -182z" />
    <glyph glyph-name="utilde" unicode="&#x169;" 
d="M279 -20q-83 0 -128 53t-45 143q0 55 39 238l64 297q12 45 9.5 80t-10 58.5t-25.5 40.5t-37 26.5t-46 17.5l4 14q162 8 359 62l-133 -615q-29 -139 -29 -205q0 -54 14 -74t47 -20q46 0 97.5 52t143.5 197t263 448l39 170l201 47l-166 -777q-12 -46 -12 -79t26 -33
q18 0 45 27t101 122l12 -6q-40 -72 -61 -107t-49.5 -76.5t-49 -59t-46.5 -29.5t-56 -12q-54 0 -86.5 32.5t-32.5 93.5q0 21 19 111q47 207 98 449h-6q-119 -217 -202.5 -352t-148.5 -209t-112 -99.5t-100 -25.5zM838 1200q-43 0 -131 31q-93 35 -125 35q-63 0 -129 -60
l-15 4q39 95 90 137t121 42q55 0 137 -31q90 -35 134 -35q31 0 55.5 12t62.5 47l19 -4q-69 -178 -219 -178z" />
    <glyph glyph-name="Umacron" unicode="&#x16a;" horiz-adv-x="1488" 
d="M668 -25q-67 0 -127.5 11.5t-119 36.5t-100.5 66.5t-72 100.5t-33.5 138.5t15.5 181.5l146 694q7 36 10.5 54.5t6 43t0.5 36t-8 27.5t-16.5 24.5t-28 20.5t-39.5 21t-54 21l4 12h586l-4 -12q-38 -13 -64.5 -23.5t-49.5 -23.5t-37 -21t-27 -25t-19 -27t-14 -35t-11.5 -41
t-11.5 -52l-145 -684q-48 -226 33 -349.5t255 -123.5q104 0 193.5 44t158 138.5t97.5 229.5l133 618q48 183 29 256.5t-156 118.5l4 12h469l-4 -12q-41 -12 -72 -23t-57 -28t-43 -30t-32.5 -39.5t-25 -45t-20.5 -58.5t-17 -67.5t-18 -83.5l-131 -616q-50 -231 -202.5 -358.5
t-380.5 -127.5zM715 1591l26 123h586l-27 -123h-585z" />
    <glyph glyph-name="umacron" unicode="&#x16b;" 
d="M279 -20q-83 0 -128 53t-45 143q0 55 39 238l64 297q12 45 9.5 80t-10 58.5t-25.5 40.5t-37 26.5t-46 17.5l4 14q162 8 359 62l-133 -615q-29 -139 -29 -205q0 -54 14 -74t47 -20q46 0 97.5 52t143.5 197t263 448l39 170l201 47l-166 -777q-12 -46 -12 -79t26 -33
q18 0 45 27t101 122l12 -6q-40 -72 -61 -107t-49.5 -76.5t-49 -59t-46.5 -29.5t-56 -12q-54 0 -86.5 32.5t-32.5 93.5q0 21 19 111q47 207 98 449h-6q-119 -217 -202.5 -352t-148.5 -209t-112 -99.5t-100 -25.5zM481 1214l25 119h502l-25 -119h-502z" />
    <glyph glyph-name="Ubreve" unicode="&#x16c;" horiz-adv-x="1488" 
d="M668 -25q-67 0 -127.5 11.5t-119 36.5t-100.5 66.5t-72 100.5t-33.5 138.5t15.5 181.5l146 694q7 36 10.5 54.5t6 43t0.5 36t-8 27.5t-16.5 24.5t-28 20.5t-39.5 21t-54 21l4 12h586l-4 -12q-38 -13 -64.5 -23.5t-49.5 -23.5t-37 -21t-27 -25t-19 -27t-14 -35t-11.5 -41
t-11.5 -52l-145 -684q-48 -226 33 -349.5t255 -123.5q104 0 193.5 44t158 138.5t97.5 229.5l133 618q48 183 29 256.5t-156 118.5l4 12h469l-4 -12q-41 -12 -72 -23t-57 -28t-43 -30t-32.5 -39.5t-25 -45t-20.5 -58.5t-17 -67.5t-18 -83.5l-131 -616q-50 -231 -202.5 -358.5
t-380.5 -127.5zM1008 1550q-112 0 -157.5 87t-27.5 239h19q6 -85 61 -135.5t127 -50.5q71 0 145 50t117 136h19q-99 -326 -303 -326z" />
    <glyph glyph-name="ubreve" unicode="&#x16d;" 
d="M279 -20q-83 0 -128 53t-45 143q0 55 39 238l64 297q12 45 9.5 80t-10 58.5t-25.5 40.5t-37 26.5t-46 17.5l4 14q162 8 359 62l-133 -615q-29 -139 -29 -205q0 -54 14 -74t47 -20q46 0 97.5 52t143.5 197t263 448l39 170l201 47l-166 -777q-12 -46 -12 -79t26 -33
q18 0 45 27t101 122l12 -6q-40 -72 -61 -107t-49.5 -76.5t-49 -59t-46.5 -29.5t-56 -12q-54 0 -86.5 32.5t-32.5 93.5q0 21 19 111q47 207 98 449h-6q-119 -217 -202.5 -352t-148.5 -209t-112 -99.5t-100 -25.5zM717 1126q-112 0 -157.5 86.5t-27.5 239.5h19q6 -86 61 -136
t127 -50q71 0 145.5 49.5t116.5 136.5h19q-98 -326 -303 -326z" />
    <glyph glyph-name="Uring" unicode="&#x16e;" horiz-adv-x="1488" 
d="M668 -25q-67 0 -127.5 11.5t-119 36.5t-100.5 66.5t-72 100.5t-33.5 138.5t15.5 181.5l146 694q7 36 10.5 54.5t6 43t0.5 36t-8 27.5t-16.5 24.5t-28 20.5t-39.5 21t-54 21l4 12h586l-4 -12q-38 -13 -64.5 -23.5t-49.5 -23.5t-37 -21t-27 -25t-19 -27t-14 -35t-11.5 -41
t-11.5 -52l-145 -684q-48 -226 33 -349.5t255 -123.5q104 0 193.5 44t158 138.5t97.5 229.5l133 618q48 183 29 256.5t-156 118.5l4 12h469l-4 -12q-41 -12 -72 -23t-57 -28t-43 -30t-32.5 -39.5t-25 -45t-20.5 -58.5t-17 -67.5t-18 -83.5l-131 -616q-50 -231 -202.5 -358.5
t-380.5 -127.5zM1001 1534q-66 0 -109.5 43.5t-43.5 108.5q0 85 69.5 155t155.5 70q67 0 108.5 -42t41.5 -106q0 -88 -67.5 -158.5t-154.5 -70.5zM1012 1581q60 0 107.5 55t47.5 119q0 49 -28.5 80t-73.5 31q-64 0 -112 -54t-48 -116q0 -50 30 -82.5t77 -32.5z" />
    <glyph glyph-name="uring" unicode="&#x16f;" 
d="M279 -20q-83 0 -128 53t-45 143q0 55 39 238l64 297q12 45 9.5 80t-10 58.5t-25.5 40.5t-37 26.5t-46 17.5l4 14q162 8 359 62l-133 -615q-29 -139 -29 -205q0 -54 14 -74t47 -20q46 0 97.5 52t143.5 197t263 448l39 170l201 47l-166 -777q-12 -46 -12 -79t26 -33
q18 0 45 27t101 122l12 -6q-40 -72 -61 -107t-49.5 -76.5t-49 -59t-46.5 -29.5t-56 -12q-54 0 -86.5 32.5t-32.5 93.5q0 21 19 111q47 207 98 449h-6q-119 -217 -202.5 -352t-148.5 -209t-112 -99.5t-100 -25.5zM700 1081q-66 0 -107.5 43t-41.5 109q0 85 70 155t157 70
q65 0 106.5 -41.5t41.5 -105.5q0 -87 -70 -158.5t-156 -71.5zM723 1128q57 6 102 59.5t45 115.5q0 51 -32 82.5t-82 27.5q-57 -5 -102.5 -56t-45.5 -114q0 -51 33 -86t82 -29z" />
    <glyph glyph-name="Uhungarumlaut" unicode="&#x170;" horiz-adv-x="1488" 
d="M668 -25q-67 0 -127.5 11.5t-119 36.5t-100.5 66.5t-72 100.5t-33.5 138.5t15.5 181.5l146 694q7 36 10.5 54.5t6 43t0.5 36t-8 27.5t-16.5 24.5t-28 20.5t-39.5 21t-54 21l4 12h586l-4 -12q-38 -13 -64.5 -23.5t-49.5 -23.5t-37 -21t-27 -25t-19 -27t-14 -35t-11.5 -41
t-11.5 -52l-145 -684q-48 -226 33 -349.5t255 -123.5q104 0 193.5 44t158 138.5t97.5 229.5l133 618q48 183 29 256.5t-156 118.5l4 12h469l-4 -12q-41 -12 -72 -23t-57 -28t-43 -30t-32.5 -39.5t-25 -45t-20.5 -58.5t-17 -67.5t-18 -83.5l-131 -616q-50 -231 -202.5 -358.5
t-380.5 -127.5zM717 1569q29 45 58 93t45 76t47 83.5t42 74.5h219q-163 -141 -391 -327h-20zM1069 1571q75 120 193 327h219q-163 -141 -391 -327h-21z" />
    <glyph glyph-name="uhungarumlaut" unicode="&#x171;" 
d="M279 -20q-83 0 -128 53t-45 143q0 55 39 238l64 297q12 45 9.5 80t-10 58.5t-25.5 40.5t-37 26.5t-46 17.5l4 14q162 8 359 62l-133 -615q-29 -139 -29 -205q0 -54 14 -74t47 -20q46 0 97.5 52t143.5 197t263 448l39 170l201 47l-166 -777q-12 -46 -12 -79t26 -33
q18 0 45 27t101 122l12 -6q-40 -72 -61 -107t-49.5 -76.5t-49 -59t-46.5 -29.5t-56 -12q-54 0 -86.5 32.5t-32.5 93.5q0 21 19 111q47 207 98 449h-6q-119 -217 -202.5 -352t-148.5 -209t-112 -99.5t-100 -25.5zM395 1135q75 120 193 327h219q-163 -141 -391 -327h-21z
M748 1135q83 132 190 327h221q-181 -154 -391 -327h-20z" />
    <glyph glyph-name="Uogonek" unicode="&#x172;" horiz-adv-x="1488" 
d="M684 -350q-60 0 -96.5 26t-36.5 70q0 56 60 118.5t163 119.5q-50 -9 -100 -9q-87 0 -161.5 17.5t-139.5 57t-103 101.5t-52 151.5t13 207.5l146 694q7 36 10.5 54.5t6 43t0.5 36t-8 27.5t-16.5 24.5t-28 20.5t-39.5 21t-54 21l4 12h586l-4 -12q-38 -13 -64.5 -23.5
t-49.5 -23.5t-37 -21t-27 -25t-19 -27t-14 -35t-11.5 -41t-11.5 -52l-145 -684q-48 -226 33 -349.5t255 -123.5q104 0 193.5 44t158 138.5t97.5 229.5l133 618q48 183 29 256.5t-156 118.5l4 12h469l-4 -12q-41 -12 -72 -23t-57 -28t-43 -30t-32.5 -39.5t-25 -45
t-20.5 -58.5t-17 -67.5t-18 -83.5l-131 -616q-35 -168 -128 -283t-232 -166q-71 -49 -122.5 -106.5t-51.5 -108.5q0 -30 19.5 -45.5t51.5 -15.5q83 0 166 61l11 -12q-52 -61 -130 -98t-151 -37z" />
    <glyph glyph-name="uogonek" unicode="&#x173;" 
d="M670 -385q-61 0 -97 26.5t-36 71.5q0 66 75.5 139t196.5 134q-37 11 -57.5 42t-20.5 78q0 21 19 111q47 207 98 449h-6q-119 -217 -202.5 -352t-148.5 -209t-112 -99.5t-100 -25.5q-83 0 -128 53t-45 143q0 55 39 238l64 297q12 45 9.5 80t-10 58.5t-25.5 40.5t-37 26.5
t-46 17.5l4 14q162 8 359 62l-133 -615q-29 -139 -29 -205q0 -54 14 -74t47 -20q46 0 97.5 52t143.5 197t263 448l39 170l201 47l-166 -777q-12 -46 -12 -79t26 -33q18 0 45 27t101 122l12 -6q-46 -82 -70 -121.5t-56.5 -82.5t-60.5 -60.5t-61 -19.5q-67 -49 -114.5 -107.5
t-47.5 -108.5q0 -30 21 -45.5t53 -15.5q83 0 166 64l10 -11q-53 -63 -130 -102t-152 -39z" />
    <glyph glyph-name="Wcircumflex" unicode="&#x174;" horiz-adv-x="2187" 
d="M465 -4l-105 1309q-2 27 -5.5 41.5t-16.5 33.5t-41 36t-74 36l2 12h576l-4 -12q-79 -24 -124 -43.5t-64 -41t-22 -37t-1 -46.5l69 -969l519 832l-15 166q-3 46 -28 71.5t-117 67.5l2 12h579l-4 -12q-80 -25 -122 -46.5t-60.5 -48t-19.5 -61t2 -84.5l61 -895l537 865
q40 64 57.5 99t17.5 60q0 32 -31.5 58.5t-103.5 52.5l2 12h449l-4 -12q-131 -57 -182.5 -104t-125.5 -166l-757 -1186h-51l-78 1051l-668 -1051h-49zM1122 1530l-10 12q22 25 88.5 97t118.5 130.5t117 135.5h10q81 -194 170 -363l-17 -12l-200 174z" />
    <glyph glyph-name="wcircumflex" unicode="&#x175;" horiz-adv-x="1538" 
d="M285 -4l-68 690q-5 42 -12 68t-22 55.5t-43.5 50t-71.5 33.5l2 12q139 29 295 105l79 -817q146 164 237 332t91 290q0 75 -37 131h2l-2 4l232 60l82 -820q350 399 350 601q0 92 -72 161v13l193 45q18 -40 18 -90q0 -138 -162.5 -379.5t-451.5 -544.5h-41l-68 719
q-3 -25 -15.5 -61.5t-46.5 -102t-85.5 -141.5t-141 -185.5t-202.5 -228.5h-39zM670 1108l-11 12q157 168 320 357h10q93 -210 168 -357l-16 -12l-199 172z" />
    <glyph glyph-name="Ycircumflex" unicode="&#x176;" horiz-adv-x="1423" 
d="M326 0l4 12q138 46 172 84.5t59 155.5q1 5 2 8l82 389l-264 662q-21 51 -48.5 77.5t-109.5 63.5l2 12h580l-2 -12q-39 -16 -57.5 -24t-44 -21t-35 -20t-22 -20t-14 -23.5t-2 -27t5 -34.5t15.5 -43l205 -514l397 500q62 77 62 127q0 59 -103 100l2 12h404l-2 -12
q-94 -33 -157 -86.5t-134 -140.5l-451 -557l-88 -408q-16 -75 -16 -115q0 -52 30.5 -76.5t116.5 -56.5l-4 -12h-585zM760 1530l-10 12q243 269 323 363h10q81 -194 170 -363l-16 -12l-201 174z" />
    <glyph glyph-name="ycircumflex" unicode="&#x177;" horiz-adv-x="1013" 
d="M-133 -430l-41 194l6 13q3 -5 23 -11.5t56.5 -12t76.5 -5.5q185 0 329 160q0 162 -28 433t-51 378q-18 79 -56 120t-112 56l2 14q115 21 317 101q37 -218 67 -488.5t38 -435.5q344 400 344 621q0 130 -121 245v13l194 45q41 -64 41 -150q0 -155 -132 -391.5t-343 -464.5
q-171 -185 -332 -298.5t-278 -135.5zM406 1110l-11 12q157 168 320 357h10q93 -210 168 -357l-16 -12l-199 172z" />
    <glyph glyph-name="Ydieresis" unicode="&#x178;" horiz-adv-x="1423" 
d="M326 0l4 12q138 46 172 84.5t59 155.5q1 5 2 8l82 389l-264 662q-21 51 -48.5 77.5t-109.5 63.5l2 12h580l-2 -12q-39 -16 -57.5 -24t-44 -21t-35 -20t-22 -20t-14 -23.5t-2 -27t5 -34.5t15.5 -43l205 -514l397 500q62 77 62 127q0 59 -103 100l2 12h404l-2 -12
q-94 -33 -157 -86.5t-134 -140.5l-451 -557l-88 -408q-16 -75 -16 -115q0 -52 30.5 -76.5t116.5 -56.5l-4 -12h-585zM795 1561q-50 0 -83.5 33.5t-33.5 82.5q0 48 34 82.5t83 34.5q47 0 81.5 -35t34.5 -82q0 -49 -34 -82.5t-82 -33.5zM1178 1561q-48 0 -82.5 33.5
t-34.5 82.5q0 47 35 82t82 35q49 0 83.5 -34.5t34.5 -82.5q0 -49 -34 -82.5t-84 -33.5z" />
    <glyph glyph-name="Zacute" unicode="&#x179;" horiz-adv-x="1234" 
d="M-25 0l7 31l1046 1382h-313q-130 0 -241.5 -80t-184.5 -209h-13l107 340h934l-8 -30l-1047 -1381h449q100 0 206.5 80.5t200.5 222.5h12l-122 -356h-1033zM758 1571q70 108 194 327h224q-145 -123 -398 -327h-20z" />
    <glyph glyph-name="zacute" unicode="&#x17a;" horiz-adv-x="886" 
d="M483 -20q-62 0 -154.5 36.5t-158.5 36.5q-100 0 -203 -63l-26 26l774 795h-410q-94 0 -164 -115h-14l94 285h723v-10l-825 -846h6q125 86 211 86q47 0 112 -32t125 -32q61 0 108.5 34t115.5 136l12 -4q-73 -176 -145 -254.5t-181 -78.5zM545 1130q65 101 194 328h224
q-168 -143 -398 -328h-20z" />
    <glyph glyph-name="Zdotaccent" unicode="&#x17b;" horiz-adv-x="1234" 
d="M-25 0l7 31l1046 1382h-313q-130 0 -241.5 -80t-184.5 -209h-13l107 340h934l-8 -30l-1047 -1381h449q100 0 206.5 80.5t200.5 222.5h12l-122 -356h-1033zM854 1561q-49 0 -83 34t-34 82t34 82.5t83 34.5q47 0 82 -35t35 -82t-35 -81.5t-82 -34.5z" />
    <glyph glyph-name="zdotaccent" unicode="&#x17c;" horiz-adv-x="886" 
d="M483 -20q-62 0 -154.5 36.5t-158.5 36.5q-100 0 -203 -63l-26 26l774 795h-410q-94 0 -164 -115h-14l94 285h723v-10l-825 -846h6q125 86 211 86q47 0 112 -32t125 -32q61 0 108.5 34t115.5 136l12 -4q-73 -176 -145 -254.5t-181 -78.5zM600 1163q-50 0 -87.5 36
t-37.5 85q0 46 38 82.5t87 36.5q47 0 85 -36.5t38 -82.5q0 -49 -37.5 -85t-85.5 -36z" />
    <glyph glyph-name="Zcaron" unicode="&#x17d;" horiz-adv-x="1234" 
d="M-25 0l7 31l1046 1382h-313q-130 0 -241.5 -80t-184.5 -209h-13l107 340h934l-8 -30l-1047 -1381h449q100 0 206.5 80.5t200.5 222.5h12l-122 -356h-1033zM852 1536q-83 195 -170 362l14 13l205 -174l273 174l12 -13q-156 -169 -324 -362h-10z" />
    <glyph glyph-name="zcaron" unicode="&#x17e;" horiz-adv-x="886" 
d="M483 -20q-62 0 -154.5 36.5t-158.5 36.5q-100 0 -203 -63l-26 26l774 795h-410q-94 0 -164 -115h-14l94 285h723v-10l-825 -846h6q125 86 211 86q47 0 112 -32t125 -32q61 0 108.5 34t115.5 136l12 -4q-73 -176 -145 -254.5t-181 -78.5zM580 1106q-90 203 -168 356l16 13
l199 -170l272 170l10 -13q-177 -189 -319 -356h-10z" />
    <glyph glyph-name="Aringacute" unicode="&#x1fa;" horiz-adv-x="1433" 
d="M-94 0l2 12q124 65 198.5 142t198.5 270l557 854l-24 119q94 36 219 110l127 -1319q4 -43 9 -64t19.5 -43t40 -36.5t72.5 -32.5l-2 -12h-580l5 12q43 14 73 25t54.5 24t39.5 21.5t25.5 23t15 24.5t6 30t0.5 34.5t-4 43.5l-26 270h-508l-45 -72q-53 -84 -75.5 -122
t-48.5 -90t-26.5 -75t8 -52.5t37 -47.5t76.5 -37l-2 -12h-442zM475 588h451l-52 618zM956 1534q-66 0 -109.5 43.5t-43.5 108.5q0 85 69.5 155t155.5 70q67 0 108.5 -42t41.5 -106q0 -88 -67.5 -158.5t-154.5 -70.5zM967 1581q60 0 107.5 55t47.5 119q0 49 -28.5 80
t-73.5 31q-64 0 -112 -54t-48 -116q0 -50 30 -82.5t77 -32.5zM934 1927q75 102 194 287h224q-154 -114 -398 -287h-20z" />
    <glyph glyph-name="aringacute" unicode="&#x1fb;" horiz-adv-x="1120" 
d="M324 -20q-120 0 -202.5 91t-82.5 253q0 115 44 237t117 220t176 161.5t212 63.5q64 0 117 -23t81.5 -50t59 -50t53.5 -23q59 0 150 146h22l-174 -809q-8 -35 -2 -56.5t23 -21.5q39 0 145 151l12 -6q-78 -151 -137.5 -217.5t-126.5 -66.5q-55 0 -85 38t-30 88q0 69 97 383
l-7 3q-67 -153 -130.5 -257.5t-121.5 -158t-107.5 -75t-102.5 -21.5zM391 72q39 0 82.5 27.5t95.5 89.5t113.5 178t124.5 278l14 80q-84 236 -237 236q-65 0 -122 -44.5t-95.5 -114.5t-66.5 -156t-41 -168.5t-13 -151.5q0 -121 39.5 -187.5t105.5 -66.5zM705 1079
q-66 0 -108 43t-42 109q0 85 70 155t157 70q65 0 106.5 -41.5t41.5 -105.5q0 -87 -69.5 -158.5t-155.5 -71.5zM727 1126q57 6 102 59.5t45 114.5q0 51 -32 83t-82 28q-57 -5 -102.5 -56t-45.5 -114q0 -51 33 -86t82 -29zM735 1509q74 114 195 328h223q-187 -159 -397 -328
h-21z" />
    <glyph glyph-name="AEacute" unicode="&#x1fc;" horiz-adv-x="1935" 
d="M-111 0l2 12q85 48 152 103.5t150 158.5l827 1033q27 29 2 58.5t-131 86.5l2 12h1040l-35 -340h-12q-20 130 -97 209.5t-206 79.5h-254l-129 -604h252q72 0 139 37.5t117 99.5h10l-73 -340h-11q-22 71 -73 113t-121 41l-252 -4l-131 -615q-8 -36 62.5 -62t191.5 -26h86
q100 0 206.5 80.5t200.5 222.5h13l-125 -356h-1069l2 12q41 14 58 19.5t44.5 17t36.5 18.5t26 21.5t23 27.5t16.5 35.5t16.5 47.5t14 61l53 246h-473l-182 -227q-90 -113 -77.5 -167.5t136.5 -99.5l-4 -12h-424zM500 582h428l162 727h-3zM1468 1571q78 121 195 327h223
q-164 -139 -397 -327h-21z" />
    <glyph glyph-name="aeacute" unicode="&#x1fd;" horiz-adv-x="1593" 
d="M227 -20q-99 0 -165 49t-66 141q0 148 184.5 264.5t550.5 216.5l29 123q21 90 -12.5 142.5t-116.5 52.5q-101 0 -175.5 -81t-111.5 -216l-10 -4l-129 114q78 102 194 163t250 61q212 0 256 -166q73 73 180 119.5t228 46.5q126 0 193 -49.5t67 -116.5q0 -39 -22 -78.5
t-73.5 -81t-128.5 -76t-196.5 -63t-267.5 -43.5q-8 -44 -8 -84q0 -138 75.5 -211.5t196.5 -73.5q202 0 338 201l12 -4q-56 -142 -175 -244t-267 -102q-49 0 -97 11.5t-96.5 39.5t-85 69t-59.5 106t-23 144q0 48 15 129h-9q-54 -126 -103.5 -213.5t-107 -154.5t-123 -99
t-141.5 -32zM326 92q91 0 184 120t211 400q-113 -36 -198.5 -73t-159.5 -84.5t-113 -106.5t-39 -127q0 -63 32.5 -96t82.5 -33zM893 539q135 17 244 56.5t177 103.5t68 141q0 50 -29 86.5t-89 36.5q-107 0 -219.5 -116t-151.5 -308zM907 1135q78 121 195 327h223
q-164 -139 -397 -327h-21z" />
    <glyph glyph-name="Oslashacute" unicode="&#x1fe;" horiz-adv-x="1542" 
d="M57 -63l183 196q-142 151 -142 406q0 139 42.5 277.5t123 259t187.5 213.5t247 146.5t291 53.5q244 0 387 -131l146 155h55l-170 -184q141 -150 141 -403q0 -138 -42.5 -277t-123.5 -259t-189 -213.5t-247.5 -147.5t-290.5 -54q-240 0 -387 129l-155 -167h-56zM705 29
q98 0 190 49t164 135.5t126.5 199t83.5 244t29 265.5q0 148 -34 254l-867 -932q46 -104 125 -159.5t183 -55.5zM381 287l866 932q-43 104 -121 160.5t-184 56.5q-122 0 -234.5 -76t-191 -200t-125.5 -286t-47 -329q0 -151 37 -258zM899 1571q78 121 195 327h223
q-164 -139 -397 -327h-21z" />
    <glyph glyph-name="oslashacute" unicode="&#x1ff;" horiz-adv-x="1079" 
d="M109 -84l88 125q-74 52 -113 136.5t-39 189.5q0 118 47.5 233.5t127.5 205t194.5 145t240.5 55.5q116 0 195 -43l61 86h47l-75 -107q151 -102 151 -326q0 -161 -80 -307t-222.5 -237.5t-309.5 -91.5q-111 0 -195 43l-75 -107h-43zM475 23q89 0 168.5 75t129.5 209t50 291
q0 133 -32 215l-484 -678q59 -112 168 -112zM291 174l481 678q-59 111 -166 111q-87 0 -166.5 -74t-130.5 -207.5t-51 -292.5q0 -130 33 -215zM618 1135q78 121 195 327h223q-164 -139 -397 -327h-21z" />
    <glyph glyph-name="uni0218" unicode="&#x218;" 
d="M541 -25q-124 0 -249.5 42.5t-230.5 115.5l54 336h12q42 -197 146.5 -318.5t261.5 -121.5q121 0 195.5 68t74.5 175q0 92 -59 186t-179 208q-5 5 -45 43t-51.5 49.5t-47 49.5t-49 58t-38.5 58t-35.5 67t-19.5 67t-9 75q0 155 123 255.5t312 100.5t411 -107l-33 -321h-12
q-48 173 -141.5 276t-220.5 103q-102 0 -172 -62.5t-70 -165.5q0 -52 18.5 -101t57 -97t72.5 -82t88 -82q49 -44 79.5 -72.5t80 -84.5t78 -103t51 -111t22.5 -127q0 -170 -135.5 -273.5t-339.5 -103.5zM285 -469l-4 14q119 89 168 191q-6 -2 -19 -2q-45 0 -75.5 27t-30.5 63
q0 43 39 74.5t90 31.5q47 0 77.5 -28.5t30.5 -75.5q0 -74 -75.5 -160.5t-200.5 -134.5z" />
    <glyph glyph-name="uni0219" unicode="&#x219;" horiz-adv-x="788" 
d="M346 -20q-173 0 -344 112l29 240l12 2q67 -138 149.5 -226t165.5 -88q57 0 103.5 40t46.5 116q0 68 -41 122.5t-135 139.5q-101 89 -132 126q-73 88 -67 188q7 117 98 185.5t215 68.5q143 0 312 -91l-33 -225l-12 -2q-56 122 -127 198.5t-144 76.5q-55 0 -93 -38.5
t-44 -97.5q-4 -50 18 -95t45.5 -69t81.5 -75q4 -4 6.5 -6t6 -5t6.5 -6q122 -105 167.5 -171t45.5 -142q0 -129 -98 -203.5t-238 -74.5zM111 -463l-5 14q119 89 168 191q-6 -2 -18 -2q-45 0 -75.5 27t-30.5 63q0 43 39 75t90 32q46 0 77 -29t31 -76q0 -74 -75.5 -160.5
t-200.5 -134.5z" />
    <glyph glyph-name="uni021A" unicode="&#x21a;" horiz-adv-x="1325" 
d="M272 0l2 12q51 16 82.5 27.5t57 29t38 29.5t24.5 40.5t17.5 51t16.5 70.5l246 1151h-131q-124 0 -233 -77t-185 -210h-12l106 340h1143l-35 -340h-12q-7 52 -25.5 98t-51.5 89.5t-89 70t-129 27.5l-125 2l-244 -1151q-10 -46 -14.5 -75.5t-1.5 -55t10 -39t28 -28.5
t43 -24.5t64 -25.5l-2 -12h-588zM375 -463l-4 14q119 89 168 191q-6 -2 -19 -2q-45 0 -75.5 27t-30.5 63q0 43 39 75t90 32q46 0 77 -29t31 -76q0 -74 -75.5 -160.5t-200.5 -134.5z" />
    <glyph glyph-name="uni021B" unicode="&#x21b;" horiz-adv-x="624" 
d="M201 -20q-65 0 -99.5 52t-17.5 130l164 768h-105l4 24q252 162 334 279h21l-56 -252h287l-14 -51h-279l-159 -750q-13 -61 18 -61q24 0 58.5 36t93.5 115l12 -6q-9 -16 -29 -51t-28.5 -50t-25.5 -43t-27 -41t-26 -33t-28.5 -29t-29 -19t-33 -14t-35.5 -4zM-10 -469l-4 14
q119 89 168 191q-6 -2 -19 -2q-45 0 -75.5 27t-30.5 63q0 43 39 74.5t90 31.5q47 0 77.5 -28.5t30.5 -75.5q0 -74 -75.5 -160.5t-200.5 -134.5z" />
    <glyph glyph-name="uni0237" unicode="&#x237;" horiz-adv-x="483" 
d="M-238 -426l-6 14q123 58 183 144t92 235l149 707q11 51 16 86t1 61.5t-9 41.5t-23.5 29t-32.5 21.5t-46 20.5l2 12q193 17 356 64l-198 -940q-42 -198 -162 -320t-322 -176z" />
    <glyph glyph-name="Wgrave" unicode="&#x1e80;" horiz-adv-x="2187" 
d="M465 -4l-105 1309q-2 27 -5.5 41.5t-16.5 33.5t-41 36t-74 36l2 12h576l-4 -12q-79 -24 -124 -43.5t-64 -41t-22 -37t-1 -46.5l69 -969l519 832l-15 166q-3 46 -28 71.5t-117 67.5l2 12h579l-4 -12q-80 -25 -122 -46.5t-60.5 -48t-19.5 -61t2 -84.5l61 -895l537 865
q40 64 57.5 99t17.5 60q0 32 -31.5 58.5t-103.5 52.5l2 12h449l-4 -12q-131 -57 -182.5 -104t-125.5 -166l-757 -1186h-51l-78 1051l-668 -1051h-49zM1411 1571q-233 188 -397 327h223q117 -206 195 -327h-21z" />
    <glyph glyph-name="wgrave" unicode="&#x1e81;" horiz-adv-x="1538" 
d="M285 -4l-68 690q-5 42 -12 68t-22 55.5t-43.5 50t-71.5 33.5l2 12q139 29 295 105l79 -817q146 164 237 332t91 290q0 75 -37 131h2l-2 4l232 60l82 -820q350 399 350 601q0 92 -72 161v13l193 45q18 -40 18 -90q0 -138 -162.5 -379.5t-451.5 -544.5h-41l-68 719
q-3 -25 -15.5 -61.5t-46.5 -102t-85.5 -141.5t-141 -185.5t-202.5 -228.5h-39zM942 1133q-224 178 -399 327h223q117 -206 195 -327h-19z" />
    <glyph glyph-name="Wacute" unicode="&#x1e82;" horiz-adv-x="2187" 
d="M465 -4l-105 1309q-2 27 -5.5 41.5t-16.5 33.5t-41 36t-74 36l2 12h576l-4 -12q-79 -24 -124 -43.5t-64 -41t-22 -37t-1 -46.5l69 -969l519 832l-15 166q-3 46 -28 71.5t-117 67.5l2 12h579l-4 -12q-80 -25 -122 -46.5t-60.5 -48t-19.5 -61t2 -84.5l61 -895l537 865
q40 64 57.5 99t17.5 60q0 32 -31.5 58.5t-103.5 52.5l2 12h449l-4 -12q-131 -57 -182.5 -104t-125.5 -166l-757 -1186h-51l-78 1051l-668 -1051h-49zM1260 1571q70 108 194 327h223q-164 -139 -397 -327h-20z" />
    <glyph glyph-name="wacute" unicode="&#x1e83;" horiz-adv-x="1538" 
d="M285 -4l-68 690q-5 42 -12 68t-22 55.5t-43.5 50t-71.5 33.5l2 12q139 29 295 105l79 -817q146 164 237 332t91 290q0 75 -37 131h2l-2 4l232 60l82 -820q350 399 350 601q0 92 -72 161v13l193 45q18 -40 18 -90q0 -138 -162.5 -379.5t-451.5 -544.5h-41l-68 719
q-3 -25 -15.5 -61.5t-46.5 -102t-85.5 -141.5t-141 -185.5t-202.5 -228.5h-39zM854 1133q78 121 195 327h223q-145 -123 -398 -327h-20z" />
    <glyph glyph-name="Wdieresis" unicode="&#x1e84;" horiz-adv-x="2187" 
d="M465 -4l-105 1309q-2 27 -5.5 41.5t-16.5 33.5t-41 36t-74 36l2 12h576l-4 -12q-79 -24 -124 -43.5t-64 -41t-22 -37t-1 -46.5l69 -969l519 832l-15 166q-3 46 -28 71.5t-117 67.5l2 12h579l-4 -12q-80 -25 -122 -46.5t-60.5 -48t-19.5 -61t2 -84.5l61 -895l537 865
q40 64 57.5 99t17.5 60q0 32 -31.5 58.5t-103.5 52.5l2 12h449l-4 -12q-131 -57 -182.5 -104t-125.5 -166l-757 -1186h-51l-78 1051l-668 -1051h-49zM1157 1561q-50 0 -83.5 33.5t-33.5 82.5q0 48 34 82.5t83 34.5q47 0 82 -35t35 -82q0 -49 -34.5 -82.5t-82.5 -33.5z
M1540 1561q-48 0 -82.5 33.5t-34.5 82.5q0 47 35 82t82 35q49 0 84 -34.5t35 -82.5q0 -49 -34.5 -82.5t-84.5 -33.5z" />
    <glyph glyph-name="wdieresis" unicode="&#x1e85;" horiz-adv-x="1538" 
d="M285 -4l-68 690q-5 42 -12 68t-22 55.5t-43.5 50t-71.5 33.5l2 12q139 29 295 105l79 -817q146 164 237 332t91 290q0 75 -37 131h2l-2 4l232 60l82 -820q350 399 350 601q0 92 -72 161v13l193 45q18 -40 18 -90q0 -138 -162.5 -379.5t-451.5 -544.5h-41l-68 719
q-3 -25 -15.5 -61.5t-46.5 -102t-85.5 -141.5t-141 -185.5t-202.5 -228.5h-39zM739 1171q-46 0 -78 32.5t-32 78.5t32.5 79.5t77.5 33.5q44 0 77.5 -33.5t33.5 -79.5q0 -45 -33 -78t-78 -33zM1075 1171q-44 0 -76 32.5t-32 78.5t32 79.5t76 33.5q46 0 79.5 -33.5t33.5 -79.5
t-33.5 -78.5t-79.5 -32.5z" />
    <glyph glyph-name="uni1E8A" unicode="&#x1e8a;" horiz-adv-x="1452" 
d="M-74 0l2 12q164 49 328 234l416 469l-240 557q-15 36 -25 54t-31 45t-52.5 46.5t-77.5 34.5l2 12h598l-2 -12q-99 -28 -140.5 -57t-41.5 -70q0 -25 18 -68l174 -413l336 385q61 69 61 119q0 61 -98 104l2 12h438l-2 -12q-90 -27 -169 -84.5t-162 -148.5l-386 -424
l261 -602q32 -74 67.5 -112t120.5 -69l-2 -12h-598l2 12q92 27 135 58t43 73q0 26 -16 66l-193 457l-358 -422q-78 -94 -78 -144q0 -61 98 -88l-2 -12h-428zM981 1561q-49 0 -83 34t-34 82t34 82.5t83 34.5q47 0 82 -35t35 -82t-35 -81.5t-82 -34.5z" />
    <glyph glyph-name="uni1E8B" unicode="&#x1e8b;" horiz-adv-x="1034" 
d="M4 -20q-39 0 -84 10l82 203q86 -58 131 -58q57 0 112.5 59.5t188.5 251.5l-110 322q-44 128 -181 131l2 12q120 23 310 99l137 -430q184 259 259.5 339t156.5 80q48 0 90 -18l-107 -195q-57 33 -88 33q-58 0 -112.5 -55.5t-182.5 -228.5l129 -375q15 -45 43 -45
q21 0 52.5 31t101.5 124l12 -6q-88 -161 -123 -206q-67 -75 -139 -78q-61 0 -93 36t-54 105l-86 278q-66 -96 -101.5 -146.5t-79.5 -106.5t-70 -80.5t-60.5 -48t-65.5 -30.5t-70 -7zM657 1163q-50 0 -87.5 36t-37.5 85q0 46 38 82.5t87 36.5q47 0 85 -36.5t38 -82.5
q0 -49 -37.5 -85t-85.5 -36z" />
    <glyph glyph-name="Ygrave" unicode="&#x1ef2;" horiz-adv-x="1423" 
d="M326 0l4 12q138 46 172 84.5t59 155.5q1 5 2 8l82 389l-264 662q-21 51 -48.5 77.5t-109.5 63.5l2 12h580l-2 -12q-39 -16 -57.5 -24t-44 -21t-35 -20t-22 -20t-14 -23.5t-2 -27t5 -34.5t15.5 -43l205 -514l397 500q62 77 62 127q0 59 -103 100l2 12h404l-2 -12
q-94 -33 -157 -86.5t-134 -140.5l-451 -557l-88 -408q-16 -75 -16 -115q0 -52 30.5 -76.5t116.5 -56.5l-4 -12h-585zM1049 1571q-253 204 -398 327h223q117 -206 195 -327h-20z" />
    <glyph glyph-name="ygrave" unicode="&#x1ef3;" horiz-adv-x="1013" 
d="M-133 -430l-41 194l6 13q3 -5 23 -11.5t56.5 -12t76.5 -5.5q185 0 329 160q0 162 -28 433t-51 378q-18 79 -56 120t-112 56l2 14q115 21 317 101q37 -218 67 -488.5t38 -435.5q344 400 344 621q0 130 -121 245v13l194 45q41 -64 41 -150q0 -155 -132 -391.5t-343 -464.5
q-171 -185 -332 -298.5t-278 -135.5zM680 1135q-224 178 -399 327h223q124 -219 194 -327h-18z" />
    <glyph glyph-name="quoteleft" unicode="&#x2018;" horiz-adv-x="397" 
d="M326 1022q-44 0 -72.5 29t-28.5 82q0 91 81.5 193.5t201.5 160.5l4 -14q-61 -56 -102 -109t-70 -121h16q45 0 72 -27.5t27 -68.5q0 -51 -38 -88t-91 -37z" />
    <glyph glyph-name="quoteright" unicode="&#x2019;" horiz-adv-x="397" 
d="M219 1024l-4 14q61 56 102 109t70 121h-16q-45 0 -72 27.5t-27 68.5q0 51 38 88t91 37q44 0 72.5 -29t28.5 -82q0 -91 -81.5 -193.5t-201.5 -160.5z" />
    <glyph glyph-name="quotesinglbase" unicode="&#x201a;" horiz-adv-x="485" 
d="M47 -276l-8 16q112 125 145 262q-6 -2 -18 -2q-55 0 -92 34.5t-37 84.5q0 51 37 87t88 36q50 0 86.5 -39t36.5 -115q0 -94 -60 -197t-178 -167z" />
    <glyph glyph-name="quotedblleft" unicode="&#x201c;" horiz-adv-x="706" 
d="M635 1022q-43 0 -71.5 29t-28.5 82q0 91 81 193.5t201 160.5l4 -14q-61 -56 -102 -109t-70 -121h17q45 0 71.5 -27.5t26.5 -68.5q0 -51 -38 -88t-91 -37zM326 1022q-44 0 -72.5 29t-28.5 82q0 91 81.5 193.5t201.5 160.5l4 -14q-61 -56 -102 -109t-70 -121h16
q45 0 72 -27.5t27 -68.5q0 -51 -38 -88t-91 -37z" />
    <glyph glyph-name="quotedblright" unicode="&#x201d;" horiz-adv-x="706" 
d="M528 1024l-4 14q61 56 102 109t70 121h-16q-45 0 -71.5 27.5t-26.5 68.5q0 51 38 88t91 37q43 0 71.5 -29t28.5 -82q0 -91 -81.5 -193.5t-201.5 -160.5zM219 1024l-4 14q61 56 102 109t70 121h-16q-45 0 -72 27.5t-27 68.5q0 51 38 88t91 37q44 0 72.5 -29t28.5 -82
q0 -91 -81.5 -193.5t-201.5 -160.5z" />
    <glyph glyph-name="quotedblbase" unicode="&#x201e;" horiz-adv-x="813" 
d="M375 -276l-8 16q112 125 145 262q-6 -2 -18 -2q-55 0 -92 34.5t-37 84.5q0 51 36.5 87t87.5 36q50 0 86.5 -39t36.5 -115q0 -59 -22.5 -123t-78.5 -131t-136 -110zM47 -276l-8 16q112 125 145 262q-6 -2 -18 -2q-55 0 -92 34.5t-37 84.5q0 51 37 87t88 36q50 0 86.5 -39
t36.5 -115q0 -94 -60 -197t-178 -167z" />
    <glyph glyph-name="uni004A0301" horiz-adv-x="653" 
d="M-113 -270v22q96 50 155 121.5t83 181.5l246 1149q20 73 18.5 118t-32 71.5t-115.5 58.5l2 12h585l-2 -12q-38 -12 -65.5 -22t-50 -23t-36.5 -21t-27 -26t-19 -27.5t-14 -36t-11.5 -40.5t-11.5 -52l-215 -1014q-18 -86 -57 -157t-85.5 -117.5t-109.5 -85t-117 -60
t-121 -40.5zM453 1571q70 108 194 327h223q-164 -139 -397 -327h-20z" />
    <glyph glyph-name="i.loclTRK" horiz-adv-x="512" 
d="M203 -20q-57 0 -89 35.5t-32 95.5q0 19 10 69l111 522q23 109 -1.5 159t-101.5 71l4 14q199 17 357 64l-172 -811q-16 -80 16 -80q22 0 55 31t95 120l12 -6q-86 -161 -139.5 -222.5t-124.5 -61.5zM379 1169q-50 0 -87.5 36t-37.5 85q0 46 38 82.5t87 36.5q47 0 85 -36.5
t38 -82.5q0 -49 -37.5 -85t-85.5 -36z" />
    <glyph glyph-name="uni006A0301" horiz-adv-x="483" 
d="M-238 -426l-6 14q123 58 183 144t92 235l149 707q11 51 16 86t1 61.5t-9 41.5t-23.5 29t-32.5 21.5t-46 20.5l2 12q193 17 356 64l-198 -940q-42 -198 -162 -320t-322 -176zM291 1137q70 108 194 327h224q-145 -123 -398 -327h-20z" />
    </font>
</defs>
</svg>
