<svg width="94" height="13" viewBox="0 0 94 13" fill="none" xmlns="http://www.w3.org/2000/svg">
<g opacity="0.5" clip-path="url(#clip0_0_3)">
<path d="M0.0161663 6.4204L0.0404156 12.6768H3.19283C6.71709 12.6768 6.83025 12.6617 7.8568 12.1705C9.1582 11.5434 9.86142 10.4478 9.86142 9.04233C9.86142 7.99961 9.40878 7.07777 8.61663 6.51862L8.16396 6.20128L8.49538 5.84614C9.49768 4.7883 9.65936 3.24686 8.91571 1.96232C8.46304 1.19916 7.33949 0.451114 6.32102 0.254655C6.05427 0.201763 4.78522 0.171539 2.94225 0.171539H0L0.0161663 6.4204ZM6.06236 2.64236C6.36952 2.82371 6.6605 3.23174 6.74943 3.62465C6.87068 4.19136 6.34526 4.99986 5.75519 5.15853C5.58545 5.1963 4.82563 5.2341 4.06582 5.2341H2.66744V3.82866V2.42324L4.22748 2.45347C5.65821 2.47613 5.80369 2.49124 6.06236 2.64236ZM6.28059 7.50847C6.8141 7.69736 7.27483 8.33963 7.27483 8.89878C7.27483 9.45792 6.8141 10.1002 6.28059 10.2891C6.1432 10.342 5.35913 10.3722 4.35681 10.3722H2.66744V8.89878V7.42535H4.35681C5.35913 7.42535 6.1432 7.45556 6.28059 7.50847Z" fill="white"/>
<path d="M11.9954 0.254644C11.7125 0.330203 11.3326 0.655114 11.2275 0.91202C10.8476 1.83386 11.9307 2.7708 12.8441 2.325C13.4504 2.03031 13.6929 1.45606 13.4342 0.91202C13.1755 0.360428 12.5855 0.095966 11.9954 0.254644Z" fill="white"/>
<path d="M41.9515 6.4431V12.7146L43.2691 12.6995L44.5786 12.6768L44.6029 10.2816L44.6191 7.87873L47.1895 7.86364L49.7517 7.84096L49.7759 6.6471L49.8002 5.4608H47.2055H44.6191V3.98737V2.51394H47.2864H49.9539V1.34276V0.17157H45.9526H41.9515V6.4431Z" fill="white"/>
<path d="M80.2657 2.44592V4.72785L79.8938 4.40292C79.4493 4.02513 78.6976 3.67755 78.0427 3.5642C77.4364 3.45842 76.3128 3.51887 75.7795 3.69266C74.389 4.14603 73.2657 5.24164 72.7725 6.6244C72.5786 7.1609 72.5544 7.34978 72.5544 8.21873C72.5623 9.07257 72.5865 9.27657 72.7725 9.8055C73.1364 10.8256 73.9528 11.8003 74.8902 12.3292C76.4745 13.2284 78.6489 13.0848 79.8856 12.0119L80.2575 11.687L80.2817 12.1857L80.3059 12.6768H81.5186H82.7311L82.7553 6.4204L82.7712 0.171539H81.5186H80.2657V2.44592ZM78.6247 5.84614C79.2634 6.07282 79.8614 6.6244 80.104 7.23644C80.2495 7.61426 80.2737 7.80314 80.2495 8.33207C80.1928 9.38235 79.7483 10.0549 78.8348 10.4855C78.4225 10.682 78.2853 10.7122 77.6386 10.7122C76.9999 10.7122 76.8464 10.682 76.4503 10.5007C75.9492 10.2664 75.5209 9.86595 75.2458 9.37482C74.9953 8.92146 74.9306 7.83338 75.1328 7.27424C75.3267 6.72263 75.9572 6.11059 76.5879 5.87635C77.2263 5.63458 77.978 5.62702 78.6247 5.84614Z" fill="white"/>
<path d="M88.5266 0.322721C87.4839 0.91965 87.9204 2.40064 89.1246 2.37797C89.8117 2.37041 90.2887 1.92461 90.2887 1.29745C90.2887 0.677855 89.7633 0.1716 89.1166 0.1716C88.9389 0.1716 88.6801 0.239605 88.5266 0.322721Z" fill="white"/>
<path d="M18.9388 3.57934C17.1929 3.85138 15.7379 5.07545 15.1802 6.74532C15.0266 7.2138 14.9942 7.47072 15.0023 8.25655C15.0023 9.08014 15.0266 9.27661 15.2206 9.79043C15.7864 11.3167 17.007 12.367 18.6721 12.7599C19.0277 12.8506 19.537 12.8884 20.2483 12.8884C21.1698 12.8884 21.3799 12.8657 21.9538 12.692C22.3095 12.5786 22.8187 12.3595 23.0855 12.2008C23.522 11.9363 24.3303 11.1883 24.3303 11.0523C24.3303 10.9918 22.5035 9.99443 22.3903 9.99443C22.3661 9.99443 22.2529 10.0851 22.1397 10.1909C21.7518 10.5763 21.2021 10.7727 20.4019 10.8105C19.5531 10.8483 18.8984 10.7047 18.4215 10.3873C18.1063 10.1758 17.6779 9.63175 17.5808 9.3295L17.5323 9.16327H21.1213C24.3222 9.16327 24.7264 9.14815 24.7668 9.04237C24.791 8.97436 24.8153 8.58901 24.8153 8.18854C24.8153 7.30449 24.6132 6.49598 24.2333 5.81594C23.8615 5.16611 22.8996 4.26694 22.2287 3.96472C21.3153 3.54157 20.0866 3.39799 18.9388 3.57934ZM21.0162 5.74793C21.6709 6.01238 22.1155 6.48843 22.3418 7.17603L22.3984 7.34982H19.9735C17.2494 7.34982 17.395 7.38759 17.7102 6.79823C18.0416 6.17862 18.6236 5.75549 19.343 5.61191C19.828 5.51369 20.5959 5.5817 21.0162 5.74793Z" fill="white"/>
<path d="M30.5786 3.57173C30.0128 3.68508 29.5358 3.91932 29.1073 4.28955L28.7032 4.64469L28.679 4.19889L28.6548 3.76064L27.4261 3.73797L26.1894 3.71531V8.21871V12.7221L27.4261 12.6994L28.6548 12.6768L28.6952 9.80548C28.7357 7.03241 28.7436 6.92663 28.9134 6.62438C29.1639 6.18613 29.5925 5.86123 30.1258 5.71765C31.0473 5.46831 31.9687 5.75545 32.389 6.42793L32.6154 6.78305L32.6559 9.72991L32.6963 12.6768H33.9088H35.1212V9.57879C35.1212 6.85106 35.105 6.42037 34.9757 5.99722C34.6685 4.9545 34.0622 4.25178 33.0844 3.82109C32.5428 3.57173 32.3973 3.54906 31.7022 3.5264C31.2657 3.51128 30.7645 3.53396 30.5786 3.57173Z" fill="white"/>
<path d="M54.9089 3.5718C53.4296 3.82113 52.007 4.87143 51.3603 6.17863C50.9805 6.9569 50.8996 7.41782 50.948 8.45298C50.9884 9.49573 51.1582 10.0322 51.6676 10.7652C52.3302 11.7172 53.3567 12.4426 54.5208 12.7599C55.1917 12.9413 56.6872 12.9413 57.3498 12.7599C59.1039 12.2764 60.4456 10.9616 60.8742 9.31438C61.0197 8.74011 61.0034 7.56893 60.8337 6.97202C60.4134 5.50612 59.1685 4.25184 57.6408 3.75312C56.9699 3.534 55.6524 3.4509 54.9089 3.5718ZM56.9457 5.92171C57.851 6.23908 58.4412 7.04 58.5059 8.03742C58.5705 9.11037 58.0773 9.95665 57.1154 10.4327C56.7518 10.614 56.6143 10.6367 55.9354 10.6367C55.2563 10.6367 55.119 10.614 54.7634 10.4327C53.9066 10.0095 53.4296 9.30682 53.365 8.35476C53.2841 7.21379 53.9388 6.23152 55.0219 5.86882C55.4989 5.71015 56.4204 5.7328 56.9457 5.92171Z" fill="white"/>
<path d="M66.6859 3.602C66.1121 3.71534 65.4572 4.05537 65.1016 4.41807L64.8268 4.70517V4.21404V3.7229H63.6143H62.4018V8.21874V12.7146H63.6143H64.8268V10.0473C64.8268 7.11557 64.8592 6.88888 65.3037 6.31462C65.6514 5.86882 66.1685 5.65725 66.9285 5.6497C67.8175 5.6497 68.3511 5.95192 68.6826 6.63197C68.8119 6.904 68.8281 7.23647 68.8523 9.82062L68.8765 12.7146H70.089H71.2935V9.66951C71.2935 6.39019 71.253 5.9746 70.8649 5.26434C70.1132 3.88913 68.4724 3.23174 66.6859 3.602Z" fill="white"/>
<path d="M88.3082 3.54156C87.2333 3.70023 86.3765 4.11582 85.6005 4.84876C84.6062 5.78569 84.1454 6.84356 84.1454 8.17341C84.1537 9.57883 84.5982 10.6443 85.5521 11.5434C86.6028 12.5257 87.6294 12.8884 89.3997 12.8884C90.3616 12.8884 90.5635 12.8657 91.1375 12.6919C91.9456 12.4426 92.6814 11.9968 93.1664 11.4603C93.3765 11.2336 93.53 11.0372 93.514 11.022C93.4574 10.9692 91.6387 9.99442 91.6062 9.99442C91.582 9.99442 91.4203 10.1153 91.2343 10.2589C90.7576 10.6443 90.1674 10.8256 89.4076 10.8256C88.6479 10.8256 87.9366 10.6367 87.5001 10.3344C87.2171 10.1304 86.7321 9.45795 86.7321 9.25393C86.7321 9.18592 87.5081 9.16326 90.3291 9.16326H93.9181L93.9748 8.89125C94.007 8.74011 94.007 8.29431 93.9827 7.89384C93.9343 6.9191 93.6513 6.11062 93.1259 5.4079C92.1803 4.15359 91.0566 3.58689 89.3997 3.534C88.9307 3.51888 88.4458 3.52644 88.3082 3.54156ZM89.8362 5.6497C90.6685 5.8537 91.1697 6.28441 91.4607 7.04L91.574 7.34981H89.1166H86.6595L86.7805 7.01735C86.9343 6.5942 87.4597 6.03505 87.88 5.83105C88.4862 5.53636 89.1329 5.48347 89.8362 5.6497Z" fill="white"/>
<path d="M11.1547 8.21873V12.7146H12.3672H13.5797V8.21873V3.7229H12.3672H11.1547V8.21873Z" fill="white"/>
<path d="M38.2495 7.13059C37.514 7.27417 37.1096 8.16578 37.5057 8.77025C38.0069 9.53342 39.1872 9.48809 39.5992 8.67959C39.8094 8.28668 39.8094 8.15822 39.6154 7.75019C39.3731 7.26661 38.8315 7.01725 38.2495 7.13059Z" fill="white"/>
</g>
<defs>
<clipPath id="clip0_0_3">
<rect width="94" height="13" fill="white"/>
</clipPath>
</defs>
</svg>
