<svg xmlns="http://www.w3.org/2000/svg">
<defs>
<font id="TTForsTrial-Medium" horiz-adv-x="555" >
  <font-face 
    font-family="TT Fors Trial Medium"
    font-weight="500"
    font-stretch="normal"
    units-per-em="1000"
    panose-1="2 11 0 3 3 0 1 2 0 0"
    ascent="800"
    descent="-200"
    x-height="500"
    cap-height="700"
    bbox="-376 -256 1438 945"
    underline-thickness="60"
    underline-position="-305"
    unicode-range="U+000D-FB04"
  />
<missing-glyph horiz-adv-x="900" 
d="M100 0v284h45v-139h33v139h50v31h-128v126l19 -61h23l34 106l33 -106h23l54 170h-32l-34 -110l-35 110h-19l-35 -110l-31 103v157h700v-150h-110v-170h110v-91q-6 13 -19.5 20t-30.5 7q-27 0 -43.5 -14.5t-16.5 -34.5q0 -22 14.5 -32.5t39.5 -17.5q17 -5 25.5 -9.5
t8.5 -13.5q0 -21 -28 -21q-14 0 -21 7t-7 18h-33q0 -24 17 -39.5t44 -15.5q17 0 30.5 6.5t19.5 13.5v-163h-700zM311 380h33v62h24l35 -62h37l-40 67q36 17 36 50q0 22 -16 37.5t-41 15.5h-68v-170zM469 550v-170h33v170h-33zM580 519v-139h32v139h50v31h-132v-31h50z
M344 473v46h35q10 0 17 -6.5t7 -16.5q0 -12 -7.5 -17.5t-16.5 -5.5h-35zM800 483h-78v36h78v-36zM800 411h-78v41h78v-41zM387.5 167.5q22.5 24.5 22.5 61.5t-23 62t-59 25t-59 -25t-23 -62t22.5 -61.5t59.5 -24.5t59.5 24.5zM633 162q19 19 19 47v106h-32v-106
q0 -15 -9.5 -25t-25.5 -10q-17 0 -26.5 10.5t-9.5 24.5v106h-32v-106q0 -28 19.5 -47t48.5 -19t48 19zM800 224q-15 14 -46 22q-16 5 -23 9t-7 12q0 9 7.5 14.5t18.5 5.5q10 0 18 -7t8 -18h24v-38zM291.5 190q-14.5 16 -14.5 39q0 25 14 40.5t37 15.5q24 0 37.5 -15.5
t13.5 -40.5q0 -23 -14.5 -39t-36.5 -16t-36.5 16z" />
    <glyph glyph-name="f_f_l.liga.ss04" unicode="ff&#xe02c;" horiz-adv-x="971" 
d="M952 97v-97h-63q-76 0 -120 44t-44 117v472h-126q-37 0 -58 -21t-21 -58v-54h123v-96h-123v-404h-104v404h-205v-404h-104v404h-82v96h82v69q0 73 44.5 117t119.5 44h63v-97h-44q-37 0 -58 -21t-21 -58v-54h205v69q0 73 44.5 117t119.5 44h249v-554q0 -37 21 -58t58 -21
h44z" />
    <glyph glyph-name="f_l.liga.ss04" unicode="f&#xe02c;" horiz-adv-x="662" 
d="M643 97v-97h-63q-76 0 -120 44t-44 117v472h-126q-37 0 -58 -21t-21 -58v-54h123v-96h-123v-404h-104v404h-82v96h82v69q0 73 44.5 117t119.5 44h249v-554q0 -37 21 -58t58 -21h44z" />
    <glyph glyph-name="f_f_i.liga.ss07" unicode="ff&#xe117;" horiz-adv-x="900" 
d="M520 500h309v-500h-104v404h-205v-404h-104v404h-205v-404h-104v404h-82v96h82v69q0 73 44.5 117t119.5 44h63v-97h-44q-37 0 -58 -21t-21 -58v-54h205v69q0 73 44.5 117t119.5 44h63v-97h-44q-37 0 -58 -21t-21 -58v-54zM733.5 599.5q-18.5 18.5 -18.5 43.5
q0 24 18.5 42t43.5 18t42.5 -18t17.5 -42q0 -26 -17.5 -44t-42.5 -18t-43.5 18.5z" />
    <glyph glyph-name="fi.liga.ss07" unicode="f&#xe117;" horiz-adv-x="591" 
d="M211 500h309v-500h-104v404h-205v-404h-104v404h-82v96h82v69q0 73 44.5 117t119.5 44h63v-97h-44q-37 0 -58 -21t-21 -58v-54zM424.5 599.5q-18.5 18.5 -18.5 43.5q0 24 18.5 42t43.5 18t42.5 -18t17.5 -42q0 -26 -17.5 -44t-42.5 -18t-43.5 18.5z" />
    <glyph glyph-name="f_f.liga" unicode="ff" horiz-adv-x="663" 
d="M599 633q-37 0 -58 -21t-21 -58v-54h123v-96h-123v-404h-104v404h-205v-404h-104v404h-82v96h82v69q0 73 44.5 117t119.5 44h63v-97h-44q-37 0 -58 -21t-21 -58v-54h205v69q0 73 44.5 117t119.5 44h63v-97h-44z" />
    <glyph glyph-name="fi.liga" unicode="fi" horiz-adv-x="591" 
d="M211 500h309v-500h-104v404h-205v-404h-104v404h-82v96h82v69q0 73 44.5 117t119.5 44h63v-97h-44q-37 0 -58 -21t-21 -58v-54zM411 590v105h113v-105h-113z" />
    <glyph glyph-name="f_l.liga" unicode="fl" horiz-adv-x="596" 
d="M520 730v-730h-104v633h-126q-37 0 -58 -21t-21 -58v-54h123v-96h-123v-404h-104v404h-82v96h82v69q0 73 44.5 117t119.5 44h249z" />
    <glyph glyph-name="f_f_i.liga" unicode="ffi" horiz-adv-x="900" 
d="M520 500h309v-500h-104v404h-205v-404h-104v404h-205v-404h-104v404h-82v96h82v69q0 73 44.5 117t119.5 44h63v-97h-44q-37 0 -58 -21t-21 -58v-54h205v69q0 73 44.5 117t119.5 44h63v-97h-44q-37 0 -58 -21t-21 -58v-54zM720 590v105h113v-105h-113z" />
    <glyph glyph-name="f_f_l.liga" unicode="ffl" horiz-adv-x="905" 
d="M829 730v-730h-104v633h-126q-37 0 -58 -21t-21 -58v-54h123v-96h-123v-404h-104v404h-205v-404h-104v404h-82v96h82v69q0 73 44.5 117t119.5 44h63v-97h-44q-37 0 -58 -21t-21 -58v-54h205v69q0 73 44.5 117t119.5 44h249z" />
    <glyph glyph-name=".notdef" horiz-adv-x="900" 
d="M100 0v284h45v-139h33v139h50v31h-128v126l19 -61h23l34 106l33 -106h23l54 170h-32l-34 -110l-35 110h-19l-35 -110l-31 103v157h700v-150h-110v-170h110v-91q-6 13 -19.5 20t-30.5 7q-27 0 -43.5 -14.5t-16.5 -34.5q0 -22 14.5 -32.5t39.5 -17.5q17 -5 25.5 -9.5
t8.5 -13.5q0 -21 -28 -21q-14 0 -21 7t-7 18h-33q0 -24 17 -39.5t44 -15.5q17 0 30.5 6.5t19.5 13.5v-163h-700zM311 380h33v62h24l35 -62h37l-40 67q36 17 36 50q0 22 -16 37.5t-41 15.5h-68v-170zM469 550v-170h33v170h-33zM580 519v-139h32v139h50v31h-132v-31h50z
M344 473v46h35q10 0 17 -6.5t7 -16.5q0 -12 -7.5 -17.5t-16.5 -5.5h-35zM800 483h-78v36h78v-36zM800 411h-78v41h78v-41zM387.5 167.5q22.5 24.5 22.5 61.5t-23 62t-59 25t-59 -25t-23 -62t22.5 -61.5t59.5 -24.5t59.5 24.5zM633 162q19 19 19 47v106h-32v-106
q0 -15 -9.5 -25t-25.5 -10q-17 0 -26.5 10.5t-9.5 24.5v106h-32v-106q0 -28 19.5 -47t48.5 -19t48 19zM800 224q-15 14 -46 22q-16 5 -23 9t-7 12q0 9 7.5 14.5t18.5 5.5q10 0 18 -7t8 -18h24v-38zM291.5 190q-14.5 16 -14.5 39q0 25 14 40.5t37 15.5q24 0 37.5 -15.5
t13.5 -40.5q0 -23 -14.5 -39t-36.5 -16t-36.5 16z" />
    <glyph glyph-name=".null" horiz-adv-x="600" 
 />
    <glyph glyph-name="nonmarkingreturn" unicode="&#xd;" horiz-adv-x="600" 
 />
    <glyph glyph-name="space" unicode=" " horiz-adv-x="288" 
 />
    <glyph glyph-name="exclam" unicode="!" horiz-adv-x="305" 
d="M200 197h-94l-6 503h105zM206 0h-107v114h107v-114z" />
    <glyph glyph-name="quotedbl" unicode="&#x22;" horiz-adv-x="371" 
d="M139 471h-73l-11 229h94zM306 471h-73l-11 229h94z" />
    <glyph glyph-name="numbersign" unicode="#" horiz-adv-x="687" 
d="M679 530l-20 -79h-123l-53 -201h124l-21 -79h-124l-45 -171h-84l45 171h-163l-45 -171h-84l45 171h-123l20 79h124l53 201h-125l21 79h124l45 170h84l-45 -170h163l45 170h84l-45 -170h123zM236 250h163l53 201h-163z" />
    <glyph glyph-name="dollar" unicode="$" horiz-adv-x="579" 
d="M480.5 56.5q-53.5 -53.5 -141.5 -64.5v-97h-97v98q-90 14 -142.5 71.5t-54.5 144.5h112q2 -54 37.5 -87t100.5 -33q59 0 92.5 26t33.5 71q0 35 -19.5 57t-48.5 35.5t-81 30.5q-68 23 -109 43.5t-70.5 61.5t-29.5 108q0 70 49 120.5t130 64.5v98h97v-98q79 -13 130 -67
t53 -134h-111q-2 46 -34.5 75.5t-86.5 29.5q-50 0 -82 -24t-32 -67q0 -33 19 -55t48.5 -35t79.5 -29q68 -23 109.5 -44t71.5 -63t30 -110q0 -74 -53.5 -127.5z" />
    <glyph glyph-name="percent" unicode="%" horiz-adv-x="857" 
d="M129.5 384.5q-41.5 23.5 -65.5 63.5t-24 88t24 88t65.5 63.5t90.5 23.5t90 -23.5t65 -63.5t24 -88t-24 -88t-65 -63.5t-90 -23.5t-90.5 23.5zM238 0h-99l481 700h98zM288 465q27 28 27 71t-27 71t-68 28t-68.5 -28t-27.5 -71t27.5 -71t68.5 -28t68 28zM547.5 12.5
q-41.5 23.5 -65.5 63.5t-24 88t24 88t65.5 63.5t90.5 23.5t90 -23.5t65 -63.5t24 -88t-24 -88t-65 -63.5t-90 -23.5t-90.5 23.5zM706 93q27 28 27 71t-27 71t-68 28t-68.5 -28t-27.5 -71t27.5 -71t68.5 -28t68 28z" />
    <glyph glyph-name="ampersand" unicode="&#x26;" horiz-adv-x="656" 
d="M653 311l-136 -161l136 -150h-126l-72 80q-47 -47 -96 -69t-111 -22t-108 23t-70.5 63t-24.5 90q0 48 22 90.5t64 76.5l57 47l-36 40q-28 32 -43 61.5t-15 67.5q0 45 21.5 82.5t61 59t92.5 21.5q52 0 91.5 -20.5t61 -56t21.5 -78.5t-19.5 -78t-64.5 -73l-41 -34l138 -153
l78 93h119zM258 437l26 21q33 27 49 48t16 47q0 30 -22.5 51.5t-58.5 21.5q-35 0 -57.5 -23t-22.5 -55q0 -23 11 -41t36 -45zM323 93.5q32 14.5 71 54.5l-147 165l-49 -41q-28 -23 -40.5 -46.5t-12.5 -52.5q0 -39 27.5 -66.5t79.5 -27.5q39 0 71 14.5z" />
    <glyph glyph-name="quotesingle" unicode="'" horiz-adv-x="204" 
d="M139 471h-73l-11 229h94z" />
    <glyph glyph-name="parenleft" unicode="(" horiz-adv-x="291" 
d="M192 -200q-49 72 -88 198.5t-39 266.5t39 266.5t88 198.5h99q-49 -74 -88 -200.5t-39 -264.5t39 -264.5t88 -200.5h-99z" />
    <glyph glyph-name="parenright" unicode=")" horiz-adv-x="291" 
d="M0 -200q49 74 88 200.5t39 264.5t-39 264.5t-88 200.5h99q49 -72 88 -198.5t39 -266.5t-39 -266.5t-88 -198.5h-99z" />
    <glyph glyph-name="asterisk" unicode="*" horiz-adv-x="456" 
d="M399 607l23 -84l-138 -27l95 -113l-72 -50l-79 127l-79 -127l-72 50l95 113l-138 27l23 84l137 -49l-9 142h86l-9 -142z" />
    <glyph glyph-name="plus" unicode="+" 
d="M326 388h197v-96h-197v-197h-96v197h-197v96h197v197h96v-197z" />
    <glyph glyph-name="comma" unicode="," horiz-adv-x="255" 
d="M114 -133h-84l57 249h108z" />
    <glyph glyph-name="hyphen" unicode="-" horiz-adv-x="372" 
d="M325 213h-277v96h277v-96z" />
    <glyph glyph-name="period" unicode="." horiz-adv-x="250" 
d="M179 0h-107v116h107v-116z" />
    <glyph glyph-name="slash" unicode="/" horiz-adv-x="386" 
d="M102 -200h-102l284 930h102z" />
    <glyph glyph-name="zero" unicode="0" horiz-adv-x="640" 
d="M180.5 33q-60.5 44 -94 125.5t-33.5 191.5t33.5 191.5t94 125.5t139.5 44t139.5 -44t94 -125.5t33.5 -191.5t-33.5 -191.5t-94 -125.5t-139.5 -44t-139.5 44zM400 123q35 31 54.5 89t19.5 138t-19.5 138.5t-54.5 89.5t-80 31t-80 -31t-54.5 -89.5t-19.5 -138.5t19.5 -138
t54.5 -89t80 -31t80 31z" />
    <glyph glyph-name="one" unicode="1" horiz-adv-x="383" 
d="M20 619l178 81h85v-700h-110v582l-153 -70v107z" />
    <glyph glyph-name="two" unicode="2" horiz-adv-x="549" 
d="M210 108h301v-108h-478v70l268 287q46 48 62.5 81t16.5 64q0 47 -32 77t-84 30q-53 0 -86.5 -31.5t-35.5 -81.5h-112q3 65 34.5 113.5t83.5 75t116 26.5t116 -25t82.5 -72t30.5 -110q0 -50 -23 -96.5t-81 -107.5z" />
    <glyph glyph-name="three" unicode="3" horiz-adv-x="567" 
d="M487.5 299q32.5 -45 32.5 -104q0 -57 -30 -104t-84.5 -74.5t-124.5 -27.5q-68 0 -122.5 27.5t-86.5 78t-34 116.5h111q3 -55 38.5 -88.5t93.5 -33.5q54 0 90 31.5t36 81.5q0 49 -35.5 79t-92.5 30h-59v98h57q49 0 79.5 28.5t30.5 71.5q0 45 -31 73.5t-78 28.5
q-52 0 -82.5 -30t-32.5 -77h-112q2 62 33 109t82 72.5t112 25.5q62 0 113 -25.5t80 -70t29 -99.5q0 -52 -27 -90t-73 -60q55 -22 87.5 -67z" />
    <glyph glyph-name="four" unicode="4" horiz-adv-x="575" 
d="M449 249h104v-98h-104v-151h-106v151h-325v70l348 479h83v-451zM343 512l-189 -263h189v263z" />
    <glyph glyph-name="five" unicode="5" horiz-adv-x="577" 
d="M411 435q56 -31 88 -85.5t32 -121.5t-31 -121.5t-88 -86t-131 -31.5q-64 0 -117 25t-86.5 69.5t-39.5 100.5h113q9 -40 44 -67.5t83 -27.5q64 0 102 40t38 99q0 58 -38 98t-100 40q-67 0 -114 -45l-85 36l85 343h340v-102h-258l-36 -146q36 14 73 14q70 0 126 -31z" />
    <glyph glyph-name="six" unicode="6" horiz-adv-x="573" 
d="M420.5 432q53.5 -31 85.5 -85t32 -119q0 -66 -33 -120.5t-91 -86.5t-128 -32t-127.5 32t-90.5 86.5t-33 120.5q0 41 14 80.5t49 93.5l193 298h126l-161 -243q22 6 49 6q62 0 115.5 -31zM356.5 107.5q31.5 18.5 50 50.5t18.5 70q0 59 -40 99.5t-99 40.5q-38 0 -70 -18.5
t-50 -50.5t-18 -71q0 -38 18 -70t50 -50.5t70 -18.5q39 0 70.5 18.5z" />
    <glyph glyph-name="seven" unicode="7" horiz-adv-x="511" 
d="M15 598v102h468v-67l-297 -633h-122l282 598h-331z" />
    <glyph glyph-name="eight" unicode="8" horiz-adv-x="578" 
d="M500 308.5q33 -48.5 33 -108.5q0 -57 -32 -105.5t-87.5 -77t-124.5 -28.5t-124.5 28.5t-87.5 77t-32 105.5q0 60 33 109t86 73q-41 23 -65 61t-24 85q0 53 28 94.5t77 65t109 23.5t109 -23.5t77 -65t28 -94.5q0 -47 -24 -85t-65 -61q53 -25 86 -73.5zM213 586.5
q-30 -27.5 -30 -67.5t30 -67.5t76 -27.5q45 0 75 27.5t30 67.5t-30 67.5t-75 27.5q-46 0 -76 -27.5zM383 123q37 34 37 86q0 53 -36.5 87t-94.5 34t-94.5 -34t-36.5 -87q0 -52 37 -86t94 -34t94 34z" />
    <glyph glyph-name="nine" unicode="9" horiz-adv-x="573" 
d="M414.5 679.5q57.5 -31.5 90.5 -86t33 -120.5q0 -41 -14 -81t-49 -93l-193 -299h-126l161 243q-22 -6 -49 -6q-62 0 -115.5 31t-85.5 85.5t-32 119.5q0 66 33 120.5t91 86t128 31.5t127.5 -31.5zM357 350.5q32 18.5 50 50.5t18 71q0 38 -18 70t-50 50.5t-70 18.5
q-39 0 -70.5 -18.5t-50 -50.5t-18.5 -70q0 -59 40 -99.5t99 -40.5q38 0 70 18.5z" />
    <glyph glyph-name="colon" unicode=":" horiz-adv-x="250" 
d="M179 379h-107v116h107v-116zM179 0h-107v116h107v-116z" />
    <glyph glyph-name="semicolon" unicode=";" horiz-adv-x="265" 
d="M194 379h-107v116h107v-116zM114 -133h-84l57 249h108z" />
    <glyph glyph-name="less" unicode="&#x3c;" 
d="M37 391l471 197v-106l-360 -141l360 -141v-105l-471 196v100z" />
    <glyph glyph-name="equal" unicode="=" 
d="M518 396h-480v93h480v-93zM518 193h-480v94h480v-94z" />
    <glyph glyph-name="greater" unicode="&#x3e;" 
d="M48 482v106l471 -197v-100l-471 -196v105l359 141z" />
    <glyph glyph-name="question" unicode="?" horiz-adv-x="521" 
d="M198 232q0 45 13.5 77t33 52t50.5 44q35 28 52.5 50.5t17.5 56.5q0 47 -32 76.5t-81 29.5q-52 0 -84.5 -32.5t-33.5 -79.5h-104q1 61 32 107.5t82 72t110 25.5q62 0 112.5 -25t80 -69.5t29.5 -100.5q0 -40 -13 -69t-32.5 -48t-50.5 -43q-29 -23 -45 -39t-27 -39t-11 -53
v-28h-99v35zM301 0h-107v114h107v-114z" />
    <glyph glyph-name="at" unicode="@" horiz-adv-x="890" 
d="M657.5 602.5q90.5 -48.5 141.5 -133.5t51 -189q0 -64 -20 -113t-56 -76t-83 -27q-78 0 -119 70q-23 -31 -60 -50.5t-83 -19.5q-49 0 -92 25t-69 70t-26 101t26 101t69 70t92 25q38 0 69.5 -14.5t50.5 -37.5v41h79v-226q0 -36 16 -57.5t48 -21.5q38 0 58 35t20 104
q0 87 -40 154.5t-112 105t-165 37.5q-96 0 -170.5 -40t-116 -111.5t-41.5 -164.5q0 -83 42.5 -151t115.5 -106.5t160 -38.5q88 0 149 23v-77q-56 -21 -148 -21q-110 0 -201.5 49t-144.5 134t-53 188q0 112 52 201t145 139.5t211 50.5q114 0 204.5 -48.5zM520 175.5
q32 33.5 32 84.5t-32 85t-82 34q-49 0 -81 -34t-32 -85t32 -84.5t81 -33.5q50 0 82 33.5z" />
    <glyph glyph-name="A" unicode="A" horiz-adv-x="687" 
d="M672 0h-118l-64 168h-295l-64 -168h-116l279 700h99zM453 271l-110 287l-110 -287h220z" />
    <glyph glyph-name="B" unicode="B" horiz-adv-x="600" 
d="M521.5 311.5q33.5 -44.5 33.5 -105.5q0 -59 -29.5 -106t-85.5 -73.5t-133 -26.5h-217v700h204q108 0 169.5 -51t61.5 -135q0 -45 -25.5 -82.5t-67.5 -56.5q56 -19 89.5 -63.5zM200 603v-193h94q56 0 87.5 27t31.5 70q0 42 -32 69t-87 27h-94zM309 98q61 0 97 31.5
t36 78.5t-36 78.5t-97 31.5h-109v-220h109z" />
    <glyph glyph-name="C" unicode="C" horiz-adv-x="786" 
d="M231 36.5q-83 47.5 -132 130t-49 183.5t49 184t132 130t181 47q118 0 206.5 -65t127.5 -176h-115q-31 64 -88.5 101.5t-130.5 37.5q-69 0 -126 -34.5t-90 -93.5t-33 -131t33 -131t90 -93t126 -34q75 0 132.5 37.5t88.5 100.5h115q-39 -111 -128 -176t-208 -65
q-98 0 -181 47.5z" />
    <glyph glyph-name="D" unicode="D" horiz-adv-x="734" 
d="M90 0v700h206q118 0 205.5 -43.5t135 -123t47.5 -183.5t-47.5 -183.5t-135 -123t-205.5 -43.5h-206zM296 103q85 0 147 30.5t95 86.5t33 130t-33 130t-95 87t-147 31h-96v-495h96z" />
    <glyph glyph-name="E" unicode="E" horiz-adv-x="556" 
d="M200 310v-207h296v-103h-406v700h396v-102h-286v-185h276v-103h-276z" />
    <glyph glyph-name="F" unicode="F" horiz-adv-x="496" 
d="M448 700v-102h-248v-195h238v-103h-238v-300h-110v700h358z" />
    <glyph glyph-name="G" unicode="G" horiz-adv-x="807" 
d="M393 379h374v-35q0 -99 -44.5 -180.5t-125 -128t-183.5 -46.5q-99 0 -182.5 47.5t-132.5 130t-49 183.5t49 184t132.5 130t182.5 47q122 0 212.5 -64t129.5 -172h-116q-33 62 -90.5 98t-135.5 36q-69 0 -126.5 -34.5t-91 -93.5t-33.5 -131t33.5 -131t91 -93t126.5 -34
q94 0 157.5 50t79.5 135h-258v102z" />
    <glyph glyph-name="H" unicode="H" horiz-adv-x="733" 
d="M533 413v287h110v-700h-110v310h-333v-310h-110v700h110v-287h333z" />
    <glyph glyph-name="I" unicode="I" horiz-adv-x="300" 
d="M205 0h-110v700h110v-700z" />
    <glyph glyph-name="J" unicode="J" horiz-adv-x="530" 
d="M110 18.5q-51 29.5 -79 80.5t-28 114h110q0 -55 31.5 -88t82.5 -33q52 0 82.5 34.5t30.5 95.5v478h110v-479q0 -67 -28 -120t-78.5 -82.5t-116.5 -29.5t-117 29.5z" />
    <glyph glyph-name="K" unicode="K" horiz-adv-x="631" 
d="M311 362l315 -362h-141l-285 331v-331h-110v700h110v-317l271 317h132z" />
    <glyph glyph-name="L" unicode="L" horiz-adv-x="497" 
d="M467 0h-377v700h110v-597h267v-103z" />
    <glyph glyph-name="M" unicode="M" horiz-adv-x="932" 
d="M781 700l91 -700h-111l-58 470l-209 -470h-56l-211 474l-58 -474h-109l91 700h86l230 -518l230 518h84z" />
    <glyph glyph-name="N" unicode="N" horiz-adv-x="799" 
d="M603 193v507h106v-700h-72l-440 506v-506h-107v700h73z" />
    <glyph glyph-name="O" unicode="O" horiz-adv-x="831" 
d="M232 36.5q-84 47.5 -133 130t-49 183.5t49 183.5t133 130t184 47.5t183.5 -47.5t132.5 -130t49 -183.5t-49 -183.5t-132.5 -130t-183.5 -47.5t-184 47.5zM543.5 126q57.5 34 91 93t33.5 131t-33.5 131.5t-91 93.5t-127.5 34t-128 -34t-91.5 -93.5t-33.5 -131.5t33.5 -131
t91.5 -93t128 -34t127.5 34z" />
    <glyph glyph-name="P" unicode="P" horiz-adv-x="586" 
d="M310 700q74 0 129 -27.5t85 -76t30 -109.5t-30 -109.5t-85 -76t-129 -27.5h-110v-274h-110v700h220zM309 377q62 0 97 30.5t35 79.5t-35 80t-97 31h-109v-221h109z" />
    <glyph glyph-name="Q" unicode="Q" horiz-adv-x="831" 
d="M747.5 195.5q-33.5 -71.5 -93.5 -121.5l127 -149h-135l-81 94q-71 -30 -149 -30q-100 0 -184 47.5t-133 130t-49 183.5t49 183.5t133 130t184 47.5t183.5 -47.5t132.5 -130t49 -183.5q0 -83 -33.5 -154.5zM493 104l-142 166h135l98 -115q40 36 62 86.5t22 108.5
q0 72 -33.5 131.5t-91 93.5t-127.5 34t-128 -34t-91.5 -93.5t-33.5 -131.5t33.5 -131t91.5 -93t128 -34q41 0 77 12z" />
    <glyph glyph-name="R" unicode="R" horiz-adv-x="633" 
d="M498 0l-226 274h-72v-274h-110v700h220q74 0 129 -27.5t85 -76t30 -109.5q0 -73 -41.5 -126.5t-114.5 -74.5l237 -286h-137zM200 598v-221h109q62 0 97 30.5t35 79.5t-35 80t-97 31h-109z" />
    <glyph glyph-name="S" unicode="S" horiz-adv-x="579" 
d="M164.5 16.5q-56.5 27.5 -87.5 77.5t-32 115h112q2 -54 37.5 -87t100.5 -33q59 0 92.5 26t33.5 71q0 35 -19.5 57t-48.5 35.5t-81 30.5q-68 23 -109 43.5t-70.5 61.5t-29.5 108q0 54 29.5 97t82 67.5t118.5 24.5q62 0 113.5 -25.5t83 -72t32.5 -107.5h-111
q-2 46 -34.5 75.5t-86.5 29.5q-50 0 -82 -24t-32 -67q0 -33 19 -55t48.5 -35t79.5 -29q68 -23 109.5 -44t71.5 -63t30 -110q0 -55 -30 -99.5t-84 -70t-124 -25.5q-75 0 -131.5 27.5z" />
    <glyph glyph-name="T" unicode="T" horiz-adv-x="510" 
d="M310 0h-110v598h-177v102h464v-102h-177v-598z" />
    <glyph glyph-name="U" unicode="U" horiz-adv-x="707" 
d="M209 23.5q-62 34.5 -95.5 97.5t-33.5 144v435h110v-431q0 -80 43 -128.5t120 -48.5t120.5 48.5t43.5 128.5v431h110v-435q0 -81 -33.5 -144t-96 -97.5t-144.5 -34.5t-144 34.5z" />
    <glyph glyph-name="V" unicode="V" horiz-adv-x="640" 
d="M321 184l181 516h117l-256 -700h-86l-256 700h119z" />
    <glyph glyph-name="W" unicode="W" horiz-adv-x="1003" 
d="M708 193l158 507h116l-232 -700h-83l-166 511l-166 -511h-82l-232 700h118l157 -504l165 504h81z" />
    <glyph glyph-name="X" unicode="X" horiz-adv-x="612" 
d="M376 363l216 -363h-127l-159 276l-160 -276h-126l216 363l-195 337h126l140 -251l140 251h124z" />
    <glyph glyph-name="Y" unicode="Y" horiz-adv-x="583" 
d="M293 405l157 295h123l-227 -406v-294h-110v294l-226 406h125z" />
    <glyph glyph-name="Z" unicode="Z" horiz-adv-x="578" 
d="M517 633l-321 -530h341v-103h-485v68l321 530h-302v102h446v-67z" />
    <glyph glyph-name="bracketleft" unicode="[" horiz-adv-x="325" 
d="M315 -200h-222v930h222v-90h-125v-750h125v-90z" />
    <glyph glyph-name="backslash" unicode="\" horiz-adv-x="386" 
d="M386 -200h-102l-284 930h102z" />
    <glyph glyph-name="bracketright" unicode="]" horiz-adv-x="325" 
d="M233 -200h-223v90h125v750h-125v90h223v-930z" />
    <glyph glyph-name="asciicircum" unicode="^" horiz-adv-x="401" 
d="M244 700l140 -306h-94l-90 208l-90 -208h-92l139 306h87z" />
    <glyph glyph-name="underscore" unicode="_" horiz-adv-x="369" 
d="M389 -195h-409v90h409v-90z" />
    <glyph glyph-name="grave" unicode="`" horiz-adv-x="256" 
d="M226 568h-91l-105 146h103z" />
    <glyph glyph-name="a" unicode="a" horiz-adv-x="635" 
d="M462 500h101v-500h-101v64q-65 -75 -172 -75q-66 0 -124.5 34t-93.5 93.5t-35 133.5t35 133.5t93.5 93.5t124.5 34q107 0 172 -75v64zM385 107.5q37 21.5 58 59t21 83.5t-21 83.5t-58 59t-82 21.5t-82 -21.5t-58 -59t-21 -83.5t21 -83.5t58 -59t82 -21.5t82 21.5z" />
    <glyph glyph-name="b" unicode="b" horiz-adv-x="640" 
d="M474.5 477q58.5 -34 93.5 -93.5t35 -133.5t-35 -133.5t-93.5 -93.5t-124.5 -34q-107 0 -172 75v-64h-101v720h104v-281q64 72 169 72q66 0 124.5 -34zM419 107.5q37 21.5 58 59t21 83.5t-21 83.5t-58 59t-82 21.5t-82 -21.5t-58 -59t-21 -83.5t21 -83.5t58 -59t82 -21.5
t82 21.5z" />
    <glyph glyph-name="c" unicode="c" horiz-adv-x="575" 
d="M169.5 22.5q-60.5 33.5 -96.5 93t-36 134.5t36 134.5t96.5 93t130.5 33.5q85 0 154 -47.5t95 -132.5h-109q-21 40 -58 61.5t-82 21.5q-44 0 -80 -21.5t-57 -59t-21 -83.5t21 -83.5t57 -59t80 -21.5q45 0 82 21.5t58 61.5h109q-26 -85 -95 -132.5t-154 -47.5
q-70 0 -130.5 33.5z" />
    <glyph glyph-name="d" unicode="d" horiz-adv-x="640" 
d="M459 720h104v-720h-101v64q-65 -75 -172 -75q-66 0 -124.5 34t-93.5 93.5t-35 133.5t35 133.5t93.5 93.5t124.5 34q105 0 169 -72v281zM385 107.5q37 21.5 58 59t21 83.5t-21 83.5t-58 59t-82 21.5t-82 -21.5t-58 -59t-21 -83.5t21 -83.5t58 -59t82 -21.5t82 21.5z" />
    <glyph glyph-name="e" unicode="e" horiz-adv-x="582" 
d="M420.5 478.5q58.5 -32.5 93 -89.5t34.5 -129q0 -26 -4 -47h-399q9 -63 48.5 -99t100.5 -36q91 0 132 72h107q-30 -74 -91.5 -117.5t-147.5 -43.5q-70 0 -129 33.5t-93.5 93t-34.5 134.5t34.5 134.5t93.5 93t129 33.5q68 0 126.5 -32.5zM196.5 389q-38.5 -33 -49.5 -91
h293q-8 55 -47 89.5t-99 34.5q-59 0 -97.5 -33z" />
    <glyph glyph-name="f" unicode="f" horiz-adv-x="354" 
d="M290 633q-37 0 -58 -21t-21 -58v-54h123v-96h-123v-404h-104v404h-82v96h82v69q0 73 44.5 117t119.5 44h63v-97h-44z" />
    <glyph glyph-name="g" unicode="g" horiz-adv-x="625" 
d="M452 500h101v-462q0 -73 -30 -131t-88 -91.5t-137 -33.5q-96 0 -160.5 49.5t-86.5 131.5h106q17 -39 53 -62t87 -23q71 0 111.5 42.5t40.5 109.5v52q-29 -33 -71.5 -52t-94.5 -19q-66 0 -122.5 31.5t-90 88.5t-33.5 130t33.5 130t90 88.5t122.5 31.5q104 0 169 -75v64z
M378 125.5q36 20.5 56 56t20 79.5t-20 79.5t-56 56t-80 20.5q-45 0 -80.5 -20.5t-55.5 -56t-20 -79.5t20 -79.5t55.5 -56t80.5 -20.5q44 0 80 20.5z" />
    <glyph glyph-name="h" unicode="h" horiz-adv-x="601" 
d="M436.5 482.5q46.5 -28.5 72.5 -78t26 -110.5v-294h-104v281q0 60 -32.5 96.5t-88.5 36.5q-55 0 -92 -37t-37 -96v-281h-104v720h104v-276q60 67 150 67q59 0 105.5 -28.5z" />
    <glyph glyph-name="i" unicode="i" horiz-adv-x="247" 
d="M176 0h-104v500h104v-500zM180 589h-114v106h114v-106z" />
    <glyph glyph-name="j" unicode="j" horiz-adv-x="247" 
d="M-52 -206v97h44q38 0 59 21t21 58v530h104v-545q0 -73 -44.5 -117t-119.5 -44h-64zM180 589h-114v106h114v-106z" />
    <glyph glyph-name="k" unicode="k" horiz-adv-x="526" 
d="M281 258l242 -258h-131l-211 228v-228h-104v720h104v-440l201 220h125z" />
    <glyph glyph-name="l" unicode="l" horiz-adv-x="257" 
d="M181 0h-104v720h104v-720z" />
    <glyph glyph-name="m" unicode="m" horiz-adv-x="891" 
d="M735 484q43 -27 66.5 -75.5t23.5 -109.5v-299h-104v288q0 56 -29 91t-77 35q-47 0 -81 -36t-34 -90v-288h-104v288q0 56 -28.5 91t-77.5 35q-47 0 -80.5 -35.5t-33.5 -90.5v-288h-104v500h99v-61q26 36 63 54t79 18q50 0 92.5 -26.5t65.5 -69.5q28 46 70.5 71t95.5 25
q55 0 98 -27z" />
    <glyph glyph-name="n" unicode="n" horiz-adv-x="596" 
d="M431.5 482.5q46.5 -28.5 72.5 -78t26 -110.5v-294h-104v281q0 60 -32.5 96.5t-88.5 36.5q-55 0 -92 -37t-37 -96v-281h-104v500h101v-59q30 34 69 52t84 18q59 0 105.5 -28.5z" />
    <glyph glyph-name="o" unicode="o" horiz-adv-x="605" 
d="M171 22.5q-61 33.5 -97.5 93t-36.5 134.5t36.5 134.5t97.5 93t132 33.5t132 -33.5t97.5 -93t36.5 -134.5t-36.5 -134.5t-97.5 -93t-132 -33.5t-132 33.5zM384 107.5q37 21.5 58 59t21 83.5t-21 83.5t-58 59t-81 21.5q-45 0 -82 -21.5t-58 -59t-21 -83.5t21 -83.5t58 -59
t82 -21.5q44 0 81 21.5z" />
    <glyph glyph-name="p" unicode="p" horiz-adv-x="635" 
d="M469.5 477q58.5 -34 93.5 -93.5t35 -133.5t-35 -133.5t-93.5 -93.5t-124.5 -34q-105 0 -169 72v-261h-104v700h101v-64q65 75 172 75q66 0 124.5 -34zM414 107.5q37 21.5 58 59t21 83.5t-21 83.5t-58 59t-82 21.5t-82 -21.5t-58 -59t-21 -83.5t21 -83.5t58 -59t82 -21.5
t82 21.5z" />
    <glyph glyph-name="q" unicode="q" horiz-adv-x="635" 
d="M462 500h101v-700h-104v261q-64 -72 -169 -72q-66 0 -124.5 34t-93.5 93.5t-35 133.5t35 133.5t93.5 93.5t124.5 34q107 0 172 -75v64zM385 107.5q37 21.5 58 59t21 83.5t-21 83.5t-58 59t-82 21.5t-82 -21.5t-58 -59t-21 -83.5t21 -83.5t58 -59t82 -21.5t82 21.5z" />
    <glyph glyph-name="r" unicode="r" horiz-adv-x="379" 
d="M369 506v-97h-57q-57 0 -96.5 -38.5t-39.5 -98.5v-272h-104v500h101v-64q62 70 155 70h41z" />
    <glyph glyph-name="s" unicode="s" horiz-adv-x="504" 
d="M149.5 10q-46.5 21 -73.5 58t-29 84h103q3 -32 31.5 -52.5t75.5 -20.5q40 0 65 15.5t25 44.5q0 31 -27.5 45.5t-84.5 27.5q-55 13 -89.5 27t-59.5 44.5t-25 82.5q0 41 25 74t68.5 52t96.5 19q50 0 93 -20.5t69 -56.5t28 -81h-103q-2 30 -27.5 49t-64.5 19
q-35 0 -57.5 -14.5t-22.5 -39.5q0 -21 14.5 -33.5t35.5 -20t61 -17.5q56 -13 91 -26.5t60 -44t25 -81.5q0 -72 -55.5 -113.5t-141.5 -41.5q-60 0 -106.5 21z" />
    <glyph glyph-name="t" unicode="t" horiz-adv-x="374" 
d="M334 404h-123v-228q0 -37 21 -58t58 -21h44v-97h-63q-75 0 -119.5 44t-44.5 117v243h-82v96h82v132h104v-132h123v-96z" />
    <glyph glyph-name="u" unicode="u" horiz-adv-x="584" 
d="M173 18q-51 29 -78.5 80.5t-27.5 118.5v283h104v-283q0 -59 33 -95t88 -36t88.5 36t33.5 95v283h104v-283q0 -67 -27.5 -118.5t-79 -80.5t-119.5 -29t-119 29z" />
    <glyph glyph-name="v" unicode="v" horiz-adv-x="535" 
d="M269 143l149 357h110l-219 -500h-82l-219 500h112z" />
    <glyph glyph-name="w" unicode="w" horiz-adv-x="827" 
d="M583 149l129 351h107l-196 -500h-76l-134 341l-134 -341h-74l-197 500h109l128 -347l134 347h69z" />
    <glyph glyph-name="x" unicode="x" 
d="M344 261l186 -261h-122l-131 191l-133 -191h-119l186 258l-172 242h121l118 -175l121 175h118z" />
    <glyph glyph-name="y" unicode="y" horiz-adv-x="542" 
d="M274 158l150 342h111l-314 -700h-109l108 241l-217 459h114z" />
    <glyph glyph-name="z" unicode="z" horiz-adv-x="480" 
d="M433 438l-251 -342h261v-96h-406v62l252 342h-242v96h386v-62z" />
    <glyph glyph-name="braceleft" unicode="{" horiz-adv-x="360" 
d="M225 410q0 -52 -22 -89t-64 -56q42 -19 64 -56t22 -89v-109q0 -58 29.5 -89.5t85.5 -31.5h10v-90h-21q-97 0 -149 53.5t-52 148.5v111q0 53 -25 81.5t-75 28.5v85q50 0 75 28.5t25 81.5v111q0 94 52 147.5t149 53.5h21v-90h-10q-56 0 -85.5 -31.5t-29.5 -88.5v-110z" />
    <glyph glyph-name="bar" unicode="|" horiz-adv-x="343" 
d="M223 -200h-103v930h103v-930z" />
    <glyph glyph-name="braceright" unicode="}" horiz-adv-x="360" 
d="M233 418q0 -53 25 -81.5t75 -28.5v-85q-50 0 -75 -28.5t-25 -81.5v-112q0 -94 -52 -147.5t-150 -53.5h-21v90h10q56 0 85.5 31.5t29.5 89.5v109q0 52 22 89t64 56q-42 19 -64 56t-22 89v110q0 57 -29.5 88.5t-85.5 31.5h-10v90h21q98 0 150 -53.5t52 -147.5v-111z" />
    <glyph glyph-name="asciitilde" unicode="~" 
d="M27 281q0 71 37.5 113t103.5 42q42 0 70.5 -14t62.5 -41q23 -19 41 -29t39 -10q26 0 41 18.5t15 47.5v28h92v-38q0 -69 -37.5 -110.5t-103.5 -41.5q-42 0 -70.5 14t-62.5 41q-23 19 -41 29t-39 10q-26 0 -41 -18.5t-15 -48.5v-27h-92v35z" />
    <glyph glyph-name="uni00A0" unicode="&#xa0;" horiz-adv-x="288" 
 />
    <glyph glyph-name="exclamdown" unicode="&#xa1;" horiz-adv-x="305" 
d="M206 386h-107v114h107v-114zM205 -193h-105l6 497h94z" />
    <glyph glyph-name="cent" unicode="&#xa2;" horiz-adv-x="575" 
d="M382 107.5q37 21.5 58 61.5h109q-23 -73 -78 -119t-127 -58v-97h-98v99q-59 12 -106.5 47.5t-75 89.5t-27.5 119t27.5 119t75 89.5t106.5 47.5v99h98v-97q72 -12 127 -58t78 -119h-109q-21 40 -58 61.5t-82 21.5q-44 0 -80 -21.5t-57 -59t-21 -83.5t21 -83.5t57 -59
t80 -21.5q45 0 82 21.5z" />
    <glyph glyph-name="sterling" unicode="&#xa3;" horiz-adv-x="549" 
d="M514 105v-105h-479v75q51 20 84.5 59.5t33.5 90.5q0 25 -4 41h-114v97h70q-21 37 -32.5 69t-11.5 76q0 61 30.5 107.5t81.5 71t111 24.5q62 0 112.5 -24t80.5 -70t30 -111h-110q-1 51 -31 78t-83 27q-42 0 -75 -26.5t-33 -82.5q0 -33 9.5 -59.5t21 -48.5t16.5 -31h233
v-97h-199q2 -20 2 -32q0 -74 -49 -129h305z" />
    <glyph glyph-name="currency" unicode="&#xa4;" horiz-adv-x="517" 
d="M414 267l63 -62l-60 -60l-61 60q-44 -28 -97 -28t-97 28l-61 -60l-61 60l63 62q-22 39 -22 84q0 46 22 85l-63 62l61 60l61 -60q44 28 97 28t97 -28l61 60l60 -60l-63 -62q22 -39 22 -85q0 -45 -22 -84zM329.5 278.5q28.5 29.5 28.5 72.5t-28.5 72.5t-70.5 29.5
t-71 -29.5t-29 -72.5t29 -72.5t71 -29.5t70.5 29.5z" />
    <glyph glyph-name="yen" unicode="&#xa5;" horiz-adv-x="583" 
d="M450 700h123l-178 -318h118v-98h-167v-69h167v-92h-167v-123h-110v123h-166v92h166v69h-166v98h117l-177 318h125l158 -295z" />
    <glyph glyph-name="brokenbar" unicode="&#xa6;" horiz-adv-x="343" 
d="M223 348h-103v382h103v-382zM223 -200h-103v383h103v-383z" />
    <glyph glyph-name="section" unicode="&#xa7;" horiz-adv-x="645" 
d="M558.5 177.5q-14.5 -33.5 -40.5 -59.5q38 -41 38 -105q0 -52 -28 -94t-80 -66t-121 -24q-71 0 -128 26t-89 73.5t-32 111.5h106q2 -50 40 -83t102 -33q55 0 88 23t33 64q0 29 -20 50.5t-60 31.5l-117 29q-91 23 -134 64t-43 114q0 32 15 66.5t42 60.5q-35 41 -35 103
q0 50 28 91.5t79 65.5t115 24q68 0 123 -26t86.5 -73.5t31.5 -110.5h-106q0 49 -37 82t-98 33q-49 0 -81 -23.5t-32 -60.5q0 -30 20 -51.5t60 -31.5l112 -28q91 -23 134 -64t43 -114q0 -32 -14.5 -65.5zM390 186q20 -5 49 -16q25 33 25 71q0 31 -20.5 52t-59.5 31l-123 31
q-30 8 -54 18q-25 -31 -25 -71q0 -31 20.5 -52t59.5 -31z" />
    <glyph glyph-name="dieresis" unicode="&#xa8;" horiz-adv-x="357" 
d="M132 589h-102v106h102v-106zM327 589h-101v106h101v-106z" />
    <glyph glyph-name="copyright" unicode="&#xa9;" horiz-adv-x="825" 
d="M230.5 37q-83.5 48 -132 131t-48.5 182t48.5 182t132 131t182.5 48t182 -48t131.5 -131t48.5 -182t-48.5 -182t-131.5 -131t-182 -48t-182.5 48zM554.5 102q64.5 38 102.5 103.5t38 144.5q0 80 -38 145.5t-102.5 103.5t-141.5 38t-142 -38t-103 -103.5t-38 -145.5
q0 -79 38 -144.5t103 -103.5t142 -38t141.5 38zM319.5 183.5q-44.5 24.5 -71 68t-26.5 98.5t26.5 99t70.5 68t96 24q63 0 112.5 -34.5t66.5 -97.5h-88q-13 27 -36.5 41t-54.5 14q-48 0 -78.5 -32.5t-30.5 -81.5q0 -48 30.5 -80.5t78.5 -32.5q31 0 54.5 14t36.5 41h88
q-17 -63 -66.5 -98t-112.5 -35q-51 0 -95.5 24.5z" />
    <glyph glyph-name="ordfeminine" unicode="&#xaa;" horiz-adv-x="408" 
d="M283 705h75v-310h-75v38q-15 -19 -41 -31.5t-57 -12.5q-42 0 -78.5 21t-58 58t-21.5 82q0 46 21.5 82.5t58 57.5t78.5 21q31 0 57 -12t41 -31v37zM259.5 485.5q26.5 26.5 26.5 64.5t-26.5 64.5t-64.5 26.5t-64 -26.5t-26 -64.5t26.5 -64.5t63.5 -26.5q38 0 64.5 26.5z
" />
    <glyph glyph-name="guillemotleft" unicode="&#xab;" horiz-adv-x="536" 
d="M279 69h-104l-150 186l150 187h104l-150 -187zM489 69h-104l-150 186l150 187h104l-150 -187z" />
    <glyph glyph-name="logicalnot" unicode="&#xac;" 
d="M521 204h-96v147h-395v96h491v-243z" />
    <glyph glyph-name="uni00AD" unicode="&#xad;" horiz-adv-x="372" 
d="M325 213h-277v96h277v-96z" />
    <glyph glyph-name="registered" unicode="&#xae;" horiz-adv-x="398" 
d="M290 687.5q41 -23.5 64.5 -64.5t23.5 -90q0 -50 -23.5 -91t-64.5 -64.5t-91 -23.5t-91 23.5t-64.5 64.5t-23.5 91q0 49 23.5 90t64.5 64.5t91 23.5t91 -23.5zM291.5 438.5q35.5 36.5 35.5 94.5q0 57 -35.5 93.5t-92.5 36.5t-92 -36.5t-35 -93.5q0 -58 35 -94.5t92 -36.5
t92.5 36.5zM262 533.5q-10 -14.5 -28 -20.5l50 -68h-50l-44 64h-13v-64h-43v183h75q27 0 45 -16t18 -44q0 -20 -10 -34.5zM177 592v-46h19q17 0 25.5 5t8.5 17q0 24 -34 24h-19z" />
    <glyph glyph-name="macron" unicode="&#xaf;" horiz-adv-x="362" 
d="M332 599h-302v78h302v-78z" />
    <glyph glyph-name="degree" unicode="&#xb0;" horiz-adv-x="330" 
d="M68.5 509.5q-38.5 37.5 -38.5 92.5t38.5 93t96.5 38t96.5 -38t38.5 -93t-38.5 -92.5t-96.5 -37.5t-96.5 37.5zM214 554q20 19 20 48q0 30 -19.5 49t-49.5 19t-49.5 -19t-19.5 -49q0 -29 20 -48t49 -19t49 19z" />
    <glyph glyph-name="plusminus" unicode="&#xb1;" 
d="M326 678v-191h197v-96h-197v-192h-96v192h-197v96h197v191h96zM523 45h-490v96h490v-96z" />
    <glyph glyph-name="uni00B2" unicode="&#xb2;" horiz-adv-x="318" 
d="M155 559h138v-71h-260v51l134 135q20 20 28.5 34t8.5 30q0 17 -12 27.5t-31 10.5q-23 0 -36.5 -13.5t-14.5 -35.5h-80q1 59 38.5 88.5t92.5 29.5q54 0 89.5 -28.5t35.5 -74.5q0 -31 -13.5 -55t-43.5 -55z" />
    <glyph glyph-name="uni00B3" unicode="&#xb3;" horiz-adv-x="330" 
d="M282 640q15 -22 15 -51q0 -46 -35 -76t-97 -30q-60 0 -98 31.5t-39 86.5h83q1 -22 15 -36.5t39 -14.5q23 0 36.5 12.5t13.5 32.5q0 21 -14.5 33t-38.5 12h-32v58h30q20 0 33.5 12t13.5 32q0 17 -13 27t-32 10q-22 0 -34.5 -13t-13.5 -32h-79q1 54 39 82.5t89 28.5
q54 0 89 -28t35 -71q0 -26 -13 -45t-34 -29q27 -10 42 -32z" />
    <glyph glyph-name="acute" unicode="&#xb4;" horiz-adv-x="254" 
d="M119 568h-89l93 146h101z" />
    <glyph glyph-name="uni00B5" unicode="&#xb5;" horiz-adv-x="601" 
d="M426 500h104v-500h-102v58q-57 -69 -141 -69q-33 0 -62.5 10.5t-48.5 29.5v-229h-104v700h104v-281q0 -60 32 -96.5t89 -36.5q55 0 92 37.5t37 95.5v281z" />
    <glyph glyph-name="paragraph" unicode="&#xb6;" horiz-adv-x="580" 
d="M268 -80v393h-37q-53 0 -98 25t-71.5 69.5t-26.5 99.5t26.5 99t71.5 69t98 25h117v-780h-80zM502 -80h-80v780h80v-780z" />
    <glyph glyph-name="periodcentered" unicode="&#xb7;" horiz-adv-x="288" 
d="M198 203h-107v116h107v-116z" />
    <glyph glyph-name="cedilla" unicode="&#xb8;" horiz-adv-x="222" 
d="M112 -39q39 -5 59.5 -29t20.5 -54q0 -45 -28.5 -69t-74.5 -24h-59v61h47q22 0 33 9.5t11 24.5q0 16 -11 25t-33 9h-36v39l37 82l54 -25v-5z" />
    <glyph glyph-name="uni00B9" unicode="&#xb9;" horiz-adv-x="261" 
d="M30 799l91 41h75v-352h-81v275l-85 -37v73z" />
    <glyph glyph-name="ordmasculine" unicode="&#xba;" horiz-adv-x="380" 
d="M108.5 410q-37.5 21 -59.5 58t-22 82q0 46 22 82.5t59.5 57.5t81.5 21t81.5 -21t59.5 -57.5t22 -82.5q0 -45 -22 -82t-59.5 -58t-81.5 -21t-81.5 21zM252.5 486q24.5 26 24.5 64t-24.5 64.5t-62.5 26.5q-37 0 -61.5 -26.5t-24.5 -64.5t24.5 -64t61.5 -26q38 0 62.5 26z
" />
    <glyph glyph-name="guillemotright" unicode="&#xbb;" horiz-adv-x="536" 
d="M152 69h-104l149 186l-149 187h104l149 -187zM362 69h-104l149 186l-149 187h104l149 -187z" />
    <glyph glyph-name="onequarter" unicode="&#xbc;" horiz-adv-x="688" 
d="M30 659l91 41h75v-352h-81v275l-85 -37v73zM144 0h-98l481 700h98zM622 133h49v-62h-49v-71h-75v71h-167v53l168 228h74v-219zM548 252l-86 -119h86v119z" />
    <glyph glyph-name="onehalf" unicode="&#xbd;" horiz-adv-x="728" 
d="M30 659l91 41h75v-352h-81v275l-85 -37v73zM144 0h-98l481 700h98zM565 71h138v-71h-260v51l134 135q20 20 28.5 34t8.5 30q0 17 -12 27.5t-31 10.5q-23 0 -36.5 -13.5t-14.5 -35.5h-80q1 59 38.5 88.5t92.5 29.5q54 0 89.5 -28.5t35.5 -74.5q0 -31 -13.5 -55t-43.5 -55z
" />
    <glyph glyph-name="threequarters" unicode="&#xbe;" horiz-adv-x="757" 
d="M282 500q15 -22 15 -51q0 -46 -35 -76t-97 -30q-60 0 -98 31.5t-39 86.5h83q1 -22 15 -36.5t39 -14.5q23 0 36.5 12.5t13.5 32.5q0 21 -14.5 33t-38.5 12h-32v58h30q20 0 33.5 12t13.5 32q0 17 -13 27t-32 10q-22 0 -34.5 -13t-13.5 -32h-79q1 54 39 82.5t89 28.5
q54 0 89 -28t35 -71q0 -26 -13 -45t-34 -29q27 -10 42 -32zM213 0h-98l481 700h98zM691 133h49v-62h-49v-71h-75v71h-167v53l168 228h74v-219zM617 252l-86 -119h86v119z" />
    <glyph glyph-name="questiondown" unicode="&#xbf;" horiz-adv-x="506" 
d="M322 386h-107v114h107v-114zM150 -179q-51 25 -80.5 69.5t-29.5 100.5q0 40 13 69t32.5 48.5t50.5 43.5q29 23 45 39t27 39t11 53v21h100v-28q0 -45 -13.5 -76.5t-33 -52t-50.5 -44.5q-36 -28 -53.5 -50.5t-17.5 -57.5q0 -46 32 -76t81 -30q51 0 83.5 33t34.5 80h104
q-1 -61 -32 -108t-81.5 -72.5t-109.5 -25.5q-62 0 -113 25z" />
    <glyph glyph-name="Agrave" unicode="&#xc0;" horiz-adv-x="687" 
d="M672 0h-118l-64 168h-295l-64 -168h-116l279 700h99zM453 271l-110 287l-110 -287h220zM398 763h-91l-105 147h103z" />
    <glyph glyph-name="Aacute" unicode="&#xc1;" horiz-adv-x="687" 
d="M672 0h-118l-64 168h-295l-64 -168h-116l279 700h99zM453 271l-110 287l-110 -287h220zM375 763h-89l93 147h101z" />
    <glyph glyph-name="Acircumflex" unicode="&#xc2;" horiz-adv-x="687" 
d="M672 0h-118l-64 168h-295l-64 -168h-116l279 700h99zM453 271l-110 287l-110 -287h220zM272 763h-97l127 142h83l126 -142h-96l-71 81z" />
    <glyph glyph-name="Atilde" unicode="&#xc3;" horiz-adv-x="687" 
d="M672 0h-118l-64 168h-295l-64 -168h-116l279 700h99zM453 271l-110 287l-110 -287h220zM182 793q0 49 24 76t66 27q22 0 39.5 -7.5t44.5 -23.5q31 -20 45 -20q31 0 31 43v8h72v-22q0 -49 -24 -76t-65 -27q-23 0 -41.5 8t-43.5 24q-31 20 -45 20q-30 0 -30 -44v-8h-73v22z
" />
    <glyph glyph-name="Adieresis" unicode="&#xc4;" horiz-adv-x="687" 
d="M672 0h-118l-64 168h-295l-64 -168h-116l279 700h99zM453 271l-110 287l-110 -287h220zM297 785h-102v106h102v-106zM492 785h-101v106h101v-106z" />
    <glyph glyph-name="Aring" unicode="&#xc5;" horiz-adv-x="687" 
d="M672 0h-118l-64 168h-295l-64 -168h-116l279 700h99zM453 271l-110 287l-110 -287h220zM269.5 775.5q-29.5 28.5 -29.5 70.5t29.5 70.5t74.5 28.5t74.5 -28.5t29.5 -70.5t-29.5 -70.5t-74.5 -28.5t-74.5 28.5zM375 816q12 12 12 30q0 19 -12 31t-31 12t-31 -12t-12 -31
q0 -18 12 -30t31 -12t31 12z" />
    <glyph glyph-name="AE" unicode="&#xc6;" horiz-adv-x="914" 
d="M558 310v-207h296v-103h-406v183h-256l-112 -183h-125l432 700h457v-102h-286v-185h276v-103h-276zM448 601l-194 -316h194v316z" />
    <glyph glyph-name="Ccedilla" unicode="&#xc7;" horiz-adv-x="786" 
d="M748 230q-36 -104 -117.5 -168.5t-190.5 -71.5l-13 -29q39 -5 59.5 -29t20.5 -54q0 -45 -28.5 -69t-74.5 -24h-59v61h47q22 0 33 9.5t11 24.5q0 16 -11 25t-33 9h-36v39l17 38q-90 9 -163.5 58.5t-116.5 128t-43 172.5q0 101 49 184t132 130t181 47q118 0 206.5 -65
t127.5 -176h-115q-31 64 -88.5 101.5t-130.5 37.5q-69 0 -126 -34.5t-90 -93.5t-33 -131t33 -131t90 -93t126 -34q75 0 132.5 37.5t88.5 100.5h115z" />
    <glyph glyph-name="Egrave" unicode="&#xc8;" horiz-adv-x="556" 
d="M200 310v-207h296v-103h-406v700h396v-102h-286v-185h276v-103h-276zM345 763h-91l-105 147h103z" />
    <glyph glyph-name="Eacute" unicode="&#xc9;" horiz-adv-x="556" 
d="M200 310v-207h296v-103h-406v700h396v-102h-286v-185h276v-103h-276zM323 763h-89l93 147h101z" />
    <glyph glyph-name="Ecircumflex" unicode="&#xca;" horiz-adv-x="556" 
d="M200 310v-207h296v-103h-406v700h396v-102h-286v-185h276v-103h-276zM220 763h-97l127 142h83l126 -142h-96l-71 81z" />
    <glyph glyph-name="Edieresis" unicode="&#xcb;" horiz-adv-x="556" 
d="M200 310v-207h296v-103h-406v700h396v-102h-286v-185h276v-103h-276zM245 785h-102v106h102v-106zM440 785h-101v106h101v-106z" />
    <glyph glyph-name="Igrave" unicode="&#xcc;" horiz-adv-x="300" 
d="M205 0h-110v700h110v-700zM204 763h-91l-105 147h103z" />
    <glyph glyph-name="Iacute" unicode="&#xcd;" horiz-adv-x="300" 
d="M205 0h-110v700h110v-700zM182 763h-89l93 147h101z" />
    <glyph glyph-name="Icircumflex" unicode="&#xce;" horiz-adv-x="300" 
d="M205 0h-110v700h110v-700zM78 763h-97l127 142h83l126 -142h-96l-71 81z" />
    <glyph glyph-name="Idieresis" unicode="&#xcf;" horiz-adv-x="300" 
d="M205 0h-110v700h110v-700zM103 785h-102v106h102v-106zM298 785h-101v106h101v-106z" />
    <glyph glyph-name="Eth" unicode="&#xd0;" horiz-adv-x="739" 
d="M301 700q118 0 205.5 -43.5t135 -123t47.5 -183.5t-47.5 -183.5t-135 -123t-205.5 -43.5h-206v305h-85v95h85v300h206zM301 103q85 0 147 30.5t95 86.5t33 130t-33 130t-95 87t-147 31h-96v-198h198v-95h-198v-202h96z" />
    <glyph glyph-name="Ntilde" unicode="&#xd1;" horiz-adv-x="799" 
d="M603 193v507h106v-700h-72l-440 506v-506h-107v700h73zM238 793q0 49 24 76t66 27q22 0 39.5 -7.5t44.5 -23.5q31 -20 45 -20q31 0 31 43v8h72v-22q0 -49 -24 -76t-65 -27q-23 0 -41.5 8t-43.5 24q-31 20 -45 20q-30 0 -30 -44v-8h-73v22z" />
    <glyph glyph-name="Ograve" unicode="&#xd2;" horiz-adv-x="831" 
d="M232 36.5q-84 47.5 -133 130t-49 183.5t49 183.5t133 130t184 47.5t183.5 -47.5t132.5 -130t49 -183.5t-49 -183.5t-132.5 -130t-183.5 -47.5t-184 47.5zM543.5 126q57.5 34 91 93t33.5 131t-33.5 131.5t-91 93.5t-127.5 34t-128 -34t-91.5 -93.5t-33.5 -131.5t33.5 -131
t91.5 -93t128 -34t127.5 34zM470 763h-91l-105 147h103z" />
    <glyph glyph-name="Oacute" unicode="&#xd3;" horiz-adv-x="831" 
d="M232 36.5q-84 47.5 -133 130t-49 183.5t49 183.5t133 130t184 47.5t183.5 -47.5t132.5 -130t49 -183.5t-49 -183.5t-132.5 -130t-183.5 -47.5t-184 47.5zM543.5 126q57.5 34 91 93t33.5 131t-33.5 131.5t-91 93.5t-127.5 34t-128 -34t-91.5 -93.5t-33.5 -131.5t33.5 -131
t91.5 -93t128 -34t127.5 34zM447 763h-89l93 147h101z" />
    <glyph glyph-name="Ocircumflex" unicode="&#xd4;" horiz-adv-x="831" 
d="M232 36.5q-84 47.5 -133 130t-49 183.5t49 183.5t133 130t184 47.5t183.5 -47.5t132.5 -130t49 -183.5t-49 -183.5t-132.5 -130t-183.5 -47.5t-184 47.5zM543.5 126q57.5 34 91 93t33.5 131t-33.5 131.5t-91 93.5t-127.5 34t-128 -34t-91.5 -93.5t-33.5 -131.5t33.5 -131
t91.5 -93t128 -34t127.5 34zM344 763h-97l127 142h83l126 -142h-96l-71 81z" />
    <glyph glyph-name="Otilde" unicode="&#xd5;" horiz-adv-x="831" 
d="M232 36.5q-84 47.5 -133 130t-49 183.5t49 183.5t133 130t184 47.5t183.5 -47.5t132.5 -130t49 -183.5t-49 -183.5t-132.5 -130t-183.5 -47.5t-184 47.5zM543.5 126q57.5 34 91 93t33.5 131t-33.5 131.5t-91 93.5t-127.5 34t-128 -34t-91.5 -93.5t-33.5 -131.5t33.5 -131
t91.5 -93t128 -34t127.5 34zM254 793q0 49 24 76t66 27q22 0 39.5 -7.5t44.5 -23.5q31 -20 45 -20q31 0 31 43v8h72v-22q0 -49 -24 -76t-65 -27q-23 0 -41.5 8t-43.5 24q-31 20 -45 20q-30 0 -30 -44v-8h-73v22z" />
    <glyph glyph-name="Odieresis" unicode="&#xd6;" horiz-adv-x="831" 
d="M232 36.5q-84 47.5 -133 130t-49 183.5t49 183.5t133 130t184 47.5t183.5 -47.5t132.5 -130t49 -183.5t-49 -183.5t-132.5 -130t-183.5 -47.5t-184 47.5zM543.5 126q57.5 34 91 93t33.5 131t-33.5 131.5t-91 93.5t-127.5 34t-128 -34t-91.5 -93.5t-33.5 -131.5t33.5 -131
t91.5 -93t128 -34t127.5 34zM369 785h-102v106h102v-106zM564 785h-101v106h101v-106z" />
    <glyph glyph-name="multiply" unicode="&#xd7;" 
d="M437 565l64 -65l-159 -159l159 -159l-64 -65l-159 159l-159 -159l-65 65l159 159l-159 159l65 65l159 -159z" />
    <glyph glyph-name="Oslash" unicode="&#xd8;" horiz-adv-x="831" 
d="M676 605q50 -49 77.5 -115t27.5 -140q0 -101 -49 -183.5t-132.5 -130t-183.5 -47.5q-98 0 -181 46l-35 -46h-125l81 105q-50 49 -78 115t-28 141q0 101 49 183.5t133 130t184 47.5q97 0 181 -46l36 46h125zM178.5 257.5q15.5 -43.5 44.5 -77.5l309 401q-53 28 -116 28
q-70 0 -128 -34t-91.5 -93.5t-33.5 -131.5q0 -49 15.5 -92.5zM543.5 126q57.5 34 91 93t33.5 131q0 48 -15.5 91.5t-43.5 77.5l-308 -400q54 -27 115 -27q70 0 127.5 34z" />
    <glyph glyph-name="Ugrave" unicode="&#xd9;" horiz-adv-x="707" 
d="M209 23.5q-62 34.5 -95.5 97.5t-33.5 144v435h110v-431q0 -80 43 -128.5t120 -48.5t120.5 48.5t43.5 128.5v431h110v-435q0 -81 -33.5 -144t-96 -97.5t-144.5 -34.5t-144 34.5zM407 763h-91l-105 147h103z" />
    <glyph glyph-name="Uacute" unicode="&#xda;" horiz-adv-x="707" 
d="M209 23.5q-62 34.5 -95.5 97.5t-33.5 144v435h110v-431q0 -80 43 -128.5t120 -48.5t120.5 48.5t43.5 128.5v431h110v-435q0 -81 -33.5 -144t-96 -97.5t-144.5 -34.5t-144 34.5zM385 763h-89l93 147h101z" />
    <glyph glyph-name="Ucircumflex" unicode="&#xdb;" horiz-adv-x="707" 
d="M209 23.5q-62 34.5 -95.5 97.5t-33.5 144v435h110v-431q0 -80 43 -128.5t120 -48.5t120.5 48.5t43.5 128.5v431h110v-435q0 -81 -33.5 -144t-96 -97.5t-144.5 -34.5t-144 34.5zM282 763h-97l127 142h83l126 -142h-96l-71 81z" />
    <glyph glyph-name="Udieresis" unicode="&#xdc;" horiz-adv-x="707" 
d="M209 23.5q-62 34.5 -95.5 97.5t-33.5 144v435h110v-431q0 -80 43 -128.5t120 -48.5t120.5 48.5t43.5 128.5v431h110v-435q0 -81 -33.5 -144t-96 -97.5t-144.5 -34.5t-144 34.5zM307 785h-102v106h102v-106zM502 785h-101v106h101v-106z" />
    <glyph glyph-name="Yacute" unicode="&#xdd;" horiz-adv-x="583" 
d="M293 405l157 295h123l-227 -406v-294h-110v294l-226 406h125zM323 763h-89l93 147h101z" />
    <glyph glyph-name="Thorn" unicode="&#xde;" horiz-adv-x="704" 
d="M431 556q74 0 128 -27t83 -74t29 -107t-29 -107.5t-83 -74t-128 -26.5h-231v-140h-110v700h110v-144h231zM431 242q61 0 94 29t33 77q0 47 -33 76t-94 29h-231v-211h231z" />
    <glyph glyph-name="germandbls" unicode="&#xdf;" horiz-adv-x="583" 
d="M511.5 309q32.5 -44 32.5 -109q0 -60 -28.5 -105.5t-77.5 -70t-110 -24.5h-64v94h55q52 0 85.5 29.5t33.5 80.5q0 52 -33.5 81t-85.5 29h-55v93h32q49 0 81 28t32 77q0 50 -31 77.5t-78 27.5q-56 0 -87.5 -35.5t-31.5 -93.5v-488h-104v484q0 66 27 117.5t77.5 80.5
t117.5 29q61 0 109.5 -23.5t76 -66.5t27.5 -99q0 -53 -23.5 -92.5t-62.5 -59.5q53 -17 85.5 -61z" />
    <glyph glyph-name="agrave" unicode="&#xe0;" horiz-adv-x="635" 
d="M462 500h101v-500h-101v64q-65 -75 -172 -75q-66 0 -124.5 34t-93.5 93.5t-35 133.5t35 133.5t93.5 93.5t124.5 34q107 0 172 -75v64zM385 107.5q37 21.5 58 59t21 83.5t-21 83.5t-58 59t-82 21.5t-82 -21.5t-58 -59t-21 -83.5t21 -83.5t58 -59t82 -21.5t82 21.5z
M373 568h-91l-105 146h103z" />
    <glyph glyph-name="aacute" unicode="&#xe1;" horiz-adv-x="635" 
d="M462 500h101v-500h-101v64q-65 -75 -172 -75q-66 0 -124.5 34t-93.5 93.5t-35 133.5t35 133.5t93.5 93.5t124.5 34q107 0 172 -75v64zM385 107.5q37 21.5 58 59t21 83.5t-21 83.5t-58 59t-82 21.5t-82 -21.5t-58 -59t-21 -83.5t21 -83.5t58 -59t82 -21.5t82 21.5z
M351 568h-89l93 146h101z" />
    <glyph glyph-name="acircumflex" unicode="&#xe2;" horiz-adv-x="635" 
d="M462 500h101v-500h-101v64q-65 -75 -172 -75q-66 0 -124.5 34t-93.5 93.5t-35 133.5t35 133.5t93.5 93.5t124.5 34q107 0 172 -75v64zM385 107.5q37 21.5 58 59t21 83.5t-21 83.5t-58 59t-82 21.5t-82 -21.5t-58 -59t-21 -83.5t21 -83.5t58 -59t82 -21.5t82 21.5z
M248 568h-97l127 141h83l126 -141h-96l-71 80z" />
    <glyph glyph-name="atilde" unicode="&#xe3;" horiz-adv-x="635" 
d="M462 500h101v-500h-101v64q-65 -75 -172 -75q-66 0 -124.5 34t-93.5 93.5t-35 133.5t35 133.5t93.5 93.5t124.5 34q107 0 172 -75v64zM385 107.5q37 21.5 58 59t21 83.5t-21 83.5t-58 59t-82 21.5t-82 -21.5t-58 -59t-21 -83.5t21 -83.5t58 -59t82 -21.5t82 21.5z
M158 598q0 48 24 75t66 27q22 0 39.5 -7.5t44.5 -23.5q31 -20 45 -20q31 0 31 43v8h72v-22q0 -48 -24 -75t-65 -27q-22 0 -40 7.5t-45 23.5q-31 20 -45 20q-30 0 -30 -43v-8h-73v22z" />
    <glyph glyph-name="adieresis" unicode="&#xe4;" horiz-adv-x="635" 
d="M462 500h101v-500h-101v64q-65 -75 -172 -75q-66 0 -124.5 34t-93.5 93.5t-35 133.5t35 133.5t93.5 93.5t124.5 34q107 0 172 -75v64zM385 107.5q37 21.5 58 59t21 83.5t-21 83.5t-58 59t-82 21.5t-82 -21.5t-58 -59t-21 -83.5t21 -83.5t58 -59t82 -21.5t82 21.5z
M273 589h-102v106h102v-106zM468 589h-101v106h101v-106z" />
    <glyph glyph-name="aring" unicode="&#xe5;" horiz-adv-x="635" 
d="M462 500h101v-500h-101v64q-65 -75 -172 -75q-66 0 -124.5 34t-93.5 93.5t-35 133.5t35 133.5t93.5 93.5t124.5 34q107 0 172 -75v64zM385 107.5q37 21.5 58 59t21 83.5t-21 83.5t-58 59t-82 21.5t-82 -21.5t-58 -59t-21 -83.5t21 -83.5t58 -59t82 -21.5t82 21.5z
M245.5 580q-29.5 28 -29.5 70t29.5 70.5t74.5 28.5t74.5 -28.5t29.5 -70.5t-29.5 -70t-74.5 -28t-74.5 28zM351 620q12 12 12 30q0 19 -12 31t-31 12t-31 -12t-12 -31q0 -18 12 -30t31 -12t31 12z" />
    <glyph glyph-name="ae" unicode="&#xe6;" horiz-adv-x="939" 
d="M779.5 478.5q57.5 -32.5 91.5 -89.5t34 -128q0 -25 -4 -48h-388q9 -62 47 -98.5t96 -36.5q86 0 127 72h107q-29 -74 -90 -117.5t-144 -43.5q-60 0 -112.5 27t-86.5 76q-29 -45 -84 -74t-125 -29q-58 0 -103 19.5t-70 54.5t-25 81q0 73 52 113.5t140 40.5h162v26
q0 43 -32 70t-87 27q-48 0 -76 -18t-38 -45h-105q13 71 71 112t148 41q61 0 107.5 -24t74.5 -66q36 45 85 67.5t104 22.5q66 0 123.5 -32.5zM563.5 389q-37.5 -33 -48.5 -91h283q-8 55 -46.5 89.5t-95.5 34.5q-55 0 -92.5 -33zM362 114q42 36 42 89v11h-158q-90 0 -90 -68
q0 -29 24.5 -48.5t69.5 -19.5q70 0 112 36z" />
    <glyph glyph-name="ccedilla" unicode="&#xe7;" horiz-adv-x="575" 
d="M382 107.5q37 21.5 58 61.5h109q-24 -79 -85 -125.5t-139 -53.5l-13 -29q39 -5 59.5 -29t20.5 -54q0 -45 -28.5 -69t-74.5 -24h-59v61h47q22 0 33 9.5t11 24.5q0 16 -11 25t-33 9h-36v39l18 39q-62 10 -112.5 45t-80 90.5t-29.5 122.5q0 75 36 134.5t96.5 93t130.5 33.5
q85 0 154 -47.5t95 -132.5h-109q-21 40 -58 61.5t-82 21.5q-44 0 -80 -21.5t-57 -59t-21 -83.5t21 -83.5t57 -59t80 -21.5q45 0 82 21.5z" />
    <glyph glyph-name="egrave" unicode="&#xe8;" horiz-adv-x="582" 
d="M420.5 478.5q58.5 -32.5 93 -89.5t34.5 -129q0 -26 -4 -47h-399q9 -63 48.5 -99t100.5 -36q91 0 132 72h107q-30 -74 -91.5 -117.5t-147.5 -43.5q-70 0 -129 33.5t-93.5 93t-34.5 134.5t34.5 134.5t93.5 93t129 33.5q68 0 126.5 -32.5zM196.5 389q-38.5 -33 -49.5 -91
h293q-8 55 -47 89.5t-99 34.5q-59 0 -97.5 -33zM349 568h-91l-105 146h103z" />
    <glyph glyph-name="eacute" unicode="&#xe9;" horiz-adv-x="582" 
d="M420.5 478.5q58.5 -32.5 93 -89.5t34.5 -129q0 -26 -4 -47h-399q9 -63 48.5 -99t100.5 -36q91 0 132 72h107q-30 -74 -91.5 -117.5t-147.5 -43.5q-70 0 -129 33.5t-93.5 93t-34.5 134.5t34.5 134.5t93.5 93t129 33.5q68 0 126.5 -32.5zM196.5 389q-38.5 -33 -49.5 -91
h293q-8 55 -47 89.5t-99 34.5q-59 0 -97.5 -33zM327 568h-89l93 146h101z" />
    <glyph glyph-name="ecircumflex" unicode="&#xea;" horiz-adv-x="582" 
d="M420.5 478.5q58.5 -32.5 93 -89.5t34.5 -129q0 -26 -4 -47h-399q9 -63 48.5 -99t100.5 -36q91 0 132 72h107q-30 -74 -91.5 -117.5t-147.5 -43.5q-70 0 -129 33.5t-93.5 93t-34.5 134.5t34.5 134.5t93.5 93t129 33.5q68 0 126.5 -32.5zM196.5 389q-38.5 -33 -49.5 -91
h293q-8 55 -47 89.5t-99 34.5q-59 0 -97.5 -33zM224 568h-97l127 141h83l126 -141h-96l-71 80z" />
    <glyph glyph-name="edieresis" unicode="&#xeb;" horiz-adv-x="582" 
d="M420.5 478.5q58.5 -32.5 93 -89.5t34.5 -129q0 -26 -4 -47h-399q9 -63 48.5 -99t100.5 -36q91 0 132 72h107q-30 -74 -91.5 -117.5t-147.5 -43.5q-70 0 -129 33.5t-93.5 93t-34.5 134.5t34.5 134.5t93.5 93t129 33.5q68 0 126.5 -32.5zM196.5 389q-38.5 -33 -49.5 -91
h293q-8 55 -47 89.5t-99 34.5q-59 0 -97.5 -33zM249 589h-102v106h102v-106zM444 589h-101v106h101v-106z" />
    <glyph glyph-name="igrave" unicode="&#xec;" horiz-adv-x="247" 
d="M176 0h-104v500h104v-500zM177 568h-91l-105 146h103z" />
    <glyph glyph-name="iacute" unicode="&#xed;" horiz-adv-x="247" 
d="M176 0h-104v500h104v-500zM155 568h-89l93 146h101z" />
    <glyph glyph-name="icircumflex" unicode="&#xee;" horiz-adv-x="247" 
d="M176 0h-104v500h104v-500zM52 568h-97l127 141h83l126 -141h-96l-71 80z" />
    <glyph glyph-name="idieresis" unicode="&#xef;" horiz-adv-x="247" 
d="M176 0h-104v500h104v-500zM102 589h-100v106h100v-106zM245 589h-99v106h99v-106z" />
    <glyph glyph-name="eth" unicode="&#xf0;" horiz-adv-x="558" 
d="M389 595q132 -141 132 -343q0 -81 -32 -140.5t-88.5 -91t-127.5 -31.5q-66 0 -121.5 30.5t-87.5 83.5t-32 118q0 64 32 117t87 84t122 31q70 0 123 -37q-30 70 -94 135l-124 -63l-40 69l98 50q-49 34 -98 56l79 58q60 -31 108 -69l104 53l40 -69zM349 99.5
q32 18.5 50 50.5t18 71t-18 71t-50 51t-72 19t-72 -19t-50.5 -51t-18.5 -71t18.5 -71t50.5 -50.5t72 -18.5t72 18.5z" />
    <glyph glyph-name="ntilde" unicode="&#xf1;" horiz-adv-x="596" 
d="M431.5 482.5q46.5 -28.5 72.5 -78t26 -110.5v-294h-104v281q0 60 -32.5 96.5t-88.5 36.5q-55 0 -92 -37t-37 -96v-281h-104v500h101v-59q30 34 69 52t84 18q59 0 105.5 -28.5zM140 598q0 48 24 75t66 27q22 0 39.5 -7.5t44.5 -23.5q31 -20 45 -20q31 0 31 43v8h72v-22
q0 -48 -24 -75t-65 -27q-22 0 -40 7.5t-45 23.5q-31 20 -45 20q-30 0 -30 -43v-8h-73v22z" />
    <glyph glyph-name="ograve" unicode="&#xf2;" horiz-adv-x="605" 
d="M171 22.5q-61 33.5 -97.5 93t-36.5 134.5t36.5 134.5t97.5 93t132 33.5t132 -33.5t97.5 -93t36.5 -134.5t-36.5 -134.5t-97.5 -93t-132 -33.5t-132 33.5zM384 107.5q37 21.5 58 59t21 83.5t-21 83.5t-58 59t-81 21.5q-45 0 -82 -21.5t-58 -59t-21 -83.5t21 -83.5t58 -59
t82 -21.5q44 0 81 21.5zM359 568h-91l-105 146h103z" />
    <glyph glyph-name="oacute" unicode="&#xf3;" horiz-adv-x="605" 
d="M171 22.5q-61 33.5 -97.5 93t-36.5 134.5t36.5 134.5t97.5 93t132 33.5t132 -33.5t97.5 -93t36.5 -134.5t-36.5 -134.5t-97.5 -93t-132 -33.5t-132 33.5zM384 107.5q37 21.5 58 59t21 83.5t-21 83.5t-58 59t-81 21.5q-45 0 -82 -21.5t-58 -59t-21 -83.5t21 -83.5t58 -59
t82 -21.5q44 0 81 21.5zM337 568h-89l93 146h101z" />
    <glyph glyph-name="ocircumflex" unicode="&#xf4;" horiz-adv-x="605" 
d="M171 22.5q-61 33.5 -97.5 93t-36.5 134.5t36.5 134.5t97.5 93t132 33.5t132 -33.5t97.5 -93t36.5 -134.5t-36.5 -134.5t-97.5 -93t-132 -33.5t-132 33.5zM384 107.5q37 21.5 58 59t21 83.5t-21 83.5t-58 59t-81 21.5q-45 0 -82 -21.5t-58 -59t-21 -83.5t21 -83.5t58 -59
t82 -21.5q44 0 81 21.5zM234 568h-97l127 141h83l126 -141h-96l-71 80z" />
    <glyph glyph-name="otilde" unicode="&#xf5;" horiz-adv-x="605" 
d="M171 22.5q-61 33.5 -97.5 93t-36.5 134.5t36.5 134.5t97.5 93t132 33.5t132 -33.5t97.5 -93t36.5 -134.5t-36.5 -134.5t-97.5 -93t-132 -33.5t-132 33.5zM384 107.5q37 21.5 58 59t21 83.5t-21 83.5t-58 59t-81 21.5q-45 0 -82 -21.5t-58 -59t-21 -83.5t21 -83.5t58 -59
t82 -21.5q44 0 81 21.5zM144 598q0 48 24 75t66 27q22 0 39.5 -7.5t44.5 -23.5q31 -20 45 -20q31 0 31 43v8h72v-22q0 -48 -24 -75t-65 -27q-22 0 -40 7.5t-45 23.5q-31 20 -45 20q-30 0 -30 -43v-8h-73v22z" />
    <glyph glyph-name="odieresis" unicode="&#xf6;" horiz-adv-x="605" 
d="M171 22.5q-61 33.5 -97.5 93t-36.5 134.5t36.5 134.5t97.5 93t132 33.5t132 -33.5t97.5 -93t36.5 -134.5t-36.5 -134.5t-97.5 -93t-132 -33.5t-132 33.5zM384 107.5q37 21.5 58 59t21 83.5t-21 83.5t-58 59t-81 21.5q-45 0 -82 -21.5t-58 -59t-21 -83.5t21 -83.5t58 -59
t82 -21.5q44 0 81 21.5zM259 589h-102v106h102v-106zM454 589h-101v106h101v-106z" />
    <glyph glyph-name="divide" unicode="&#xf7;" 
d="M330 469h-105v112h105v-112zM523 292h-490v96h490v-96zM330 100h-105v112h105v-112z" />
    <glyph glyph-name="oslash" unicode="&#xf8;" horiz-adv-x="605" 
d="M496 431q35 -35 54 -81t19 -100q0 -74 -36.5 -134t-98 -93.5t-132.5 -33.5q-68 0 -128 31l-24 -31h-103l62 79q-35 35 -54 81.5t-19 100.5q0 75 36.5 134.5t97.5 93t132 33.5q70 0 129 -32l25 32h102zM173 150l198 252q-32 15 -69 15q-44 0 -81 -22t-58 -60t-21 -85
q0 -58 31 -100zM384 105q37 22 58 60t21 85q0 58 -31 100l-197 -252q30 -15 67 -15q45 0 82 22z" />
    <glyph glyph-name="ugrave" unicode="&#xf9;" horiz-adv-x="584" 
d="M173 18q-51 29 -78.5 80.5t-27.5 118.5v283h104v-283q0 -59 33 -95t88 -36t88.5 36t33.5 95v283h104v-283q0 -67 -27.5 -118.5t-79 -80.5t-119.5 -29t-119 29zM346 568h-91l-105 146h103z" />
    <glyph glyph-name="uacute" unicode="&#xfa;" horiz-adv-x="584" 
d="M173 18q-51 29 -78.5 80.5t-27.5 118.5v283h104v-283q0 -59 33 -95t88 -36t88.5 36t33.5 95v283h104v-283q0 -67 -27.5 -118.5t-79 -80.5t-119.5 -29t-119 29zM324 568h-89l93 146h101z" />
    <glyph glyph-name="ucircumflex" unicode="&#xfb;" horiz-adv-x="584" 
d="M173 18q-51 29 -78.5 80.5t-27.5 118.5v283h104v-283q0 -59 33 -95t88 -36t88.5 36t33.5 95v283h104v-283q0 -67 -27.5 -118.5t-79 -80.5t-119.5 -29t-119 29zM221 568h-97l127 141h83l126 -141h-96l-71 80z" />
    <glyph glyph-name="udieresis" unicode="&#xfc;" horiz-adv-x="584" 
d="M173 18q-51 29 -78.5 80.5t-27.5 118.5v283h104v-283q0 -59 33 -95t88 -36t88.5 36t33.5 95v283h104v-283q0 -67 -27.5 -118.5t-79 -80.5t-119.5 -29t-119 29zM246 589h-102v106h102v-106zM441 589h-101v106h101v-106z" />
    <glyph glyph-name="yacute" unicode="&#xfd;" horiz-adv-x="542" 
d="M274 158l150 342h111l-314 -700h-109l108 241l-217 459h114zM300 568h-89l93 146h101z" />
    <glyph glyph-name="thorn" unicode="&#xfe;" horiz-adv-x="640" 
d="M474.5 477q58.5 -34 93.5 -93.5t35 -133.5t-35 -133.5t-93.5 -93.5t-124.5 -34q-105 0 -169 72v-261h-104v920h104v-281q64 72 169 72q66 0 124.5 -34zM419 107.5q37 21.5 58 59t21 83.5t-21 83.5t-58 59t-82 21.5t-82 -21.5t-58 -59t-21 -83.5t21 -83.5t58 -59t82 -21.5
t82 21.5z" />
    <glyph glyph-name="ydieresis" unicode="&#xff;" horiz-adv-x="542" 
d="M274 158l150 342h111l-314 -700h-109l108 241l-217 459h114zM222 589h-102v106h102v-106zM417 589h-101v106h101v-106z" />
    <glyph glyph-name="Amacron" unicode="&#x100;" horiz-adv-x="687" 
d="M672 0h-118l-64 168h-295l-64 -168h-116l279 700h99zM453 271l-110 287l-110 -287h220zM495 796h-302v78h302v-78z" />
    <glyph glyph-name="amacron" unicode="&#x101;" horiz-adv-x="635" 
d="M462 500h101v-500h-101v64q-65 -75 -172 -75q-66 0 -124.5 34t-93.5 93.5t-35 133.5t35 133.5t93.5 93.5t124.5 34q107 0 172 -75v64zM385 107.5q37 21.5 58 59t21 83.5t-21 83.5t-58 59t-82 21.5t-82 -21.5t-58 -59t-21 -83.5t21 -83.5t58 -59t82 -21.5t82 21.5z
M470 599h-302v78h302v-78z" />
    <glyph glyph-name="Abreve" unicode="&#x102;" horiz-adv-x="687" 
d="M672 0h-118l-64 168h-295l-64 -168h-116l279 700h99zM453 271l-110 287l-110 -287h220zM227.5 796q-43.5 41 -47.5 105h82q4 -36 25.5 -54.5t56.5 -18.5q34 0 56 18.5t26 54.5h81q-4 -64 -47 -105t-116 -41t-116.5 41z" />
    <glyph glyph-name="abreve" unicode="&#x103;" horiz-adv-x="635" 
d="M462 500h101v-500h-101v64q-65 -75 -172 -75q-66 0 -124.5 34t-93.5 93.5t-35 133.5t35 133.5t93.5 93.5t124.5 34q107 0 172 -75v64zM385 107.5q37 21.5 58 59t21 83.5t-21 83.5t-58 59t-82 21.5t-82 -21.5t-58 -59t-21 -83.5t21 -83.5t58 -59t82 -21.5t82 21.5z
M203.5 601q-43.5 41 -47.5 104h82q4 -35 26 -54t56 -19t56 19t26 54h81q-4 -63 -47 -104t-116 -41t-116.5 41z" />
    <glyph glyph-name="Aogonek" unicode="&#x104;" horiz-adv-x="687" 
d="M608 -127.5q17 -14.5 49 -14.5h15v-73h-33q-54 0 -89 29.5t-35 82.5q0 33 16.5 59t42.5 44h-20l-64 168h-295l-64 -168h-116l279 700h99l279 -700q-36 -13 -58.5 -37t-22.5 -51q0 -25 17 -39.5zM453 271l-110 287l-110 -287h220z" />
    <glyph glyph-name="aogonek" unicode="&#x105;" horiz-adv-x="635" 
d="M563 0q-36 -13 -58.5 -37t-22.5 -51q0 -25 17 -39.5t49 -14.5h15v-73h-33q-54 0 -89 29.5t-35 82.5q0 33 16.5 59t42.5 44h-3v64q-65 -75 -172 -75q-66 0 -124.5 34t-93.5 93.5t-35 133.5t35 133.5t93.5 93.5t124.5 34q107 0 172 -75v64h101v-500zM385 107.5
q37 21.5 58 59t21 83.5t-21 83.5t-58 59t-82 21.5t-82 -21.5t-58 -59t-21 -83.5t21 -83.5t58 -59t82 -21.5t82 21.5z" />
    <glyph glyph-name="Cacute" unicode="&#x106;" horiz-adv-x="786" 
d="M231 36.5q-83 47.5 -132 130t-49 183.5t49 184t132 130t181 47q118 0 206.5 -65t127.5 -176h-115q-31 64 -88.5 101.5t-130.5 37.5q-69 0 -126 -34.5t-90 -93.5t-33 -131t33 -131t90 -93t126 -34q75 0 132.5 37.5t88.5 100.5h115q-39 -111 -128 -176t-208 -65
q-98 0 -181 47.5zM442 763h-89l93 147h101z" />
    <glyph glyph-name="cacute" unicode="&#x107;" horiz-adv-x="575" 
d="M169.5 22.5q-60.5 33.5 -96.5 93t-36 134.5t36 134.5t96.5 93t130.5 33.5q85 0 154 -47.5t95 -132.5h-109q-21 40 -58 61.5t-82 21.5q-44 0 -80 -21.5t-57 -59t-21 -83.5t21 -83.5t57 -59t80 -21.5q45 0 82 21.5t58 61.5h109q-26 -85 -95 -132.5t-154 -47.5
q-70 0 -130.5 33.5zM337 568h-89l93 146h101z" />
    <glyph glyph-name="Ccircumflex" unicode="&#x108;" horiz-adv-x="786" 
d="M231 36.5q-83 47.5 -132 130t-49 183.5t49 184t132 130t181 47q118 0 206.5 -65t127.5 -176h-115q-31 64 -88.5 101.5t-130.5 37.5q-69 0 -126 -34.5t-90 -93.5t-33 -131t33 -131t90 -93t126 -34q75 0 132.5 37.5t88.5 100.5h115q-39 -111 -128 -176t-208 -65
q-98 0 -181 47.5zM339 763h-97l127 142h83l126 -142h-96l-71 81z" />
    <glyph glyph-name="ccircumflex" unicode="&#x109;" horiz-adv-x="575" 
d="M169.5 22.5q-60.5 33.5 -96.5 93t-36 134.5t36 134.5t96.5 93t130.5 33.5q85 0 154 -47.5t95 -132.5h-109q-21 40 -58 61.5t-82 21.5q-44 0 -80 -21.5t-57 -59t-21 -83.5t21 -83.5t57 -59t80 -21.5q45 0 82 21.5t58 61.5h109q-26 -85 -95 -132.5t-154 -47.5
q-70 0 -130.5 33.5zM234 568h-97l127 141h83l126 -141h-96l-71 80z" />
    <glyph glyph-name="Cdotaccent" unicode="&#x10a;" horiz-adv-x="786" 
d="M231 36.5q-83 47.5 -132 130t-49 183.5t49 184t132 130t181 47q118 0 206.5 -65t127.5 -176h-115q-31 64 -88.5 101.5t-130.5 37.5q-69 0 -126 -34.5t-90 -93.5t-33 -131t33 -131t90 -93t126 -34q75 0 132.5 37.5t88.5 100.5h115q-39 -111 -128 -176t-208 -65
q-98 0 -181 47.5zM463 785h-105v106h105v-106z" />
    <glyph glyph-name="cdotaccent" unicode="&#x10b;" horiz-adv-x="575" 
d="M169.5 22.5q-60.5 33.5 -96.5 93t-36 134.5t36 134.5t96.5 93t130.5 33.5q85 0 154 -47.5t95 -132.5h-109q-21 40 -58 61.5t-82 21.5q-44 0 -80 -21.5t-57 -59t-21 -83.5t21 -83.5t57 -59t80 -21.5q45 0 82 21.5t58 61.5h109q-26 -85 -95 -132.5t-154 -47.5
q-70 0 -130.5 33.5zM358 589h-105v106h105v-106z" />
    <glyph glyph-name="Ccaron" unicode="&#x10c;" horiz-adv-x="786" 
d="M231 36.5q-83 47.5 -132 130t-49 183.5t49 184t132 130t181 47q118 0 206.5 -65t127.5 -176h-115q-31 64 -88.5 101.5t-130.5 37.5q-69 0 -126 -34.5t-90 -93.5t-33 -131t33 -131t90 -93t126 -34q75 0 132.5 37.5t88.5 100.5h115q-39 -111 -128 -176t-208 -65
q-98 0 -181 47.5zM453 763h-83l-127 142h96l72 -81l71 81h97z" />
    <glyph glyph-name="ccaron" unicode="&#x10d;" horiz-adv-x="575" 
d="M169.5 22.5q-60.5 33.5 -96.5 93t-36 134.5t36 134.5t96.5 93t130.5 33.5q85 0 154 -47.5t95 -132.5h-109q-21 40 -58 61.5t-82 21.5q-44 0 -80 -21.5t-57 -59t-21 -83.5t21 -83.5t57 -59t80 -21.5q45 0 82 21.5t58 61.5h109q-26 -85 -95 -132.5t-154 -47.5
q-70 0 -130.5 33.5zM347 568h-83l-127 141h97l71 -80l72 80h96z" />
    <glyph glyph-name="Dcaron" unicode="&#x10e;" horiz-adv-x="734" 
d="M90 0v700h206q118 0 205.5 -43.5t135 -123t47.5 -183.5t-47.5 -183.5t-135 -123t-205.5 -43.5h-206zM296 103q85 0 147 30.5t95 86.5t33 130t-33 130t-95 87t-147 31h-96v-495h96zM409 763h-83l-127 142h96l72 -81l71 81h97z" />
    <glyph glyph-name="dcaron" unicode="&#x10f;" horiz-adv-x="640" 
d="M459 720h104v-720h-101v64q-65 -75 -172 -75q-66 0 -124.5 34t-93.5 93.5t-35 133.5t35 133.5t93.5 93.5t124.5 34q105 0 169 -72v281zM385 107.5q37 21.5 58 59t21 83.5t-21 83.5t-58 59t-82 21.5t-82 -21.5t-58 -59t-21 -83.5t21 -83.5t58 -59t82 -21.5t82 21.5z
M697 556h-73l21 164h87z" />
    <glyph glyph-name="Dcroat" unicode="&#x110;" horiz-adv-x="739" 
d="M301 700q118 0 205.5 -43.5t135 -123t47.5 -183.5t-47.5 -183.5t-135 -123t-205.5 -43.5h-206v305h-85v95h85v300h206zM301 103q85 0 147 30.5t95 86.5t33 130t-33 130t-95 87t-147 31h-96v-198h198v-95h-198v-202h96z" />
    <glyph glyph-name="dcroat" unicode="&#x111;" horiz-adv-x="623" 
d="M618 633v-87h-75v-546h-101v60q-28 -32 -71 -51.5t-94 -19.5q-64 0 -119 29.5t-88 84.5t-33 128q0 71 33 126t88 85t119 30q49 0 92.5 -18.5t69.5 -49.5v142h-165v87h165v87h104v-87h75zM401 122.5q43 41.5 43 107.5q0 67 -43 108.5t-108 41.5q-42 0 -76.5 -19t-54.5 -53
t-20 -78t20 -77.5t54.5 -52.5t76.5 -19q65 0 108 41.5z" />
    <glyph glyph-name="Emacron" unicode="&#x112;" horiz-adv-x="556" 
d="M200 310v-207h296v-103h-406v700h396v-102h-286v-185h276v-103h-276zM442 796h-302v78h302v-78z" />
    <glyph glyph-name="emacron" unicode="&#x113;" horiz-adv-x="582" 
d="M420.5 478.5q58.5 -32.5 93 -89.5t34.5 -129q0 -26 -4 -47h-399q9 -63 48.5 -99t100.5 -36q91 0 132 72h107q-30 -74 -91.5 -117.5t-147.5 -43.5q-70 0 -129 33.5t-93.5 93t-34.5 134.5t34.5 134.5t93.5 93t129 33.5q68 0 126.5 -32.5zM196.5 389q-38.5 -33 -49.5 -91
h293q-8 55 -47 89.5t-99 34.5q-59 0 -97.5 -33zM446 599h-302v78h302v-78z" />
    <glyph glyph-name="Ebreve" unicode="&#x114;" horiz-adv-x="556" 
d="M200 310v-207h296v-103h-406v700h396v-102h-286v-185h276v-103h-276zM175.5 796q-43.5 41 -47.5 105h82q4 -36 25.5 -54.5t56.5 -18.5q34 0 56 18.5t26 54.5h81q-4 -64 -47 -105t-116 -41t-116.5 41z" />
    <glyph glyph-name="ebreve" unicode="&#x115;" horiz-adv-x="582" 
d="M420.5 478.5q58.5 -32.5 93 -89.5t34.5 -129q0 -26 -4 -47h-399q9 -63 48.5 -99t100.5 -36q91 0 132 72h107q-30 -74 -91.5 -117.5t-147.5 -43.5q-70 0 -129 33.5t-93.5 93t-34.5 134.5t34.5 134.5t93.5 93t129 33.5q68 0 126.5 -32.5zM196.5 389q-38.5 -33 -49.5 -91
h293q-8 55 -47 89.5t-99 34.5q-59 0 -97.5 -33zM179.5 601q-43.5 41 -47.5 104h82q4 -35 26 -54t56 -19t56 19t26 54h81q-4 -63 -47 -104t-116 -41t-116.5 41z" />
    <glyph glyph-name="Edotaccent" unicode="&#x116;" horiz-adv-x="556" 
d="M200 310v-207h296v-103h-406v700h396v-102h-286v-185h276v-103h-276zM344 785h-105v106h105v-106z" />
    <glyph glyph-name="edotaccent" unicode="&#x117;" horiz-adv-x="582" 
d="M420.5 478.5q58.5 -32.5 93 -89.5t34.5 -129q0 -26 -4 -47h-399q9 -63 48.5 -99t100.5 -36q91 0 132 72h107q-30 -74 -91.5 -117.5t-147.5 -43.5q-70 0 -129 33.5t-93.5 93t-34.5 134.5t34.5 134.5t93.5 93t129 33.5q68 0 126.5 -32.5zM196.5 389q-38.5 -33 -49.5 -91
h293q-8 55 -47 89.5t-99 34.5q-59 0 -97.5 -33zM348 589h-105v106h105v-106z" />
    <glyph glyph-name="Eogonek" unicode="&#x118;" horiz-adv-x="556" 
d="M496 0q-36 -13 -58.5 -37t-22.5 -51q0 -25 17 -39.5t49 -14.5h15v-73h-33q-54 0 -89 29.5t-35 82.5q0 33 16.5 59t42.5 44h-308v700h396v-102h-286v-185h276v-103h-276v-207h296v-103z" />
    <glyph glyph-name="eogonek" unicode="&#x119;" horiz-adv-x="582" 
d="M420.5 478.5q58.5 -32.5 93 -89.5t34.5 -129q0 -26 -4 -47h-399q9 -63 48.5 -99t100.5 -36q91 0 132 72h107q-11 -35 -30.5 -62.5t-49.5 -61.5q-32 -36 -46.5 -60t-14.5 -52q0 -27 17 -41.5t48 -14.5h18v-73h-30q-56 0 -92.5 30t-36.5 85q0 31 11.5 53.5t31.5 42.5
q-27 -7 -65 -7q-70 0 -129 33.5t-93.5 93t-34.5 134.5t34.5 134.5t93.5 93t129 33.5q68 0 126.5 -32.5zM196.5 389q-38.5 -33 -49.5 -91h293q-8 55 -47 89.5t-99 34.5q-59 0 -97.5 -33z" />
    <glyph glyph-name="Ecaron" unicode="&#x11a;" horiz-adv-x="556" 
d="M200 310v-207h296v-103h-406v700h396v-102h-286v-185h276v-103h-276zM333 763h-83l-127 142h96l72 -81l71 81h97z" />
    <glyph glyph-name="ecaron" unicode="&#x11b;" horiz-adv-x="582" 
d="M420.5 478.5q58.5 -32.5 93 -89.5t34.5 -129q0 -26 -4 -47h-399q9 -63 48.5 -99t100.5 -36q91 0 132 72h107q-30 -74 -91.5 -117.5t-147.5 -43.5q-70 0 -129 33.5t-93.5 93t-34.5 134.5t34.5 134.5t93.5 93t129 33.5q68 0 126.5 -32.5zM196.5 389q-38.5 -33 -49.5 -91
h293q-8 55 -47 89.5t-99 34.5q-59 0 -97.5 -33zM337 568h-83l-127 141h97l71 -80l72 80h96z" />
    <glyph glyph-name="Gcircumflex" unicode="&#x11c;" horiz-adv-x="807" 
d="M393 379h374v-35q0 -99 -44.5 -180.5t-125 -128t-183.5 -46.5q-99 0 -182.5 47.5t-132.5 130t-49 183.5t49 184t132.5 130t182.5 47q122 0 212.5 -64t129.5 -172h-116q-33 62 -90.5 98t-135.5 36q-69 0 -126.5 -34.5t-91 -93.5t-33.5 -131t33.5 -131t91 -93t126.5 -34
q94 0 157.5 50t79.5 135h-258v102zM343 763h-97l127 142h83l126 -142h-96l-71 81z" />
    <glyph glyph-name="gcircumflex" unicode="&#x11d;" horiz-adv-x="625" 
d="M452 500h101v-462q0 -73 -30 -131t-88 -91.5t-137 -33.5q-96 0 -160.5 49.5t-86.5 131.5h106q17 -39 53 -62t87 -23q71 0 111.5 42.5t40.5 109.5v52q-29 -33 -71.5 -52t-94.5 -19q-66 0 -122.5 31.5t-90 88.5t-33.5 130t33.5 130t90 88.5t122.5 31.5q104 0 169 -75v64z
M378 125.5q36 20.5 56 56t20 79.5t-20 79.5t-56 56t-80 20.5q-45 0 -80.5 -20.5t-55.5 -56t-20 -79.5t20 -79.5t55.5 -56t80.5 -20.5q44 0 80 20.5zM243 568h-97l127 141h83l126 -141h-96l-71 80z" />
    <glyph glyph-name="Gbreve" unicode="&#x11e;" horiz-adv-x="807" 
d="M393 379h374v-35q0 -99 -44.5 -180.5t-125 -128t-183.5 -46.5q-99 0 -182.5 47.5t-132.5 130t-49 183.5t49 184t132.5 130t182.5 47q122 0 212.5 -64t129.5 -172h-116q-33 62 -90.5 98t-135.5 36q-69 0 -126.5 -34.5t-91 -93.5t-33.5 -131t33.5 -131t91 -93t126.5 -34
q94 0 157.5 50t79.5 135h-258v102zM298.5 796q-43.5 41 -47.5 105h82q4 -36 25.5 -54.5t56.5 -18.5q34 0 56 18.5t26 54.5h81q-4 -64 -47 -105t-116 -41t-116.5 41z" />
    <glyph glyph-name="gbreve" unicode="&#x11f;" horiz-adv-x="625" 
d="M452 500h101v-462q0 -73 -30 -131t-88 -91.5t-137 -33.5q-96 0 -160.5 49.5t-86.5 131.5h106q17 -39 53 -62t87 -23q71 0 111.5 42.5t40.5 109.5v52q-29 -33 -71.5 -52t-94.5 -19q-66 0 -122.5 31.5t-90 88.5t-33.5 130t33.5 130t90 88.5t122.5 31.5q104 0 169 -75v64z
M378 125.5q36 20.5 56 56t20 79.5t-20 79.5t-56 56t-80 20.5q-45 0 -80.5 -20.5t-55.5 -56t-20 -79.5t20 -79.5t55.5 -56t80.5 -20.5q44 0 80 20.5zM198.5 601q-43.5 41 -47.5 104h82q4 -35 26 -54t56 -19t56 19t26 54h81q-4 -63 -47 -104t-116 -41t-116.5 41z" />
    <glyph glyph-name="Gdotaccent" unicode="&#x120;" horiz-adv-x="807" 
d="M393 379h374v-35q0 -99 -44.5 -180.5t-125 -128t-183.5 -46.5q-99 0 -182.5 47.5t-132.5 130t-49 183.5t49 184t132.5 130t182.5 47q122 0 212.5 -64t129.5 -172h-116q-33 62 -90.5 98t-135.5 36q-69 0 -126.5 -34.5t-91 -93.5t-33.5 -131t33.5 -131t91 -93t126.5 -34
q94 0 157.5 50t79.5 135h-258v102zM467 785h-105v106h105v-106z" />
    <glyph glyph-name="gdotaccent" unicode="&#x121;" horiz-adv-x="625" 
d="M452 500h101v-462q0 -73 -30 -131t-88 -91.5t-137 -33.5q-96 0 -160.5 49.5t-86.5 131.5h106q17 -39 53 -62t87 -23q71 0 111.5 42.5t40.5 109.5v52q-29 -33 -71.5 -52t-94.5 -19q-66 0 -122.5 31.5t-90 88.5t-33.5 130t33.5 130t90 88.5t122.5 31.5q104 0 169 -75v64z
M378 125.5q36 20.5 56 56t20 79.5t-20 79.5t-56 56t-80 20.5q-45 0 -80.5 -20.5t-55.5 -56t-20 -79.5t20 -79.5t55.5 -56t80.5 -20.5q44 0 80 20.5zM367 589h-105v106h105v-106z" />
    <glyph glyph-name="uni0122" unicode="&#x122;" horiz-adv-x="807" 
d="M393 379h374v-35q0 -99 -44.5 -180.5t-125 -128t-183.5 -46.5q-99 0 -182.5 47.5t-132.5 130t-49 183.5t49 184t132.5 130t182.5 47q122 0 212.5 -64t129.5 -172h-116q-33 62 -90.5 98t-135.5 36q-69 0 -126.5 -34.5t-91 -93.5t-33.5 -131t33.5 -131t91 -93t126.5 -34
q94 0 157.5 50t79.5 135h-258v102zM394 -256h-86l48 171h101z" />
    <glyph glyph-name="uni0123" unicode="&#x123;" horiz-adv-x="625" 
d="M452 500h101v-462q0 -73 -30 -131t-88 -91.5t-137 -33.5q-96 0 -160.5 49.5t-86.5 131.5h106q17 -39 53 -62t87 -23q71 0 111.5 42.5t40.5 109.5v52q-29 -33 -71.5 -52t-94.5 -19q-66 0 -122.5 31.5t-90 88.5t-33.5 130t33.5 130t90 88.5t122.5 31.5q104 0 169 -75v64z
M378 125.5q36 20.5 56 56t20 79.5t-20 79.5t-56 56t-80 20.5q-45 0 -80.5 -20.5t-55.5 -56t-20 -79.5t20 -79.5t55.5 -56t80.5 -20.5q44 0 80 20.5zM357 568h-101l79 171h86z" />
    <glyph glyph-name="Hcircumflex" unicode="&#x124;" horiz-adv-x="733" 
d="M533 413v287h110v-700h-110v310h-333v-310h-110v700h110v-287h333zM295 763h-97l127 142h83l126 -142h-96l-71 81z" />
    <glyph glyph-name="hcircumflex" unicode="&#x125;" horiz-adv-x="601" 
d="M436.5 482.5q46.5 -28.5 72.5 -78t26 -110.5v-294h-104v281q0 60 -32.5 96.5t-88.5 36.5q-55 0 -92 -37t-37 -96v-281h-104v720h104v-276q60 67 150 67q59 0 105.5 -28.5zM232 789h-97l127 141h83l126 -141h-96l-71 80z" />
    <glyph glyph-name="Hbar" unicode="&#x126;" horiz-adv-x="743" 
d="M648 609h85v-95h-85v-514h-110v310h-333v-310h-110v514h-85v95h85v91h110v-91h333v91h110v-91zM205 514v-101h333v101h-333z" />
    <glyph glyph-name="hbar" unicode="&#x127;" horiz-adv-x="605" 
d="M440.5 443.5q46.5 -28.5 72 -78t25.5 -110.5v-255h-104v242q0 60 -32 96.5t-89 36.5q-55 0 -92 -37.5t-37 -95.5v-242h-104v546h-75v87h75v87h104v-87h165v-87h-165v-141q62 67 151 67q59 0 105.5 -28.5z" />
    <glyph glyph-name="Imacron" unicode="&#x12a;" horiz-adv-x="300" 
d="M205 0h-110v700h110v-700zM301 796h-302v78h302v-78z" />
    <glyph glyph-name="imacron" unicode="&#x12b;" horiz-adv-x="247" 
d="M176 0h-104v500h104v-500zM274 599h-302v78h302v-78z" />
    <glyph glyph-name="Ibreve" unicode="&#x12c;" horiz-adv-x="300" 
d="M205 0h-110v700h110v-700zM33.5 796q-43.5 41 -47.5 105h82q4 -36 25.5 -54.5t56.5 -18.5q34 0 56 18.5t26 54.5h81q-4 -64 -47 -105t-116 -41t-116.5 41z" />
    <glyph glyph-name="ibreve" unicode="&#x12d;" horiz-adv-x="247" 
d="M176 0h-104v500h104v-500zM7.5 601q-43.5 41 -47.5 104h82q4 -35 26 -54t56 -19t56 19t26 54h81q-4 -63 -47 -104t-116 -41t-116.5 41z" />
    <glyph glyph-name="Iogonek" unicode="&#x12e;" horiz-adv-x="300" 
d="M205 0q-36 -13 -58.5 -37t-22.5 -51q0 -25 17 -39.5t49 -14.5h15v-73h-33q-54 0 -89 29.5t-35 82.5q0 33 16.5 59t42.5 44h-12v700h110v-700z" />
    <glyph glyph-name="iogonek" unicode="&#x12f;" horiz-adv-x="247" 
d="M66 589v106h114v-106h-114zM72 0v500h104v-500h-1q-36 -13 -58.5 -37t-22.5 -51q0 -25 17 -39.5t49 -14.5h15v-73h-33q-54 0 -89 29.5t-35 82.5q0 33 16.5 59t42.5 44h-5z" />
    <glyph glyph-name="Idotaccent" unicode="&#x130;" horiz-adv-x="300" 
d="M205 0h-110v700h110v-700zM207 785h-114v106h114v-106z" />
    <glyph glyph-name="dotlessi" unicode="&#x131;" horiz-adv-x="247" 
d="M176 0h-104v500h104v-500z" />
    <glyph glyph-name="IJ" unicode="&#x132;" horiz-adv-x="830" 
d="M205 0h-110v700h110v-700zM410 18.5q-51 29.5 -79 80.5t-28 114h110q0 -55 31.5 -88t82.5 -33q52 0 82.5 34.5t30.5 95.5v478h110v-479q0 -67 -28 -120t-78.5 -82.5t-116.5 -29.5t-117 29.5z" />
    <glyph glyph-name="ij" unicode="&#x133;" horiz-adv-x="494" 
d="M176 0h-104v500h104v-500zM180 589h-114v106h114v-106zM195 -206v97h44q38 0 59 21t21 58v530h104v-545q0 -73 -44.5 -117t-119.5 -44h-64zM427 589h-114v106h114v-106z" />
    <glyph glyph-name="Jcircumflex" unicode="&#x134;" horiz-adv-x="530" 
d="M110 18.5q-51 29.5 -79 80.5t-28 114h110q0 -55 31.5 -88t82.5 -33q52 0 82.5 34.5t30.5 95.5v478h110v-479q0 -67 -28 -120t-78.5 -82.5t-116.5 -29.5t-117 29.5zM323 763h-97l127 142h83l126 -142h-96l-71 81z" />
    <glyph glyph-name="jcircumflex" unicode="&#x135;" horiz-adv-x="247" 
d="M-52 -206v97h44q38 0 59 21t21 58v530h104v-545q0 -73 -44.5 -117t-119.5 -44h-64zM52 568h-97l127 141h83l126 -141h-96l-71 80z" />
    <glyph glyph-name="uni0136" unicode="&#x136;" horiz-adv-x="631" 
d="M311 362l315 -362h-141l-285 331v-331h-110v700h110v-317l271 317h132zM319 -256h-86l48 171h101z" />
    <glyph glyph-name="uni0137" unicode="&#x137;" horiz-adv-x="526" 
d="M281 258l242 -258h-131l-211 228v-228h-104v720h104v-440l201 220h125zM269 -256h-86l48 171h101z" />
    <glyph glyph-name="Lacute" unicode="&#x139;" horiz-adv-x="497" 
d="M467 0h-377v700h110v-597h267v-103zM177 763h-89l93 147h101z" />
    <glyph glyph-name="lacute" unicode="&#x13a;" horiz-adv-x="257" 
d="M181 0h-104v720h104v-720zM161 789h-89l93 146h101z" />
    <glyph glyph-name="uni013B" unicode="&#x13b;" horiz-adv-x="497" 
d="M467 0h-377v700h110v-597h267v-103zM264 -256h-86l48 171h101z" />
    <glyph glyph-name="uni013C" unicode="&#x13c;" horiz-adv-x="257" 
d="M181 0h-104v720h104v-720zM114 -256h-86l48 171h101z" />
    <glyph glyph-name="Lcaron" unicode="&#x13d;" horiz-adv-x="497" 
d="M467 0h-377v700h110v-597h267v-103zM334 536h-73l21 164h87z" />
    <glyph glyph-name="lcaron" unicode="&#x13e;" horiz-adv-x="257" 
d="M181 0h-104v720h104v-720zM314 556h-73l21 164h87z" />
    <glyph glyph-name="Ldot" unicode="&#x13f;" horiz-adv-x="497" 
d="M467 0h-377v700h110v-597h267v-103zM448 337h-107v116h107v-116z" />
    <glyph glyph-name="ldot" unicode="&#x140;" horiz-adv-x="325" 
d="M181 0h-104v720h104v-720zM345 315h-107v116h107v-116z" />
    <glyph glyph-name="Lslash" unicode="&#x141;" horiz-adv-x="507" 
d="M210 323v-220h267v-103h-377v276l-90 -38v104l90 38v320h110v-273l196 84v-104z" />
    <glyph glyph-name="lslash" unicode="&#x142;" horiz-adv-x="297" 
d="M201 442l95 49v-99l-95 -49v-343h-104v290l-95 -49v99l95 49v331h104v-278z" />
    <glyph glyph-name="Nacute" unicode="&#x143;" horiz-adv-x="799" 
d="M603 193v507h106v-700h-72l-440 506v-506h-107v700h73zM431 763h-89l93 147h101z" />
    <glyph glyph-name="nacute" unicode="&#x144;" horiz-adv-x="596" 
d="M431.5 482.5q46.5 -28.5 72.5 -78t26 -110.5v-294h-104v281q0 60 -32.5 96.5t-88.5 36.5q-55 0 -92 -37t-37 -96v-281h-104v500h101v-59q30 34 69 52t84 18q59 0 105.5 -28.5zM333 568h-89l93 146h101z" />
    <glyph glyph-name="uni0145" unicode="&#x145;" horiz-adv-x="799" 
d="M603 193v507h106v-700h-72l-440 506v-506h-107v700h73zM385 -256h-86l48 171h101z" />
    <glyph glyph-name="uni0146" unicode="&#x146;" horiz-adv-x="596" 
d="M431.5 482.5q46.5 -28.5 72.5 -78t26 -110.5v-294h-104v281q0 60 -32.5 96.5t-88.5 36.5q-55 0 -92 -37t-37 -96v-281h-104v500h101v-59q30 34 69 52t84 18q59 0 105.5 -28.5zM286 -256h-86l48 171h101z" />
    <glyph glyph-name="Ncaron" unicode="&#x147;" horiz-adv-x="799" 
d="M603 193v507h106v-700h-72l-440 506v-506h-107v700h73zM442 763h-83l-127 142h96l72 -81l71 81h97z" />
    <glyph glyph-name="ncaron" unicode="&#x148;" horiz-adv-x="596" 
d="M431.5 482.5q46.5 -28.5 72.5 -78t26 -110.5v-294h-104v281q0 60 -32.5 96.5t-88.5 36.5q-55 0 -92 -37t-37 -96v-281h-104v500h101v-59q30 34 69 52t84 18q59 0 105.5 -28.5zM343 568h-83l-127 141h97l71 -80l72 80h96z" />
    <glyph glyph-name="Eng" unicode="&#x14a;" horiz-adv-x="799" 
d="M603 700h106v-745q0 -73 -44.5 -117t-119.5 -44h-63v97h42q38 0 59 21t21 58v68l-407 468v-506h-107v700h73l440 -507v507z" />
    <glyph glyph-name="eng" unicode="&#x14b;" horiz-adv-x="596" 
d="M431.5 482.5q46.5 -28.5 72.5 -78t26 -110.5v-339q0 -73 -44.5 -117t-119.5 -44h-64v97h44q38 0 59 21t21 58v311q0 60 -32.5 96.5t-88.5 36.5q-55 0 -92 -37t-37 -96v-281h-104v500h101v-59q30 34 69 52t84 18q59 0 105.5 -28.5z" />
    <glyph glyph-name="Omacron" unicode="&#x14c;" horiz-adv-x="831" 
d="M232 36.5q-84 47.5 -133 130t-49 183.5t49 183.5t133 130t184 47.5t183.5 -47.5t132.5 -130t49 -183.5t-49 -183.5t-132.5 -130t-183.5 -47.5t-184 47.5zM543.5 126q57.5 34 91 93t33.5 131t-33.5 131.5t-91 93.5t-127.5 34t-128 -34t-91.5 -93.5t-33.5 -131.5t33.5 -131
t91.5 -93t128 -34t127.5 34zM567 796h-302v78h302v-78z" />
    <glyph glyph-name="omacron" unicode="&#x14d;" horiz-adv-x="605" 
d="M171 22.5q-61 33.5 -97.5 93t-36.5 134.5t36.5 134.5t97.5 93t132 33.5t132 -33.5t97.5 -93t36.5 -134.5t-36.5 -134.5t-97.5 -93t-132 -33.5t-132 33.5zM384 107.5q37 21.5 58 59t21 83.5t-21 83.5t-58 59t-81 21.5q-45 0 -82 -21.5t-58 -59t-21 -83.5t21 -83.5t58 -59
t82 -21.5q44 0 81 21.5zM456 599h-302v78h302v-78z" />
    <glyph glyph-name="Obreve" unicode="&#x14e;" horiz-adv-x="831" 
d="M232 36.5q-84 47.5 -133 130t-49 183.5t49 183.5t133 130t184 47.5t183.5 -47.5t132.5 -130t49 -183.5t-49 -183.5t-132.5 -130t-183.5 -47.5t-184 47.5zM543.5 126q57.5 34 91 93t33.5 131t-33.5 131.5t-91 93.5t-127.5 34t-128 -34t-91.5 -93.5t-33.5 -131.5t33.5 -131
t91.5 -93t128 -34t127.5 34zM299.5 796q-43.5 41 -47.5 105h82q4 -36 25.5 -54.5t56.5 -18.5q34 0 56 18.5t26 54.5h81q-4 -64 -47 -105t-116 -41t-116.5 41z" />
    <glyph glyph-name="obreve" unicode="&#x14f;" horiz-adv-x="605" 
d="M171 22.5q-61 33.5 -97.5 93t-36.5 134.5t36.5 134.5t97.5 93t132 33.5t132 -33.5t97.5 -93t36.5 -134.5t-36.5 -134.5t-97.5 -93t-132 -33.5t-132 33.5zM384 107.5q37 21.5 58 59t21 83.5t-21 83.5t-58 59t-81 21.5q-45 0 -82 -21.5t-58 -59t-21 -83.5t21 -83.5t58 -59
t82 -21.5q44 0 81 21.5zM189.5 601q-43.5 41 -47.5 104h82q4 -35 26 -54t56 -19t56 19t26 54h81q-4 -63 -47 -104t-116 -41t-116.5 41z" />
    <glyph glyph-name="Ohungarumlaut" unicode="&#x150;" horiz-adv-x="831" 
d="M232 36.5q-84 47.5 -133 130t-49 183.5t49 183.5t133 130t184 47.5t183.5 -47.5t132.5 -130t49 -183.5t-49 -183.5t-132.5 -130t-183.5 -47.5t-184 47.5zM543.5 126q57.5 34 91 93t33.5 131t-33.5 131.5t-91 93.5t-127.5 34t-128 -34t-91.5 -93.5t-33.5 -131.5t33.5 -131
t91.5 -93t128 -34t127.5 34zM376 763h-89l93 147h99zM525 763h-87l97 147h98z" />
    <glyph glyph-name="ohungarumlaut" unicode="&#x151;" horiz-adv-x="605" 
d="M171 22.5q-61 33.5 -97.5 93t-36.5 134.5t36.5 134.5t97.5 93t132 33.5t132 -33.5t97.5 -93t36.5 -134.5t-36.5 -134.5t-97.5 -93t-132 -33.5t-132 33.5zM384 107.5q37 21.5 58 59t21 83.5t-21 83.5t-58 59t-81 21.5q-45 0 -82 -21.5t-58 -59t-21 -83.5t21 -83.5t58 -59
t82 -21.5q44 0 81 21.5zM264 568h-89l93 146h99zM413 568h-87l97 146h98z" />
    <glyph glyph-name="OE" unicode="&#x152;" horiz-adv-x="1107" 
d="M751 103h296v-103h-406v98q-95 -109 -245 -109q-93 0 -172.5 47.5t-126.5 130t-47 183.5t47 184t126.5 130t172.5 47q150 0 245 -108v97h396v-102h-286v-185h276v-103h-276v-207zM523 126q55 34 86.5 93t31.5 131t-31.5 131t-86.5 93.5t-121 34.5t-121 -34.5t-86.5 -93.5
t-31.5 -131t31.5 -131t86.5 -93t121 -34t121 34z" />
    <glyph glyph-name="oe" unicode="&#x153;" horiz-adv-x="979" 
d="M819 478.5q57 -32.5 91.5 -90t34.5 -128.5q0 -26 -4 -47h-389q9 -63 47.5 -99t96.5 -36q86 0 127 72h107q-29 -74 -90 -117.5t-144 -43.5q-62 0 -115.5 28.5t-85.5 78.5q-33 -52 -86.5 -79.5t-116.5 -27.5q-67 0 -125.5 33t-94 92.5t-35.5 135.5t35.5 135.5t94.5 92.5
t125 33q63 0 116.5 -28t86.5 -80q31 51 85 79.5t116 28.5q66 0 123 -32.5zM603 388.5q-38 -33.5 -49 -90.5h283q-8 55 -46 89.5t-95 34.5q-55 0 -93 -33.5zM368 107q35 21 55.5 58.5t20.5 84.5t-20.5 84.5t-55.5 58.5t-75 21q-41 0 -75.5 -21t-55 -58.5t-20.5 -84.5
t20.5 -84.5t55 -58.5t75.5 -21q40 0 75 21z" />
    <glyph glyph-name="Racute" unicode="&#x154;" horiz-adv-x="633" 
d="M498 0l-226 274h-72v-274h-110v700h220q74 0 129 -27.5t85 -76t30 -109.5q0 -73 -41.5 -126.5t-114.5 -74.5l237 -286h-137zM200 598v-221h109q62 0 97 30.5t35 79.5t-35 80t-97 31h-109zM346 763h-89l93 147h101z" />
    <glyph glyph-name="racute" unicode="&#x155;" horiz-adv-x="379" 
d="M369 506v-97h-57q-57 0 -96.5 -38.5t-39.5 -98.5v-272h-104v500h101v-64q62 70 155 70h41zM263 568h-89l93 146h101z" />
    <glyph glyph-name="uni0156" unicode="&#x156;" horiz-adv-x="633" 
d="M498 0l-226 274h-72v-274h-110v700h220q74 0 129 -27.5t85 -76t30 -109.5q0 -73 -41.5 -126.5t-114.5 -74.5l237 -286h-137zM200 598v-221h109q62 0 97 30.5t35 79.5t-35 80t-97 31h-109zM318 -256h-86l48 171h101z" />
    <glyph glyph-name="uni0157" unicode="&#x157;" horiz-adv-x="379" 
d="M369 506v-97h-57q-57 0 -96.5 -38.5t-39.5 -98.5v-272h-104v500h101v-64q62 70 155 70h41zM109 -256h-86l48 171h101z" />
    <glyph glyph-name="Rcaron" unicode="&#x158;" horiz-adv-x="633" 
d="M498 0l-226 274h-72v-274h-110v700h220q74 0 129 -27.5t85 -76t30 -109.5q0 -73 -41.5 -126.5t-114.5 -74.5l237 -286h-137zM200 598v-221h109q62 0 97 30.5t35 79.5t-35 80t-97 31h-109zM356 763h-83l-127 142h96l72 -81l71 81h97z" />
    <glyph glyph-name="rcaron" unicode="&#x159;" horiz-adv-x="379" 
d="M369 506v-97h-57q-57 0 -96.5 -38.5t-39.5 -98.5v-272h-104v500h101v-64q62 70 155 70h41zM273 568h-83l-127 141h97l71 -80l72 80h96z" />
    <glyph glyph-name="Sacute" unicode="&#x15a;" horiz-adv-x="579" 
d="M164.5 16.5q-56.5 27.5 -87.5 77.5t-32 115h112q2 -54 37.5 -87t100.5 -33q59 0 92.5 26t33.5 71q0 35 -19.5 57t-48.5 35.5t-81 30.5q-68 23 -109 43.5t-70.5 61.5t-29.5 108q0 54 29.5 97t82 67.5t118.5 24.5q62 0 113.5 -25.5t83 -72t32.5 -107.5h-111
q-2 46 -34.5 75.5t-86.5 29.5q-50 0 -82 -24t-32 -67q0 -33 19 -55t48.5 -35t79.5 -29q68 -23 109.5 -44t71.5 -63t30 -110q0 -55 -30 -99.5t-84 -70t-124 -25.5q-75 0 -131.5 27.5zM325 763h-89l93 147h101z" />
    <glyph glyph-name="sacute" unicode="&#x15b;" horiz-adv-x="504" 
d="M149.5 10q-46.5 21 -73.5 58t-29 84h103q3 -32 31.5 -52.5t75.5 -20.5q40 0 65 15.5t25 44.5q0 31 -27.5 45.5t-84.5 27.5q-55 13 -89.5 27t-59.5 44.5t-25 82.5q0 41 25 74t68.5 52t96.5 19q50 0 93 -20.5t69 -56.5t28 -81h-103q-2 30 -27.5 49t-64.5 19
q-35 0 -57.5 -14.5t-22.5 -39.5q0 -21 14.5 -33.5t35.5 -20t61 -17.5q56 -13 91 -26.5t60 -44t25 -81.5q0 -72 -55.5 -113.5t-141.5 -41.5q-60 0 -106.5 21zM288 568h-89l93 146h101z" />
    <glyph glyph-name="Scircumflex" unicode="&#x15c;" horiz-adv-x="579" 
d="M164.5 16.5q-56.5 27.5 -87.5 77.5t-32 115h112q2 -54 37.5 -87t100.5 -33q59 0 92.5 26t33.5 71q0 35 -19.5 57t-48.5 35.5t-81 30.5q-68 23 -109 43.5t-70.5 61.5t-29.5 108q0 54 29.5 97t82 67.5t118.5 24.5q62 0 113.5 -25.5t83 -72t32.5 -107.5h-111
q-2 46 -34.5 75.5t-86.5 29.5q-50 0 -82 -24t-32 -67q0 -33 19 -55t48.5 -35t79.5 -29q68 -23 109.5 -44t71.5 -63t30 -110q0 -55 -30 -99.5t-84 -70t-124 -25.5q-75 0 -131.5 27.5zM222 763h-97l127 142h83l126 -142h-96l-71 81z" />
    <glyph glyph-name="scircumflex" unicode="&#x15d;" horiz-adv-x="504" 
d="M149.5 10q-46.5 21 -73.5 58t-29 84h103q3 -32 31.5 -52.5t75.5 -20.5q40 0 65 15.5t25 44.5q0 31 -27.5 45.5t-84.5 27.5q-55 13 -89.5 27t-59.5 44.5t-25 82.5q0 41 25 74t68.5 52t96.5 19q50 0 93 -20.5t69 -56.5t28 -81h-103q-2 30 -27.5 49t-64.5 19
q-35 0 -57.5 -14.5t-22.5 -39.5q0 -21 14.5 -33.5t35.5 -20t61 -17.5q56 -13 91 -26.5t60 -44t25 -81.5q0 -72 -55.5 -113.5t-141.5 -41.5q-60 0 -106.5 21zM185 568h-97l127 141h83l126 -141h-96l-71 80z" />
    <glyph glyph-name="Scedilla" unicode="&#x15e;" horiz-adv-x="579" 
d="M507.5 90.5q-26.5 -42.5 -74.5 -69t-110 -31.5l-13 -29q39 -5 59.5 -29t20.5 -54q0 -45 -28.5 -69t-74.5 -24h-59v61h47q22 0 33 9.5t11 24.5q0 16 -11 25t-33 9h-36v39l17 38q-96 10 -152.5 69t-58.5 149h112q2 -54 37.5 -87t100.5 -33q59 0 92.5 26t33.5 71
q0 35 -19.5 57t-48.5 35.5t-81 30.5q-68 23 -109 43.5t-70.5 61.5t-29.5 108q0 54 29.5 97t82 67.5t118.5 24.5q62 0 113.5 -25.5t83 -72t32.5 -107.5h-111q-2 46 -34.5 75.5t-86.5 29.5q-50 0 -82 -24t-32 -67q0 -33 19 -55t48.5 -35t79.5 -29q68 -23 109.5 -44t71.5 -63
t30 -110q0 -51 -26.5 -93.5z" />
    <glyph glyph-name="scedilla" unicode="&#x15f;" horiz-adv-x="504" 
d="M407.5 39.5q-45.5 -40.5 -118.5 -48.5l-14 -30q39 -5 59.5 -29t20.5 -54q0 -45 -28.5 -69t-74.5 -24h-59v61h47q22 0 33 9.5t11 24.5q0 16 -11 25t-33 9h-36v39l17 38q-77 9 -123.5 53t-50.5 108h103q3 -32 31.5 -52.5t75.5 -20.5q40 0 65 15.5t25 44.5q0 31 -27.5 45.5
t-84.5 27.5q-55 13 -89.5 27t-59.5 44.5t-25 82.5q0 41 25 74t68.5 52t96.5 19q50 0 93 -20.5t69 -56.5t28 -81h-103q-2 30 -27.5 49t-64.5 19q-35 0 -57.5 -14.5t-22.5 -39.5q0 -21 14.5 -33.5t35.5 -20t61 -17.5q56 -13 91 -26.5t60 -44t25 -81.5q0 -64 -45.5 -104.5z" />
    <glyph glyph-name="Scaron" unicode="&#x160;" horiz-adv-x="579" 
d="M164.5 16.5q-56.5 27.5 -87.5 77.5t-32 115h112q2 -54 37.5 -87t100.5 -33q59 0 92.5 26t33.5 71q0 35 -19.5 57t-48.5 35.5t-81 30.5q-68 23 -109 43.5t-70.5 61.5t-29.5 108q0 54 29.5 97t82 67.5t118.5 24.5q62 0 113.5 -25.5t83 -72t32.5 -107.5h-111
q-2 46 -34.5 75.5t-86.5 29.5q-50 0 -82 -24t-32 -67q0 -33 19 -55t48.5 -35t79.5 -29q68 -23 109.5 -44t71.5 -63t30 -110q0 -55 -30 -99.5t-84 -70t-124 -25.5q-75 0 -131.5 27.5zM335 763h-83l-127 142h96l72 -81l71 81h97z" />
    <glyph glyph-name="scaron" unicode="&#x161;" horiz-adv-x="504" 
d="M149.5 10q-46.5 21 -73.5 58t-29 84h103q3 -32 31.5 -52.5t75.5 -20.5q40 0 65 15.5t25 44.5q0 31 -27.5 45.5t-84.5 27.5q-55 13 -89.5 27t-59.5 44.5t-25 82.5q0 41 25 74t68.5 52t96.5 19q50 0 93 -20.5t69 -56.5t28 -81h-103q-2 30 -27.5 49t-64.5 19
q-35 0 -57.5 -14.5t-22.5 -39.5q0 -21 14.5 -33.5t35.5 -20t61 -17.5q56 -13 91 -26.5t60 -44t25 -81.5q0 -72 -55.5 -113.5t-141.5 -41.5q-60 0 -106.5 21zM298 568h-83l-127 141h97l71 -80l72 80h96z" />
    <glyph glyph-name="uni0162" unicode="&#x162;" horiz-adv-x="510" 
d="M310 0h-21l-18 -39q39 -5 59.5 -29t20.5 -54q0 -45 -28.5 -69t-74.5 -24h-59v61h47q22 0 33 9.5t11 24.5q0 16 -11 25t-33 9h-36v39l21 47h-21v598h-177v102h464v-102h-177v-598z" />
    <glyph glyph-name="uni0163" unicode="&#x163;" horiz-adv-x="374" 
d="M334 404h-123v-228q0 -37 21 -58t58 -21h44v-97h-63h-12l-18 -39q39 -5 59.5 -29t20.5 -54q0 -45 -28.5 -69t-74.5 -24h-59v61h47q22 0 33 9.5t11 24.5q0 16 -11 25t-33 9h-36v39l27 61q-43 18 -66.5 56.5t-23.5 90.5v243h-82v96h82v132h104v-132h123v-96z" />
    <glyph glyph-name="Tcaron" unicode="&#x164;" horiz-adv-x="510" 
d="M310 0h-110v598h-177v102h464v-102h-177v-598zM297 763h-83l-127 142h96l72 -81l71 81h97z" />
    <glyph glyph-name="tcaron" unicode="&#x165;" horiz-adv-x="374" 
d="M334 404h-123v-228q0 -37 21 -58t58 -21h44v-97h-63q-75 0 -119.5 44t-44.5 117v243h-82v96h82v132h104v-132h123v-96zM344 563h-73l21 164h87z" />
    <glyph glyph-name="Tbar" unicode="&#x166;" horiz-adv-x="510" 
d="M487 700v-102h-177v-225h148v-95h-148v-278h-110v278h-147v95h147v225h-177v102h464z" />
    <glyph glyph-name="tbar" unicode="&#x167;" horiz-adv-x="374" 
d="M334 407h-123v-80h113v-85h-113v-66q0 -37 21 -58t58 -21h44v-97h-63q-75 0 -119.5 44t-44.5 117v81h-72v85h72v80h-82v93h82v132h104v-132h123v-93z" />
    <glyph glyph-name="Umacron" unicode="&#x16a;" horiz-adv-x="707" 
d="M209 23.5q-62 34.5 -95.5 97.5t-33.5 144v435h110v-431q0 -80 43 -128.5t120 -48.5t120.5 48.5t43.5 128.5v431h110v-435q0 -81 -33.5 -144t-96 -97.5t-144.5 -34.5t-144 34.5zM504 796h-302v78h302v-78z" />
    <glyph glyph-name="umacron" unicode="&#x16b;" horiz-adv-x="584" 
d="M173 18q-51 29 -78.5 80.5t-27.5 118.5v283h104v-283q0 -59 33 -95t88 -36t88.5 36t33.5 95v283h104v-283q0 -67 -27.5 -118.5t-79 -80.5t-119.5 -29t-119 29zM443 599h-302v78h302v-78z" />
    <glyph glyph-name="Ubreve" unicode="&#x16c;" horiz-adv-x="707" 
d="M209 23.5q-62 34.5 -95.5 97.5t-33.5 144v435h110v-431q0 -80 43 -128.5t120 -48.5t120.5 48.5t43.5 128.5v431h110v-435q0 -81 -33.5 -144t-96 -97.5t-144.5 -34.5t-144 34.5zM237.5 796q-43.5 41 -47.5 105h82q4 -36 25.5 -54.5t56.5 -18.5q34 0 56 18.5t26 54.5h81
q-4 -64 -47 -105t-116 -41t-116.5 41z" />
    <glyph glyph-name="ubreve" unicode="&#x16d;" horiz-adv-x="584" 
d="M173 18q-51 29 -78.5 80.5t-27.5 118.5v283h104v-283q0 -59 33 -95t88 -36t88.5 36t33.5 95v283h104v-283q0 -67 -27.5 -118.5t-79 -80.5t-119.5 -29t-119 29zM176.5 601q-43.5 41 -47.5 104h82q4 -35 26 -54t56 -19t56 19t26 54h81q-4 -63 -47 -104t-116 -41t-116.5 41z
" />
    <glyph glyph-name="Uring" unicode="&#x16e;" horiz-adv-x="707" 
d="M209 23.5q-62 34.5 -95.5 97.5t-33.5 144v435h110v-431q0 -80 43 -128.5t120 -48.5t120.5 48.5t43.5 128.5v431h110v-435q0 -81 -33.5 -144t-96 -97.5t-144.5 -34.5t-144 34.5zM279.5 775.5q-29.5 28.5 -29.5 70.5t29.5 70.5t74.5 28.5t74.5 -28.5t29.5 -70.5
t-29.5 -70.5t-74.5 -28.5t-74.5 28.5zM385 816q12 12 12 30q0 19 -12 31t-31 12t-31 -12t-12 -31q0 -18 12 -30t31 -12t31 12z" />
    <glyph glyph-name="uring" unicode="&#x16f;" horiz-adv-x="584" 
d="M173 18q-51 29 -78.5 80.5t-27.5 118.5v283h104v-283q0 -59 33 -95t88 -36t88.5 36t33.5 95v283h104v-283q0 -67 -27.5 -118.5t-79 -80.5t-119.5 -29t-119 29zM218.5 580q-29.5 28 -29.5 70t29.5 70.5t74.5 28.5t74.5 -28.5t29.5 -70.5t-29.5 -70t-74.5 -28t-74.5 28z
M324 620q12 12 12 30q0 19 -12 31t-31 12t-31 -12t-12 -31q0 -18 12 -30t31 -12t31 12z" />
    <glyph glyph-name="Uhungarumlaut" unicode="&#x170;" horiz-adv-x="707" 
d="M209 23.5q-62 34.5 -95.5 97.5t-33.5 144v435h110v-431q0 -80 43 -128.5t120 -48.5t120.5 48.5t43.5 128.5v431h110v-435q0 -81 -33.5 -144t-96 -97.5t-144.5 -34.5t-144 34.5zM314 763h-89l93 147h99zM463 763h-87l97 147h98z" />
    <glyph glyph-name="uhungarumlaut" unicode="&#x171;" horiz-adv-x="584" 
d="M173 18q-51 29 -78.5 80.5t-27.5 118.5v283h104v-283q0 -59 33 -95t88 -36t88.5 36t33.5 95v283h104v-283q0 -67 -27.5 -118.5t-79 -80.5t-119.5 -29t-119 29zM251 568h-89l93 146h99zM400 568h-87l97 146h98z" />
    <glyph glyph-name="Uogonek" unicode="&#x172;" horiz-adv-x="707" 
d="M517 700h110v-435q0 -80 -30.5 -138t-82.5 -93q-53 -36 -79.5 -63.5t-26.5 -58.5q0 -25 16.5 -39.5t48.5 -14.5h16v-73h-33q-55 0 -89.5 29.5t-34.5 82.5q0 51 45 92h-23q-82 0 -144.5 34.5t-96 97.5t-33.5 144v435h110v-431q0 -80 43 -128.5t120 -48.5t120.5 48.5
t43.5 128.5v431z" />
    <glyph glyph-name="uogonek" unicode="&#x173;" horiz-adv-x="584" 
d="M414 500h104v-283q0 -108 -70 -173q-47 -44 -68.5 -72.5t-21.5 -59.5q0 -25 17 -39.5t49 -14.5h15v-73h-33q-54 0 -89 29.5t-35 82.5q0 55 44 93l-34 -1q-68 0 -119 29t-78.5 80.5t-27.5 118.5v283h104v-283q0 -59 33 -95t88 -36t88.5 36t33.5 95v283z" />
    <glyph glyph-name="Wcircumflex" unicode="&#x174;" horiz-adv-x="1003" 
d="M708 193l158 507h116l-232 -700h-83l-166 511l-166 -511h-82l-232 700h118l157 -504l165 504h81zM430 763h-97l127 142h83l126 -142h-96l-71 81z" />
    <glyph glyph-name="wcircumflex" unicode="&#x175;" horiz-adv-x="827" 
d="M583 149l129 351h107l-196 -500h-76l-134 341l-134 -341h-74l-197 500h109l128 -347l134 347h69zM342 568h-97l127 141h83l126 -141h-96l-71 80z" />
    <glyph glyph-name="Ycircumflex" unicode="&#x176;" horiz-adv-x="583" 
d="M293 405l157 295h123l-227 -406v-294h-110v294l-226 406h125zM220 763h-97l127 142h83l126 -142h-96l-71 81z" />
    <glyph glyph-name="ycircumflex" unicode="&#x177;" horiz-adv-x="542" 
d="M274 158l150 342h111l-314 -700h-109l108 241l-217 459h114zM197 568h-97l127 141h83l126 -141h-96l-71 80z" />
    <glyph glyph-name="Ydieresis" unicode="&#x178;" horiz-adv-x="583" 
d="M293 405l157 295h123l-227 -406v-294h-110v294l-226 406h125zM245 785h-102v106h102v-106zM440 785h-101v106h101v-106z" />
    <glyph glyph-name="Zacute" unicode="&#x179;" horiz-adv-x="578" 
d="M517 633l-321 -530h341v-103h-485v68l321 530h-302v102h446v-67zM325 763h-89l93 147h101z" />
    <glyph glyph-name="zacute" unicode="&#x17a;" horiz-adv-x="480" 
d="M433 438l-251 -342h261v-96h-406v62l252 342h-242v96h386v-62zM272 568h-89l93 146h101z" />
    <glyph glyph-name="Zdotaccent" unicode="&#x17b;" horiz-adv-x="578" 
d="M517 633l-321 -530h341v-103h-485v68l321 530h-302v102h446v-67zM346 785h-105v106h105v-106z" />
    <glyph glyph-name="zdotaccent" unicode="&#x17c;" horiz-adv-x="480" 
d="M433 438l-251 -342h261v-96h-406v62l252 342h-242v96h386v-62zM293 589h-105v106h105v-106z" />
    <glyph glyph-name="Zcaron" unicode="&#x17d;" horiz-adv-x="578" 
d="M517 633l-321 -530h341v-103h-485v68l321 530h-302v102h446v-67zM336 763h-83l-127 142h96l72 -81l71 81h97z" />
    <glyph glyph-name="zcaron" unicode="&#x17e;" horiz-adv-x="480" 
d="M433 438l-251 -342h261v-96h-406v62l252 342h-242v96h386v-62zM282 568h-83l-127 141h97l71 -80l72 80h96z" />
    <glyph glyph-name="uni018F" unicode="&#x18f;" horiz-adv-x="816" 
d="M586 664q83 -47 131.5 -130t48.5 -184t-48.5 -183.5t-130.5 -130t-180 -47.5q-101 0 -183.5 48t-130 130.5t-47.5 182.5q0 26 3 51h600q-11 60 -45.5 107.5t-86.5 74t-113 26.5q-79 0 -135.5 -37t-88.5 -99h-117q37 107 128.5 172.5t212.5 65.5q99 0 182 -47zM518 118.5
q52 26.5 86.5 74t44.5 108.5h-486q10 -60 44 -107.5t86 -74.5t113 -27q60 0 112 26.5z" />
    <glyph glyph-name="florin" unicode="&#x192;" horiz-adv-x="418" 
d="M428 704l-13 -96h-24q-95 0 -110 -92l-16 -102h119l-13 -93h-120l-45 -298q-13 -83 -65 -128t-139 -45h-47l14 96h24q95 0 110 92l43 283h-98l13 93h99l18 117q13 83 65 128t139 45h46z" />
    <glyph glyph-name="uni01F4" unicode="&#x1f4;" horiz-adv-x="807" 
d="M393 379h374v-35q0 -99 -44.5 -180.5t-125 -128t-183.5 -46.5q-99 0 -182.5 47.5t-132.5 130t-49 183.5t49 184t132.5 130t182.5 47q122 0 212.5 -64t129.5 -172h-116q-33 62 -90.5 98t-135.5 36q-69 0 -126.5 -34.5t-91 -93.5t-33.5 -131t33.5 -131t91 -93t126.5 -34
q94 0 157.5 50t79.5 135h-258v102zM446 763h-89l93 147h101z" />
    <glyph glyph-name="uni01F5" unicode="&#x1f5;" horiz-adv-x="625" 
d="M452 500h101v-462q0 -73 -30 -131t-88 -91.5t-137 -33.5q-96 0 -160.5 49.5t-86.5 131.5h106q17 -39 53 -62t87 -23q71 0 111.5 42.5t40.5 109.5v52q-29 -33 -71.5 -52t-94.5 -19q-66 0 -122.5 31.5t-90 88.5t-33.5 130t33.5 130t90 88.5t122.5 31.5q104 0 169 -75v64z
M378 125.5q36 20.5 56 56t20 79.5t-20 79.5t-56 56t-80 20.5q-45 0 -80.5 -20.5t-55.5 -56t-20 -79.5t20 -79.5t55.5 -56t80.5 -20.5q44 0 80 20.5zM346 568h-89l93 146h101z" />
    <glyph glyph-name="uni0218" unicode="&#x218;" horiz-adv-x="579" 
d="M164.5 16.5q-56.5 27.5 -87.5 77.5t-32 115h112q2 -54 37.5 -87t100.5 -33q59 0 92.5 26t33.5 71q0 35 -19.5 57t-48.5 35.5t-81 30.5q-68 23 -109 43.5t-70.5 61.5t-29.5 108q0 54 29.5 97t82 67.5t118.5 24.5q62 0 113.5 -25.5t83 -72t32.5 -107.5h-111
q-2 46 -34.5 75.5t-86.5 29.5q-50 0 -82 -24t-32 -67q0 -33 19 -55t48.5 -35t79.5 -29q68 -23 109.5 -44t71.5 -63t30 -110q0 -55 -30 -99.5t-84 -70t-124 -25.5q-75 0 -131.5 27.5zM280 -256h-86l48 171h101z" />
    <glyph glyph-name="uni0219" unicode="&#x219;" horiz-adv-x="504" 
d="M149.5 10q-46.5 21 -73.5 58t-29 84h103q3 -32 31.5 -52.5t75.5 -20.5q40 0 65 15.5t25 44.5q0 31 -27.5 45.5t-84.5 27.5q-55 13 -89.5 27t-59.5 44.5t-25 82.5q0 41 25 74t68.5 52t96.5 19q50 0 93 -20.5t69 -56.5t28 -81h-103q-2 30 -27.5 49t-64.5 19
q-35 0 -57.5 -14.5t-22.5 -39.5q0 -21 14.5 -33.5t35.5 -20t61 -17.5q56 -13 91 -26.5t60 -44t25 -81.5q0 -72 -55.5 -113.5t-141.5 -41.5q-60 0 -106.5 21zM245 -256h-86l48 171h101z" />
    <glyph glyph-name="uni021A" unicode="&#x21a;" horiz-adv-x="510" 
d="M310 0h-110v598h-177v102h464v-102h-177v-598zM241 -256h-86l48 171h101z" />
    <glyph glyph-name="uni021B" unicode="&#x21b;" horiz-adv-x="374" 
d="M334 404h-123v-228q0 -37 21 -58t58 -21h44v-97h-63q-75 0 -119.5 44t-44.5 117v243h-82v96h82v132h104v-132h123v-96zM211 -256h-86l48 171h101z" />
    <glyph glyph-name="uni0232" unicode="&#x232;" horiz-adv-x="583" 
d="M293 405l157 295h123l-227 -406v-294h-110v294l-226 406h125zM442 796h-302v78h302v-78z" />
    <glyph glyph-name="uni0233" unicode="&#x233;" horiz-adv-x="542" 
d="M274 158l150 342h111l-314 -700h-109l108 241l-217 459h114zM420 599h-302v78h302v-78z" />
    <glyph glyph-name="uni0237" unicode="&#x237;" horiz-adv-x="247" 
d="M-52 -206v97h44q38 0 59 21t21 58v530h104v-545q0 -73 -44.5 -117t-119.5 -44h-64z" />
    <glyph glyph-name="uni0244" unicode="&#x244;" horiz-adv-x="717" 
d="M717 478v-95h-85v-118q0 -81 -33.5 -144t-96 -97.5t-144.5 -34.5t-144 34.5t-95.5 97.5t-33.5 144v118h-85v95h85v222h110v-222h327v222h110v-222h85zM522 383h-327v-114q0 -80 43 -128.5t120 -48.5t120.5 48.5t43.5 128.5v114z" />
    <glyph glyph-name="uni0259" unicode="&#x259;" horiz-adv-x="582" 
d="M417 477.5q59 -33.5 93.5 -93t34.5 -134.5t-34.5 -134.5t-93.5 -93t-129 -33.5q-68 0 -126.5 32.5t-93 89.5t-34.5 129q0 26 4 47h399q-9 63 -48.5 99t-100.5 36q-91 0 -132 -72h-107q30 74 91.5 117.5t147.5 43.5q70 0 129 -33.5zM385.5 111q38.5 33 49.5 91h-293
q8 -55 47 -89.5t99 -34.5q59 0 97.5 33z" />
    <glyph glyph-name="uni0289" unicode="&#x289;" horiz-adv-x="594" 
d="M593 368v-88h-70v-63q0 -67 -27.5 -118.5t-79 -80.5t-119.5 -29t-119 29t-78.5 80.5t-27.5 118.5v63h-70v88h70v132h104v-132h243v132h104v-132h70zM419 280h-243v-63q0 -59 33 -95t88 -36t88.5 36t33.5 95v63z" />
    <glyph glyph-name="uni02BC" unicode="&#x2bc;" horiz-adv-x="227" 
d="M114 452h-84l57 248h108z" />
    <glyph glyph-name="circumflex" unicode="&#x2c6;" horiz-adv-x="396" 
d="M127 568h-97l127 141h83l126 -141h-96l-71 80z" />
    <glyph glyph-name="caron" unicode="&#x2c7;" horiz-adv-x="396" 
d="M240 568h-83l-127 141h97l71 -80l72 80h96z" />
    <glyph glyph-name="breve" unicode="&#x2d8;" horiz-adv-x="387" 
d="M77.5 601q-43.5 41 -47.5 104h82q4 -35 26 -54t56 -19t56 19t26 54h81q-4 -63 -47 -104t-116 -41t-116.5 41z" />
    <glyph glyph-name="dotaccent" unicode="&#x2d9;" horiz-adv-x="165" 
d="M135 589h-105v106h105v-106z" />
    <glyph glyph-name="ring" unicode="&#x2da;" horiz-adv-x="268" 
d="M59.5 580q-29.5 28 -29.5 70t29.5 70.5t74.5 28.5t74.5 -28.5t29.5 -70.5t-29.5 -70t-74.5 -28t-74.5 28zM165 620q12 12 12 30q0 19 -12 31t-31 12t-31 -12t-12 -31q0 -18 12 -30t31 -12t31 12z" />
    <glyph glyph-name="ogonek" unicode="&#x2db;" horiz-adv-x="217" 
d="M154 -215q-54 0 -89 29.5t-35 82.5q0 45 29 77t67 45l61 -19q-36 -13 -58.5 -37t-22.5 -51q0 -25 17 -39.5t49 -14.5h15v-73h-33z" />
    <glyph glyph-name="tilde" unicode="&#x2dc;" horiz-adv-x="382" 
d="M30 598q0 48 24 75t66 27q22 0 39.5 -7.5t44.5 -23.5q31 -20 45 -20q31 0 31 43v8h72v-22q0 -48 -24 -75t-65 -27q-22 0 -40 7.5t-45 23.5q-31 20 -45 20q-30 0 -30 -43v-8h-73v22z" />
    <glyph glyph-name="hungarumlaut" unicode="&#x2dd;" horiz-adv-x="406" 
d="M119 568h-89l93 146h99zM268 568h-87l97 146h98z" />
    <glyph glyph-name="gravecomb" unicode="&#x300;" horiz-adv-x="0" 
d="M-30 568h-91l-105 146h103z" />
    <glyph glyph-name="acutecomb" unicode="&#x301;" horiz-adv-x="0" 
d="M-135 568h-89l93 146h101z" />
    <glyph glyph-name="uni0302" unicode="&#x302;" horiz-adv-x="0" 
d="M-269 568h-97l127 141h83l126 -141h-96l-71 80z" />
    <glyph glyph-name="tildecomb" unicode="&#x303;" horiz-adv-x="0" 
d="M-352 598q0 48 24 75t66 27q22 0 39.5 -7.5t44.5 -23.5q31 -20 45 -20q31 0 31 43v8h72v-22q0 -48 -24 -75t-65 -27q-22 0 -40 7.5t-45 23.5q-31 20 -45 20q-30 0 -30 -43v-8h-73v22z" />
    <glyph glyph-name="uni0304" unicode="&#x304;" horiz-adv-x="0" 
d="M-30 599h-302v78h302v-78z" />
    <glyph glyph-name="uni0306" unicode="&#x306;" horiz-adv-x="0" 
d="M-309.5 601q-43.5 41 -47.5 104h82q4 -35 26 -54t56 -19t56 19t26 54h81q-4 -63 -47 -104t-116 -41t-116.5 41z" />
    <glyph glyph-name="uni0307" unicode="&#x307;" horiz-adv-x="0" 
d="M-30 589h-105v106h105v-106z" />
    <glyph glyph-name="uni0308" unicode="&#x308;" horiz-adv-x="0" 
d="M-225 589h-102v106h102v-106zM-30 589h-101v106h101v-106z" />
    <glyph glyph-name="uni030A" unicode="&#x30a;" horiz-adv-x="0" 
d="M-208.5 580q-29.5 28 -29.5 70t29.5 70.5t74.5 28.5t74.5 -28.5t29.5 -70.5t-29.5 -70t-74.5 -28t-74.5 28zM-103 620q12 12 12 30q0 19 -12 31t-31 12t-31 -12t-12 -31q0 -18 12 -30t31 -12t31 12z" />
    <glyph glyph-name="uni030B" unicode="&#x30b;" horiz-adv-x="0" 
d="M-287 568h-89l93 146h99zM-138 568h-87l97 146h98z" />
    <glyph glyph-name="uni030C" unicode="&#x30c;" horiz-adv-x="0" 
d="M-156 568h-83l-127 141h97l71 -80l72 80h96z" />
    <glyph glyph-name="uni0312" unicode="&#x312;" horiz-adv-x="0" 
d="M-94 568h-101l79 171h86z" />
    <glyph glyph-name="uni0326" unicode="&#x326;" horiz-adv-x="0" 
d="M-93 -256h-86l48 171h101z" />
    <glyph glyph-name="uni0327" unicode="&#x327;" horiz-adv-x="0" 
d="M-110 -39q39 -5 59.5 -29t20.5 -54q0 -45 -28.5 -69t-74.5 -24h-59v61h47q22 0 33 9.5t11 24.5q0 16 -11 25t-33 9h-36v39l37 82l54 -25v-5z" />
    <glyph glyph-name="uni0328" unicode="&#x328;" horiz-adv-x="0" 
d="M-63 -215q-54 0 -89 29.5t-35 82.5q0 45 29 77t67 45l61 -19q-36 -13 -58.5 -37t-22.5 -51q0 -25 17 -39.5t49 -14.5h15v-73h-33z" />
    <glyph glyph-name="uni0401" unicode="&#x401;" horiz-adv-x="556" 
d="M200 310v-207h296v-103h-406v700h396v-102h-286v-185h276v-103h-276zM245 785h-102v106h102v-106zM440 785h-101v106h101v-106z" />
    <glyph glyph-name="uni0402" unicode="&#x402;" horiz-adv-x="693" 
d="M529.5 402q59.5 -34 94 -93t34.5 -132q0 -75 -35 -135t-96.5 -94t-137.5 -34v103q68 0 112 44t44 112q0 72 -44 116t-115 44q-35 0 -63.5 -5.5t-59.5 -18.5v-309h-110v598h-148v102h460v-102h-202v-184q68 22 136 22q71 0 130.5 -34z" />
    <glyph glyph-name="uni0403" unicode="&#x403;" horiz-adv-x="489" 
d="M200 0h-110v700h387v-102h-277v-598zM315 763h-89l93 147h101z" />
    <glyph glyph-name="uni0404" unicode="&#x404;" horiz-adv-x="786" 
d="M748 230q-39 -111 -128 -176t-208 -65q-98 0 -181 47.5t-132 130t-49 183.5t49 184t132 130t181 47q118 0 206.5 -65t127.5 -176h-115q-31 64 -88.5 101.5t-130.5 37.5q-60 0 -111.5 -26.5t-86.5 -73.5t-46 -106h303v-103h-304q11 -60 45.5 -107.5t86.5 -74t113 -26.5
q75 0 132.5 37.5t88.5 100.5h115z" />
    <glyph glyph-name="uni0405" unicode="&#x405;" horiz-adv-x="579" 
d="M164.5 16.5q-56.5 27.5 -87.5 77.5t-32 115h112q2 -54 37.5 -87t100.5 -33q59 0 92.5 26t33.5 71q0 35 -19.5 57t-48.5 35.5t-81 30.5q-68 23 -109 43.5t-70.5 61.5t-29.5 108q0 54 29.5 97t82 67.5t118.5 24.5q62 0 113.5 -25.5t83 -72t32.5 -107.5h-111
q-2 46 -34.5 75.5t-86.5 29.5q-50 0 -82 -24t-32 -67q0 -33 19 -55t48.5 -35t79.5 -29q68 -23 109.5 -44t71.5 -63t30 -110q0 -55 -30 -99.5t-84 -70t-124 -25.5q-75 0 -131.5 27.5z" />
    <glyph glyph-name="uni0406" unicode="&#x406;" horiz-adv-x="300" 
d="M205 0h-110v700h110v-700z" />
    <glyph glyph-name="uni0407" unicode="&#x407;" horiz-adv-x="300" 
d="M205 0h-110v700h110v-700zM103 785h-102v106h102v-106zM298 785h-101v106h101v-106z" />
    <glyph glyph-name="uni0408" unicode="&#x408;" horiz-adv-x="530" 
d="M110 18.5q-51 29.5 -79 80.5t-28 114h110q0 -55 31.5 -88t82.5 -33q52 0 82.5 34.5t30.5 95.5v478h110v-479q0 -67 -28 -120t-78.5 -82.5t-116.5 -29.5t-117 29.5z" />
    <glyph glyph-name="uni0409" unicode="&#x409;" horiz-adv-x="995" 
d="M716 435q73 0 129.5 -27.5t88 -77t31.5 -112.5t-31.5 -113t-88 -77.5t-129.5 -27.5h-223v598h-213l-27 -357q-10 -134 -60.5 -190.5t-143.5 -56.5h-34v107h19q53 0 78 34.5t31 114.5l34 450h426v-265h113zM711 103q66 0 103.5 32t37.5 83t-37.5 83t-103.5 32h-108v-230
h108z" />
    <glyph glyph-name="uni040A" unicode="&#x40a;" horiz-adv-x="1009" 
d="M726 425q73 0 129.5 -26.5t87.5 -74.5t31 -111t-31 -111.5t-87.5 -75t-129.5 -26.5h-225v323h-301v-323h-110v700h110v-275h301v275h110v-275h115zM721 103q67 0 103.5 29.5t36.5 80.5t-36.5 80.5t-103.5 29.5h-110v-220h110z" />
    <glyph glyph-name="uni040B" unicode="&#x40b;" horiz-adv-x="703" 
d="M586.5 372q61.5 -64 61.5 -176v-196h-110v191q0 67 -36.5 104.5t-101.5 37.5q-73 0 -137 -29v-304h-110v598h-148v102h460v-102h-202v-191q30 13 71.5 21t80.5 8q110 0 171.5 -64z" />
    <glyph glyph-name="uni040C" unicode="&#x40c;" horiz-adv-x="631" 
d="M311 362l315 -362h-141l-285 331v-331h-110v700h110v-317l271 317h132zM345 763h-89l93 147h101z" />
    <glyph glyph-name="uni040E" unicode="&#x40e;" horiz-adv-x="620" 
d="M316 333l167 367h119l-320 -700h-117l94 206l-244 494h123zM193 796q-44 41 -48 105h87q4 -35 25.5 -54t53.5 -19q33 0 54.5 18.5t25.5 54.5h86q-4 -64 -48 -105t-118 -41t-118 41z" />
    <glyph glyph-name="uni040F" unicode="&#x40f;" horiz-adv-x="718" 
d="M414 -170h-110v170h-214v700h110v-597h318v597h110v-700h-214v-170z" />
    <glyph glyph-name="uni0410" unicode="&#x410;" horiz-adv-x="687" 
d="M672 0h-118l-64 168h-295l-64 -168h-116l279 700h99zM453 271l-110 287l-110 -287h220z" />
    <glyph glyph-name="uni0411" unicode="&#x411;" horiz-adv-x="589" 
d="M304 430q75 0 132 -28t87.5 -76.5t30.5 -110.5t-30.5 -110.5t-87.5 -76.5t-132 -28h-214v700h402v-102h-292v-168h104zM304 103q65 0 101 30.5t36 81.5t-36 82t-101 31h-104v-225h104z" />
    <glyph glyph-name="uni0412" unicode="&#x412;" horiz-adv-x="600" 
d="M521.5 311.5q33.5 -44.5 33.5 -105.5q0 -59 -29.5 -106t-85.5 -73.5t-133 -26.5h-217v700h204q108 0 169.5 -51t61.5 -135q0 -45 -25.5 -82.5t-67.5 -56.5q56 -19 89.5 -63.5zM200 603v-193h94q56 0 87.5 27t31.5 70q0 42 -32 69t-87 27h-94zM309 98q61 0 97 31.5
t36 78.5t-36 78.5t-97 31.5h-109v-220h109z" />
    <glyph glyph-name="uni0413" unicode="&#x413;" horiz-adv-x="489" 
d="M200 0h-110v700h387v-102h-277v-598z" />
    <glyph glyph-name="uni0414" unicode="&#x414;" horiz-adv-x="742" 
d="M621 103h94v-273h-110v170h-472v-170h-110v273q51 5 81.5 46.5t37.5 115.5l39 435h440v-597zM511 103v495h-230l-30 -342q-6 -62 -18.5 -97t-38.5 -56h317z" />
    <glyph glyph-name="uni0415" unicode="&#x415;" horiz-adv-x="556" 
d="M200 310v-207h296v-103h-406v700h396v-102h-286v-185h276v-103h-276z" />
    <glyph glyph-name="uni0416" unicode="&#x416;" horiz-adv-x="894" 
d="M608 362l281 -362h-135l-254 332v-332h-106v332l-254 -332h-135l281 362l-260 338h126l242 -320v320h106v-320l242 320h126z" />
    <glyph glyph-name="uni0417" unicode="&#x417;" horiz-adv-x="573" 
d="M497 298.5q31 -43.5 31 -102.5t-30 -106.5t-86.5 -74t-130.5 -26.5q-72 0 -128 26.5t-89 75.5t-36 115h111q4 -54 41.5 -85.5t100.5 -31.5q59 0 96.5 30.5t37.5 81.5q0 50 -37 79.5t-98 29.5h-71v97h68q54 0 86 28.5t32 73.5q0 46 -31.5 74t-86.5 28q-58 0 -90 -29
t-35 -72h-112q2 59 34 105t85.5 71t118.5 25q67 0 119 -24.5t81.5 -69t29.5 -102.5q0 -51 -25.5 -89t-72.5 -61q56 -23 87 -66.5z" />
    <glyph glyph-name="uni0418" unicode="&#x418;" horiz-adv-x="789" 
d="M200 197l427 503h72v-700h-110v502l-426 -502h-73v700h110v-503z" />
    <glyph glyph-name="uni0419" unicode="&#x419;" horiz-adv-x="789" 
d="M200 197l427 503h72v-700h-110v502l-426 -502h-73v700h110v-503zM286 796q-44 41 -48 105h87q4 -35 25.5 -54t53.5 -19q33 0 54.5 18.5t25.5 54.5h86q-4 -64 -48 -105t-118 -41t-118 41z" />
    <glyph glyph-name="uni041A" unicode="&#x41a;" horiz-adv-x="631" 
d="M311 362l315 -362h-141l-285 331v-331h-110v700h110v-317l271 317h132z" />
    <glyph glyph-name="uni041B" unicode="&#x41b;" horiz-adv-x="712" 
d="M177 700h445v-700h-110v598h-232l-27 -357q-10 -134 -60.5 -190.5t-143.5 -56.5h-34v107h19q53 0 78 34.5t31 114.5z" />
    <glyph glyph-name="uni041C" unicode="&#x41c;" horiz-adv-x="932" 
d="M781 700l91 -700h-111l-58 470l-209 -470h-56l-211 474l-58 -474h-109l91 700h86l230 -518l230 518h84z" />
    <glyph glyph-name="uni041D" unicode="&#x41d;" horiz-adv-x="733" 
d="M533 413v287h110v-700h-110v310h-333v-310h-110v700h110v-287h333z" />
    <glyph glyph-name="uni041E" unicode="&#x41e;" horiz-adv-x="831" 
d="M232 36.5q-84 47.5 -133 130t-49 183.5t49 183.5t133 130t184 47.5t183.5 -47.5t132.5 -130t49 -183.5t-49 -183.5t-132.5 -130t-183.5 -47.5t-184 47.5zM543.5 126q57.5 34 91 93t33.5 131t-33.5 131.5t-91 93.5t-127.5 34t-128 -34t-91.5 -93.5t-33.5 -131.5t33.5 -131
t91.5 -93t128 -34t127.5 34z" />
    <glyph glyph-name="uni041F" unicode="&#x41f;" horiz-adv-x="728" 
d="M200 0h-110v700h548v-700h-110v598h-328v-598z" />
    <glyph glyph-name="uni0420" unicode="&#x420;" horiz-adv-x="586" 
d="M310 700q74 0 129 -27.5t85 -76t30 -109.5t-30 -109.5t-85 -76t-129 -27.5h-110v-274h-110v700h220zM309 377q62 0 97 30.5t35 79.5t-35 80t-97 31h-109v-221h109z" />
    <glyph glyph-name="uni0421" unicode="&#x421;" horiz-adv-x="786" 
d="M231 36.5q-83 47.5 -132 130t-49 183.5t49 184t132 130t181 47q118 0 206.5 -65t127.5 -176h-115q-31 64 -88.5 101.5t-130.5 37.5q-69 0 -126 -34.5t-90 -93.5t-33 -131t33 -131t90 -93t126 -34q75 0 132.5 37.5t88.5 100.5h115q-39 -111 -128 -176t-208 -65
q-98 0 -181 47.5z" />
    <glyph glyph-name="uni0422" unicode="&#x422;" horiz-adv-x="510" 
d="M310 0h-110v598h-177v102h464v-102h-177v-598z" />
    <glyph glyph-name="uni0423" unicode="&#x423;" horiz-adv-x="620" 
d="M316 333l167 367h119l-320 -700h-117l94 206l-244 494h123z" />
    <glyph glyph-name="uni0424" unicode="&#x424;" horiz-adv-x="839" 
d="M485 652q85 0 157 -38.5t114.5 -106t42.5 -152.5t-42.5 -152.5t-114.5 -106t-157 -38.5h-12v-87h-107v87h-12q-85 0 -157 38.5t-114.5 106t-42.5 152.5t42.5 152.5t114.5 106t157 38.5h12v76h107v-76h12zM366 156v399h-10q-56 0 -102.5 -24t-73.5 -69.5t-27 -106.5
t27 -106t73.5 -69t102.5 -24h10zM483 156q56 0 102.5 24t73.5 69t27 106t-27 106.5t-73.5 69.5t-102.5 24h-10v-399h10z" />
    <glyph glyph-name="uni0425" unicode="&#x425;" horiz-adv-x="612" 
d="M376 363l216 -363h-127l-159 276l-160 -276h-126l216 363l-195 337h126l140 -251l140 251h124z" />
    <glyph glyph-name="uni0426" unicode="&#x426;" horiz-adv-x="749" 
d="M721 -170h-110v170h-521v700h110v-597h318v597h110v-597h93v-273z" />
    <glyph glyph-name="uni0427" unicode="&#x427;" horiz-adv-x="664" 
d="M464 700h110v-700h-110v281q-31 -14 -73.5 -23t-87.5 -9q-110 0 -171.5 64.5t-61.5 182.5v204h110v-199q0 -71 35 -110t104 -39q41 0 75 7.5t70 24.5v316z" />
    <glyph glyph-name="uni0428" unicode="&#x428;" horiz-adv-x="1038" 
d="M948 0h-858v700h110v-597h264v597h110v-597h264v597h110v-700z" />
    <glyph glyph-name="uni0429" unicode="&#x429;" horiz-adv-x="1069" 
d="M1042 -170h-110v170h-842v700h110v-597h264v597h110v-597h264v597h110v-597h94v-273z" />
    <glyph glyph-name="uni042A" unicode="&#x42a;" horiz-adv-x="678" 
d="M393 445q74 0 130.5 -27.5t88 -78t31.5 -116.5t-31.5 -116.5t-88 -78.5t-130.5 -28h-218v598h-167v102h277v-255h108zM388 103q67 0 104.5 32.5t37.5 87.5t-37.5 87.5t-104.5 32.5h-103v-240h103z" />
    <glyph glyph-name="uni042B" unicode="&#x42b;" horiz-adv-x="839" 
d="M302 445q74 0 130.5 -27.5t88 -78t31.5 -116.5t-31.5 -116.5t-88 -78.5t-130.5 -28h-212v700h110v-255h102zM639 0v700h110v-700h-110zM297 103q67 0 104.5 32.5t37.5 87.5t-37.5 87.5t-104.5 32.5h-97v-240h97z" />
    <glyph glyph-name="uni042C" unicode="&#x42c;" horiz-adv-x="598" 
d="M313 445q74 0 130.5 -27.5t88 -78t31.5 -116.5t-31.5 -116.5t-88 -78.5t-130.5 -28h-223v700h110v-255h113zM308 103q67 0 104.5 32.5t37.5 87.5t-37.5 87.5t-104.5 32.5h-108v-240h108z" />
    <glyph glyph-name="uni042D" unicode="&#x42d;" horiz-adv-x="781" 
d="M550 664q83 -47 132 -130t49 -184t-49 -183.5t-132 -130t-181 -47.5q-119 0 -208 65t-128 176h115q31 -63 88.5 -100.5t132.5 -37.5q61 0 113 26.5t86.5 74t45.5 107.5h-304v103h303q-11 59 -45.5 106t-86 73.5t-112.5 26.5q-73 0 -130.5 -37.5t-88.5 -101.5h-115
q39 111 127.5 176t206.5 65q98 0 181 -47z" />
    <glyph glyph-name="uni042E" unicode="&#x42e;" horiz-adv-x="1067" 
d="M837.5 663.5q82.5 -47.5 131 -130t48.5 -183.5t-48.5 -183.5t-131 -130t-180.5 -47.5q-90 0 -167.5 40t-128 111t-62.5 159h-99v-299h-110v700h110v-298h100q12 88 62 158.5t127.5 110.5t167.5 40q98 0 180.5 -47.5zM782.5 126q56.5 34 89 93t32.5 131t-32.5 131.5
t-89 93.5t-125.5 34t-125.5 -34t-89.5 -93.5t-33 -131.5t33 -131t89.5 -93t125.5 -34t125.5 34z" />
    <glyph glyph-name="uni042F" unicode="&#x42f;" horiz-adv-x="631" 
d="M541 700v-700h-110v274h-82l-193 -274h-133l206 287q-71 22 -111 75.5t-40 124.5q0 61 29.5 109.5t85 76t128.5 27.5h220zM431 377v221h-110q-61 0 -95.5 -31t-34.5 -80q0 -48 34.5 -79t95.5 -31h110z" />
    <glyph glyph-name="uni0430" unicode="&#x430;" horiz-adv-x="635" 
d="M462 500h101v-500h-101v64q-65 -75 -172 -75q-66 0 -124.5 34t-93.5 93.5t-35 133.5t35 133.5t93.5 93.5t124.5 34q107 0 172 -75v64zM385 107.5q37 21.5 58 59t21 83.5t-21 83.5t-58 59t-82 21.5t-82 -21.5t-58 -59t-21 -83.5t21 -83.5t58 -59t82 -21.5t82 21.5z" />
    <glyph glyph-name="uni0431" unicode="&#x431;" horiz-adv-x="609" 
d="M456 456.5q56 -32.5 88.5 -89.5t32.5 -127q0 -71 -34.5 -128t-93.5 -90t-130 -33q-75 0 -135 33t-96 103t-36 176q0 301 176 373q49 20 99 31t127 23q13 2 36.5 5.5t39.5 6.5v-102l-87 -15q-61 -9 -104 -18t-75 -22q-43 -18 -69 -60t-34 -101q67 67 173 67
q66 0 122 -32.5zM395 107q35 21 56 56t21 76t-21 76.5t-56 56.5t-77 21t-77 -21t-55.5 -56.5t-20.5 -76.5t20.5 -76t55.5 -56t77 -21t77 21z" />
    <glyph glyph-name="uni0432" unicode="&#x432;" horiz-adv-x="524" 
d="M465.5 219.5q23.5 -32.5 23.5 -75.5q0 -65 -49 -104.5t-134 -39.5h-234v500h220q81 0 126 -36.5t45 -95.5q0 -32 -17 -59.5t-46 -42.5q42 -14 65.5 -46.5zM174 413v-113h107q38 0 58 15.5t20 41.5q0 25 -19.5 40.5t-57.5 15.5h-108zM296 87q42 0 64.5 17.5t22.5 47.5
t-23 47.5t-66 17.5h-120v-130h122z" />
    <glyph glyph-name="uni0433" unicode="&#x433;" horiz-adv-x="410" 
d="M176 0h-104v500h328v-97h-224v-403z" />
    <glyph glyph-name="uni0434" unicode="&#x434;" horiz-adv-x="594" 
d="M502 94h75v-237h-103v143h-356v-143h-103v237q40 0 66.5 29.5t30.5 83.5l26 293h364v-406zM398 94v312h-167l-18 -202q-3 -39 -12.5 -65t-26.5 -45h224z" />
    <glyph glyph-name="uni0435" unicode="&#x435;" horiz-adv-x="582" 
d="M420.5 478.5q58.5 -32.5 93 -89.5t34.5 -129q0 -26 -4 -47h-399q9 -63 48.5 -99t100.5 -36q91 0 132 72h107q-30 -74 -91.5 -117.5t-147.5 -43.5q-70 0 -129 33.5t-93.5 93t-34.5 134.5t34.5 134.5t93.5 93t129 33.5q68 0 126.5 -32.5zM196.5 389q-38.5 -33 -49.5 -91
h293q-8 55 -47 89.5t-99 34.5q-59 0 -97.5 -33z" />
    <glyph glyph-name="uni0436" unicode="&#x436;" horiz-adv-x="720" 
d="M504 256l213 -256h-124l-183 222v-222h-100v222l-183 -222h-124l213 256l-197 244h119l172 -221v221h100v-221l172 221h119z" />
    <glyph glyph-name="uni0437" unicode="&#x437;" horiz-adv-x="476" 
d="M411.5 214q24.5 -32 24.5 -74q0 -44 -26 -78.5t-71.5 -53.5t-103.5 -19q-89 0 -146 44t-61 117h101q5 -31 32.5 -51t73.5 -20q43 0 69 18t26 50q0 31 -24 49t-71 18h-61v84h60q38 0 60.5 16.5t22.5 45.5q0 28 -22.5 44.5t-59.5 16.5q-41 0 -66 -19t-28 -47h-103
q7 71 61.5 113.5t134.5 42.5q53 0 96 -18t68 -50.5t25 -74.5q0 -36 -20 -64t-56 -43q40 -15 64.5 -47z" />
    <glyph glyph-name="uni0438" unicode="&#x438;" horiz-adv-x="601" 
d="M176 165l276 335h77v-500h-104v335l-276 -335h-77v500h104v-335z" />
    <glyph glyph-name="uni0439" unicode="&#x439;" horiz-adv-x="601" 
d="M176 165l276 335h77v-500h-104v335l-276 -335h-77v500h104v-335zM190.5 601q-43.5 41 -47.5 104h86q3 -35 24.5 -54t53.5 -19q31 0 52.5 19t24.5 54h86q-4 -63 -47 -104t-116 -41t-116.5 41z" />
    <glyph glyph-name="uni043A" unicode="&#x43a;" horiz-adv-x="521" 
d="M276 255l242 -255h-131l-211 224v-224h-104v500h104v-223l201 223h125z" />
    <glyph glyph-name="uni043B" unicode="&#x43b;" horiz-adv-x="578" 
d="M144 500h362v-500h-104v403h-161l-18 -227q-8 -93 -53 -137.5t-121 -44.5h-29v99h18q39 0 58.5 25t24.5 85z" />
    <glyph glyph-name="uni043C" unicode="&#x43c;" horiz-adv-x="738" 
d="M631 500l47 -500h-105l-23 320l-157 -320h-48l-159 323l-23 -323h-103l47 500h90l173 -356l173 356h88z" />
    <glyph glyph-name="uni043D" unicode="&#x43d;" horiz-adv-x="596" 
d="M421 302v198h104v-500h-104v206h-245v-206h-104v500h104v-198h245z" />
    <glyph glyph-name="uni043E" unicode="&#x43e;" horiz-adv-x="605" 
d="M171 22.5q-61 33.5 -97.5 93t-36.5 134.5t36.5 134.5t97.5 93t132 33.5t132 -33.5t97.5 -93t36.5 -134.5t-36.5 -134.5t-97.5 -93t-132 -33.5t-132 33.5zM384 107.5q37 21.5 58 59t21 83.5t-21 83.5t-58 59t-81 21.5q-45 0 -82 -21.5t-58 -59t-21 -83.5t21 -83.5t58 -59
t82 -21.5q44 0 81 21.5z" />
    <glyph glyph-name="uni043F" unicode="&#x43f;" horiz-adv-x="590" 
d="M176 0h-104v500h446v-500h-104v403h-238v-403z" />
    <glyph glyph-name="uni0440" unicode="&#x440;" horiz-adv-x="635" 
d="M469.5 477q58.5 -34 93.5 -93.5t35 -133.5t-35 -133.5t-93.5 -93.5t-124.5 -34q-105 0 -169 72v-261h-104v700h101v-64q65 75 172 75q66 0 124.5 -34zM414 107.5q37 21.5 58 59t21 83.5t-21 83.5t-58 59t-82 21.5t-82 -21.5t-58 -59t-21 -83.5t21 -83.5t58 -59t82 -21.5
t82 21.5z" />
    <glyph glyph-name="uni0441" unicode="&#x441;" horiz-adv-x="575" 
d="M169.5 22.5q-60.5 33.5 -96.5 93t-36 134.5t36 134.5t96.5 93t130.5 33.5q85 0 154 -47.5t95 -132.5h-109q-21 40 -58 61.5t-82 21.5q-44 0 -80 -21.5t-57 -59t-21 -83.5t21 -83.5t57 -59t80 -21.5q45 0 82 21.5t58 61.5h109q-26 -85 -95 -132.5t-154 -47.5
q-70 0 -130.5 33.5z" />
    <glyph glyph-name="uni0442" unicode="&#x442;" horiz-adv-x="453" 
d="M279 0h-104v403h-165v97h433v-97h-164v-403z" />
    <glyph glyph-name="uni0443" unicode="&#x443;" horiz-adv-x="542" 
d="M274 158l150 342h111l-314 -700h-109l108 241l-217 459h114z" />
    <glyph glyph-name="uni0444" unicode="&#x444;" horiz-adv-x="721" 
d="M416 506q71 0 133 -33.5t99 -92t37 -130.5t-37 -130.5t-99 -92.5t-133 -34h-6v-193h-99v193h-5q-71 0 -133 34t-99 92.5t-37 130.5t37 130.5t99 92t133 33.5h5v214h99v-214h6zM164 165.5q22 -36.5 59.5 -56t82.5 -19.5h5v319h-5q-45 0 -82.5 -19.5t-59.5 -55.5t-22 -84
t22 -84.5zM416 90q45 0 82 19.5t59 56t22 84.5t-22 84t-59 55.5t-82 19.5h-6v-319h6z" />
    <glyph glyph-name="uni0445" unicode="&#x445;" 
d="M344 261l186 -261h-122l-131 191l-133 -191h-119l186 258l-172 242h121l118 -175l121 175h118z" />
    <glyph glyph-name="uni0446" unicode="&#x446;" horiz-adv-x="607" 
d="M589 -143h-104v143h-413v500h104v-403h230v403h104v-403h79v-240z" />
    <glyph glyph-name="uni0447" unicode="&#x447;" horiz-adv-x="543" 
d="M367 500h104v-500h-104v186q-51 -23 -116 -23q-93 0 -146 51.5t-53 145.5v140h104v-132q0 -53 25.5 -81t85.5 -28q53 0 100 22v219z" />
    <glyph glyph-name="uni0448" unicode="&#x448;" horiz-adv-x="818" 
d="M747 0h-675v500h104v-403h181v403h104v-403h182v403h104v-500z" />
    <glyph glyph-name="uni0449" unicode="&#x449;" horiz-adv-x="844" 
d="M826 -143h-104v143h-650v500h104v-403h181v403h104v-403h182v403h104v-403h79v-240z" />
    <glyph glyph-name="uni044A" unicode="&#x44a;" horiz-adv-x="574" 
d="M348 333q92 0 145.5 -45.5t53.5 -120.5q0 -76 -53.5 -121.5t-145.5 -45.5h-209v403h-134v97h238v-167h105zM343 92q48 0 73 19.5t25 55.5t-25 55.5t-73 19.5h-100v-150h100z" />
    <glyph glyph-name="uni044B" unicode="&#x44b;" horiz-adv-x="714" 
d="M275 333q92 0 145 -45.5t53 -120.5q0 -76 -53 -121.5t-145 -45.5h-203v500h104v-167h99zM538 0v500h104v-500h-104zM270 92q48 0 73 19.5t25 55.5t-25 55.5t-73 19.5h-94v-150h94z" />
    <glyph glyph-name="uni044C" unicode="&#x44c;" horiz-adv-x="512" 
d="M286 333q92 0 145 -45.5t53 -120.5q0 -76 -53 -121.5t-145 -45.5h-214v500h104v-167h110zM281 92q48 0 73 19.5t25 55.5t-25 55.5t-73 19.5h-105v-150h105z" />
    <glyph glyph-name="uni044D" unicode="&#x44d;" horiz-adv-x="583" 
d="M414 477.5q61 -33.5 96.5 -93t35.5 -134.5t-35.5 -134.5t-96.5 -93t-134 -33.5q-85 0 -154 47.5t-94 132.5h108q21 -40 58.5 -61.5t82.5 -21.5q56 0 98 33t56 86h-201v90h201q-14 53 -56 86t-98 33q-44 0 -81.5 -21.5t-58.5 -61.5h-108q25 85 94 132.5t154 47.5
q72 0 133 -33.5z" />
    <glyph glyph-name="uni044E" unicode="&#x44e;" horiz-adv-x="798" 
d="M631 477.5q60 -33.5 95.5 -93t35.5 -134.5t-35.5 -134.5t-95.5 -93t-130 -33.5q-63 0 -117.5 27t-91.5 75.5t-48 110.5h-68v-202h-104v500h104v-202h68q11 62 48 110.5t91.5 75.5t117.5 27q70 0 130 -33.5zM579.5 107.5q35.5 21.5 56 59t20.5 83.5t-20.5 83.5t-56 59
t-78.5 21.5t-79 -21.5t-56.5 -59t-20.5 -83.5t20.5 -83.5t56.5 -59t79 -21.5t78.5 21.5z" />
    <glyph glyph-name="uni044F" unicode="&#x44f;" horiz-adv-x="542" 
d="M471 500v-500h-104v178h-75l-140 -178h-122l149 186q-56 16 -88.5 57t-32.5 96q0 47 23.5 83.5t65.5 57t96 20.5h228zM367 270v139h-123q-36 0 -58 -18.5t-22 -51.5q0 -32 22 -50.5t58 -18.5h123z" />
    <glyph glyph-name="uni0451" unicode="&#x451;" horiz-adv-x="582" 
d="M420.5 478.5q58.5 -32.5 93 -89.5t34.5 -129q0 -26 -4 -47h-399q9 -63 48.5 -99t100.5 -36q91 0 132 72h107q-30 -74 -91.5 -117.5t-147.5 -43.5q-70 0 -129 33.5t-93.5 93t-34.5 134.5t34.5 134.5t93.5 93t129 33.5q68 0 126.5 -32.5zM196.5 389q-38.5 -33 -49.5 -91
h293q-8 55 -47 89.5t-99 34.5q-59 0 -97.5 -33zM249 589h-102v106h102v-106zM444 589h-101v106h101v-106z" />
    <glyph glyph-name="uni0452" unicode="&#x452;" horiz-adv-x="605" 
d="M311 -206v97h44q38 0 58.5 20.5t20.5 58.5v272q0 60 -32 96.5t-89 36.5q-55 0 -92 -37.5t-37 -95.5v-242h-104v546h-75v87h75v87h104v-87h165v-87h-165v-141q61 67 151 67q59 0 105.5 -28.5t72 -78t25.5 -110.5v-300q0 -73 -44.5 -117t-119.5 -44h-63z" />
    <glyph glyph-name="uni0453" unicode="&#x453;" horiz-adv-x="410" 
d="M176 0h-104v500h328v-97h-224v-403zM283 568h-89l93 146h101z" />
    <glyph glyph-name="uni0454" unicode="&#x454;" horiz-adv-x="575" 
d="M382 107.5q37 21.5 58 61.5h109q-26 -85 -95 -132.5t-154 -47.5q-70 0 -130.5 33.5t-96.5 93t-36 134.5t36 134.5t96.5 93t130.5 33.5q85 0 154 -47.5t95 -132.5h-109q-21 40 -58 61.5t-82 21.5q-55 0 -96.5 -33t-55.5 -86h200v-90h-200q14 -53 55.5 -86t96.5 -33
q45 0 82 21.5z" />
    <glyph glyph-name="uni0455" unicode="&#x455;" horiz-adv-x="504" 
d="M149.5 10q-46.5 21 -73.5 58t-29 84h103q3 -32 31.5 -52.5t75.5 -20.5q40 0 65 15.5t25 44.5q0 31 -27.5 45.5t-84.5 27.5q-55 13 -89.5 27t-59.5 44.5t-25 82.5q0 41 25 74t68.5 52t96.5 19q50 0 93 -20.5t69 -56.5t28 -81h-103q-2 30 -27.5 49t-64.5 19
q-35 0 -57.5 -14.5t-22.5 -39.5q0 -21 14.5 -33.5t35.5 -20t61 -17.5q56 -13 91 -26.5t60 -44t25 -81.5q0 -72 -55.5 -113.5t-141.5 -41.5q-60 0 -106.5 21z" />
    <glyph glyph-name="uni0456" unicode="&#x456;" horiz-adv-x="247" 
d="M176 0h-104v500h104v-500zM180 589h-114v106h114v-106z" />
    <glyph glyph-name="uni0457" unicode="&#x457;" horiz-adv-x="247" 
d="M176 0h-104v500h104v-500zM102 589h-100v106h100v-106zM245 589h-99v106h99v-106z" />
    <glyph glyph-name="uni0458" unicode="&#x458;" horiz-adv-x="247" 
d="M-52 -206v97h44q38 0 59 21t21 58v530h104v-545q0 -73 -44.5 -117t-119.5 -44h-64zM180 589h-114v106h114v-106z" />
    <glyph glyph-name="uni0459" unicode="&#x459;" horiz-adv-x="803" 
d="M589 323q91 0 144 -44.5t53 -116.5q0 -73 -52.5 -117.5t-144.5 -44.5h-201v403h-147l-18 -227q-8 -93 -53 -137.5t-121 -44.5h-29v99h18q39 0 58.5 25t24.5 85l23 297h348v-177h97zM586 92q46 0 70 18.5t24 51.5t-24 51.5t-70 18.5h-94v-140h94z" />
    <glyph glyph-name="uni045A" unicode="&#x45a;" horiz-adv-x="813" 
d="M606 313q58 0 101 -20t66 -55.5t23 -80.5q0 -69 -51.5 -113t-138.5 -44h-208v217h-222v-217h-104v500h104v-187h222v187h104v-187h104zM604 92q42 0 64 18t22 47t-22 47t-64 18h-102v-130h102z" />
    <glyph glyph-name="uni045B" unicode="&#x45b;" horiz-adv-x="605" 
d="M440.5 443.5q46.5 -28.5 72 -78t25.5 -110.5v-255h-104v242q0 60 -32 96.5t-89 36.5q-55 0 -92 -37.5t-37 -95.5v-242h-104v546h-75v87h75v87h104v-87h165v-87h-165v-141q62 67 151 67q59 0 105.5 -28.5z" />
    <glyph glyph-name="uni045C" unicode="&#x45c;" horiz-adv-x="521" 
d="M276 255l242 -255h-131l-211 224v-224h-104v500h104v-223l201 223h125zM307 568h-89l93 146h101z" />
    <glyph glyph-name="uni045E" unicode="&#x45e;" horiz-adv-x="542" 
d="M274 158l150 342h111l-314 -700h-109l108 241l-217 459h114zM152.5 601q-43.5 41 -47.5 104h86q3 -35 24.5 -54t53.5 -19q31 0 52.5 19t24.5 54h86q-4 -63 -47 -104t-116 -41t-116.5 41z" />
    <glyph glyph-name="uni045F" unicode="&#x45f;" horiz-adv-x="582" 
d="M343 -143h-104v143h-167v500h104v-406h230v406h104v-500h-167v-143z" />
    <glyph glyph-name="uni0490" unicode="&#x490;" horiz-adv-x="489" 
d="M200 0h-110v700h277v168h110v-270h-277v-598z" />
    <glyph glyph-name="uni0491" unicode="&#x491;" horiz-adv-x="410" 
d="M176 0h-104v500h224v145h104v-242h-224v-403z" />
    <glyph glyph-name="Wgrave" unicode="&#x1e80;" horiz-adv-x="1003" 
d="M708 193l158 507h116l-232 -700h-83l-166 511l-166 -511h-82l-232 700h118l157 -504l165 504h81zM555 763h-91l-105 147h103z" />
    <glyph glyph-name="wgrave" unicode="&#x1e81;" horiz-adv-x="827" 
d="M583 149l129 351h107l-196 -500h-76l-134 341l-134 -341h-74l-197 500h109l128 -347l134 347h69zM467 568h-91l-105 146h103z" />
    <glyph glyph-name="Wacute" unicode="&#x1e82;" horiz-adv-x="1003" 
d="M708 193l158 507h116l-232 -700h-83l-166 511l-166 -511h-82l-232 700h118l157 -504l165 504h81zM533 763h-89l93 147h101z" />
    <glyph glyph-name="wacute" unicode="&#x1e83;" horiz-adv-x="827" 
d="M583 149l129 351h107l-196 -500h-76l-134 341l-134 -341h-74l-197 500h109l128 -347l134 347h69zM445 568h-89l93 146h101z" />
    <glyph glyph-name="Wdieresis" unicode="&#x1e84;" horiz-adv-x="1003" 
d="M708 193l158 507h116l-232 -700h-83l-166 511l-166 -511h-82l-232 700h118l157 -504l165 504h81zM455 785h-102v106h102v-106zM650 785h-101v106h101v-106z" />
    <glyph glyph-name="wdieresis" unicode="&#x1e85;" horiz-adv-x="827" 
d="M583 149l129 351h107l-196 -500h-76l-134 341l-134 -341h-74l-197 500h109l128 -347l134 347h69zM367 589h-102v106h102v-106zM562 589h-101v106h101v-106z" />
    <glyph glyph-name="uni1E9E" unicode="&#x1e9e;" horiz-adv-x="691" 
d="M464 426q52 -6 95 -34.5t67.5 -74.5t24.5 -100q0 -61 -30 -110.5t-86 -78t-129 -28.5h-77v103h77q61 0 96.5 32.5t35.5 81.5q0 48 -36 81t-96 33h-77v70l136 199h-133q-58 0 -95 -38t-37 -99v-463h-110v474q0 64 29.5 115.5t81 81t115.5 29.5h281v-78z" />
    <glyph glyph-name="Ygrave" unicode="&#x1ef2;" horiz-adv-x="583" 
d="M293 405l157 295h123l-227 -406v-294h-110v294l-226 406h125zM345 763h-91l-105 147h103z" />
    <glyph glyph-name="ygrave" unicode="&#x1ef3;" horiz-adv-x="542" 
d="M274 158l150 342h111l-314 -700h-109l108 241l-217 459h114zM322 568h-91l-105 146h103z" />
    <glyph glyph-name="endash" unicode="&#x2013;" horiz-adv-x="612" 
d="M565 216h-517v90h517v-90z" />
    <glyph glyph-name="emdash" unicode="&#x2014;" horiz-adv-x="1012" 
d="M965 216h-917v90h917v-90z" />
    <glyph glyph-name="quoteleft" unicode="&#x2018;" horiz-adv-x="227" 
d="M141 452h-108l80 248h84z" />
    <glyph glyph-name="quoteright" unicode="&#x2019;" horiz-adv-x="227" 
d="M114 452h-84l57 248h108z" />
    <glyph glyph-name="quotesinglbase" unicode="&#x201a;" horiz-adv-x="227" 
d="M114 -133h-84l57 249h108z" />
    <glyph glyph-name="quotedblleft" unicode="&#x201c;" horiz-adv-x="412" 
d="M141 452h-108l80 248h84zM326 452h-108l80 248h84z" />
    <glyph glyph-name="quotedblright" unicode="&#x201d;" horiz-adv-x="412" 
d="M114 452h-84l57 248h108zM299 452h-84l57 248h108z" />
    <glyph glyph-name="quotedblbase" unicode="&#x201e;" horiz-adv-x="412" 
d="M114 -133h-84l57 249h108zM299 -133h-84l57 249h108z" />
    <glyph glyph-name="dagger" unicode="&#x2020;" horiz-adv-x="463" 
d="M280 533h135v-90h-135v-443h-97v443h-135v90h135v167h97v-167z" />
    <glyph glyph-name="daggerdbl" unicode="&#x2021;" horiz-adv-x="463" 
d="M415 533v-90h-135v-186h135v-90h-135v-167h-97v167h-135v90h135v186h-135v90h135v167h97v-167h135z" />
    <glyph glyph-name="bullet" unicode="&#x2022;" horiz-adv-x="396" 
d="M126.5 186q-29.5 30 -29.5 72q0 41 29.5 71t71.5 30q41 0 71 -30t30 -71q0 -42 -30 -72t-71 -30q-42 0 -71.5 30z" />
    <glyph glyph-name="ellipsis" unicode="&#x2026;" horiz-adv-x="770" 
d="M179 0h-107v116h107v-116zM439 0h-107v116h107v-116zM699 0h-107v116h107v-116z" />
    <glyph glyph-name="perthousand" unicode="&#x2030;" horiz-adv-x="1254" 
d="M129.5 384.5q-41.5 23.5 -65.5 63.5t-24 88t24 88t65.5 63.5t90.5 23.5t90 -23.5t65 -63.5t24 -88t-24 -88t-65 -63.5t-90 -23.5t-90.5 23.5zM238 0h-99l481 700h98zM288 465q27 28 27 71t-27 71t-68 28t-68.5 -28t-27.5 -71t27.5 -71t68.5 -28t68 28zM547.5 12.5
q-41.5 23.5 -65.5 63.5t-24 88t24 88t65.5 63.5t90.5 23.5t90 -23.5t65 -63.5t24 -88t-24 -88t-65 -63.5t-90 -23.5t-90.5 23.5zM944 12.5q-41 23.5 -65 63.5t-24 88t24 88t65 63.5t90 23.5t90.5 -23.5t65.5 -63.5t24 -88t-24 -88t-65.5 -63.5t-90.5 -23.5t-90 23.5zM706 93
q27 28 27 71t-27 71t-68 28t-68.5 -28t-27.5 -71t27.5 -71t68.5 -28t68 28zM1102.5 93q27.5 28 27.5 71t-27.5 71t-68.5 28t-68 -28t-27 -71t27 -71t68 -28t68.5 28z" />
    <glyph glyph-name="guilsinglleft" unicode="&#x2039;" horiz-adv-x="326" 
d="M279 69h-104l-150 186l150 187h104l-150 -187z" />
    <glyph glyph-name="guilsinglright" unicode="&#x203a;" horiz-adv-x="326" 
d="M152 69h-104l149 186l-149 187h104l149 -187z" />
    <glyph glyph-name="fraction" unicode="&#x2044;" horiz-adv-x="149" 
d="M-117 0h-98l481 700h98z" />
    <glyph glyph-name="uni2070" unicode="&#x2070;" horiz-adv-x="353" 
d="M104 505q-33 22 -52 63t-19 96t19 96t52 63t73 22t73 -22t52 -63t19 -96t-19 -96t-52 -63t-73 -22t-73 22zM225 583q19 30 19 81q0 52 -19 82t-48 30q-30 0 -49 -30t-19 -82q0 -51 19 -81t49 -30q29 0 48 30z" />
    <glyph glyph-name="uni2074" unicode="&#x2074;" horiz-adv-x="318" 
d="M252 621h49v-62h-49v-71h-75v71h-167v53l168 228h74v-219zM178 740l-86 -119h86v119z" />
    <glyph glyph-name="uni2075" unicode="&#x2075;" horiz-adv-x="325" 
d="M256 691.5q36 -34.5 36 -86.5q0 -53 -36 -87.5t-98 -34.5q-57 0 -95 30.5t-40 76.5h81q3 -17 17.5 -28.5t36.5 -11.5q23 0 38.5 15.5t15.5 38.5t-15.5 39t-38.5 16q-27 0 -47 -20l-67 27l42 174h190v-68h-138l-13 -52q19 6 38 6q57 0 93 -34.5z" />
    <glyph glyph-name="uni2076" unicode="&#x2076;" horiz-adv-x="340" 
d="M270 695.5q37 -35.5 37 -88.5t-38.5 -88.5t-98.5 -35.5t-98.5 35.5t-38.5 88.5q0 25 8 45.5t25 47.5l91 140h88l-73 -109h6q55 0 92 -35.5zM210 568.5q16 16.5 16 38.5q0 24 -16 40.5t-40 16.5t-40 -16.5t-16 -40.5q0 -22 16 -38.5t40 -16.5t40 16.5z" />
    <glyph glyph-name="uni2077" unicode="&#x2077;" horiz-adv-x="287" 
d="M25 771v69h252v-50l-141 -302h-88l133 283h-156z" />
    <glyph glyph-name="uni2078" unicode="&#x2078;" horiz-adv-x="332" 
d="M284.5 643.5q15.5 -23.5 15.5 -54.5q0 -44 -36 -75t-98 -31t-97.5 31t-35.5 75q0 32 15 55t42 35q-20 10 -32.5 29t-12.5 44q0 40 34.5 66.5t86.5 26.5q53 0 87 -26.5t34 -66.5q0 -25 -12.5 -44t-32.5 -29q27 -12 42.5 -35.5zM134 771.5q-12 -11.5 -12 -28.5t12 -29
t32 -12t32.5 12t12.5 29t-12.5 28.5t-32.5 11.5t-32 -11.5zM204 559q15 14 15 34q0 21 -14.5 35t-38.5 14q-23 0 -37.5 -14t-14.5 -35q0 -20 14.5 -34t37.5 -14t38 14z" />
    <glyph glyph-name="uni2079" unicode="&#x2079;" horiz-adv-x="340" 
d="M268.5 809.5q38.5 -35.5 38.5 -88.5q0 -25 -7.5 -45.5t-24.5 -46.5l-91 -141h-89l72 109h-5q-55 0 -92 36t-37 88q0 53 38.5 88.5t99.5 35.5q59 0 97.5 -35.5zM210 681q16 16 16 40q0 23 -16 39t-40 16t-40 -16t-16 -39q0 -24 16 -40t40 -16t40 16z" />
    <glyph glyph-name="uni2080" unicode="&#x2080;" horiz-adv-x="353" 
d="M104 -123q-33 22 -52 63t-19 96t19 96t52 63t73 22t73 -22t52 -63t19 -96t-19 -96t-52 -63t-73 -22t-73 22zM225 -45q19 30 19 81q0 52 -19 82t-48 30q-30 0 -49 -30t-19 -82q0 -51 19 -81t49 -30q29 0 48 30z" />
    <glyph glyph-name="uni2081" unicode="&#x2081;" horiz-adv-x="261" 
d="M30 171l91 41h75v-352h-81v275l-85 -37v73z" />
    <glyph glyph-name="uni2082" unicode="&#x2082;" horiz-adv-x="318" 
d="M155 -69h138v-71h-260v51l134 135q20 20 28.5 34t8.5 30q0 17 -12 27.5t-31 10.5q-23 0 -36.5 -13.5t-14.5 -35.5h-80q1 59 38.5 88.5t92.5 29.5q54 0 89.5 -28.5t35.5 -74.5q0 -31 -13.5 -55t-43.5 -55z" />
    <glyph glyph-name="uni2083" unicode="&#x2083;" horiz-adv-x="330" 
d="M282 12q15 -22 15 -51q0 -46 -35 -76t-97 -30q-60 0 -98 31.5t-39 86.5h83q1 -22 15 -36.5t39 -14.5q23 0 36.5 12.5t13.5 32.5q0 21 -14.5 33t-38.5 12h-32v58h30q20 0 33.5 12t13.5 32q0 17 -13 27t-32 10q-22 0 -34.5 -13t-13.5 -32h-79q1 54 39 82.5t89 28.5
q54 0 89 -28t35 -71q0 -26 -13 -45t-34 -29q27 -10 42 -32z" />
    <glyph glyph-name="uni2084" unicode="&#x2084;" horiz-adv-x="318" 
d="M252 -7h49v-62h-49v-71h-75v71h-167v53l168 228h74v-219zM178 112l-86 -119h86v119z" />
    <glyph glyph-name="uni2085" unicode="&#x2085;" horiz-adv-x="325" 
d="M256 63.5q36 -34.5 36 -86.5q0 -53 -36 -87.5t-98 -34.5q-57 0 -95 30.5t-40 76.5h81q3 -17 17.5 -28.5t36.5 -11.5q23 0 38.5 15.5t15.5 38.5t-15.5 39t-38.5 16q-27 0 -47 -20l-67 27l42 174h190v-68h-138l-13 -52q19 6 38 6q57 0 93 -34.5z" />
    <glyph glyph-name="uni2086" unicode="&#x2086;" horiz-adv-x="340" 
d="M270 67.5q37 -35.5 37 -88.5t-38.5 -88.5t-98.5 -35.5t-98.5 35.5t-38.5 88.5q0 25 8 45.5t25 47.5l91 140h88l-73 -109h6q55 0 92 -35.5zM210 -59.5q16 16.5 16 38.5q0 24 -16 40.5t-40 16.5t-40 -16.5t-16 -40.5q0 -22 16 -38.5t40 -16.5t40 16.5z" />
    <glyph glyph-name="uni2087" unicode="&#x2087;" horiz-adv-x="287" 
d="M25 143v69h252v-50l-141 -302h-88l133 283h-156z" />
    <glyph glyph-name="uni2088" unicode="&#x2088;" horiz-adv-x="332" 
d="M284.5 15.5q15.5 -23.5 15.5 -54.5q0 -44 -36 -75t-98 -31t-97.5 31t-35.5 75q0 32 15 55t42 35q-20 10 -32.5 29t-12.5 44q0 40 34.5 66.5t86.5 26.5q53 0 87 -26.5t34 -66.5q0 -25 -12.5 -44t-32.5 -29q27 -12 42.5 -35.5zM134 143.5q-12 -11.5 -12 -28.5t12 -29
t32 -12t32.5 12t12.5 29t-12.5 28.5t-32.5 11.5t-32 -11.5zM204 -69q15 14 15 34q0 21 -14.5 35t-38.5 14q-23 0 -37.5 -14t-14.5 -35q0 -20 14.5 -34t37.5 -14t38 14z" />
    <glyph glyph-name="uni2089" unicode="&#x2089;" horiz-adv-x="340" 
d="M268.5 181.5q38.5 -35.5 38.5 -88.5q0 -25 -7.5 -45.5t-24.5 -46.5l-91 -141h-89l72 109h-5q-55 0 -92 36t-37 88q0 53 38.5 88.5t99.5 35.5q59 0 97.5 -35.5zM210 53q16 16 16 40q0 23 -16 39t-40 16t-40 -16t-16 -39q0 -24 16 -40t40 -16t40 16z" />
    <glyph glyph-name="uni20A9" unicode="&#x20a9;" horiz-adv-x="993" 
d="M963 491v-95h-123l-24 -80h147v-95h-176l-67 -221h-82l-141 505l-142 -505h-81l-67 221h-176v95h147l-24 80h-123v95h94l-64 209h117l138 -495l141 495h80l142 -498l138 498h116l-64 -209h94z" />
    <glyph glyph-name="Euro" unicode="&#x20ac;" horiz-adv-x="709" 
d="M328 569q-61 -40 -92 -106h391l-28 -80h-385q-2 -22 -2 -33q0 -20 3 -40h359l-28 -80h-306q31 -63 91 -100.5t135 -37.5q63 0 109 14.5t86 45.5v-111q-44 -27 -92.5 -39.5t-109.5 -12.5q-77 0 -145.5 30.5t-119.5 85t-75 125.5h-114l28 80h68q-2 26 -2 40q0 22 1 33h-94
l28 80h82q23 73 74 129.5t120.5 87.5t148.5 31q61 0 109.5 -12.5t92.5 -39.5v-111q-41 31 -87 46t-108 15q-77 0 -138 -40z" />
    <glyph glyph-name="uni20B4" unicode="&#x20b4;" horiz-adv-x="614" 
d="M567 464v-85h-524v85h357q17 26 17 61q0 44 -29.5 67.5t-79.5 23.5t-82 -25.5t-35 -67.5h-105q1 55 30.5 97.5t79.5 66.5t110 24q64 0 114.5 -23t78 -63t27.5 -87q0 -42 -19 -74h60zM43 237v85h524v-85h-357q-18 -25 -18 -62q0 -44 30 -67.5t80 -23.5q49 0 81 25.5
t36 68.5h105q-1 -55 -31 -98t-79.5 -67t-109.5 -24q-64 0 -114.5 23t-78.5 63t-28 87q0 43 19 75h-59z" />
    <glyph glyph-name="uni20B8" unicode="&#x20b8;" horiz-adv-x="520" 
d="M492 603h-464v97h464v-97zM315 0h-110v438h-177v97h464v-97h-177v-438z" />
    <glyph glyph-name="uni20B9" unicode="&#x20b9;" horiz-adv-x="564" 
d="M531 700v-97h-129q32 -28 45 -83h84v-93h-83q-11 -56 -47 -97.5t-92 -63.5l222 -266h-137l-204 247h-145v97h149q55 0 90.5 22t49.5 61h-289v93h289q-14 39 -49.5 61t-90.5 22h-149v97h486z" />
    <glyph glyph-name="uni20BA" unicode="&#x20ba;" horiz-adv-x="587" 
d="M572 342q-6 -95 -52 -173t-128.5 -123.5t-193.5 -45.5h-93v232l-87 -33v90l87 33v81l-87 -33v90l87 33v207h110v-166l181 68v-90l-181 -68v-81l181 68v-90l-181 -68v-170q104 5 171 68t75 171h111z" />
    <glyph glyph-name="uni20BD" unicode="&#x20bd;" horiz-adv-x="599" 
d="M213 294v-77h212v-93h-212v-124h-110v124h-85v93h85v77h-85v98h85v308h223q74 0 128 -26t83 -72t29 -105t-29 -105t-83 -72t-128 -26h-113zM213 603v-211h112q61 0 94.5 29.5t33.5 75.5t-33.5 76t-94.5 30h-112z" />
    <glyph glyph-name="uni20BF" unicode="&#x20bf;" horiz-adv-x="600" 
d="M523 96q-32 -48 -91 -73v-128h-95v106q-10 -1 -30 -1h-53v-105h-95v105h-69v700h69v105h95v-105h40q15 0 43 -2v107h95v-135q45 -24 69 -64.5t24 -91.5q0 -45 -25.5 -82.5t-66.5 -56.5q56 -19 89 -64t33 -105q0 -62 -32 -110zM381 576q-32 27 -87 27h-94v-193h94
q56 0 87.5 27t31.5 70q0 42 -32 69zM309 98q61 0 97 31.5t36 78.5t-36 78.5t-97 31.5h-109v-220h109z" />
    <glyph glyph-name="uni2116" unicode="&#x2116;" horiz-adv-x="1138" 
d="M163 700l430 -506v506h106v-700h-72l-430 505v-505h-107v700h73zM863.5 189q-36.5 21 -57.5 56.5t-21 78.5t21 78.5t57.5 56.5t81.5 21t81.5 -21t57.5 -56.5t21 -78.5t-21 -78.5t-57.5 -56.5t-81.5 -21t-81.5 21zM889.5 380q-21.5 -22 -21.5 -56t21.5 -56t55.5 -22t56 22
t22 56t-22 56t-56 22t-55.5 -22zM1083 0h-276v90h276v-90z" />
    <glyph glyph-name="trademark" unicode="&#x2122;" horiz-adv-x="759" 
d="M118 630h-95v70h265v-70h-95v-257h-75v257zM652 700l41 -327h-72l-23 186l-85 -186h-22l-87 189l-24 -189h-70l42 327h61l89 -198l89 198h61z" />
    <glyph glyph-name="arrowleft" unicode="&#x2190;" horiz-adv-x="768" 
d="M212 399h518v-98h-517l191 -191l-67 -67l-307 307l307 307l67 -66z" />
    <glyph glyph-name="arrowup" unicode="&#x2191;" horiz-adv-x="694" 
d="M347 700l307 -307l-66 -66l-192 192v-519h-98v518l-191 -191l-67 66z" />
    <glyph glyph-name="arrowright" unicode="&#x2192;" horiz-adv-x="768" 
d="M364 591l67 66l307 -307l-307 -307l-67 67l191 191h-517v98h518z" />
    <glyph glyph-name="arrowdown" unicode="&#x2193;" horiz-adv-x="694" 
d="M396 182l192 192l66 -67l-307 -307l-307 307l67 67l191 -191v517h98v-518z" />
    <glyph glyph-name="uni2196" unicode="&#x2196;" horiz-adv-x="677" 
d="M244 607l368 -367l-69 -69l-367 368v-273h-93v434h434v-93h-273z" />
    <glyph glyph-name="uni2197" unicode="&#x2197;" horiz-adv-x="677" 
d="M160 607v93h434v-434h-93v273l-367 -368l-69 69l368 367h-273z" />
    <glyph glyph-name="uni2198" unicode="&#x2198;" horiz-adv-x="677" 
d="M501 162v273h93v-435h-434v94h272l-367 367l69 68z" />
    <glyph glyph-name="uni2199" unicode="&#x2199;" horiz-adv-x="677" 
d="M543 529l69 -68l-367 -367h272v-94h-434v435h93v-273z" />
    <glyph glyph-name="minus" unicode="&#x2212;" 
d="M523 292h-490v96h490v-96z" />
    <glyph glyph-name="approxequal" unicode="&#x2248;" 
d="M317 369.5q-27 12.5 -62 36.5q-26 18 -43 26.5t-37 8.5q-27 0 -41.5 -17.5t-14.5 -47.5v-15h-92v26q0 70 40.5 109.5t104.5 39.5q40 0 67 -12.5t62 -36.5q26 -18 43 -26.5t37 -8.5q27 0 41.5 17.5t14.5 47.5v15h92v-31q0 -67 -40.5 -105.5t-104.5 -38.5q-40 0 -67 12.5z
M317 158.5q-27 12.5 -62 36.5q-26 18 -43 26.5t-37 8.5q-27 0 -41.5 -17.5t-14.5 -47.5v-15h-92v30q0 67 40.5 106t104.5 39q40 0 67 -12.5t62 -36.5q26 -18 43 -26.5t37 -8.5q27 0 41.5 17.5t14.5 47.5v15h92v-31q0 -67 -40.5 -105.5t-104.5 -38.5q-40 0 -67 12.5z" />
    <glyph glyph-name="notequal" unicode="&#x2260;" 
d="M518 489v-93h-165l-52 -109h217v-94h-262l-44 -93h-99l44 93h-119v94h164l52 109h-216v93h260l44 92h99l-44 -92h121z" />
    <glyph glyph-name="lessequal" unicode="&#x2264;" 
d="M37 450l471 150v-101l-352 -102l352 -102v-101l-471 150v106zM508 73h-471v94h471v-94z" />
    <glyph glyph-name="greaterequal" unicode="&#x2265;" 
d="M48 499v101l471 -150v-106l-471 -150v101l351 102zM519 73h-471v94h471v-94z" />
    <glyph glyph-name="uni2460" unicode="&#x2460;" horiz-adv-x="833" 
d="M602 663.5q84 -47.5 132.5 -130.5t48.5 -183t-48.5 -183t-132.5 -130.5t-185 -47.5t-185 47.5t-133 130.5t-49 183t49 183t133 130.5t185 47.5t185 -47.5zM558.5 107q63.5 37 99.5 101t36 142t-36 142.5t-99.5 101.5t-141.5 37t-141.5 -37t-100 -101.5t-36.5 -142.5
t36.5 -142t100 -101t141.5 -37t141.5 37zM309 412v73l91 41h75v-352h-81v275z" />
    <glyph glyph-name="uni2461" unicode="&#x2461;" horiz-adv-x="833" 
d="M602 663.5q84 -47.5 132.5 -130.5t48.5 -183t-48.5 -183t-132.5 -130.5t-185 -47.5t-185 47.5t-133 130.5t-49 183t49 183t133 130.5t185 47.5t185 -47.5zM558.5 107q63.5 37 99.5 101t36 142t-36 142.5t-99.5 101.5t-141.5 37t-141.5 -37t-100 -101.5t-36.5 -142.5
t36.5 -142t100 -101t141.5 -37t141.5 37zM415 245h137v-71h-260v51l135 135q20 21 28 34.5t8 29.5q0 17 -12 27.5t-31 10.5q-23 0 -36 -13.5t-14 -35.5h-80q1 59 38 88.5t92 29.5t90 -28t35 -75q0 -31 -13.5 -55.5t-43.5 -54.5z" />
    <glyph glyph-name="uni2462" unicode="&#x2462;" horiz-adv-x="833" 
d="M602 663.5q84 -47.5 132.5 -130.5t48.5 -183t-48.5 -183t-132.5 -130.5t-185 -47.5t-185 47.5t-133 130.5t-49 183t49 183t133 130.5t185 47.5t185 -47.5zM558.5 107q63.5 37 99.5 101t36 142t-36 142.5t-99.5 101.5t-141.5 37t-141.5 -37t-100 -101.5t-36.5 -142.5
t36.5 -142t100 -101t141.5 -37t141.5 37zM535 325q15 -22 15 -51q0 -46 -35 -76t-97 -30q-60 0 -98 31.5t-39 86.5h83q1 -22 15 -36.5t39 -14.5q23 0 36.5 12.5t13.5 32.5q0 21 -14.5 33t-38.5 12h-32v58h30q20 0 33.5 12t13.5 32q0 17 -13 27t-32 10q-22 0 -34.5 -13
t-13.5 -32h-79q1 54 39 82.5t89 28.5q54 0 89 -28t35 -71q0 -26 -13 -45t-34 -29q27 -10 42 -32z" />
    <glyph glyph-name="uni2463" unicode="&#x2463;" horiz-adv-x="833" 
d="M602 663.5q84 -47.5 132.5 -130.5t48.5 -183t-48.5 -183t-132.5 -130.5t-185 -47.5t-185 47.5t-133 130.5t-49 183t49 183t133 130.5t185 47.5t185 -47.5zM558.5 107q63.5 37 99.5 101t36 142t-36 142.5t-99.5 101.5t-141.5 37t-141.5 -37t-100 -101.5t-36.5 -142.5
t36.5 -142t100 -101t141.5 -37t141.5 37zM425 526h73v-219h49v-62h-49v-71h-75v71h-166v53zM425 426l-86 -119h86v119z" />
    <glyph glyph-name="uni2464" unicode="&#x2464;" horiz-adv-x="833" 
d="M602 663.5q84 -47.5 132.5 -130.5t48.5 -183t-48.5 -183t-132.5 -130.5t-185 -47.5t-185 47.5t-133 130.5t-49 183t49 183t133 130.5t185 47.5t185 -47.5zM558.5 107q63.5 37 99.5 101t36 142t-36 142.5t-99.5 101.5t-141.5 37t-141.5 -37t-100 -101.5t-36.5 -142.5
t36.5 -142t100 -101t141.5 -37t141.5 37zM512 377.5q36 -34.5 36 -86.5q0 -53 -36 -87.5t-98 -34.5q-57 0 -95 30.5t-40 76.5h81q3 -17 17.5 -28.5t36.5 -11.5q23 0 38.5 15.5t15.5 38.5t-15.5 39t-38.5 16q-27 0 -47 -20l-67 27l42 174h190v-68h-138l-13 -52q19 6 38 6
q57 0 93 -34.5z" />
    <glyph glyph-name="uni2465" unicode="&#x2465;" horiz-adv-x="833" 
d="M602 663.5q84 -47.5 132.5 -130.5t48.5 -183t-48.5 -183t-132.5 -130.5t-185 -47.5t-185 47.5t-133 130.5t-49 183t49 183t133 130.5t185 47.5t185 -47.5zM558.5 107q63.5 37 99.5 101t36 142t-36 142.5t-99.5 101.5t-141.5 37t-141.5 -37t-100 -101.5t-36.5 -142.5
t36.5 -142t100 -101t141.5 -37t141.5 37zM511 381q37 -36 37 -88q0 -53 -38.5 -88.5t-98.5 -35.5t-98.5 35.5t-38.5 88.5q0 25 8 45.5t25 47.5l91 140h88l-72 -109h8q52 0 89 -36zM451 254.5q16 16.5 16 38.5q0 24 -16 40.5t-40 16.5t-40 -16.5t-16 -40.5q0 -22 16 -38.5
t40 -16.5t40 16.5z" />
    <glyph glyph-name="uni2466" unicode="&#x2466;" horiz-adv-x="833" 
d="M602 663.5q84 -47.5 132.5 -130.5t48.5 -183t-48.5 -183t-132.5 -130.5t-185 -47.5t-185 47.5t-133 130.5t-49 183t49 183t133 130.5t185 47.5t185 -47.5zM558.5 107q63.5 37 99.5 101t36 142t-36 142.5t-99.5 101.5t-141.5 37t-141.5 -37t-100 -101.5t-36.5 -142.5
t36.5 -142t100 -101t141.5 -37t141.5 37zM456 457h-155v69h252v-50l-141 -302h-88z" />
    <glyph glyph-name="uni2467" unicode="&#x2467;" horiz-adv-x="833" 
d="M602 663.5q84 -47.5 132.5 -130.5t48.5 -183t-48.5 -183t-132.5 -130.5t-185 -47.5t-185 47.5t-133 130.5t-49 183t49 183t133 130.5t185 47.5t185 -47.5zM558.5 107q63.5 37 99.5 101t36 142t-36 142.5t-99.5 101.5t-141.5 37t-141.5 -37t-100 -101.5t-36.5 -142.5
t36.5 -142t100 -101t141.5 -37t141.5 37zM535 330q15 -23 15 -55q0 -44 -35.5 -75t-97.5 -31t-98 31t-36 75q0 31 15.5 54.5t42.5 35.5q-20 10 -32.5 29t-12.5 44q0 40 34 66.5t87 26.5q52 0 86.5 -26.5t34.5 -66.5q0 -25 -12.5 -44t-32.5 -29q27 -12 42 -35zM384.5 457.5
q-12.5 -11.5 -12.5 -28.5t12.5 -29t32.5 -12t32 12t12 29t-12 28.5t-32 11.5t-32.5 -11.5zM454.5 245q14.5 14 14.5 34q0 21 -14.5 35t-37.5 14t-38 -14t-15 -35q0 -20 15 -34t38 -14t37.5 14z" />
    <glyph glyph-name="uni2468" unicode="&#x2468;" horiz-adv-x="833" 
d="M602 663.5q84 -47.5 132.5 -130.5t48.5 -183t-48.5 -183t-132.5 -130.5t-185 -47.5t-185 47.5t-133 130.5t-49 183t49 183t133 130.5t185 47.5t185 -47.5zM558.5 107q63.5 37 99.5 101t36 142t-36 142.5t-99.5 101.5t-141.5 37t-141.5 -37t-100 -101.5t-36.5 -142.5
t36.5 -142t100 -101t141.5 -37t141.5 37zM517.5 495.5q38.5 -35.5 38.5 -88.5q0 -25 -8 -45.5t-25 -46.5l-91 -141h-88l73 110h-9q-52 0 -89 36t-37 87q0 53 38.5 88.5t98.5 35.5t98.5 -35.5zM458.5 367q15.5 16 15.5 40q0 23 -15.5 39t-39.5 16t-40.5 -16t-16.5 -39
t16.5 -39.5t40.5 -16.5t39.5 16z" />
    <glyph glyph-name="uni24EA" unicode="&#x24ea;" horiz-adv-x="833" 
d="M232 36.5q-84 47.5 -133 130.5t-49 183t49 183t133 130.5t185 47.5t185 -47.5t132.5 -130.5t48.5 -183t-48.5 -183t-132.5 -130.5t-185 -47.5t-185 47.5zM558.5 107q63.5 37 99.5 101t36 142t-36 142.5t-99.5 101.5t-141.5 37t-141.5 -37t-100 -101.5t-36.5 -142.5
t36.5 -142t100 -101t141.5 -37t141.5 37zM344 191q-33 22 -52.5 63t-19.5 96t19.5 96t52.5 63t73 22q63 0 104 -49t41 -132q0 -56 -19 -97t-52 -62.5t-74 -21.5q-40 0 -73 22zM464.5 269.5q18.5 29.5 18.5 80.5t-18.5 80.5t-47.5 29.5q-28 0 -46.5 -29.5t-18.5 -80.5
t18.5 -80.5t46.5 -29.5q29 0 47.5 29.5z" />
    <glyph glyph-name="uni24FF" unicode="&#x24ff;" horiz-adv-x="833" 
d="M232 36.5q-84 47.5 -133 130.5t-49 183t49 183t133 130.5t185 47.5t185 -47.5t132.5 -130.5t48.5 -183t-48.5 -183t-132.5 -130.5t-185 -47.5t-185 47.5zM491 190.5q33 21.5 52 62.5t19 97q0 83 -41 132t-104 49q-40 0 -73 -22t-52.5 -63t-19.5 -96t19.5 -96t52.5 -63
t73 -22q41 0 74 21.5zM370.5 269.5q-18.5 29.5 -18.5 80.5t18.5 80.5t46.5 29.5q29 0 47.5 -29.5t18.5 -80.5t-18.5 -80.5t-47.5 -29.5q-28 0 -46.5 29.5z" />
    <glyph glyph-name="uni2776" unicode="&#x2776;" horiz-adv-x="833" 
d="M232 36.5q-84 47.5 -133 130.5t-49 183t49 183t133 130.5t185 47.5t185 -47.5t132.5 -130.5t48.5 -183t-48.5 -183t-132.5 -130.5t-185 -47.5t-185 47.5zM394 449v-275h81v352h-75l-91 -41v-73z" />
    <glyph glyph-name="uni2777" unicode="&#x2777;" horiz-adv-x="834" 
d="M232 37q-84 48 -133 130.5t-49 182.5t49 183t133 130.5t185 47.5t185 -47.5t133 -130.5t49 -183t-49 -182.5t-133 -130.5t-185 -48t-185 48zM292 174h260v71h-137l73 73q30 30 43.5 54.5t13.5 55.5q0 47 -35 75t-90 28t-92 -29.5t-38 -88.5h80q1 22 14 35.5t36 13.5
q19 0 31 -10.5t12 -27.5q0 -16 -8 -29.5t-28 -34.5l-135 -135v-51z" />
    <glyph glyph-name="uni2778" unicode="&#x2778;" horiz-adv-x="833" 
d="M232 36.5q-84 47.5 -133 130.5t-49 183t49 183t133 130.5t185 47.5t185 -47.5t132.5 -130.5t48.5 -183t-48.5 -183t-132.5 -130.5t-185 -47.5t-185 47.5zM515 198q35 30 35 76q0 29 -15 51t-42 32q21 10 34 29t13 45q0 43 -35 71t-89 28q-51 0 -89 -28.5t-39 -82.5h79
q1 19 13.5 32t34.5 13q19 0 32 -10t13 -27q0 -20 -13.5 -32t-33.5 -12h-30v-58h32q24 0 38.5 -12t14.5 -33q0 -20 -13.5 -32.5t-36.5 -12.5q-25 0 -39 14.5t-15 36.5h-83q1 -55 39 -86.5t98 -31.5q62 0 97 30z" />
    <glyph glyph-name="uni2779" unicode="&#x2779;" horiz-adv-x="833" 
d="M232 36.5q-84 47.5 -133 130.5t-49 183t49 183t133 130.5t185 47.5t185 -47.5t132.5 -130.5t48.5 -183t-48.5 -183t-132.5 -130.5t-185 -47.5t-185 47.5zM423 245v-71h75v71h49v62h-49v219h-73l-168 -228v-53h166zM425 307h-86l86 119v-119z" />
    <glyph glyph-name="uni277A" unicode="&#x277a;" horiz-adv-x="833" 
d="M232 36.5q-84 47.5 -133 130.5t-49 183t49 183t133 130.5t185 47.5t185 -47.5t132.5 -130.5t48.5 -183t-48.5 -183t-132.5 -130.5t-185 -47.5t-185 47.5zM512 203.5q36 34.5 36 87.5q0 52 -36 86.5t-93 34.5q-19 0 -38 -6l12 52h139v68h-190l-42 -174l67 -27q20 20 47 20
q23 0 38.5 -16t15.5 -39t-15.5 -38.5t-38.5 -15.5q-22 0 -36.5 11.5t-17.5 28.5h-81q2 -46 40 -76.5t95 -30.5q62 0 98 34.5z" />
    <glyph glyph-name="uni277B" unicode="&#x277b;" horiz-adv-x="833" 
d="M232 36.5q-84 47.5 -133 130.5t-49 183t49 183t133 130.5t185 47.5t185 -47.5t132.5 -130.5t48.5 -183t-48.5 -183t-132.5 -130.5t-185 -47.5t-185 47.5zM509.5 204.5q38.5 35.5 38.5 88.5q0 52 -37 88t-89 36l-9 -1l73 110h-88l-91 -140q-17 -27 -25 -47.5t-8 -45.5
q0 -53 38.5 -88.5t98.5 -35.5t98.5 35.5zM371 254.5q-16 16.5 -16 38.5q0 24 16 40.5t40 16.5t40 -16.5t16 -40.5q0 -22 -16 -38.5t-40 -16.5t-40 16.5z" />
    <glyph glyph-name="uni277C" unicode="&#x277c;" horiz-adv-x="833" 
d="M232 36.5q-84 47.5 -133 130.5t-49 183t49 183t133 130.5t185 47.5t185 -47.5t132.5 -130.5t48.5 -183t-48.5 -183t-132.5 -130.5t-185 -47.5t-185 47.5zM456 457l-132 -283h88l141 302v50h-252v-69h155z" />
    <glyph glyph-name="uni277D" unicode="&#x277d;" horiz-adv-x="833" 
d="M232 36.5q-84 47.5 -133 130.5t-49 183t49 183t133 130.5t185 47.5t185 -47.5t132.5 -130.5t48.5 -183t-48.5 -183t-132.5 -130.5t-185 -47.5t-185 47.5zM514.5 200q35.5 31 35.5 75q0 62 -57 90q20 10 32.5 29.5t12.5 43.5q0 40 -34.5 66.5t-86.5 26.5q-53 0 -87 -26.5
t-34 -66.5q0 -25 12 -44t32 -29q-57 -28 -57 -90q0 -44 36 -75t98 -31t97.5 31zM384.5 400q-12.5 12 -12.5 29t12.5 28.5t32.5 11.5t32 -11.5t12 -28.5t-12 -29t-32 -12t-32.5 12zM379 245q-15 14 -15 34q0 21 15 35t38 14t37.5 -14t14.5 -35q0 -20 -14.5 -34t-37.5 -14
t-38 14z" />
    <glyph glyph-name="uni277E" unicode="&#x277e;" horiz-adv-x="833" 
d="M232 36.5q-84 47.5 -133 130.5t-49 183t49 183t133 130.5t185 47.5t185 -47.5t132.5 -130.5t48.5 -183t-48.5 -183t-132.5 -130.5t-185 -47.5t-185 47.5zM344 174h88l91 141q17 26 25 46.5t8 45.5q0 53 -38.5 88.5t-98.5 35.5t-98.5 -35.5t-38.5 -88.5q0 -51 37 -87
t89 -36h9zM378.5 367.5q-16.5 16.5 -16.5 39.5t16.5 39t40.5 16t39.5 -16t15.5 -39q0 -24 -15.5 -40t-39.5 -16t-40.5 16.5z" />
    <glyph glyph-name="E_A.dlig" unicode="&#xe000;" horiz-adv-x="1222" 
d="M1207 0h-117l-64 168h-295l-64 -168h-577v700h396v-102h-286v-185h276v-103h-276v-207h390l239 597h99zM989 271l-110 288l-111 -288h221z" />
    <glyph glyph-name="K_A.dlig" unicode="&#xe001;" horiz-adv-x="1290" 
d="M1275 0h-118l-67 168h-308l-67 -168h-175l-340 335v-335h-110v700h110v-322l275 322h132l-288 -335l305 -298l263 633h99zM1050 271l-114 286l-114 -286h228z" />
    <glyph glyph-name="L_A.dlig" unicode="&#xe002;" horiz-adv-x="1114" 
d="M1099 0h-118l-64 168h-295l-64 -168h-468v700h110v-592h284l237 592h99zM880 271l-110 287l-110 -287h220z" />
    <glyph glyph-name="R_A.dlig" unicode="&#xe003;" horiz-adv-x="1288" 
d="M1155 0l-67 168h-308l-67 -168h-179l-256 274h-78v-274h-110v700h220q74 0 129 -27.5t85 -76t30 -109.5q0 -71 -39.5 -124t-109.5 -75l214 -229l266 641h99l289 -700h-118zM200 598v-221h109q62 0 97 30.5t35 79.5t-35 80t-97 31h-109zM1047 271l-113 286l-113 -286h226z
" />
    <glyph glyph-name="T_Y.dlig" unicode="&#xe004;" horiz-adv-x="1046" 
d="M756 405l157 295h123l-227 -406v-294h-110v294l-169 304h-220v-598h-110v598h-177v102h575z" />
    <glyph glyph-name="f_f_j.dlig" unicode="&#xe005;" horiz-adv-x="900" 
d="M520 500h309v-545q0 -73 -44.5 -117t-119.5 -44h-64v97h44q38 0 59 21t21 58v434h-205v-404h-104v404h-205v-404h-104v404h-82v96h82v69q0 73 44.5 117t119.5 44h63v-97h-44q-37 0 -58 -21t-21 -58v-54h205v69q0 73 44.5 117t119.5 44h63v-97h-44q-37 0 -58 -21t-21 -58
v-54zM720 590v105h113v-105h-113z" />
    <glyph glyph-name="f_f_t.dlig" unicode="&#xe006;" horiz-adv-x="992" 
d="M952 404h-123v-228q0 -37 21 -58t58 -21h44v-97h-63q-75 0 -119.5 44t-44.5 117v243h-205v-404h-104v404h-205v-404h-104v404h-82v96h82v69q0 73 44.5 117t119.5 44h63v-97h-44q-37 0 -58 -21t-21 -58v-54h205v69q0 73 44.5 117t119.5 44h63v-97h-44q-37 0 -58 -21
t-21 -58v-54h205v132h104v-132h123v-96z" />
    <glyph glyph-name="f_b.dlig" unicode="&#xe007;" horiz-adv-x="979" 
d="M813.5 476q58.5 -34 93.5 -93.5t35 -132.5q0 -74 -35 -134t-93 -94t-125 -34q-105 0 -172 75v-64h-101v634h-126q-37 0 -58 -21t-21 -58v-54h123v-96h-123v-404h-104v404h-82v96h82v69q0 73 44.5 117t119.5 44h249v-291q65 71 169 71q66 0 124.5 -34zM758 106.5
q37 21.5 58 59.5t21 84t-21 83.5t-58 59t-82 21.5t-82 -21.5t-58 -59t-21 -83.5t21 -84t58 -59.5t82 -21.5t82 21.5z" />
    <glyph glyph-name="f_h.dlig" unicode="&#xe008;" horiz-adv-x="940" 
d="M775.5 482.5q46.5 -28.5 72.5 -78t26 -110.5v-294h-104v281q0 60 -32.5 96.5t-88.5 36.5q-55 0 -92 -37t-37 -96v-281h-104v633h-126q-37 0 -58 -21t-21 -58v-54h123v-96h-123v-404h-104v404h-82v96h82v69q0 73 44.5 117t119.5 44h249v-286q60 67 150 67
q59 0 105.5 -28.5z" />
    <glyph glyph-name="f_j.dlig" unicode="&#xe009;" horiz-adv-x="591" 
d="M211 500h309v-545q0 -73 -44.5 -117t-119.5 -44h-64v97h44q38 0 59 21t21 58v434h-205v-404h-104v404h-82v96h82v69q0 73 44.5 117t119.5 44h63v-97h-44q-37 0 -58 -21t-21 -58v-54zM411 590v105h113v-105h-113z" />
    <glyph glyph-name="f_k.dlig" unicode="&#xe00a;" horiz-adv-x="865" 
d="M862 0h-131l-211 228v-228h-104v633h-126q-37 0 -58 -21t-21 -58v-54h123v-96h-123v-404h-104v404h-82v96h82v69q0 73 44.5 117t119.5 44h249v-450l201 220h125l-226 -242z" />
    <glyph glyph-name="f_t.dlig" unicode="&#xe00b;" horiz-adv-x="683" 
d="M643 404h-123v-228q0 -37 21 -58t58 -21h44v-97h-63q-75 0 -119.5 44t-44.5 117v243h-205v-404h-104v404h-82v96h82v69q0 73 44.5 117t119.5 44h63v-97h-44q-37 0 -58 -21t-21 -58v-54h205v132h104v-132h123v-96z" />
    <glyph glyph-name="t_t.dlig" unicode="&#xe00c;" horiz-adv-x="683" 
d="M643 404h-123v-228q0 -37 21 -58t58 -21h44v-97h-63q-75 0 -119.5 44t-44.5 117v243h-205v-228q0 -37 21 -58t58 -21h44v-97h-63q-75 0 -119.5 44t-44.5 117v243h-82v96h82v132h104v-132h205v132h104v-132h123v-96z" />
    <glyph glyph-name="M.ss05" unicode="&#xe00f;" horiz-adv-x="942" 
d="M472 146l240 554h140v-700h-109v523l-228 -523h-88l-228 523v-523h-109v700h142z" />
    <glyph glyph-name="Q.ss06" unicode="&#xe010;" horiz-adv-x="831" 
d="M232 36.5q-84 47.5 -133 130t-49 183.5t49 183.5t133 130t184 47.5t183.5 -47.5t132.5 -130t49 -183.5t-49 -183.5t-132.5 -130t-183.5 -47.5t-184 47.5zM543.5 126q57.5 34 91 93t33.5 131t-33.5 131.5t-91 93.5t-127.5 34t-128 -34t-91.5 -93.5t-33.5 -131.5t33.5 -131
t91.5 -93t128 -34t127.5 34zM723 -170h-395v95h395v-95z" />
    <glyph glyph-name="y.ss01" unicode="&#xe011;" horiz-adv-x="522" 
d="M405 500h110l-219 -577q-19 -49 -41 -75.5t-53 -37t-81 -10.5h-44v96h36q38 0 57 12.5t34 53.5l17 45l-216 493h114l154 -362z" />
    <glyph glyph-name="yacute.ss01" unicode="&#xe012;" horiz-adv-x="522" 
d="M405 500h110l-219 -577q-19 -49 -41 -75.5t-53 -37t-81 -10.5h-44v96h36q38 0 57 12.5t34 53.5l17 45l-216 493h114l154 -362zM295 568h-89l93 146h101z" />
    <glyph glyph-name="ycircumflex.ss01" unicode="&#xe013;" horiz-adv-x="522" 
d="M405 500h110l-219 -577q-19 -49 -41 -75.5t-53 -37t-81 -10.5h-44v96h36q38 0 57 12.5t34 53.5l17 45l-216 493h114l154 -362zM192 568h-97l127 141h83l126 -141h-96l-71 80z" />
    <glyph glyph-name="ydieresis.ss01" unicode="&#xe014;" horiz-adv-x="522" 
d="M405 500h110l-219 -577q-19 -49 -41 -75.5t-53 -37t-81 -10.5h-44v96h36q38 0 57 12.5t34 53.5l17 45l-216 493h114l154 -362zM217 589h-102v106h102v-106zM412 589h-101v106h101v-106z" />
    <glyph glyph-name="ygrave.ss01" unicode="&#xe015;" horiz-adv-x="522" 
d="M405 500h110l-219 -577q-19 -49 -41 -75.5t-53 -37t-81 -10.5h-44v96h36q38 0 57 12.5t34 53.5l17 45l-216 493h114l154 -362zM317 568h-91l-105 146h103z" />
    <glyph glyph-name="uni0233.ss01" unicode="&#xe016;" horiz-adv-x="522" 
d="M405 500h110l-219 -577q-19 -49 -41 -75.5t-53 -37t-81 -10.5h-44v96h36q38 0 57 12.5t34 53.5l17 45l-216 493h114l154 -362zM415 599h-302v78h302v-78z" />
    <glyph glyph-name="a.ss02" unicode="&#xe017;" horiz-adv-x="565" 
d="M395 487.5q49 -23.5 76 -66.5t27 -99v-322h-101v59q-27 -31 -68 -50.5t-89 -19.5q-83 0 -136.5 44t-53.5 116q0 45 23 81t65 56.5t97 20.5h159v17q0 43 -31 70t-83 27q-45 0 -72 -18t-37 -45h-105q13 71 70.5 112t143.5 41q66 0 115 -23.5zM354 114q40 36 40 89v20h-145
q-44 0 -68.5 -19t-24.5 -53q0 -32 25 -52.5t68 -20.5q65 0 105 36z" />
    <glyph glyph-name="aacute.ss02" unicode="&#xe018;" horiz-adv-x="565" 
d="M395 487.5q49 -23.5 76 -66.5t27 -99v-322h-101v59q-27 -31 -68 -50.5t-89 -19.5q-83 0 -136.5 44t-53.5 116q0 45 23 81t65 56.5t97 20.5h159v17q0 43 -31 70t-83 27q-45 0 -72 -18t-37 -45h-105q13 71 70.5 112t143.5 41q66 0 115 -23.5zM354 114q40 36 40 89v20h-145
q-44 0 -68.5 -19t-24.5 -53q0 -32 25 -52.5t68 -20.5q65 0 105 36zM322 568h-89l93 146h101z" />
    <glyph glyph-name="abreve.ss02" unicode="&#xe019;" horiz-adv-x="565" 
d="M395 487.5q49 -23.5 76 -66.5t27 -99v-322h-101v59q-27 -31 -68 -50.5t-89 -19.5q-83 0 -136.5 44t-53.5 116q0 45 23 81t65 56.5t97 20.5h159v17q0 43 -31 70t-83 27q-45 0 -72 -18t-37 -45h-105q13 71 70.5 112t143.5 41q66 0 115 -23.5zM354 114q40 36 40 89v20h-145
q-44 0 -68.5 -19t-24.5 -53q0 -32 25 -52.5t68 -20.5q65 0 105 36zM174.5 601q-43.5 41 -47.5 104h82q4 -35 26 -54t56 -19t56 19t26 54h81q-4 -63 -47 -104t-116 -41t-116.5 41z" />
    <glyph glyph-name="acircumflex.ss02" unicode="&#xe01a;" horiz-adv-x="565" 
d="M395 487.5q49 -23.5 76 -66.5t27 -99v-322h-101v59q-27 -31 -68 -50.5t-89 -19.5q-83 0 -136.5 44t-53.5 116q0 45 23 81t65 56.5t97 20.5h159v17q0 43 -31 70t-83 27q-45 0 -72 -18t-37 -45h-105q13 71 70.5 112t143.5 41q66 0 115 -23.5zM354 114q40 36 40 89v20h-145
q-44 0 -68.5 -19t-24.5 -53q0 -32 25 -52.5t68 -20.5q65 0 105 36zM219 568h-97l127 141h83l126 -141h-96l-71 80z" />
    <glyph glyph-name="adieresis.ss02" unicode="&#xe01b;" horiz-adv-x="565" 
d="M395 487.5q49 -23.5 76 -66.5t27 -99v-322h-101v59q-27 -31 -68 -50.5t-89 -19.5q-83 0 -136.5 44t-53.5 116q0 45 23 81t65 56.5t97 20.5h159v17q0 43 -31 70t-83 27q-45 0 -72 -18t-37 -45h-105q13 71 70.5 112t143.5 41q66 0 115 -23.5zM354 114q40 36 40 89v20h-145
q-44 0 -68.5 -19t-24.5 -53q0 -32 25 -52.5t68 -20.5q65 0 105 36zM244 589h-102v106h102v-106zM439 589h-101v106h101v-106z" />
    <glyph glyph-name="agrave.ss02" unicode="&#xe01c;" horiz-adv-x="565" 
d="M395 487.5q49 -23.5 76 -66.5t27 -99v-322h-101v59q-27 -31 -68 -50.5t-89 -19.5q-83 0 -136.5 44t-53.5 116q0 45 23 81t65 56.5t97 20.5h159v17q0 43 -31 70t-83 27q-45 0 -72 -18t-37 -45h-105q13 71 70.5 112t143.5 41q66 0 115 -23.5zM354 114q40 36 40 89v20h-145
q-44 0 -68.5 -19t-24.5 -53q0 -32 25 -52.5t68 -20.5q65 0 105 36zM344 568h-91l-105 146h103z" />
    <glyph glyph-name="amacron.ss02" unicode="&#xe01d;" horiz-adv-x="565" 
d="M395 487.5q49 -23.5 76 -66.5t27 -99v-322h-101v59q-27 -31 -68 -50.5t-89 -19.5q-83 0 -136.5 44t-53.5 116q0 45 23 81t65 56.5t97 20.5h159v17q0 43 -31 70t-83 27q-45 0 -72 -18t-37 -45h-105q13 71 70.5 112t143.5 41q66 0 115 -23.5zM354 114q40 36 40 89v20h-145
q-44 0 -68.5 -19t-24.5 -53q0 -32 25 -52.5t68 -20.5q65 0 105 36zM441 599h-302v78h302v-78z" />
    <glyph glyph-name="aogonek.ss02" unicode="&#xe01e;" horiz-adv-x="565" 
d="M498 0q-36 -13 -58.5 -37t-22.5 -51q0 -25 17 -39.5t49 -14.5h15v-73h-33q-54 0 -89 29.5t-35 82.5q0 33 16.5 59t42.5 44h-3v59q-27 -31 -68 -50.5t-89 -19.5q-83 0 -136.5 44t-53.5 116q0 45 23 81t65 56.5t97 20.5h159v17q0 43 -31 70t-83 27q-45 0 -72 -18t-37 -45
h-105q13 71 70.5 112t143.5 41q66 0 115 -23.5t76 -66.5t27 -99v-322zM354 114q40 36 40 89v20h-145q-44 0 -68.5 -19t-24.5 -53q0 -32 25 -52.5t68 -20.5q65 0 105 36z" />
    <glyph glyph-name="aring.ss02" unicode="&#xe01f;" horiz-adv-x="565" 
d="M395 487.5q49 -23.5 76 -66.5t27 -99v-322h-101v59q-27 -31 -68 -50.5t-89 -19.5q-83 0 -136.5 44t-53.5 116q0 45 23 81t65 56.5t97 20.5h159v17q0 43 -31 70t-83 27q-45 0 -72 -18t-37 -45h-105q13 71 70.5 112t143.5 41q66 0 115 -23.5zM354 114q40 36 40 89v20h-145
q-44 0 -68.5 -19t-24.5 -53q0 -32 25 -52.5t68 -20.5q65 0 105 36zM216.5 580q-29.5 28 -29.5 70t29.5 70.5t74.5 28.5t74.5 -28.5t29.5 -70.5t-29.5 -70t-74.5 -28t-74.5 28zM322 620q12 12 12 30q0 19 -12 31t-31 12t-31 -12t-12 -31q0 -18 12 -30t31 -12t31 12z" />
    <glyph glyph-name="atilde.ss02" unicode="&#xe020;" horiz-adv-x="565" 
d="M395 487.5q49 -23.5 76 -66.5t27 -99v-322h-101v59q-27 -31 -68 -50.5t-89 -19.5q-83 0 -136.5 44t-53.5 116q0 45 23 81t65 56.5t97 20.5h159v17q0 43 -31 70t-83 27q-45 0 -72 -18t-37 -45h-105q13 71 70.5 112t143.5 41q66 0 115 -23.5zM354 114q40 36 40 89v20h-145
q-44 0 -68.5 -19t-24.5 -53q0 -32 25 -52.5t68 -20.5q65 0 105 36zM129 598q0 48 24 75t66 27q22 0 39.5 -7.5t44.5 -23.5q31 -20 45 -20q31 0 31 43v8h72v-22q0 -48 -24 -75t-65 -27q-22 0 -40 7.5t-45 23.5q-31 20 -45 20q-30 0 -30 -43v-8h-73v22z" />
    <glyph glyph-name="u.ss03" unicode="&#xe021;" horiz-adv-x="596" 
d="M421 500h104v-500h-102v58q-30 -34 -69 -51.5t-84 -17.5q-59 0 -105.5 28.5t-72 78t-25.5 110.5v294h104v-281q0 -60 32 -96.5t89 -36.5q55 0 92 37.5t37 95.5v281z" />
    <glyph glyph-name="uacute.ss03" unicode="&#xe022;" horiz-adv-x="596" 
d="M421 500h104v-500h-102v58q-30 -34 -69 -51.5t-84 -17.5q-59 0 -105.5 28.5t-72 78t-25.5 110.5v294h104v-281q0 -60 32 -96.5t89 -36.5q55 0 92 37.5t37 95.5v281zM327 568h-89l93 146h101z" />
    <glyph glyph-name="uni0289.ss03" unicode="&#xe023;" horiz-adv-x="611" 
d="M600 368v-88h-70v-280h-102v58q-30 -34 -69 -51.5t-84 -17.5q-59 0 -105.5 28.5t-72 78t-25.5 110.5v74h-70v88h70v132h104v-132h250v132h104v-132h70zM426 280h-250v-61q0 -60 32 -96.5t89 -36.5q55 0 92 37.5t37 95.5v61z" />
    <glyph glyph-name="ubreve.ss03" unicode="&#xe024;" horiz-adv-x="596" 
d="M421 500h104v-500h-102v58q-30 -34 -69 -51.5t-84 -17.5q-59 0 -105.5 28.5t-72 78t-25.5 110.5v294h104v-281q0 -60 32 -96.5t89 -36.5q55 0 92 37.5t37 95.5v281zM179.5 601q-43.5 41 -47.5 104h82q4 -35 26 -54t56 -19t56 19t26 54h81q-4 -63 -47 -104t-116 -41
t-116.5 41z" />
    <glyph glyph-name="ucircumflex.ss03" unicode="&#xe025;" horiz-adv-x="596" 
d="M421 500h104v-500h-102v58q-30 -34 -69 -51.5t-84 -17.5q-59 0 -105.5 28.5t-72 78t-25.5 110.5v294h104v-281q0 -60 32 -96.5t89 -36.5q55 0 92 37.5t37 95.5v281zM224 568h-97l127 141h83l126 -141h-96l-71 80z" />
    <glyph glyph-name="udieresis.ss03" unicode="&#xe026;" horiz-adv-x="596" 
d="M421 500h104v-500h-102v58q-30 -34 -69 -51.5t-84 -17.5q-59 0 -105.5 28.5t-72 78t-25.5 110.5v294h104v-281q0 -60 32 -96.5t89 -36.5q55 0 92 37.5t37 95.5v281zM249 589h-102v106h102v-106zM444 589h-101v106h101v-106z" />
    <glyph glyph-name="ugrave.ss03" unicode="&#xe027;" horiz-adv-x="596" 
d="M421 500h104v-500h-102v58q-30 -34 -69 -51.5t-84 -17.5q-59 0 -105.5 28.5t-72 78t-25.5 110.5v294h104v-281q0 -60 32 -96.5t89 -36.5q55 0 92 37.5t37 95.5v281zM349 568h-91l-105 146h103z" />
    <glyph glyph-name="uhungarumlaut.ss03" unicode="&#xe028;" horiz-adv-x="596" 
d="M421 500h104v-500h-102v58q-30 -34 -69 -51.5t-84 -17.5q-59 0 -105.5 28.5t-72 78t-25.5 110.5v294h104v-281q0 -60 32 -96.5t89 -36.5q55 0 92 37.5t37 95.5v281zM255 568h-89l93 146h99zM404 568h-87l97 146h98z" />
    <glyph glyph-name="umacron.ss03" unicode="&#xe029;" horiz-adv-x="596" 
d="M421 500h104v-500h-102v58q-30 -34 -69 -51.5t-84 -17.5q-59 0 -105.5 28.5t-72 78t-25.5 110.5v294h104v-281q0 -60 32 -96.5t89 -36.5q55 0 92 37.5t37 95.5v281zM447 599h-302v78h302v-78z" />
    <glyph glyph-name="uogonek.ss03" unicode="&#xe02a;" horiz-adv-x="596" 
d="M525 0q-36 -13 -58.5 -37t-22.5 -51q0 -25 17 -39.5t49 -14.5h15v-73h-33q-54 0 -89 29.5t-35 82.5q0 33 16.5 59t42.5 44h-4v58q-30 -34 -69 -51.5t-84 -17.5q-59 0 -105.5 28.5t-72 78t-25.5 110.5v294h104v-281q0 -60 32 -96.5t89 -36.5q55 0 92 37.5t37 95.5v281h104
v-500z" />
    <glyph glyph-name="uring.ss03" unicode="&#xe02b;" horiz-adv-x="596" 
d="M421 500h104v-500h-102v58q-30 -34 -69 -51.5t-84 -17.5q-59 0 -105.5 28.5t-72 78t-25.5 110.5v294h104v-281q0 -60 32 -96.5t89 -36.5q55 0 92 37.5t37 95.5v281zM221.5 580q-29.5 28 -29.5 70t29.5 70.5t74.5 28.5t74.5 -28.5t29.5 -70.5t-29.5 -70t-74.5 -28
t-74.5 28zM327 620q12 12 12 30q0 19 -12 31t-31 12t-31 -12t-12 -31q0 -18 12 -30t31 -12t31 12z" />
    <glyph glyph-name="l.ss04" unicode="&#xe02c;" horiz-adv-x="323" 
d="M241 0q-76 0 -120 44t-44 117v559h104v-544q0 -37 21 -58t58 -21h44v-97h-63z" />
    <glyph glyph-name="lacute.ss04" unicode="&#xe02d;" horiz-adv-x="323" 
d="M241 0q-76 0 -120 44t-44 117v559h104v-544q0 -37 21 -58t58 -21h44v-97h-63zM161 789h-89l93 146h101z" />
    <glyph glyph-name="lcaron.ss04" unicode="&#xe02e;" horiz-adv-x="323" 
d="M241 0q-76 0 -120 44t-44 117v559h104v-544q0 -37 21 -58t58 -21h44v-97h-63zM314 556h-73l21 164h87z" />
    <glyph glyph-name="uni013C.ss04" unicode="&#xe02f;" horiz-adv-x="323" 
d="M241 0q-76 0 -120 44t-44 117v559h104v-544q0 -37 21 -58t58 -21h44v-97h-63zM181 -256h-86l48 171h101z" />
    <glyph glyph-name="ldot.ss04" unicode="&#xe030;" horiz-adv-x="325" 
d="M241 0q-76 0 -120 44t-44 117v559h104v-544q0 -37 21 -58t58 -21h44v-97h-63zM345 332h-107v116h107v-116z" />
    <glyph glyph-name="lslash.ss04" unicode="&#xe031;" horiz-adv-x="343" 
d="M324 97v-97h-63q-76 0 -120 44t-44 117v129l-95 -49v99l95 49v331h104v-278l95 49v-99l-95 -49v-167q0 -37 21 -58t58 -21h44z" />
    <glyph glyph-name="j.calt" unicode="&#xe032;" horiz-adv-x="247" 
d="M180 591h-114v104h114v-104zM7 -206v94h6q28 0 43 18.5t15 53.5v540h104v-545q0 -74 -40.5 -117.5t-110.5 -43.5h-17z" />
    <glyph glyph-name="uni0410041B.dlig" unicode="&#xe033;" horiz-adv-x="1357" 
d="M827 700h440v-700h-110v598h-227l-27 -357q-10 -131 -65.5 -189t-143.5 -58h-116l-69 174h-309l-67 -168h-118l290 700h99l248 -599h27q103 0 114 149zM467 271l-113 286l-113 -286h226z" />
    <glyph glyph-name="uni0410042F.dlig" unicode="&#xe034;" horiz-adv-x="1295" 
d="M1205 700v-700h-110v274h-82l-254 -274h-184l-67 168h-307l-68 -168h-118l290 700h99l266 -643l216 230q-65 23 -104.5 76.5t-39.5 123.5q0 60 29 108.5t81.5 76.5t120.5 28h232zM1095 377v221h-119q-55 0 -88.5 -31.5t-33.5 -79.5q0 -47 33.5 -78.5t88.5 -31.5h119z
M468 271l-114 286l-113 -286h227z" />
    <glyph glyph-name="uni04150410.dlig" unicode="&#xe035;" horiz-adv-x="1222" 
d="M1207 0h-117l-64 168h-295l-64 -168h-577v700h396v-102h-286v-185h276v-103h-276v-207h390l239 597h99zM989 271l-110 288l-111 -288h221z" />
    <glyph glyph-name="uni041A0410.dlig" unicode="&#xe036;" horiz-adv-x="1290" 
d="M1275 0h-118l-67 168h-308l-67 -168h-175l-340 335v-335h-110v700h110v-322l275 322h132l-288 -335l305 -298l263 633h99zM1050 271l-114 286l-114 -286h228z" />
    <glyph glyph-name="uni0423.ss01" unicode="&#xe037;" horiz-adv-x="610" 
d="M474 700h116l-225 -563q-22 -55 -47 -85.5t-59 -43.5t-85 -13h-72v103h56q43 0 65.5 13.5t40.5 58.5l-249 530h122l181 -394z" />
    <glyph glyph-name="uni040E.ss01" unicode="&#xe038;" horiz-adv-x="610" 
d="M474 700h116l-225 -563q-22 -55 -47 -85.5t-59 -43.5t-85 -13h-72v103h56q43 0 65.5 13.5t40.5 58.5l-249 530h122l181 -394zM189 796q-44 41 -48 105h87q4 -35 25.5 -54t53.5 -19q33 0 54.5 18.5t25.5 54.5h86q-4 -64 -48 -105t-118 -41t-118 41z" />
    <glyph glyph-name="uni041C.ss05" unicode="&#xe039;" horiz-adv-x="942" 
d="M472 146l240 554h140v-700h-109v523l-228 -523h-88l-228 523v-523h-109v700h142z" />
    <glyph glyph-name="uni0443.ss01" unicode="&#xe03a;" horiz-adv-x="522" 
d="M405 500h110l-219 -577q-19 -49 -41 -75.5t-53 -37t-81 -10.5h-44v96h36q38 0 57 12.5t34 53.5l17 45l-216 493h114l154 -362z" />
    <glyph glyph-name="uni045E.ss01" unicode="&#xe03b;" horiz-adv-x="522" 
d="M405 500h110l-219 -577q-19 -49 -41 -75.5t-53 -37t-81 -10.5h-44v96h36q38 0 57 12.5t34 53.5l17 45l-216 493h114l154 -362zM147.5 601q-43.5 41 -47.5 104h86q3 -35 24.5 -54t53.5 -19q31 0 52.5 19t24.5 54h86q-4 -63 -47 -104t-116 -41t-116.5 41z" />
    <glyph glyph-name="uni0430.ss02" unicode="&#xe03c;" horiz-adv-x="565" 
d="M395 487.5q49 -23.5 76 -66.5t27 -99v-322h-101v59q-27 -31 -68 -50.5t-89 -19.5q-83 0 -136.5 44t-53.5 116q0 45 23 81t65 56.5t97 20.5h159v17q0 43 -31 70t-83 27q-45 0 -72 -18t-37 -45h-105q13 71 70.5 112t143.5 41q66 0 115 -23.5zM354 114q40 36 40 89v20h-145
q-44 0 -68.5 -19t-24.5 -53q0 -32 25 -52.5t68 -20.5q65 0 105 36z" />
    <glyph glyph-name="uni043C.ss05" unicode="&#xe03d;" horiz-adv-x="717" 
d="M359 138l180 362h106v-500h-101v319l-158 -319h-55l-158 319v-319h-101v500h107z" />
    <glyph glyph-name="uni0458.calt" unicode="&#xe03e;" horiz-adv-x="247" 
d="M180 591h-114v104h114v-104zM7 -206v94h6q28 0 43 18.5t15 53.5v540h104v-545q0 -74 -40.5 -117.5t-110.5 -43.5h-17z" />
    <glyph glyph-name="uni04570457.calt" unicode="&#xe03f;" horiz-adv-x="493" 
d="M104 589h-102v106h102v-106zM298 589h-102v106h102v-106zM491 589h-102v106h102v-106zM175 0h-104v500h104v-500zM422 0h-104v500h104v-500z" />
    <glyph glyph-name="f_f_j.dlig.ss07" unicode="&#xe101;" horiz-adv-x="900" 
d="M520 500h309v-545q0 -73 -44.5 -117t-119.5 -44h-64v97h44q38 0 59 21t21 58v434h-205v-404h-104v404h-205v-404h-104v404h-82v96h82v69q0 73 44.5 117t119.5 44h63v-97h-44q-37 0 -58 -21t-21 -58v-54h205v69q0 73 44.5 117t119.5 44h63v-97h-44q-37 0 -58 -21t-21 -58
v-54zM733.5 599.5q-18.5 18.5 -18.5 43.5q0 24 18.5 42t43.5 18t42.5 -18t17.5 -42q0 -26 -17.5 -44t-42.5 -18t-43.5 18.5z" />
    <glyph glyph-name="f_j.dlig.ss07" unicode="&#xe103;" horiz-adv-x="591" 
d="M211 500h309v-545q0 -73 -44.5 -117t-119.5 -44h-64v97h44q38 0 59 21t21 58v434h-205v-404h-104v404h-82v96h82v69q0 73 44.5 117t119.5 44h63v-97h-44q-37 0 -58 -21t-21 -58v-54zM424.5 599.5q-18.5 18.5 -18.5 43.5q0 24 18.5 42t43.5 18t42.5 -18t17.5 -42
q0 -26 -17.5 -44t-42.5 -18t-43.5 18.5z" />
    <glyph glyph-name="Adieresis.ss07" unicode="&#xe104;" horiz-adv-x="687" 
d="M672 0h-118l-64 168h-295l-64 -168h-116l279 700h99zM453 271l-110 287l-110 -287h220zM205 795.5q-17 16.5 -17 41.5q0 23 17.5 40t41.5 17t41 -17t17 -40q0 -25 -17 -41.5t-41 -16.5q-25 0 -42 16.5zM399.5 795.5q-16.5 16.5 -16.5 41.5q0 23 17 40t41 17t41 -17
t17 -40q0 -25 -17 -41.5t-41 -16.5q-25 0 -41.5 16.5z" />
    <glyph glyph-name="Cdotaccent.ss07" unicode="&#xe105;" horiz-adv-x="786" 
d="M231 36.5q-83 47.5 -132 130t-49 183.5t49 184t132 130t181 47q118 0 206.5 -65t127.5 -176h-115q-31 64 -88.5 101.5t-130.5 37.5q-69 0 -126 -34.5t-90 -93.5t-33 -131t33 -131t90 -93t126 -34q75 0 132.5 37.5t88.5 100.5h115q-39 -111 -128 -176t-208 -65
q-98 0 -181 47.5zM369 796.5q-17 17.5 -17 41.5t17 41t42 17q24 0 41 -17.5t17 -40.5q0 -24 -17 -41.5t-41 -17.5q-25 0 -42 17.5z" />
    <glyph glyph-name="Edieresis.ss07" unicode="&#xe106;" horiz-adv-x="556" 
d="M200 310v-207h296v-103h-406v700h396v-102h-286v-185h276v-103h-276zM153 795.5q-17 16.5 -17 41.5q0 23 17.5 40t41.5 17t41 -17t17 -40q0 -25 -17 -41.5t-41 -16.5q-25 0 -42 16.5zM347.5 795.5q-16.5 16.5 -16.5 41.5q0 23 17 40t41 17t41 -17t17 -40q0 -25 -17 -41.5
t-41 -16.5q-25 0 -41.5 16.5z" />
    <glyph glyph-name="Edotaccent.ss07" unicode="&#xe107;" horiz-adv-x="556" 
d="M200 310v-207h296v-103h-406v700h396v-102h-286v-185h276v-103h-276zM250 796.5q-17 17.5 -17 41.5t17 41t42 17q24 0 41 -17.5t17 -40.5q0 -24 -17 -41.5t-41 -17.5q-25 0 -42 17.5z" />
    <glyph glyph-name="Gdotaccent.ss07" unicode="&#xe108;" horiz-adv-x="807" 
d="M393 379h374v-35q0 -99 -44.5 -180.5t-125 -128t-183.5 -46.5q-99 0 -182.5 47.5t-132.5 130t-49 183.5t49 184t132.5 130t182.5 47q122 0 212.5 -64t129.5 -172h-116q-33 62 -90.5 98t-135.5 36q-69 0 -126.5 -34.5t-91 -93.5t-33.5 -131t33.5 -131t91 -93t126.5 -34
q94 0 157.5 50t79.5 135h-258v102zM373 796.5q-17 17.5 -17 41.5t17 41t42 17q24 0 41 -17.5t17 -40.5q0 -24 -17 -41.5t-41 -17.5q-25 0 -42 17.5z" />
    <glyph glyph-name="Idieresis.ss07" unicode="&#xe109;" horiz-adv-x="300" 
d="M205 0h-110v700h110v-700zM11 795.5q-17 16.5 -17 41.5q0 23 17.5 40t41.5 17t41 -17t17 -40q0 -25 -17 -41.5t-41 -16.5q-25 0 -42 16.5zM205.5 795.5q-16.5 16.5 -16.5 41.5q0 23 17 40t41 17t41 -17t17 -40q0 -25 -17 -41.5t-41 -16.5q-25 0 -41.5 16.5z" />
    <glyph glyph-name="Idotaccent.ss07" unicode="&#xe10a;" horiz-adv-x="300" 
d="M205 0h-110v700h110v-700zM109 796.5q-17 17.5 -17 41.5t17 41t42 17q24 0 41 -17.5t17 -40.5q0 -24 -17 -41.5t-41 -17.5q-25 0 -42 17.5z" />
    <glyph glyph-name="Ldot.ss07" unicode="&#xe10b;" horiz-adv-x="497" 
d="M467 0h-377v700h110v-597h267v-103zM351 349.5q-18 18.5 -18 44.5q0 24 18 42t43 18t43.5 -18t18.5 -42q0 -26 -18 -44.5t-44 -18.5q-25 0 -43 18.5z" />
    <glyph glyph-name="Odieresis.ss07" unicode="&#xe10c;" horiz-adv-x="831" 
d="M232 36.5q-84 47.5 -133 130t-49 183.5t49 183.5t133 130t184 47.5t183.5 -47.5t132.5 -130t49 -183.5t-49 -183.5t-132.5 -130t-183.5 -47.5t-184 47.5zM543.5 126q57.5 34 91 93t33.5 131t-33.5 131.5t-91 93.5t-127.5 34t-128 -34t-91.5 -93.5t-33.5 -131.5t33.5 -131
t91.5 -93t128 -34t127.5 34zM277 795.5q-17 16.5 -17 41.5q0 23 17.5 40t41.5 17t41 -17t17 -40q0 -25 -17 -41.5t-41 -16.5q-25 0 -42 16.5zM471.5 795.5q-16.5 16.5 -16.5 41.5q0 23 17 40t41 17t41 -17t17 -40q0 -25 -17 -41.5t-41 -16.5q-25 0 -41.5 16.5z" />
    <glyph glyph-name="Udieresis.ss07" unicode="&#xe10d;" horiz-adv-x="707" 
d="M209 23.5q-62 34.5 -95.5 97.5t-33.5 144v435h110v-431q0 -80 43 -128.5t120 -48.5t120.5 48.5t43.5 128.5v431h110v-435q0 -81 -33.5 -144t-96 -97.5t-144.5 -34.5t-144 34.5zM215 795.5q-17 16.5 -17 41.5q0 23 17.5 40t41.5 17t41 -17t17 -40q0 -25 -17 -41.5
t-41 -16.5q-25 0 -42 16.5zM409.5 795.5q-16.5 16.5 -16.5 41.5q0 23 17 40t41 17t41 -17t17 -40q0 -25 -17 -41.5t-41 -16.5q-25 0 -41.5 16.5z" />
    <glyph glyph-name="Wdieresis.ss07" unicode="&#xe10e;" horiz-adv-x="1003" 
d="M708 193l158 507h116l-232 -700h-83l-166 511l-166 -511h-82l-232 700h118l157 -504l165 504h81zM363 795.5q-17 16.5 -17 41.5q0 23 17.5 40t41.5 17t41 -17t17 -40q0 -25 -17 -41.5t-41 -16.5q-25 0 -42 16.5zM557.5 795.5q-16.5 16.5 -16.5 41.5q0 23 17 40t41 17
t41 -17t17 -40q0 -25 -17 -41.5t-41 -16.5q-25 0 -41.5 16.5z" />
    <glyph glyph-name="Ydieresis.ss07" unicode="&#xe10f;" horiz-adv-x="583" 
d="M293 405l157 295h123l-227 -406v-294h-110v294l-226 406h125zM153 795.5q-17 16.5 -17 41.5q0 23 17.5 40t41.5 17t41 -17t17 -40q0 -25 -17 -41.5t-41 -16.5q-25 0 -42 16.5zM347.5 795.5q-16.5 16.5 -16.5 41.5q0 23 17 40t41 17t41 -17t17 -40q0 -25 -17 -41.5
t-41 -16.5q-25 0 -41.5 16.5z" />
    <glyph glyph-name="Zdotaccent.ss07" unicode="&#xe110;" horiz-adv-x="578" 
d="M517 633l-321 -530h341v-103h-485v68l321 530h-302v102h446v-67zM252 796.5q-17 17.5 -17 41.5t17 41t42 17q24 0 41 -17.5t17 -40.5q0 -24 -17 -41.5t-41 -17.5q-25 0 -42 17.5z" />
    <glyph glyph-name="adieresis.ss07" unicode="&#xe111;" horiz-adv-x="635" 
d="M462 500h101v-500h-101v64q-65 -75 -172 -75q-66 0 -124.5 34t-93.5 93.5t-35 133.5t35 133.5t93.5 93.5t124.5 34q107 0 172 -75v64zM385 107.5q37 21.5 58 59t21 83.5t-21 83.5t-58 59t-82 21.5t-82 -21.5t-58 -59t-21 -83.5t21 -83.5t58 -59t82 -21.5t82 21.5z
M181 600q-17 17 -17 42q0 23 17.5 40t41.5 17t41 -17t17 -40q0 -25 -17 -42t-41 -17q-25 0 -42 17zM375.5 600q-16.5 17 -16.5 42q0 23 17 40t41 17t41 -17t17 -40q0 -25 -17 -42t-41 -17q-25 0 -41.5 17z" />
    <glyph glyph-name="adieresis.ss02.ss07" unicode="&#xe112;" horiz-adv-x="565" 
d="M395 487.5q49 -23.5 76 -66.5t27 -99v-322h-101v59q-27 -31 -68 -50.5t-89 -19.5q-83 0 -136.5 44t-53.5 116q0 45 23 81t65 56.5t97 20.5h159v17q0 43 -31 70t-83 27q-45 0 -72 -18t-37 -45h-105q13 71 70.5 112t143.5 41q66 0 115 -23.5zM354 114q40 36 40 89v20h-145
q-44 0 -68.5 -19t-24.5 -53q0 -32 25 -52.5t68 -20.5q65 0 105 36zM152 600q-17 17 -17 42q0 23 17.5 40t41.5 17t41 -17t17 -40q0 -25 -17 -42t-41 -17q-25 0 -42 17zM346.5 600q-16.5 17 -16.5 42q0 23 17 40t41 17t41 -17t17 -40q0 -25 -17 -42t-41 -17q-25 0 -41.5 17z
" />
    <glyph glyph-name="cdotaccent.ss07" unicode="&#xe113;" horiz-adv-x="575" 
d="M169.5 22.5q-60.5 33.5 -96.5 93t-36 134.5t36 134.5t96.5 93t130.5 33.5q85 0 154 -47.5t95 -132.5h-109q-21 40 -58 61.5t-82 21.5q-44 0 -80 -21.5t-57 -59t-21 -83.5t21 -83.5t57 -59t80 -21.5q45 0 82 21.5t58 61.5h109q-26 -85 -95 -132.5t-154 -47.5
q-70 0 -130.5 33.5zM264 600q-17 17 -17 42q0 23 17.5 40t41.5 17t41 -17t17 -40q0 -25 -17 -42t-41 -17q-25 0 -42 17z" />
    <glyph glyph-name="edieresis.ss07" unicode="&#xe114;" horiz-adv-x="582" 
d="M420.5 478.5q58.5 -32.5 93 -89.5t34.5 -129q0 -26 -4 -47h-399q9 -63 48.5 -99t100.5 -36q91 0 132 72h107q-30 -74 -91.5 -117.5t-147.5 -43.5q-70 0 -129 33.5t-93.5 93t-34.5 134.5t34.5 134.5t93.5 93t129 33.5q68 0 126.5 -32.5zM196.5 389q-38.5 -33 -49.5 -91
h293q-8 55 -47 89.5t-99 34.5q-59 0 -97.5 -33zM157 600q-17 17 -17 42q0 23 17.5 40t41.5 17t41 -17t17 -40q0 -25 -17 -42t-41 -17q-25 0 -42 17zM351.5 600q-16.5 17 -16.5 42q0 23 17 40t41 17t41 -17t17 -40q0 -25 -17 -42t-41 -17q-25 0 -41.5 17z" />
    <glyph glyph-name="edotaccent.ss07" unicode="&#xe115;" horiz-adv-x="582" 
d="M420.5 478.5q58.5 -32.5 93 -89.5t34.5 -129q0 -26 -4 -47h-399q9 -63 48.5 -99t100.5 -36q91 0 132 72h107q-30 -74 -91.5 -117.5t-147.5 -43.5q-70 0 -129 33.5t-93.5 93t-34.5 134.5t34.5 134.5t93.5 93t129 33.5q68 0 126.5 -32.5zM196.5 389q-38.5 -33 -49.5 -91
h293q-8 55 -47 89.5t-99 34.5q-59 0 -97.5 -33zM254 600q-17 17 -17 42q0 23 17.5 40t41.5 17t41 -17t17 -40q0 -25 -17 -42t-41 -17q-25 0 -42 17z" />
    <glyph glyph-name="gdotaccent.ss07" unicode="&#xe116;" horiz-adv-x="625" 
d="M452 500h101v-462q0 -73 -30 -131t-88 -91.5t-137 -33.5q-96 0 -160.5 49.5t-86.5 131.5h106q17 -39 53 -62t87 -23q71 0 111.5 42.5t40.5 109.5v52q-29 -33 -71.5 -52t-94.5 -19q-66 0 -122.5 31.5t-90 88.5t-33.5 130t33.5 130t90 88.5t122.5 31.5q104 0 169 -75v64z
M378 125.5q36 20.5 56 56t20 79.5t-20 79.5t-56 56t-80 20.5q-45 0 -80.5 -20.5t-55.5 -56t-20 -79.5t20 -79.5t55.5 -56t80.5 -20.5q44 0 80 20.5zM273 600q-17 17 -17 42q0 23 17.5 40t41.5 17t41 -17t17 -40q0 -25 -17 -42t-41 -17q-25 0 -42 17z" />
    <glyph glyph-name="i.ss07" unicode="&#xe117;" horiz-adv-x="247" 
d="M176 0h-104v500h104v-500zM80 599.5q-18 18.5 -18 43.5q0 24 18.5 42t43.5 18t42.5 -18t17.5 -42q0 -26 -17.5 -44t-42.5 -18q-26 0 -44 18.5z" />
    <glyph glyph-name="idieresis.ss07" unicode="&#xe118;" horiz-adv-x="247" 
d="M176 0h-104v500h104v-500zM7.5 600.5q-16.5 16.5 -16.5 41.5q0 23 16.5 39.5t40.5 16.5t40.5 -16.5t16.5 -39.5q0 -25 -16.5 -41.5t-40.5 -16.5t-40.5 16.5zM159 600.5q-16 16.5 -16 41.5q0 24 16 40t41 16q23 0 39.5 -16.5t16.5 -39.5q0 -25 -16.5 -41.5t-39.5 -16.5
q-25 0 -41 16.5z" />
    <glyph glyph-name="i.loclTRK.ss07" unicode="&#xe119;" horiz-adv-x="247" 
d="M176 0h-104v500h104v-500zM80 599.5q-18 18.5 -18 43.5q0 24 18.5 42t43.5 18t42.5 -18t17.5 -42q0 -26 -17.5 -44t-42.5 -18q-26 0 -44 18.5z" />
    <glyph glyph-name="ij.ss07" unicode="&#xe11a;" horiz-adv-x="494" 
d="M176 0h-104v500h104v-500zM80 599.5q-18 18.5 -18 43.5q0 24 18.5 42t43.5 18t42.5 -18t17.5 -42q0 -26 -17.5 -44t-42.5 -18q-26 0 -44 18.5zM195 -206v97h44q38 0 59 21t21 58v530h104v-545q0 -73 -44.5 -117t-119.5 -44h-64zM327 599.5q-18 18.5 -18 43.5
q0 24 18.5 42t43.5 18t42.5 -18t17.5 -42q0 -26 -17.5 -44t-42.5 -18q-26 0 -44 18.5z" />
    <glyph glyph-name="iogonek.ss07" unicode="&#xe11b;" horiz-adv-x="247" 
d="M80.5 599.5q-18.5 18.5 -18.5 43.5q0 24 18.5 42t43.5 18t42.5 -18t17.5 -42q0 -26 -17.5 -44t-42.5 -18t-43.5 18.5zM72 0v500h104v-500h-1q-36 -13 -58.5 -37t-22.5 -51q0 -25 17 -39.5t49 -14.5h15v-73h-33q-54 0 -89 29.5t-35 82.5q0 33 16.5 59t42.5 44h-5z" />
    <glyph glyph-name="j.ss07" unicode="&#xe11c;" horiz-adv-x="247" 
d="M-52 -206v97h44q38 0 59 21t21 58v530h104v-545q0 -73 -44.5 -117t-119.5 -44h-64zM80 599.5q-18 18.5 -18 43.5q0 24 18.5 42t43.5 18t42.5 -18t17.5 -42q0 -26 -17.5 -44t-42.5 -18q-26 0 -44 18.5z" />
    <glyph glyph-name="j.calt.ss07" unicode="&#xe11d;" horiz-adv-x="247" 
d="M80.5 599.5q-18.5 18.5 -18.5 43.5q0 24 18.5 42t43.5 18t42.5 -18t17.5 -42q0 -26 -17.5 -44t-42.5 -18t-43.5 18.5zM7 -206v94h6q28 0 43.5 18.5t15.5 53.5v540h104v-545q0 -74 -41 -117.5t-111 -43.5h-17z" />
    <glyph glyph-name="ldot.ss07" unicode="&#xe11e;" horiz-adv-x="325" 
d="M181 0h-104v720h104v-720zM248 327.5q-18 18.5 -18 44.5q0 24 18 42t43 18t43.5 -18t18.5 -42q0 -26 -18 -44.5t-44 -18.5q-25 0 -43 18.5z" />
    <glyph glyph-name="ldot.ss04.ss07" unicode="&#xe11f;" horiz-adv-x="325" 
d="M241 0q-76 0 -120 44t-44 117v559h104v-544q0 -37 21 -58t58 -21h44v-97h-63zM248 344.5q-18 18.5 -18 44.5q0 24 18 42t43 18t43.5 -18t18.5 -42q0 -26 -18 -44.5t-44 -18.5q-25 0 -43 18.5z" />
    <glyph glyph-name="odieresis.ss07" unicode="&#xe120;" horiz-adv-x="605" 
d="M171 22.5q-61 33.5 -97.5 93t-36.5 134.5t36.5 134.5t97.5 93t132 33.5t132 -33.5t97.5 -93t36.5 -134.5t-36.5 -134.5t-97.5 -93t-132 -33.5t-132 33.5zM384 107.5q37 21.5 58 59t21 83.5t-21 83.5t-58 59t-81 21.5q-45 0 -82 -21.5t-58 -59t-21 -83.5t21 -83.5t58 -59
t82 -21.5q44 0 81 21.5zM167 600q-17 17 -17 42q0 23 17.5 40t41.5 17t41 -17t17 -40q0 -25 -17 -42t-41 -17q-25 0 -42 17zM361.5 600q-16.5 17 -16.5 42q0 23 17 40t41 17t41 -17t17 -40q0 -25 -17 -42t-41 -17q-25 0 -41.5 17z" />
    <glyph glyph-name="udieresis.ss07" unicode="&#xe121;" horiz-adv-x="584" 
d="M173 18q-51 29 -78.5 80.5t-27.5 118.5v283h104v-283q0 -59 33 -95t88 -36t88.5 36t33.5 95v283h104v-283q0 -67 -27.5 -118.5t-79 -80.5t-119.5 -29t-119 29zM154 600q-17 17 -17 42q0 23 17.5 40t41.5 17t41 -17t17 -40q0 -25 -17 -42t-41 -17q-25 0 -42 17zM348.5 600
q-16.5 17 -16.5 42q0 23 17 40t41 17t41 -17t17 -40q0 -25 -17 -42t-41 -17q-25 0 -41.5 17z" />
    <glyph glyph-name="udieresis.ss03.ss07" unicode="&#xe122;" horiz-adv-x="596" 
d="M421 500h104v-500h-102v58q-30 -34 -69 -51.5t-84 -17.5q-59 0 -105.5 28.5t-72 78t-25.5 110.5v294h104v-281q0 -60 32 -96.5t89 -36.5q55 0 92 37.5t37 95.5v281zM157 600q-17 17 -17 42q0 23 17.5 40t41.5 17t41 -17t17 -40q0 -25 -17 -42t-41 -17q-25 0 -42 17z
M351.5 600q-16.5 17 -16.5 42q0 23 17 40t41 17t41 -17t17 -40q0 -25 -17 -42t-41 -17q-25 0 -41.5 17z" />
    <glyph glyph-name="wdieresis.ss07" unicode="&#xe123;" horiz-adv-x="827" 
d="M583 149l129 351h107l-196 -500h-76l-134 341l-134 -341h-74l-197 500h109l128 -347l134 347h69zM275 600q-17 17 -17 42q0 23 17.5 40t41.5 17t41 -17t17 -40q0 -25 -17 -42t-41 -17q-25 0 -42 17zM469.5 600q-16.5 17 -16.5 42q0 23 17 40t41 17t41 -17t17 -40
q0 -25 -17 -42t-41 -17q-25 0 -41.5 17z" />
    <glyph glyph-name="ydieresis.ss07" unicode="&#xe124;" horiz-adv-x="542" 
d="M274 158l150 342h111l-314 -700h-109l108 241l-217 459h114zM130 600q-17 17 -17 42q0 23 17.5 40t41.5 17t41 -17t17 -40q0 -25 -17 -42t-41 -17q-25 0 -42 17zM324.5 600q-16.5 17 -16.5 42q0 23 17 40t41 17t41 -17t17 -40q0 -25 -17 -42t-41 -17q-25 0 -41.5 17z" />
    <glyph glyph-name="ydieresis.ss01.ss07" unicode="&#xe125;" horiz-adv-x="522" 
d="M405 500h110l-219 -577q-19 -49 -41 -75.5t-53 -37t-81 -10.5h-44v96h36q38 0 57 12.5t34 53.5l17 45l-216 493h114l154 -362zM125 600q-17 17 -17 42q0 23 17.5 40t41.5 17t41 -17t17 -40q0 -25 -17 -42t-41 -17q-25 0 -42 17zM319.5 600q-16.5 17 -16.5 42q0 23 17 40
t41 17t41 -17t17 -40q0 -25 -17 -42t-41 -17q-25 0 -41.5 17z" />
    <glyph glyph-name="zdotaccent.ss07" unicode="&#xe126;" horiz-adv-x="480" 
d="M433 438l-251 -342h261v-96h-406v62l252 342h-242v96h386v-62zM199 600q-17 17 -17 42q0 23 17.5 40t41.5 17t41 -17t17 -40q0 -25 -17 -42t-41 -17q-25 0 -42 17z" />
    <glyph glyph-name="m.ss05.sc" unicode="&#xe127;" horiz-adv-x="808" 
d="M405 131l198 439h130v-570h-103v410l-185 -410h-81l-186 411v-411h-102v570h132z" />
    <glyph glyph-name="q.ss06.sc" unicode="&#xe128;" horiz-adv-x="680" 
d="M190 27q-69 38 -110 106t-41 152t41 152t110 106t150 38q82 0 151 -38t109.5 -106t40.5 -152t-40.5 -152t-109.5 -106t-151 -38q-81 0 -150 38zM438.5 112q44.5 26 70 71.5t25.5 101.5t-25.5 101.5t-70 71.5t-98.5 26t-98.5 -26t-70 -71.5t-25.5 -101.5t25.5 -101.5
t70 -71.5t98.5 -26t98.5 26zM597 -168h-323v88h323v-88z" />
    <glyph glyph-name="adieresis.sc.ss07" unicode="&#xe129;" horiz-adv-x="586" 
d="M576 0h-113l-48 124h-245l-48 -124h-112l235 570h96zM382 218l-89 228l-89 -228h178zM155 670q-17 17 -17 42q0 23 17.5 40t41.5 17t41 -17t17 -40q0 -25 -17 -42t-41 -17q-25 0 -42 17zM349.5 670q-16.5 17 -16.5 42q0 23 17 40t41 17t41 -17t17 -40q0 -25 -17 -42
t-41 -17q-25 0 -41.5 17z" />
    <glyph glyph-name="cdotaccent.sc.ss07" unicode="&#xe12a;" horiz-adv-x="651" 
d="M190 27q-69 38 -110 106t-41 152t41 152t110 106t150 38q99 0 174 -56t104 -150h-108q-24 49 -68 79t-102 30q-54 0 -98.5 -26t-70 -71.5t-25.5 -101.5t25.5 -101.5t70 -71.5t98.5 -26q59 0 104 30t68 79h109q-29 -95 -105 -150.5t-176 -55.5q-81 0 -150 38zM301 670
q-17 17 -17 42q0 23 17.5 40t41.5 17t41 -17t17 -40q0 -25 -17 -42t-41 -17q-25 0 -42 17z" />
    <glyph glyph-name="edieresis.sc.ss07" unicode="&#xe12b;" horiz-adv-x="479" 
d="M180 247v-153h251v-94h-355v570h346v-94h-242v-135h234v-94h-234zM112 670q-17 17 -17 42q0 23 17.5 40t41.5 17t41 -17t17 -40q0 -25 -17 -42t-41 -17q-25 0 -42 17zM306.5 670q-16.5 17 -16.5 42q0 23 17 40t41 17t41 -17t17 -40q0 -25 -17 -42t-41 -17q-25 0 -41.5 17
z" />
    <glyph glyph-name="edotaccent.sc.ss07" unicode="&#xe12c;" horiz-adv-x="479" 
d="M180 247v-153h251v-94h-355v570h346v-94h-242v-135h234v-94h-234zM209 670q-17 17 -17 42q0 23 17.5 40t41.5 17t41 -17t17 -40q0 -25 -17 -42t-41 -17q-25 0 -42 17z" />
    <glyph glyph-name="gdotaccent.sc.ss07" unicode="&#xe12d;" horiz-adv-x="663" 
d="M323 316h309v-28q0 -87 -37 -155t-103.5 -106t-152.5 -38q-81 0 -149.5 38t-109.5 106t-41 152t41 152t109.5 106t149.5 38q98 0 174 -52t109 -142h-112q-24 44 -67.5 70.5t-103.5 26.5q-54 0 -98 -26t-69.5 -71.5t-25.5 -102.5q0 -56 25.5 -101t70 -71t97.5 -26
q71 0 121 36.5t64 100.5h-201v93zM298 670q-17 17 -17 42q0 23 17.5 40t41.5 17t41 -17t17 -40q0 -25 -17 -42t-41 -17q-25 0 -42 17z" />
    <glyph glyph-name="idieresis.sc.ss07" unicode="&#xe12e;" horiz-adv-x="265" 
d="M185 0h-104v570h104v-570zM-6 670q-17 17 -17 42q0 23 17.5 40t41.5 17t41 -17t17 -40q0 -25 -17 -42t-41 -17q-25 0 -42 17zM188.5 670q-16.5 17 -16.5 42q0 23 17 40t41 17t41 -17t17 -40q0 -25 -17 -42t-41 -17q-25 0 -41.5 17z" />
    <glyph glyph-name="i.sc.loclTRK.ss07" unicode="&#xe12f;" horiz-adv-x="265" 
d="M185 0h-104v570h104v-570zM92 670q-17 17 -17 42q0 23 17.5 40t41.5 17t41 -17t17 -40q0 -25 -17 -42t-41 -17q-25 0 -42 17z" />
    <glyph glyph-name="ldot.sc.ss07" unicode="&#xe130;" horiz-adv-x="433" 
d="M408 0h-332v570h104v-473h228v-97zM301 279.5q-18 18.5 -18 44.5q0 24 18 42t43 18t43.5 -18t18.5 -42q0 -26 -18 -44.5t-44 -18.5q-25 0 -43 18.5z" />
    <glyph glyph-name="odieresis.sc.ss07" unicode="&#xe131;" horiz-adv-x="680" 
d="M190 27q-69 38 -110 106t-41 152t41 152t110 106t150 38q82 0 151 -38t109.5 -106t40.5 -152t-40.5 -152t-109.5 -106t-151 -38q-81 0 -150 38zM438.5 112q44.5 26 70 71.5t25.5 101.5t-25.5 101.5t-70 71.5t-98.5 26t-98.5 -26t-70 -71.5t-25.5 -101.5t25.5 -101.5
t70 -71.5t98.5 -26t98.5 26zM202 670q-17 17 -17 42q0 23 17.5 40t41.5 17t41 -17t17 -40q0 -25 -17 -42t-41 -17q-25 0 -42 17zM396.5 670q-16.5 17 -16.5 42q0 23 17 40t41 17t41 -17t17 -40q0 -25 -17 -42t-41 -17q-25 0 -41.5 17z" />
    <glyph glyph-name="udieresis.sc.ss07" unicode="&#xe132;" horiz-adv-x="603" 
d="M177.5 18q-53.5 29 -82.5 81t-29 120v351h104v-347q0 -60 34.5 -98.5t97.5 -38.5q62 0 96.5 38.5t34.5 98.5v347h104v-351q0 -68 -29 -120t-82 -81t-124 -29t-124.5 29zM163 670q-17 17 -17 42q0 23 17.5 40t41.5 17t41 -17t17 -40q0 -25 -17 -42t-41 -17q-25 0 -42 17z
M357.5 670q-16.5 17 -16.5 42q0 23 17 40t41 17t41 -17t17 -40q0 -25 -17 -42t-41 -17q-25 0 -41.5 17z" />
    <glyph glyph-name="wdieresis.sc.ss07" unicode="&#xe133;" horiz-adv-x="853" 
d="M601 167l129 403h109l-196 -570h-81l-136 413l-136 -413h-80l-196 570h111l128 -403l134 403h79zM288 670q-17 17 -17 42q0 23 17.5 40t41.5 17t41 -17t17 -40q0 -25 -17 -42t-41 -17q-25 0 -42 17zM482.5 670q-16.5 17 -16.5 42q0 23 17 40t41 17t41 -17t17 -40
q0 -25 -17 -42t-41 -17q-25 0 -41.5 17z" />
    <glyph glyph-name="ydieresis.sc.ss07" unicode="&#xe134;" horiz-adv-x="499" 
d="M251 327l129 243h114l-192 -343v-227h-104v227l-193 343h116zM112 670q-17 17 -17 42q0 23 17.5 40t41.5 17t41 -17t17 -40q0 -25 -17 -42t-41 -17q-25 0 -42 17zM306.5 670q-16.5 17 -16.5 42q0 23 17 40t41 17t41 -17t17 -40q0 -25 -17 -42t-41 -17q-25 0 -41.5 17z
" />
    <glyph glyph-name="zdotaccent.sc.ss07" unicode="&#xe135;" horiz-adv-x="486" 
d="M438 506l-265 -409h281v-97h-417v64l265 409h-249v97h385v-64zM206 670q-17 17 -17 42q0 23 17.5 40t41.5 17t41 -17t17 -40q0 -25 -17 -42t-41 -17q-25 0 -42 17z" />
    <glyph glyph-name="uni0401.ss07" unicode="&#xe136;" horiz-adv-x="556" 
d="M200 310v-207h296v-103h-406v700h396v-102h-286v-185h276v-103h-276zM153 795.5q-17 16.5 -17 41.5q0 23 17.5 40t41.5 17t41 -17t17 -40q0 -25 -17 -41.5t-41 -16.5q-25 0 -42 16.5zM347.5 795.5q-16.5 16.5 -16.5 41.5q0 23 17 40t41 17t41 -17t17 -40q0 -25 -17 -41.5
t-41 -16.5q-25 0 -41.5 16.5z" />
    <glyph glyph-name="uni0407.ss07" unicode="&#xe137;" horiz-adv-x="300" 
d="M205 0h-110v700h110v-700zM11 795.5q-17 16.5 -17 41.5q0 23 17.5 40t41.5 17t41 -17t17 -40q0 -25 -17 -41.5t-41 -16.5q-25 0 -42 16.5zM205.5 795.5q-16.5 16.5 -16.5 41.5q0 23 17 40t41 17t41 -17t17 -40q0 -25 -17 -41.5t-41 -16.5q-25 0 -41.5 16.5z" />
    <glyph glyph-name="uni0451.ss07" unicode="&#xe138;" horiz-adv-x="582" 
d="M420.5 478.5q58.5 -32.5 93 -89.5t34.5 -129q0 -26 -4 -47h-399q9 -63 48.5 -99t100.5 -36q91 0 132 72h107q-30 -74 -91.5 -117.5t-147.5 -43.5q-70 0 -129 33.5t-93.5 93t-34.5 134.5t34.5 134.5t93.5 93t129 33.5q68 0 126.5 -32.5zM196.5 389q-38.5 -33 -49.5 -91
h293q-8 55 -47 89.5t-99 34.5q-59 0 -97.5 -33zM157 600q-17 17 -17 42q0 23 17.5 40t41.5 17t41 -17t17 -40q0 -25 -17 -42t-41 -17q-25 0 -42 17zM351.5 600q-16.5 17 -16.5 42q0 23 17 40t41 17t41 -17t17 -40q0 -25 -17 -42t-41 -17q-25 0 -41.5 17z" />
    <glyph glyph-name="uni0456.ss07" unicode="&#xe139;" horiz-adv-x="247" 
d="M176 0h-104v500h104v-500zM80 599.5q-18 18.5 -18 43.5q0 24 18.5 42t43.5 18t42.5 -18t17.5 -42q0 -26 -17.5 -44t-42.5 -18q-26 0 -44 18.5z" />
    <glyph glyph-name="uni0457.ss07" unicode="&#xe13a;" horiz-adv-x="247" 
d="M176 0h-104v500h104v-500zM7.5 600.5q-16.5 16.5 -16.5 41.5q0 23 16.5 39.5t40.5 16.5t40.5 -16.5t16.5 -39.5q0 -25 -16.5 -41.5t-40.5 -16.5t-40.5 16.5zM159 600.5q-16 16.5 -16 41.5q0 24 16 40t41 16q23 0 39.5 -16.5t16.5 -39.5q0 -25 -16.5 -41.5t-39.5 -16.5
q-25 0 -41 16.5z" />
    <glyph glyph-name="uni0458.ss07" unicode="&#xe13b;" horiz-adv-x="247" 
d="M-52 -206v97h44q38 0 59 21t21 58v530h104v-545q0 -73 -44.5 -117t-119.5 -44h-64zM80 599.5q-18 18.5 -18 43.5q0 24 18.5 42t43.5 18t42.5 -18t17.5 -42q0 -26 -17.5 -44t-42.5 -18q-26 0 -44 18.5z" />
    <glyph glyph-name="uni0458.calt.ss07" unicode="&#xe13c;" horiz-adv-x="247" 
d="M80.5 599.5q-18.5 18.5 -18.5 43.5q0 24 18.5 42t43.5 18t42.5 -18t17.5 -42q0 -26 -17.5 -44t-42.5 -18t-43.5 18.5zM7 -206v94h6q28 0 43.5 18.5t15.5 53.5v540h104v-545q0 -74 -41 -117.5t-111 -43.5h-17z" />
    <glyph glyph-name="uni04570457.calt.ss07" unicode="&#xe13d;" horiz-adv-x="493" 
d="M13 601q-17 17 -17 41q0 23 17 39.5t40 16.5t40 -16.5t17 -39.5q0 -24 -17 -41t-40 -17t-40 17zM206.5 602q-16.5 17 -16.5 40t16.5 39.5t40.5 16.5q23 0 40 -16.5t17 -39.5t-17 -40t-40 -17q-24 0 -40.5 17zM400.5 602q-16.5 17 -16.5 40t16.5 39.5t40.5 16.5
q23 0 39.5 -16.5t16.5 -39.5t-16.5 -40t-39.5 -17q-24 0 -40.5 17zM175 0h-104v500h104v-500zM422 0h-104v500h104v-500z" />
    <glyph glyph-name="uni0451.sc.ss07" unicode="&#xe13e;" horiz-adv-x="479" 
d="M180 247v-153h251v-94h-355v570h346v-94h-242v-135h234v-94h-234zM112 670q-17 17 -17 42q0 23 17.5 40t41.5 17t41 -17t17 -40q0 -25 -17 -42t-41 -17q-25 0 -42 17zM306.5 670q-16.5 17 -16.5 42q0 23 17 40t41 17t41 -17t17 -40q0 -25 -17 -42t-41 -17q-25 0 -41.5 17
z" />
    <glyph glyph-name="uni043C.ss05.sc" unicode="&#xe13f;" horiz-adv-x="808" 
d="M405 131l198 439h130v-570h-103v410l-185 -410h-81l-186 411v-411h-102v570h132z" />
    <glyph glyph-name="uni0443.ss01.sc" unicode="&#xe140;" horiz-adv-x="520" 
d="M396 570h111l-188 -455q-27 -65 -62.5 -92.5t-101.5 -27.5h-71v97h53q29 0 47 8t36 39l-211 431h115l148 -308z" />
    <glyph glyph-name="uni045E.ss01.sc" unicode="&#xe141;" horiz-adv-x="520" 
d="M396 570h111l-188 -455q-27 -65 -62.5 -92.5t-101.5 -27.5h-71v97h53q29 0 47 8t36 39l-211 431h115l148 -308zM145.5 671q-43.5 41 -47.5 104h86q3 -35 24.5 -54t53.5 -19q31 0 52.5 19t24.5 54h86q-4 -63 -47 -104t-116 -41t-116.5 41z" />
    <glyph glyph-name="uni0457.sc.ss07" unicode="&#xe142;" horiz-adv-x="265" 
d="M185 0h-104v570h104v-570zM-6 670q-17 17 -17 42q0 23 17.5 40t41.5 17t41 -17t17 -40q0 -25 -17 -42t-41 -17q-25 0 -42 17zM188.5 670q-16.5 17 -16.5 42q0 23 17 40t41 17t41 -17t17 -40q0 -25 -17 -42t-41 -17q-25 0 -41.5 17z" />
    <glyph glyph-name="periodcentered.ss07" horiz-adv-x="288" 
d="M101 216.5q-18 18.5 -18 44.5q0 24 18 42t43 18t43.5 -18t18.5 -42q0 -26 -18 -44.5t-44 -18.5q-25 0 -43 18.5z" />
    <glyph glyph-name="period.ss07" horiz-adv-x="250" 
d="M82 12.5q-18 18.5 -18 44.5q0 24 18 42t43 18t43.5 -18t18.5 -42q0 -26 -18 -44.5t-44 -18.5q-25 0 -43 18.5z" />
    <glyph glyph-name="ellipsis.ss07" horiz-adv-x="770" 
d="M81 12.5q-18 18.5 -18 44.5q0 24 18 42t43 18t43.5 -18t18.5 -42q0 -26 -18 -44.5t-44 -18.5q-25 0 -43 18.5zM342 12.5q-18 18.5 -18 44.5q0 24 18 42t43 18t43.5 -18t18.5 -42q0 -26 -18 -44.5t-44 -18.5q-25 0 -43 18.5zM602 12.5q-18 18.5 -18 44.5q0 24 18 42t43 18
t43.5 -18t18.5 -42q0 -26 -18 -44.5t-44 -18.5q-25 0 -43 18.5z" />
    <glyph glyph-name="colon.ss07" horiz-adv-x="250" 
d="M82 390.5q-18 18.5 -18 44.5q0 24 18 42t43 18t43.5 -18t18.5 -42q0 -26 -18 -44.5t-44 -18.5q-25 0 -43 18.5zM82 12.5q-18 18.5 -18 44.5q0 24 18 42t43 18t43.5 -18t18.5 -42q0 -26 -18 -44.5t-44 -18.5q-25 0 -43 18.5z" />
    <glyph glyph-name="semicolon.ss07" horiz-adv-x="265" 
d="M97 390.5q-18 18.5 -18 44.5q0 24 18 42t43 18t43.5 -18t18.5 -42q0 -26 -18 -44.5t-44 -18.5q-25 0 -43 18.5zM114 -133h-84l57 249h108z" />
    <glyph glyph-name="exclam.ss07" horiz-adv-x="305" 
d="M200 197h-94l-6 503h105zM109 12.5q-18 18.5 -18 44.5q0 24 18 42t43 18t43.5 -18t18.5 -42q0 -26 -18 -44.5t-44 -18.5q-25 0 -43 18.5z" />
    <glyph glyph-name="exclamdown.ss07" horiz-adv-x="305" 
d="M109 401.5q-18 18.5 -18 43.5t18 43t43 18t43.5 -18t18.5 -43t-18 -43.5t-44 -18.5q-25 0 -43 18.5zM205 -193h-105l6 497h94z" />
    <glyph glyph-name="question.ss07" horiz-adv-x="521" 
d="M198 232q0 45 13.5 77t33 52t50.5 44q35 28 52.5 50.5t17.5 56.5q0 47 -32 76.5t-81 29.5q-52 0 -84.5 -32.5t-33.5 -79.5h-104q1 61 32 107.5t82 72t110 25.5q62 0 112.5 -25t80 -69.5t29.5 -100.5q0 -40 -13 -69t-32.5 -48t-50.5 -43q-29 -23 -45 -39t-27 -39t-11 -53
v-28h-99v35zM205 12.5q-18 18.5 -18 44.5q0 24 18 42t43 18t43.5 -18t18.5 -42q0 -26 -18 -44.5t-44 -18.5q-25 0 -43 18.5z" />
    <glyph glyph-name="questiondown.ss07" horiz-adv-x="506" 
d="M225 401.5q-18 18.5 -18 43.5t18 43t43 18t43 -18t18 -43q0 -26 -18 -44t-43 -18t-43 18.5zM150 -179q-51 25 -80.5 69.5t-29.5 100.5q0 40 13 69t32.5 48.5t50.5 43.5q29 23 45 39t27 39t11 53v21h100v-28q0 -45 -13.5 -76.5t-33 -52t-50.5 -44.5q-36 -28 -53.5 -50.5
t-17.5 -57.5q0 -46 32 -76t81 -30q51 0 83.5 33t34.5 80h104q-1 -61 -32 -108t-81.5 -72.5t-109.5 -25.5q-62 0 -113 25z" />
    <glyph glyph-name="numbersign.sc" horiz-adv-x="584" 
d="M579 439l-19 -74h-104l-44 -160h104l-21 -74h-103l-36 -131h-77l36 131h-130l-36 -131h-76l36 131h-104l20 74h104l44 160h-104l20 74h104l36 131h76l-36 -131h130l36 131h77l-36 -131h103zM205 205h130l44 160h-130z" />
    <glyph glyph-name="uni2116.sc" horiz-adv-x="968" 
d="M147 570l350 -397v397h100v-570h-71l-350 397v-397h-100v570h71zM734 168.5q-31 17.5 -49 47.5t-18 66t18 66t49 47.5t70 17.5q38 0 69 -17.5t49 -47.5t18 -66t-18 -66t-49 -47.5t-69 -17.5q-39 0 -70 17.5zM758.5 328q-17.5 -18 -17.5 -46t17.5 -46t45.5 -18
q27 0 44.5 18t17.5 46t-17.5 46t-44.5 18q-28 0 -45.5 -18zM918 0h-228v83h228v-83z" />
    <glyph glyph-name="ampersand.sc" horiz-adv-x="565" 
d="M563 0h-117l-59 62q-76 -73 -179 -73q-80 0 -126.5 41t-46.5 106q0 80 76 140l43 34l-28 30q-23 24 -36.5 49t-13.5 58q0 36 18.5 67t53 49t80.5 18t80.5 -17.5t53 -47t18.5 -64.5q0 -37 -17 -66t-56 -60l-30 -24l108 -114l61 70h114l-116 -133zM220 362l20 15
q24 19 36.5 35t12.5 38q0 21 -16.5 36.5t-44.5 15.5t-44 -17t-16 -40q0 -19 9 -33t29 -35zM274 83.5q25 11.5 54 41.5l-117 125l-36 -28q-24 -19 -33.5 -36.5t-9.5 -42.5q0 -29 21.5 -50t63.5 -21q32 0 57 11.5z" />
    <glyph glyph-name="section.sc" horiz-adv-x="549" 
d="M479 128.5q-12 -28.5 -34 -50.5q30 -36 30 -90q0 -45 -24.5 -81t-69 -56.5t-102.5 -20.5q-95 0 -155 46.5t-61 132.5h100q1 -41 31.5 -66.5t84.5 -25.5q40 0 66 19t26 48q0 51 -67 68l-93 22q-76 19 -114 53.5t-38 99.5q0 27 12.5 55.5t34.5 51.5q-29 35 -29 89
q0 45 24.5 81t68.5 56.5t100 20.5q58 0 105.5 -21.5t75.5 -62t28 -95.5h-100q0 38 -30 64.5t-79 26.5q-38 0 -63.5 -19t-25.5 -47q0 -52 67 -68l92 -22q75 -19 113 -53.5t38 -99.5q0 -27 -12 -55.5zM328 140q25 -6 44 -13q16 20 16 54q0 24 -16.5 40.5t-46.5 24.5l-101 25
q-19 5 -45 14q-17 -23 -17 -55q0 -24 17 -40.5t48 -24.5z" />
    <glyph glyph-name="Iacute_J.loclNLD" horiz-adv-x="830" 
d="M205 0h-110v700h110v-700zM182 763h-89l93 147h101zM410 18.5q-51 29.5 -79 80.5t-28 114h110q0 -55 31.5 -88t82.5 -33q52 0 82.5 34.5t30.5 95.5v478h110v-479q0 -67 -28 -120t-78.5 -82.5t-116.5 -29.5t-117 29.5zM726 763h-89l93 147h101z" />
    <glyph glyph-name="i.loclTRK" horiz-adv-x="247" 
d="M176 0h-104v500h104v-500zM180 589h-114v106h114v-106z" />
    <glyph glyph-name="iacute_j.loclNLD" horiz-adv-x="494" 
d="M176 0h-104v500h104v-500zM155 568h-89l93 146h101zM195 -206v97h44q38 0 59 21t21 58v530h104v-545q0 -73 -44.5 -117t-119.5 -44h-64zM402 568h-89l93 146h101z" />
    <glyph glyph-name="a.sc" horiz-adv-x="586" 
d="M576 0h-113l-48 124h-245l-48 -124h-112l235 570h96zM382 218l-89 228l-89 -228h178z" />
    <glyph glyph-name="b.sc" horiz-adv-x="518" 
d="M451 252.5q27 -35.5 27 -82.5q0 -49 -26 -87.5t-76 -60.5t-119 -22h-181v570h175q94 0 148 -41.5t54 -109.5q0 -37 -20 -67t-54 -48q45 -16 72 -51.5zM180 481v-145h73q45 0 69.5 19t24.5 54q0 34 -24.5 53t-69.5 19h-73zM264 89q51 0 79 22t28 60t-28 59.5t-79 21.5h-84
v-163h84z" />
    <glyph glyph-name="c.sc" horiz-adv-x="651" 
d="M190 27q-69 38 -110 106t-41 152t41 152t110 106t150 38q99 0 174 -56t104 -150h-108q-24 49 -68 79t-102 30q-54 0 -98.5 -26t-70 -71.5t-25.5 -101.5t25.5 -101.5t70 -71.5t98.5 -26q59 0 104 30t68 79h109q-29 -95 -105 -150.5t-176 -55.5q-81 0 -150 38z" />
    <glyph glyph-name="d.sc" horiz-adv-x="612" 
d="M76 0v570h180q96 0 167.5 -35.5t110.5 -100t39 -149.5t-39 -149.5t-110.5 -100t-167.5 -35.5h-180zM255 97q98 0 154.5 51t56.5 137t-56.5 137t-154.5 51h-73v-376h73z" />
    <glyph glyph-name="e.sc" horiz-adv-x="479" 
d="M180 247v-153h251v-94h-355v570h346v-94h-242v-135h234v-94h-234z" />
    <glyph glyph-name="f.sc" horiz-adv-x="428" 
d="M391 570v-97h-211v-140h203v-96h-203v-237h-104v570h315z" />
    <glyph glyph-name="g.sc" horiz-adv-x="663" 
d="M323 316h309v-28q0 -87 -37 -155t-103.5 -106t-152.5 -38q-81 0 -149.5 38t-109.5 106t-41 152t41 152t109.5 106t149.5 38q98 0 174 -52t109 -142h-112q-24 44 -67.5 70.5t-103.5 26.5q-54 0 -98 -26t-69.5 -71.5t-25.5 -102.5q0 -56 25.5 -101t70 -71t97.5 -26
q71 0 121 36.5t64 100.5h-201v93z" />
    <glyph glyph-name="h.sc" horiz-adv-x="628" 
d="M448 342v228h104v-570h-104v245h-268v-245h-104v570h104v-228h268z" />
    <glyph glyph-name="i.sc" horiz-adv-x="265" 
d="M185 0h-104v570h104v-570z" />
    <glyph glyph-name="j.sc" horiz-adv-x="457" 
d="M94 14.5q-44 25.5 -67.5 69t-23.5 96.5h103q0 -43 24.5 -68.5t66.5 -25.5q41 0 65.5 27t24.5 73v384h104v-385q0 -56 -24 -100.5t-68 -70t-102 -25.5q-59 0 -103 25.5z" />
    <glyph glyph-name="k.sc" horiz-adv-x="550" 
d="M287 295l261 -295h-135l-233 266v-266h-104v570h104v-256l220 256h128z" />
    <glyph glyph-name="l.sc" horiz-adv-x="433" 
d="M408 0h-332v570h104v-473h228v-97z" />
    <glyph glyph-name="m.sc" horiz-adv-x="795" 
d="M668 570l79 -570h-105l-48 369l-168 -369h-56l-169 369l-49 -369h-104l79 570h85l187 -408l186 408h83z" />
    <glyph glyph-name="n.sc" horiz-adv-x="683" 
d="M507 172v398h100v-570h-71l-360 398v-398h-100v570h71z" />
    <glyph glyph-name="o.sc" horiz-adv-x="680" 
d="M190 27q-69 38 -110 106t-41 152t41 152t110 106t150 38q82 0 151 -38t109.5 -106t40.5 -152t-40.5 -152t-109.5 -106t-151 -38q-81 0 -150 38zM438.5 112q44.5 26 70 71.5t25.5 101.5t-25.5 101.5t-70 71.5t-98.5 26t-98.5 -26t-70 -71.5t-25.5 -101.5t25.5 -101.5
t70 -71.5t98.5 -26t98.5 26z" />
    <glyph glyph-name="p.sc" horiz-adv-x="504" 
d="M267 570q63 0 110.5 -23.5t73 -65t25.5 -93.5t-25.5 -93.5t-73 -64.5t-110.5 -23h-87v-207h-104v570h191zM264 303q50 0 77.5 23t27.5 62q0 40 -27.5 62.5t-77.5 22.5h-84v-170h84z" />
    <glyph glyph-name="q.sc" horiz-adv-x="680" 
d="M658 -75h-119l-76 89q-59 -25 -123 -25q-81 0 -150 38t-110 106t-41 152t41 152t110 106t150 38q82 0 151 -38t109.5 -106t40.5 -152q0 -67 -26.5 -124.5t-73.5 -98.5zM395 94l-108 126h119l69 -81q28 27 43.5 64.5t15.5 81.5q0 56 -25.5 101.5t-70 71.5t-98.5 26
t-98.5 -26t-70 -71.5t-25.5 -101.5t25.5 -101.5t70 -71.5t98.5 -26q28 0 55 8z" />
    <glyph glyph-name="r.sc" horiz-adv-x="545" 
d="M418 0l-174 205h-64v-205h-104v570h191q63 0 110.5 -23.5t73 -65t25.5 -94.5q0 -59 -31 -103t-86 -64l187 -220h-128zM180 476v-177h81q52 0 80 24t28 64q0 41 -28.5 65t-79.5 24h-81z" />
    <glyph glyph-name="s.sc" horiz-adv-x="516" 
d="M107 38.5q-59 49.5 -62 134.5h103q2 -40 32.5 -65.5t82.5 -25.5q49 0 75 19.5t26 50.5q0 26 -16 43t-40.5 27t-66.5 23q-58 19 -94 36t-61.5 51t-25.5 89q0 46 25.5 82.5t71 57t103.5 20.5q53 0 98.5 -20.5t73 -59.5t29.5 -91h-101q-2 32 -29.5 55t-72.5 23
q-40 0 -65.5 -18t-25.5 -48q0 -35 29 -53t91 -37q57 -17 94 -35t63.5 -53t26.5 -91q0 -46 -25.5 -83.5t-73 -59t-109.5 -21.5q-97 0 -156 49.5z" />
    <glyph glyph-name="t.sc" horiz-adv-x="438" 
d="M271 0h-104v473h-149v97h403v-97h-150v-473z" />
    <glyph glyph-name="u.sc" horiz-adv-x="603" 
d="M177.5 18q-53.5 29 -82.5 81t-29 120v351h104v-347q0 -60 34.5 -98.5t97.5 -38.5q62 0 96.5 38.5t34.5 98.5v347h104v-351q0 -68 -29 -120t-82 -81t-124 -29t-124.5 29z" />
    <glyph glyph-name="v.sc" horiz-adv-x="553" 
d="M278 154l150 416h112l-222 -570h-84l-220 570h113z" />
    <glyph glyph-name="w.sc" horiz-adv-x="853" 
d="M601 167l129 403h109l-196 -570h-81l-136 413l-136 -413h-80l-196 570h111l128 -403l134 403h79z" />
    <glyph glyph-name="x.sc" horiz-adv-x="535" 
d="M335 295l183 -295h-117l-134 223l-134 -223h-116l183 295l-166 275h116l118 -203l118 203h115z" />
    <glyph glyph-name="y.sc" horiz-adv-x="499" 
d="M251 327l129 243h114l-192 -343v-227h-104v227l-193 343h116z" />
    <glyph glyph-name="z.sc" horiz-adv-x="486" 
d="M438 506l-265 -409h281v-97h-417v64l265 409h-249v97h385v-64z" />
    <glyph glyph-name="aacute.sc" horiz-adv-x="586" 
d="M576 0h-113l-48 124h-245l-48 -124h-112l235 570h96zM382 218l-89 228l-89 -228h178zM325 638h-89l93 146h101z" />
    <glyph glyph-name="abreve.sc" horiz-adv-x="586" 
d="M576 0h-113l-48 124h-245l-48 -124h-112l235 570h96zM382 218l-89 228l-89 -228h178zM177.5 671q-43.5 41 -47.5 104h82q4 -35 26 -54t56 -19t56 19t26 54h81q-4 -63 -47 -104t-116 -41t-116.5 41z" />
    <glyph glyph-name="acircumflex.sc" horiz-adv-x="586" 
d="M576 0h-113l-48 124h-245l-48 -124h-112l235 570h96zM382 218l-89 228l-89 -228h178zM222 638h-97l127 141h83l126 -141h-96l-71 80z" />
    <glyph glyph-name="adieresis.sc" horiz-adv-x="586" 
d="M576 0h-113l-48 124h-245l-48 -124h-112l235 570h96zM382 218l-89 228l-89 -228h178zM247 659h-102v106h102v-106zM442 659h-101v106h101v-106z" />
    <glyph glyph-name="agrave.sc" horiz-adv-x="586" 
d="M576 0h-113l-48 124h-245l-48 -124h-112l235 570h96zM382 218l-89 228l-89 -228h178zM347 638h-91l-105 146h103z" />
    <glyph glyph-name="amacron.sc" horiz-adv-x="586" 
d="M576 0h-113l-48 124h-245l-48 -124h-112l235 570h96zM382 218l-89 228l-89 -228h178zM445 669h-302v78h302v-78z" />
    <glyph glyph-name="aogonek.sc" horiz-adv-x="586" 
d="M512 -127.5q17 -14.5 49 -14.5h15v-73h-33q-54 0 -89 29.5t-35 82.5q0 33 16.5 59t42.5 44h-15l-48 124h-245l-48 -124h-112l235 570h96l235 -570q-36 -13 -58.5 -37t-22.5 -51q0 -25 17 -39.5zM382 218l-89 228l-89 -228h178z" />
    <glyph glyph-name="aring.sc" horiz-adv-x="586" 
d="M576 0h-113l-48 124h-245l-48 -124h-112l235 570h96zM382 218l-89 228l-89 -228h178zM219.5 650q-29.5 28 -29.5 70t29.5 70.5t74.5 28.5t74.5 -28.5t29.5 -70.5t-29.5 -70t-74.5 -28t-74.5 28zM325 690q12 12 12 30q0 19 -12 31t-31 12t-31 -12t-12 -31q0 -18 12 -30
t31 -12t31 12z" />
    <glyph glyph-name="atilde.sc" horiz-adv-x="586" 
d="M576 0h-113l-48 124h-245l-48 -124h-112l235 570h96zM382 218l-89 228l-89 -228h178zM132 668q0 48 24 75t66 27q22 0 39.5 -7.5t44.5 -23.5q31 -20 45 -20q31 0 31 43v8h72v-22q0 -48 -24 -75t-65 -27q-22 0 -40 7.5t-45 23.5q-31 20 -45 20q-30 0 -30 -43v-8h-73v22z
" />
    <glyph glyph-name="ae.sc" horiz-adv-x="774" 
d="M475 247v-150h251v-97h-355v135h-216l-85 -135h-120l367 570h400v-97h-242v-130h234v-96h-234zM371 476l-156 -247h156v247z" />
    <glyph glyph-name="cacute.sc" horiz-adv-x="651" 
d="M190 27q-69 38 -110 106t-41 152t41 152t110 106t150 38q99 0 174 -56t104 -150h-108q-24 49 -68 79t-102 30q-54 0 -98.5 -26t-70 -71.5t-25.5 -101.5t25.5 -101.5t70 -71.5t98.5 -26q59 0 104 30t68 79h109q-29 -95 -105 -150.5t-176 -55.5q-81 0 -150 38zM374 638h-89
l93 146h101z" />
    <glyph glyph-name="ccaron.sc" horiz-adv-x="651" 
d="M190 27q-69 38 -110 106t-41 152t41 152t110 106t150 38q99 0 174 -56t104 -150h-108q-24 49 -68 79t-102 30q-54 0 -98.5 -26t-70 -71.5t-25.5 -101.5t25.5 -101.5t70 -71.5t98.5 -26q59 0 104 30t68 79h109q-29 -95 -105 -150.5t-176 -55.5q-81 0 -150 38zM384 638h-83
l-127 141h97l71 -80l72 80h96z" />
    <glyph glyph-name="ccedilla.sc" horiz-adv-x="651" 
d="M621 195q-27 -89 -95.5 -143t-159.5 -62l-13 -29q39 -5 59.5 -29t20.5 -54q0 -45 -28.5 -69t-74.5 -24h-59v61h47q22 0 33 9.5t11 24.5q0 16 -11 25t-33 9h-36v39l17 39q-72 9 -131.5 49t-94 103.5t-34.5 140.5q0 84 41 152t110 106t150 38q99 0 174 -56t104 -150h-108
q-24 49 -68 79t-102 30q-54 0 -98.5 -26t-70 -71.5t-25.5 -101.5t25.5 -101.5t70 -71.5t98.5 -26q59 0 104 30t68 79h109z" />
    <glyph glyph-name="ccircumflex.sc" horiz-adv-x="651" 
d="M190 27q-69 38 -110 106t-41 152t41 152t110 106t150 38q99 0 174 -56t104 -150h-108q-24 49 -68 79t-102 30q-54 0 -98.5 -26t-70 -71.5t-25.5 -101.5t25.5 -101.5t70 -71.5t98.5 -26q59 0 104 30t68 79h109q-29 -95 -105 -150.5t-176 -55.5q-81 0 -150 38zM271 638h-97
l127 141h83l126 -141h-96l-71 80z" />
    <glyph glyph-name="cdotaccent.sc" horiz-adv-x="651" 
d="M190 27q-69 38 -110 106t-41 152t41 152t110 106t150 38q99 0 174 -56t104 -150h-108q-24 49 -68 79t-102 30q-54 0 -98.5 -26t-70 -71.5t-25.5 -101.5t25.5 -101.5t70 -71.5t98.5 -26q59 0 104 30t68 79h109q-29 -95 -105 -150.5t-176 -55.5q-81 0 -150 38zM395 659
h-105v106h105v-106z" />
    <glyph glyph-name="eth.sc" horiz-adv-x="622" 
d="M266 570q96 0 167.5 -35.5t110.5 -100t39 -149.5t-39 -149.5t-110.5 -100t-167.5 -35.5h-180v241h-83v90h83v239h180zM265 97q98 0 154.5 51t56.5 137t-56.5 137t-154.5 51h-73v-142h150v-90h-150v-144h73z" />
    <glyph glyph-name="dcaron.sc" horiz-adv-x="612" 
d="M76 0v570h180q96 0 167.5 -35.5t110.5 -100t39 -149.5t-39 -149.5t-110.5 -100t-167.5 -35.5h-180zM255 97q98 0 154.5 51t56.5 137t-56.5 137t-154.5 51h-73v-376h73zM354 638h-83l-127 141h97l71 -80l72 80h96z" />
    <glyph glyph-name="dcroat.sc" horiz-adv-x="622" 
d="M266 570q96 0 167.5 -35.5t110.5 -100t39 -149.5t-39 -149.5t-110.5 -100t-167.5 -35.5h-180v241h-83v90h83v239h180zM265 97q98 0 154.5 51t56.5 137t-56.5 137t-154.5 51h-73v-142h150v-90h-150v-144h73z" />
    <glyph glyph-name="eacute.sc" horiz-adv-x="479" 
d="M180 247v-153h251v-94h-355v570h346v-94h-242v-135h234v-94h-234zM282 638h-89l93 146h101z" />
    <glyph glyph-name="ebreve.sc" horiz-adv-x="479" 
d="M180 247v-153h251v-94h-355v570h346v-94h-242v-135h234v-94h-234zM134.5 671q-43.5 41 -47.5 104h82q4 -35 26 -54t56 -19t56 19t26 54h81q-4 -63 -47 -104t-116 -41t-116.5 41z" />
    <glyph glyph-name="ecaron.sc" horiz-adv-x="479" 
d="M180 247v-153h251v-94h-355v570h346v-94h-242v-135h234v-94h-234zM292 638h-83l-127 141h97l71 -80l72 80h96z" />
    </font>
</defs>
</svg>
