<?xml version="1.0" encoding="utf-8"?>
<!-- Generator: Adobe Illustrator 28.1.0, SVG Export Plug-In . SVG Version: 6.00 Build 0)  -->
<svg version="1.1" id="Calque_1" xmlns="http://www.w3.org/2000/svg" xmlns:xlink="http://www.w3.org/1999/xlink" x="0px" y="0px"
	 viewBox="0 0 800 800" style="enable-background:new 0 0 800 800;" xml:space="preserve">
<style type="text/css">
	.st0{fill:#FFFFFF;}
</style>
<g id="SVGRepo_bgCarrier">
</g>
<g id="SVGRepo_tracerCarrier">
</g>
<g id="SVGRepo_iconCarrier">
	<path class="st0" d="M712.8,21.5H91.3c-8.1-0.4-16,0.9-23.6,3.6S53.3,32,47.4,37.4c-6,5.4-10.7,11.9-14.1,19.2S28,71.8,27.6,79.7
		v622.9c0.5,16.8,7.4,32.7,19.2,44.6c11.8,11.8,27.8,18.8,44.6,19.2H713c16.3-0.8,31.6-7.8,42.8-19.7c11.2-11.9,17.1-27.8,16.8-44
		v-623c0.1-7.8-1.3-15.5-4.3-22.7s-7.4-13.7-13-19.2s-12.2-9.7-19.5-12.5C728.5,22.5,720.7,21.2,712.8,21.5z M260.3,642.6H151.9
		v-332h108.4V642.6z M208.7,260.4c-7.6,0.3-15.2-1-22.2-3.8c-7-2.7-13.4-7-18.8-12.4c-5.3-5.4-9.5-11.8-12.2-18.8
		c-2.7-7.1-4-14.6-3.7-22.2c-0.4-7.7,0.9-15.2,3.7-22.4c2.7-7.1,7-13.6,12.5-19c5.4-5.4,11.9-9.6,19.1-12.3s14.8-4,22.4-3.5
		c7.6-0.3,15.2,1,22.2,3.8c7,2.7,13.4,7,18.8,12.4c5.3,5.4,9.5,11.8,12.2,18.8c2.7,7.1,4,14.6,3.7,22.2c0.4,7.7-0.9,15.2-3.7,22.4
		c-2.7,7.1-7,13.6-12.5,19c-5.4,5.4-11.9,9.6-19.1,12.3C223.9,259.6,216.3,260.7,208.7,260.4z M648.6,642.6H539.7V461.1
		c0-43.3-15.3-73.1-54-73.1c-12,0.1-23.7,3.9-33.4,10.9c-9.8,7-17.1,16.9-21,28.2c-3,8.5-4.3,17.5-3.7,26.5v189H320.4v-332h107.1
		v46.6c9.6-17.5,23.7-32,40.9-42c17.2-9.9,36.9-15,56.8-14.4c70.3,0,123.4,46.6,123.4,145.8V642.6z"/>
</g>
</svg>
